  0
SECTION
  2
HEADER
  9
$ACADVER
  1
AC1015
  9
$ACADMAINTVER
 70
     6
  9
$DWGCODEPAGE
  3
ANSI_1252
  9
$INSBASE
 10
0.0
 20
0.0
 30
0.0
  9
$EXTMIN
 10
0.0
 20
0.0
 30
0.0
  9
$EXTMAX
 10
700.0
 20
600.0
 30
0.0
  9
$LIMMIN
 10
0.0
 20
0.0
  9
$LIMMAX
 10
700.0
 20
600.0
  9
$ORTHOMODE
 70
     0
  9
$REGENMODE
 70
     1
  9
$FILLMODE
 70
     1
  9
$QTEXTMODE
 70
     0
  9
$MIRRTEXT
 70
     1
  9
$LTSCALE
 40
1.0
  9
$ATTMODE
 70
     1
  9
$TEXTSIZE
 40
3.5
  9
$TRACEWID
 40
1.0
  9
$TEXTSTYLE
  7
Standard
  9
$CLAYER
  8
0
  9
$CELTYPE
  6
ByLayer
  9
$CECOLOR
 62
   256
  9
$CELTSCALE
 40
1.0
  9
$DISPSILH
 70
     0
  9
$DIMSCALE
 40
1.0
  9
$DIMASZ
 40
3.302
  9
$DIMEXO
 40
1.27
  9
$DIMDLI
 40
3.75
  9
$DIMRND
 40
0.0
  9
$DIMDLE
 40
0.0
  9
$DIMEXE
 40
3.175
  9
$DIMTP
 40
0.0
  9
$DIMTM
 40
0.0
  9
$DIMTXT
 40
3.5
  9
$DIMCEN
 40
2.5
  9
$DIMTSZ
 40
0.0
  9
$DIMTOL
 70
     0
  9
$DIMLIM
 70
     0
  9
$DIMTIH
 70
     1
  9
$DIMTOH
 70
     1
  9
$DIMSE1
 70
     0
  9
$DIMSE2
 70
     0
  9
$DIMTAD
 70
     1
  9
$DIMZIN
 70
     1
  9
$DIMBLK
  1

  9
$DIMASO
 70
     1
  9
$DIMSHO
 70
     1
  9
$DIMPOST
  1

  9
$DIMAPOST
  1

  9
$DIMALT
 70
     0
  9
$DIMALTD
 70
     3
  9
$DIMALTF
 40
0.0393700787
  9
$DIMLFAC
 40
1.0
  9
$DIMTOFL
 70
     1
  9
$DIMTVP
 40
0.0
  9
$DIMTIX
 70
     0
  9
$DIMSOXD
 70
     0
  9
$DIMSAH
 70
     0
  9
$DIMBLK1
  1

  9
$DIMBLK2
  1

  9
$DIMSTYLE
  2
ISO-25
  9
$DIMCLRD
 70
     0
  9
$DIMCLRE
 70
     0
  9
$DIMCLRT
 70
     0
  9
$DIMTFAC
 40
1.0
  9
$DIMGAP
 40
1.524
  9
$DIMJUST
 70
     0
  9
$DIMSD1
 70
     0
  9
$DIMSD2
 70
     0
  9
$DIMTOLJ
 70
     0
  9
$DIMTZIN
 70
     1
  9
$DIMALTZ
 70
     0
  9
$DIMALTTZ
 70
     0
  9
$DIMUPT
 70
     0
  9
$DIMDEC
 70
     2
  9
$DIMTDEC
 70
     2
  9
$DIMALTU
 70
     2
  9
$DIMALTTD
 70
     3
  9
$DIMTXSTY
  7
Standard
  9
$DIMAUNIT
 70
     0
  9
$DIMADEC
 70
     2
  9
$DIMALTRND
 40
0.0
  9
$DIMAZIN
 70
     0
  9
$DIMDSEP
 70
    44
  9
$DIMATFIT
 70
     3
  9
$DIMFRAC
 70
     0
  9
$DIMLDRBLK
  1

  9
$DIMLUNIT
 70
     2
  9
$DIMLWD
 70
    -2
  9
$DIMLWE
 70
    -2
  9
$DIMTMOVE
 70
     0
  9
$LUNITS
 70
     2
  9
$LUPREC
 70
     2
  9
$SKETCHINC
 40
1.0
  9
$FILLETRAD
 40
10.0
  9
$AUNITS
 70
     0
  9
$AUPREC
 70
     2
  9
$MENU
  1
.
  9
$ELEVATION
 40
0.0
  9
$PELEVATION
 40
0.0
  9
$THICKNESS
 40
0.0
  9
$LIMCHECK
 70
     0
  9
$CHAMFERA
 40
0.0
  9
$CHAMFERB
 40
0.0
  9
$CHAMFERC
 40
0.0
  9
$CHAMFERD
 40
0.0
  9
$SKPOLY
 70
     0
  9
$TDCREATE
 40
2459996.682365787
  9
$TDUCREATE
 40
2459996.974032454
  9
$TDUPDATE
 40
2459996.682366134
  9
$TDUUPDATE
 40
2459996.974032801
  9
$TDINDWG
 40
0.0000000116
  9
$TDUSRTIMER
 40
0.0000000116
  9
$USRTIMER
 70
     1
  9
$ANGBASE
 50
0.0
  9
$ANGDIR
 70
     0
  9
$PDMODE
 70
     0
  9
$PDSIZE
 40
-1.0
  9
$PLINEWID
 40
0.0
  9
$SPLFRAME
 70
     0
  9
$SPLINETYPE
 70
     6
  9
$SPLINESEGS
 70
     8
  9
$HANDSEED
  5
149
  9
$SURFTAB1
 70
     6
  9
$SURFTAB2
 70
     6
  9
$SURFTYPE
 70
     6
  9
$SURFU
 70
     6
  9
$SURFV
 70
     6
  9
$UCSBASE
  2

  9
$UCSNAME
  2

  9
$UCSORG
 10
0.0
 20
0.0
 30
0.0
  9
$UCSXDIR
 10
1.0
 20
0.0
 30
0.0
  9
$UCSYDIR
 10
0.0
 20
1.0
 30
0.0
  9
$UCSORTHOREF
  2

  9
$UCSORTHOVIEW
 70
     0
  9
$UCSORGTOP
 10
0.0
 20
0.0
 30
0.0
  9
$UCSORGBOTTOM
 10
0.0
 20
0.0
 30
0.0
  9
$UCSORGLEFT
 10
0.0
 20
0.0
 30
0.0
  9
$UCSORGRIGHT
 10
0.0
 20
0.0
 30
0.0
  9
$UCSORGFRONT
 10
0.0
 20
0.0
 30
0.0
  9
$UCSORGBACK
 10
0.0
 20
0.0
 30
0.0
  9
$PUCSBASE
  2

  9
$PUCSNAME
  2

  9
$PUCSORG
 10
0.0
 20
0.0
 30
0.0
  9
$PUCSXDIR
 10
1.0
 20
0.0
 30
0.0
  9
$PUCSYDIR
 10
0.0
 20
1.0
 30
0.0
  9
$PUCSORTHOREF
  2

  9
$PUCSORTHOVIEW
 70
     0
  9
$PUCSORGTOP
 10
0.0
 20
0.0
 30
0.0
  9
$PUCSORGBOTTOM
 10
0.0
 20
0.0
 30
0.0
  9
$PUCSORGLEFT
 10
0.0
 20
0.0
 30
0.0
  9
$PUCSORGRIGHT
 10
0.0
 20
0.0
 30
0.0
  9
$PUCSORGFRONT
 10
0.0
 20
0.0
 30
0.0
  9
$PUCSORGBACK
 10
0.0
 20
0.0
 30
0.0
  9
$USERI1
 70
     0
  9
$USERI2
 70
     0
  9
$USERI3
 70
     0
  9
$USERI4
 70
     0
  9
$USERI5
 70
     0
  9
$USERR1
 40
0.0
  9
$USERR2
 40
0.0
  9
$USERR3
 40
0.0
  9
$USERR4
 40
0.0
  9
$USERR5
 40
0.0
  9
$WORLDVIEW
 70
     1
  9
$SHADEDGE
 70
     3
  9
$SHADEDIF
 70
    70
  9
$TILEMODE
 70
     1
  9
$MAXACTVP
 70
    64
  9
$PINSBASE
 10
0.0
 20
0.0
 30
0.0
  9
$PLIMCHECK
 70
     0
  9
$PEXTMIN
 10
1.0000000000E+20
 20
1.0000000000E+20
 30
1.0000000000E+20
  9
$PEXTMAX
 10
-1.0000000000E+20
 20
-1.0000000000E+20
 30
-1.0000000000E+20
  9
$PLIMMIN
 10
0.0
 20
0.0
  9
$PLIMMAX
 10
420.0
 20
297.0
  9
$UNITMODE
 70
     0
  9
$VISRETAIN
 70
     1
  9
$PLINEGEN
 70
     0
  9
$PSLTSCALE
 70
     1
  9
$TREEDEPTH
 70
  3020
  9
$CMLSTYLE
  2
Standard
  9
$CMLJUST
 70
     0
  9
$CMLSCALE
 40
20.0
  9
$PROXYGRAPHICS
 70
     1
  9
$MEASUREMENT
 70
     1
  9
$CELWEIGHT
370
    -1
  9
$ENDCAPS
280
     0
  9
$JOINSTYLE
280
     0
  9
$LWDISPLAY
290
     1
  9
$INSUNITS
 70
     4
  9
$HYPERLINKBASE
  1

  9
$STYLESHEET
  1

  9
$XEDIT
290
     1
  9
$CEPSNTYPE
380
     0
  9
$PSTYLEMODE
290
     1
  9
$FINGERPRINTGUID
  2
{3ab212a6-879d-4f48-a8ea-bca75b337326}
  9
$VERSIONGUID
  2
{FAEB1C32-E019-11D5-929B-00C0DF256EC4}
  9
$EXTNAMES
290
     1
  9
$PSVPSCALE
 40
0.0
  9
$OLESTARTUP
290
     0
  0
ENDSEC
  0
SECTION
  2
CLASSES
  0
CLASS
  1
ACDBDICTIONARYWDFLT
  2
AcDbDictionaryWithDefault
  3
ObjectDBX Classes
 90
        0
280
     0
281
     0
  0
CLASS
  1
VISUALSTYLE
  2
AcDbVisualStyle
  3
ObjectDBX Classes
 90
     4095
280
     0
281
     0
  0
CLASS
  1
MATERIAL
  2
AcDbMaterial
  3
ObjectDBX Classes
 90
     1153
280
     0
281
     0
  0
CLASS
  1
SCALE
  2
AcDbScale
  3
ObjectDBX Classes
 90
     1153
280
     0
281
     0
  0
CLASS
  1
TABLESTYLE
  2
AcDbTableStyle
  3
ObjectDBX Classes
 90
     4095
280
     0
281
     0
  0
CLASS
  1
MLEADERSTYLE
  2
AcDbMLeaderStyle
  3
ACDB_MLEADERSTYLE_CLASS
 90
     4095
280
     0
281
     0
  0
CLASS
  1
SUN
  2
AcDbSun
  3
SCENEOE
 90
     1153
280
     0
281
     0
  0
CLASS
  1
ACDBPLACEHOLDER
  2
AcDbPlaceHolder
  3
ObjectDBX Classes
 90
        0
280
     0
281
     0
  0
CLASS
  1
LAYOUT
  2
AcDbLayout
  3
ObjectDBX Classes
 90
        0
280
     0
281
     0
  0
ENDSEC
  0
SECTION
  2
TABLES
  0
TABLE
  2
VPORT
  5
8
330
0
100
AcDbSymbolTable
 70
     1
  0
VPORT
  5
29
330
8
100
AcDbSymbolTableRecord
100
AcDbViewportTableRecord
  2
*Active
 70
     0
 10
0.0
 20
0.0
 11
1.0
 21
1.0
 12
350.0
 22
300.0
 13
0.0
 23
0.0
 14
10.0
 24
10.0
 15
10.0
 25
10.0
 16
0.0
 26
0.0
 36
1.0
 17
0.0
 27
0.0
 37
0.0
 40
600.0
 41
1.1666666667
 42
50.0
 43
0.0
 44
0.0
 50
0.0
 51
0.0
 71
     0
 72
  2000
 73
     1
 74
     3
 75
     0
 76
     0
 77
     0
 78
     0
281
     0
 65
     1
110
0.0
120
0.0
130
0.0
111
1.0
121
0.0
131
0.0
112
0.0
122
1.0
132
0.0
 79
     0
146
0.0
  0
ENDTAB
  0
TABLE
  2
LTYPE
  5
5
330
0
100
AcDbSymbolTable
 70
     6
  0
LTYPE
  5
14
330
5
100
AcDbSymbolTableRecord
100
AcDbLinetypeTableRecord
  2
ByBlock
 70
     0
  3

 72
    65
 73
     0
 40
0.0
  0
LTYPE
  5
15
330
5
100
AcDbSymbolTableRecord
100
AcDbLinetypeTableRecord
  2
ByLayer
 70
     0
  3

 72
    65
 73
     0
 40
0.0
  0
LTYPE
  5
16
330
5
100
AcDbSymbolTableRecord
100
AcDbLinetypeTableRecord
  2
Continuous
 70
     0
  3
Solid line
 72
    65
 73
     0
 40
0.0
  0
LTYPE
  5
6E
330
5
100
AcDbSymbolTableRecord
100
AcDbLinetypeTableRecord
  2
HIDDEN
 70
     0
  3
Hidden __ __ __ __ __ __ __ __ __ __ __ __ __ __
 72
    65
 73
     2
 40
1.905
 49
1.27
 74
     0
 49
-0.635
 74
     0
  0
LTYPE
  5
6F
330
5
100
AcDbSymbolTableRecord
100
AcDbLinetypeTableRecord
  2
PHANTOM
 70
     0
  3
Phantom ______  __  __  ______  __  __  ______
 72
    65
 73
     6
 40
12.7
 49
6.35
 74
     0
 49
-1.27
 74
     0
 49
1.27
 74
     0
 49
-1.27
 74
     0
 49
1.27
 74
     0
 49
-1.27
 74
     0
  0
LTYPE
  5
70
330
5
100
AcDbSymbolTableRecord
100
AcDbLinetypeTableRecord
  2
CENTER
 70
     0
  3
Center ____ _ ____ _ ____ _ ____ _ ____ _ ____
 72
    65
 73
     4
 40
10.16
 49
6.35
 74
     0
 49
-1.27
 74
     0
 49
1.27
 74
     0
 49
-1.27
 74
     0
  0
LTYPE
  5
71
330
5
100
AcDbSymbolTableRecord
100
AcDbLinetypeTableRecord
  2
CENTERX2
 70
     0
  3
Center (2x) ________  __  ________  __  _____
 72
    65
 73
     4
 40
20.32
 49
12.7
 74
     0
 49
-2.54
 74
     0
 49
2.54
 74
     0
 49
-2.54
 74
     0
  0
LTYPE
  5
72
330
5
100
AcDbSymbolTableRecord
100
AcDbLinetypeTableRecord
  2
DOT2
 70
     0
  3
Dot (.5x) ........................................
 72
    65
 73
     2
 40
0.635
 49
0.0
 74
     0
 49
-0.635
 74
     0
  0
ENDTAB
  0
TABLE
  2
LAYER
  5
2
330
0
100
AcDbSymbolTable
 70
     1
  0
LAYER
  5
10
330
2
100
AcDbSymbolTableRecord
100
AcDbLayerTableRecord
  2
0
 70
     0
 62
     7
  6
Continuous
370
    -3
390
F
  0
ENDTAB
  0
TABLE
  2
STYLE
  5
3
330
0
100
AcDbSymbolTable
 70
     2
  0
STYLE
  5
11
330
3
100
AcDbSymbolTableRecord
100
AcDbTextStyleTableRecord
  2
Standard
 70
     0
 40
0.0
 41
1.0
 50
0.0
 71
     0
 42
3.5
  3
txt
  4

  0
STYLE
  5
145
330
3
100
AcDbSymbolTableRecord
100
AcDbTextStyleTableRecord
  2
SLDTEXTSTYLE0
 70
     0
 40
0.0
 41
0.7
 50
0.0
 71
     0
 42
3.5
  3
TXT
  4

  0
ENDTAB
  0
TABLE
  2
VIEW
  5
6
330
0
100
AcDbSymbolTable
 70
     0
  0
ENDTAB
  0
TABLE
  2
UCS
  5
7
330
0
100
AcDbSymbolTable
 70
     0
  0
ENDTAB
  0
TABLE
  2
APPID
  5
9
330
0
100
AcDbSymbolTable
 70
     1
  0
APPID
  5
12
330
9
100
AcDbSymbolTableRecord
100
AcDbRegAppTableRecord
  2
ACAD
 70
     0
  0
ENDTAB
  0
TABLE
  2
DIMSTYLE
  5
A
330
0
100
AcDbSymbolTable
 70
     1
100
AcDbDimStyleTable
  0
DIMSTYLE
105
27
330
A
100
AcDbSymbolTableRecord
100
AcDbDimStyleTableRecord
  2
ISO-25
 70
     0
 41
2.5
 42
0.625
 43
3.75
 44
1.25
 73
     0
 74
     0
 77
     1
 78
     8
140
2.5
141
2.5
143
0.0393700787
147
0.625
171
     3
172
     1
178
     0
271
     2
272
     2
274
     3
278
    44
283
     0
284
     8
340
11
  0
ENDTAB
  0
TABLE
  2
BLOCK_RECORD
  5
1
330
0
100
AcDbSymbolTable
 70
     1
  0
BLOCK_RECORD
  5
1F
330
1
100
AcDbSymbolTableRecord
100
AcDbBlockTableRecord
  2
*Model_Space
340
22
  0
BLOCK_RECORD
  5
1B
330
1
100
AcDbSymbolTableRecord
100
AcDbBlockTableRecord
  2
*Paper_Space
340
1E
  0
BLOCK_RECORD
  5
23
330
1
100
AcDbSymbolTableRecord
100
AcDbBlockTableRecord
  2
*Paper_Space0
340
26
  0
ENDTAB
  0
ENDSEC
  0
SECTION
  2
BLOCKS
  0
BLOCK
  5
20
330
1F
100
AcDbEntity
  8
0
100
AcDbBlockBegin
  2
*Model_Space
 70
     0
 10
0.0
 20
0.0
 30
0.0
  3
*Model_Space
  1

  0
ENDBLK
  5
21
330
1F
100
AcDbEntity
  8
0
100
AcDbBlockEnd
  0
BLOCK
  5
1C
330
1B
100
AcDbEntity
 67
     1
  8
0
100
AcDbBlockBegin
  2
*Paper_Space
 70
     0
 10
0.0
 20
0.0
 30
0.0
  3
*Paper_Space
  1

  0
ENDBLK
  5
1D
330
1B
100
AcDbEntity
 67
     1
  8
0
100
AcDbBlockEnd
  0
BLOCK
  5
24
330
23
100
AcDbEntity
  8
0
100
AcDbBlockBegin
  2
*Paper_Space0
 70
     0
 10
0.0
 20
0.0
 30
0.0
  3
*Paper_Space0
  1

  0
ENDBLK
  5
25
330
23
100
AcDbEntity
  8
0
100
AcDbBlockEnd
  0
ENDSEC
  0
SECTION
  2
ENTITIES
  0
LINE
  5
73
330
1F
100
AcDbEntity
  8
0
  6
Continuous
 62
     7
100
AcDbLine
 10
636.4756993093
 20
94.4973422722
 30
0.0
 11
597.6642524989
 21
94.4973422722
 31
0.0
  0
LWPOLYLINE
  5
74
330
1F
100
AcDbEntity
  8
0
  6
Continuous
 62
     7
100
AcDbPolyline
 90
       75
 70
   128
 43
0.0
 10
635.321502504
 20
94.4973422722
 10
635.3218531554
 20
84.4973422722
 10
635.3218531554
 20
84.4973422722
 10
633.7192890528
 20
84.4973422722
 10
633.7192890528
 20
84.4973422722
 10
633.3827505913
 20
84.4993454773
 10
633.0682473862
 20
84.5093615029
 10
632.7797858477
 20
84.5233839388
 10
632.5133595657
 20
84.541412785
 10
632.26896854
 20
84.5674544516
 10
632.0486159759
 20
84.5975025286
 10
631.8523018734
 20
84.6335602209
 10
631.6800262323
 20
84.6756275286
 10
631.6800262323
 20
84.6756275286
 10
631.455667258
 20
84.7417332978
 10
631.2453307195
 20
84.8218615029
 10
631.0450102067
 20
84.9140089388
 10
630.8567089246
 20
85.0181756055
 10
630.6804268734
 20
85.1363647081
 10
630.5161640528
 20
85.2665730414
 10
630.361917258
 20
85.4108038106
 10
630.221692899
 20
85.5670538106
 10
630.0954909759
 20
85.7333198363
 10
629.9853146939
 20
85.9075986824
 10
629.8911640528
 20
86.0898903491
 10
629.8170454631
 20
86.2781916311
 10
629.7569493093
 20
86.4745057337
 10
629.7148820016
 20
86.6768294516
 10
629.6888403349
 20
86.8871659901
 10
629.6808275144
 20
87.1055153491
 10
629.6808275144
 20
87.1055153491
 10
629.6968531554
 20
87.385964067
 10
629.7429268734
 20
87.6543935542
 10
629.8190486682
 20
87.9088006055
 10
629.92521854
 20
88.1491852209
 10
630.0674461041
 20
88.3815570157
 10
630.2457313605
 20
88.6059159901
 10
630.4640807195
 20
88.822262144
 10
630.7184877708
 20
89.0325986824
 10
630.7184877708
 20
89.0325986824
 10
630.5081512323
 20
89.1427749645
 10
630.3118371298
 20
89.2589608619
 10
630.1315486682
 20
89.3811563747
 10
629.9632794375
 20
89.5113647081
 10
629.8110358477
 20
89.6455794516
 10
629.674817899
 20
89.7898102209
 10
629.550619181
 20
89.9380474004
 10
629.4424461041
 20
90.0942974004
 10
629.3482954631
 20
90.2585602209
 10
629.2661640528
 20
90.4288326568
 10
629.1980550785
 20
90.6051147081
 10
629.1399621298
 20
90.791412785
 10
629.0958916169
 20
90.9837204773
 10
629.06584354
 20
91.182037785
 10
629.0458114887
 20
91.3883679132
 10
629.0398018734
 20
91.6027108619
 10
629.0398018734
 20
91.6027108619
 10
629.0678467451
 20
92.0113647081
 10
629.1499781554
 20
92.4019897081
 10
629.2861961041
 20
92.7745858619
 10
629.4765005913
 20
93.1271499645
 10
629.7108755913
 20
93.4496659901
 10
629.9773018734
 20
93.7301147081
 10
630.2737762323
 20
93.9644897081
 10
630.6023018734
 20
94.1567974004
 10
630.7825903349
 20
94.2369256055
 10
630.9809076426
 20
94.3050345799
 10
631.1952505913
 20
94.3651307337
 10
631.425619181
 20
94.4132076568
 10
631.6720134118
 20
94.4492653491
 10
631.9344332836
 20
94.4753070157
 10
632.2128787964
 20
94.4913326568
 10
632.5093531554
 20
94.4973422722
 10
632.5093531554
 20
94.4973422722
 10
635.3218531554
 20
94.4973422722
  0
LWPOLYLINE
  5
75
330
1F
100
AcDbEntity
  8
0
  6
Continuous
 62
     7
100
AcDbPolyline
 90
       32
 70
   128
 43
0.0
 10
633.5266874405
 20
86.292214067
 10
633.5269813605
 20
88.4717012465
 10
633.5269813605
 20
88.4717012465
 10
633.05021854
 20
88.4717012465
 10
633.05021854
 20
88.4717012465
 10
632.8559076426
 20
88.4676948363
 10
632.675619181
 20
88.4536724004
 10
632.5093531554
 20
88.4296339388
 10
632.3531031554
 20
88.3955794516
 10
632.2108755913
 20
88.353512144
 10
632.0826704631
 20
88.3014288106
 10
631.9664845657
 20
88.2393294516
 10
631.862317899
 20
88.1692172722
 10
631.6940486682
 20
88.0049544516
 10
631.5718531554
 20
87.8126467593
 10
631.4997377708
 20
87.5922941952
 10
631.4756993093
 20
87.3458999645
 10
631.4756993093
 20
87.3458999645
 10
631.4977345657
 20
87.1155313747
 10
631.5678467451
 20
86.9112044516
 10
631.6820294375
 20
86.7309159901
 10
631.8422858477
 20
86.5766691952
 10
631.940442899
 20
86.510563426
 10
632.050619181
 20
86.4524704773
 10
632.1728146939
 20
86.4023903491
 10
632.3070294375
 20
86.3643294516
 10
632.4532634118
 20
86.3322781696
 10
632.6115166169
 20
86.3102429132
 10
632.7817890528
 20
86.2962204773
 10
632.9640807195
 20
86.292214067
 10
632.9640807195
 20
86.292214067
 10
633.5269813605
 20
86.292214067
  0
LWPOLYLINE
  5
76
330
1F
100
AcDbEntity
  8
0
  6
Continuous
 62
     7
100
AcDbPolyline
 90
       40
 70
   128
 43
0.0
 10
633.5266874405
 20
90.1383679132
 10
633.5269813605
 20
92.7024704773
 10
633.5269813605
 20
92.7024704773
 10
633.0101544375
 20
92.7024704773
 10
633.0101544375
 20
92.7024704773
 10
632.7036640528
 20
92.698464067
 10
632.4212121298
 20
92.6844416311
 10
632.1668050785
 20
92.6604031696
 10
631.9364364887
 20
92.6283518875
 10
631.7341127708
 20
92.5842813747
 10
631.5578307195
 20
92.5342012465
 10
631.4055871298
 20
92.4721018875
 10
631.2813884118
 20
92.4019897081
 10
631.1772217452
 20
92.3238647081
 10
631.0850743093
 20
92.2357236824
 10
631.0089525144
 20
92.1395698363
 10
630.9468531554
 20
92.0354031696
 10
630.8967730272
 20
91.9232236824
 10
630.86271854
 20
91.8010281696
 10
630.8406832836
 20
91.6708198363
 10
630.8346736682
 20
91.5325986824
 10
630.8346736682
 20
91.5325986824
 10
630.8426864887
 20
91.3743454773
 10
630.8667249503
 20
91.2261082978
 10
630.908792258
 20
91.0858839388
 10
630.9648820016
 20
90.9536724004
 10
631.0390005913
 20
90.8294736824
 10
631.1291448221
 20
90.7152909901
 10
631.2353146939
 20
90.6091211183
 10
631.3575102067
 20
90.510964067
 10
631.4997377708
 20
90.4228230414
 10
631.6640005913
 20
90.3487044516
 10
631.8482954631
 20
90.2846018875
 10
632.0546255913
 20
90.2325185542
 10
632.2829909759
 20
90.1904512465
 10
632.5333916169
 20
90.1624063747
 10
632.8058275144
 20
90.1443775286
 10
633.0982954631
 20
90.1383679132
 10
633.0982954631
 20
90.1383679132
 10
633.5269813605
 20
90.1383679132
  0
LWPOLYLINE
  5
77
330
1F
100
AcDbEntity
  8
0
  6
Continuous
 62
     7
100
AcDbPolyline
 90
       62
 70
   128
 43
0.0
 10
621.1422727676
 20
87.1896499645
 10
619.347494181
 20
87.1896499645
 10
619.347494181
 20
87.1896499645
 10
619.347494181
 20
94.4973422722
 10
619.347494181
 20
94.4973422722
 10
621.1423659759
 20
94.4973422722
 10
621.1423659759
 20
94.4973422722
 10
621.1423659759
 20
93.7000666311
 10
621.1423659759
 20
93.7000666311
 10
621.4127986682
 20
93.9284320157
 10
621.6832313605
 20
94.1247461183
 10
621.955667258
 20
94.2829993234
 10
622.2260999503
 20
94.4092012465
 10
622.5045454631
 20
94.5033518875
 10
622.7930070016
 20
94.5714608619
 10
623.0934877708
 20
94.6115249645
 10
623.4059877708
 20
94.6255474004
 10
623.4059877708
 20
94.6255474004
 10
623.7565486682
 20
94.6095217593
 10
624.0950903349
 20
94.557438426
 10
624.4196095657
 20
94.4733038106
 10
624.7341127708
 20
94.3551147081
 10
625.0365967452
 20
94.2028711183
 10
625.3270614887
 20
94.0165730414
 10
625.6035037964
 20
93.7982236824
 10
625.8699300785
 20
93.5438166311
 10
626.1143211041
 20
93.2653711183
 10
626.3266608477
 20
92.9708999645
 10
626.5049461041
 20
92.6604031696
 10
626.6511800785
 20
92.3318775286
 10
626.7653627708
 20
91.9893294516
 10
626.847494181
 20
91.6287525286
 10
626.8955711041
 20
91.2501467593
 10
626.9115967452
 20
90.8575185542
 10
626.9115967452
 20
90.8575185542
 10
626.8955711041
 20
90.4508679132
 10
626.8494973862
 20
90.0622461183
 10
626.769369181
 20
89.6916531696
 10
626.659192899
 20
89.3410922722
 10
626.51896854
 20
89.0085602209
 10
626.3446896939
 20
88.6960602209
 10
626.1403627708
 20
88.401589067
 10
625.9039845657
 20
88.1251467593
 10
625.6455711041
 20
87.8767493234
 10
625.3751384118
 20
87.6604031696
 10
625.0886800785
 20
87.4761082978
 10
624.7902025144
 20
87.3278711183
 10
624.4777025144
 20
87.2116852209
 10
624.1531832836
 20
87.1275506055
 10
623.8126384118
 20
87.0774704773
 10
623.4600743093
 20
87.0614448363
 10
623.4600743093
 20
87.0614448363
 10
623.1335518734
 20
87.0754672722
 10
622.8170454631
 20
87.1215409901
 10
622.5125582836
 20
87.1936563747
 10
622.2160839246
 20
87.2978230414
 10
621.9316287964
 20
87.432037785
 10
621.6571896939
 20
87.5963006055
 10
621.3947698221
 20
87.7886082978
 10
621.1423659759
 20
88.0129672722
 10
621.1423659759
 20
88.0129672722
 10
621.1423659759
 20
87.1896499645
  0
LWPOLYLINE
  5
78
330
1F
100
AcDbEntity
  8
0
  6
Continuous
 62
     7
100
AcDbPolyline
 90
       68
 70
   128
 43
0.0
 10
623.0830000015
 20
88.7281115029
 10
623.2978146939
 20
88.7381275286
 10
623.5021416169
 20
88.7641691952
 10
623.6984557195
 20
88.8102429132
 10
623.8847537964
 20
88.8763486824
 10
624.0610358477
 20
88.9584800927
 10
624.2293050785
 20
89.0586403491
 10
624.3875582836
 20
89.1788326568
 10
624.5377986682
 20
89.3170538106
 10
624.6740166169
 20
89.4692974004
 10
624.7902025144
 20
89.6335602209
 10
624.8903627708
 20
89.8058358619
 10
624.972494181
 20
89.9901307337
 10
625.03459354
 20
90.1844416311
 10
625.080667258
 20
90.3887685542
 10
625.1067089246
 20
90.6051147081
 10
625.1167249503
 20
90.8294736824
 10
625.1167249503
 20
90.8294736824
 10
625.1067089246
 20
91.0558358619
 10
625.080667258
 20
91.2741852209
 10
625.03459354
 20
91.4805153491
 10
624.9684877708
 20
91.6768294516
 10
624.8863563605
 20
91.8631275286
 10
624.784192899
 20
92.0374063747
 10
624.6640005913
 20
92.2036724004
 10
624.5257794375
 20
92.3579191952
 10
624.3735358477
 20
92.4981435542
 10
624.2152826426
 20
92.620339067
 10
624.0450102067
 20
92.7245057337
 10
623.8687281554
 20
92.8086403491
 10
623.6824300785
 20
92.8747461183
 10
623.4901223862
 20
92.9208198363
 10
623.2857954631
 20
92.9488647081
 10
623.0754589246
 20
92.9588807337
 10
623.0754589246
 20
92.9588807337
 10
622.8571095657
 20
92.9488647081
 10
622.6487762323
 20
92.9228230414
 10
622.4504589246
 20
92.8767493234
 10
622.2621576426
 20
92.8106435542
 10
622.081869181
 20
92.728512144
 10
621.9115967452
 20
92.6263486824
 10
621.7513403349
 20
92.5061563747
 10
621.5990967452
 20
92.3679352209
 10
621.4628787964
 20
92.2156916311
 10
621.3426864887
 20
92.0514288106
 10
621.2425262323
 20
91.8751467593
 10
621.1603948221
 20
91.6868454773
 10
621.096292258
 20
91.4885281696
 10
621.05021854
 20
91.2781916311
 10
621.0241768734
 20
91.0558358619
 10
621.0141608477
 20
90.823464067
 10
621.0141608477
 20
90.823464067
 10
621.0241768734
 20
90.5950986824
 10
621.05021854
 20
90.3787525286
 10
621.096292258
 20
90.1724224004
 10
621.1603948221
 20
89.9761082978
 10
621.2425262323
 20
89.791813426
 10
621.3426864887
 20
89.619537785
 10
621.4628787964
 20
89.4572781696
 10
621.5990967452
 20
89.307037785
 10
621.7513403349
 20
89.1708198363
 10
621.9115967452
 20
89.0546339388
 10
622.0838723862
 20
88.9544736824
 10
622.2641608477
 20
88.8723422722
 10
622.4544653349
 20
88.8102429132
 10
622.6547858477
 20
88.7641691952
 10
622.863119181
 20
88.7381275286
 10
623.0834717452
 20
88.7281115029
  0
LWPOLYLINE
  5
79
330
1F
100
AcDbEntity
  8
0
  6
Continuous
 62
     7
100
AcDbPolyline
 90
      134
 70
   128
 43
0.0
 10
612.2192190262
 20
88.3174544516
 10
613.3170454631
 20
89.4973422722
 10
613.3170454631
 20
89.4973422722
 10
613.4833114887
 20
89.3170538106
 10
613.643567899
 20
89.1608038106
 10
613.8018211041
 20
89.0285922722
 10
613.956067899
 20
88.9204191952
 10
614.1043050785
 20
88.8362845799
 10
614.2505390528
 20
88.776188426
 10
614.3927666169
 20
88.7401307337
 10
614.5309877708
 20
88.7281115029
 10
614.5309877708
 20
88.7281115029
 10
614.6712121298
 20
88.7361243234
 10
614.7974140528
 20
88.760162785
 10
614.9055871298
 20
88.8002268875
 10
614.9977345657
 20
88.8563166311
 10
615.0718531554
 20
88.9244256055
 10
615.1259396939
 20
89.0005474004
 10
615.1579909759
 20
89.0826788106
 10
615.1680070016
 20
89.1748262465
 10
615.1680070016
 20
89.1748262465
 10
615.1419653349
 20
89.3130474004
 10
615.0598339246
 20
89.4412525286
 10
614.98771854
 20
89.5073582978
 10
614.8755390528
 20
89.5854832978
 10
614.7232954631
 20
89.6736243234
 10
614.5309877708
 20
89.7737845799
 10
614.5309877708
 20
89.7737845799
 10
613.8819493093
 20
90.1023102209
 10
613.8819493093
 20
90.1023102209
 10
613.6355550785
 20
90.2305153491
 10
613.409192899
 20
90.3607236824
 10
613.2028627708
 20
90.4889288106
 10
613.0165646939
 20
90.6211403491
 10
612.8502986682
 20
90.7513486824
 10
612.706067899
 20
90.8835602209
 10
612.5798659759
 20
91.0157717593
 10
612.4736961041
 20
91.1479832978
 10
612.3054268734
 20
91.4264288106
 10
612.1872377708
 20
91.7269095799
 10
612.1151223862
 20
92.0494256055
 10
612.0910839246
 20
92.3959800927
 10
612.0910839246
 20
92.3959800927
 10
612.1031031554
 20
92.6303550927
 10
612.1351544375
 20
92.8527108619
 10
612.191244181
 20
93.0670538106
 10
612.2673659759
 20
93.2713807337
 10
612.3675262323
 20
93.463688426
 10
612.4897217451
 20
93.6479832978
 10
612.6319493093
 20
93.822262144
 10
612.7982153349
 20
93.9865249645
 10
612.9825102067
 20
94.1367653491
 10
613.1828307195
 20
94.2669736824
 10
613.3971736682
 20
94.3751467593
 10
613.6255390528
 20
94.4652909901
 10
613.8699300785
 20
94.5354031696
 10
614.1303467451
 20
94.5854832978
 10
614.4047858477
 20
94.6155313747
 10
614.6952505913
 20
94.6255474004
 10
614.6952505913
 20
94.6255474004
 10
615.0798659759
 20
94.6055153491
 10
615.4464525144
 20
94.5494256055
 10
615.7910037964
 20
94.4532717593
 10
616.1175262323
 20
94.3190570157
 10
616.4220134118
 20
94.1467813747
 10
616.7084717451
 20
93.9344416311
 10
616.9728948221
 20
93.6860441952
 10
617.2192890528
 20
93.3975826568
 10
617.2192890528
 20
93.3975826568
 10
616.1315486682
 20
92.1896499645
 10
616.1315486682
 20
92.1896499645
 10
615.9692890528
 20
92.353912785
 10
615.7950102067
 20
92.5021499645
 10
615.6047057195
 20
92.6323582978
 10
615.4023820016
 20
92.7465409901
 10
615.2000582836
 20
92.838688426
 10
615.0097537964
 20
92.9067974004
 10
614.8294653349
 20
92.9448582978
 10
614.6631993093
 20
92.9588807337
 10
614.6631993093
 20
92.9588807337
 10
614.4969332836
 20
92.9488647081
 10
614.346692899
 20
92.916813426
 10
614.2144813605
 20
92.8627268875
 10
614.0982954631
 20
92.7886082978
 10
614.0061480272
 20
92.7004672722
 10
613.940042258
 20
92.6063166311
 10
613.8999781554
 20
92.5041531696
 10
613.8859557195
 20
92.3959800927
 10
613.8859557195
 20
92.3959800927
 10
613.8979749503
 20
92.2938166311
 10
613.9340326426
 20
92.1916531696
 10
613.9941287964
 20
92.0894897081
 10
614.0782634118
 20
91.9873262465
 10
614.1864364887
 20
91.8871659901
 10
614.3206512323
 20
91.7870057337
 10
614.4769012323
 20
91.6868454773
 10
614.6571896939
 20
91.588688426
 10
614.6571896939
 20
91.588688426
 10
615.2521416169
 20
91.2882076568
 10
615.2521416169
 20
91.2882076568
 10
615.6527826426
 20
91.0638486824
 10
616.0013403349
 20
90.8254672722
 10
616.2938082836
 20
90.573063426
 10
616.5361961041
 20
90.306637144
 10
616.722494181
 20
90.0281916311
 10
616.8567089246
 20
89.7337204773
 10
616.9368371298
 20
89.4272300927
 10
616.9628787964
 20
89.1067172722
 10
616.9628787964
 20
89.1067172722
 10
616.9528627708
 20
88.8983839388
 10
616.9208114887
 20
88.7000666311
 10
616.8687281554
 20
88.5077589388
 10
616.7966127708
 20
88.323464067
 10
616.7044653349
 20
88.1451788106
 10
616.5902826426
 20
87.9769095799
 10
616.456067899
 20
87.8146499645
 10
616.299817899
 20
87.6604031696
 10
616.127542258
 20
87.5201788106
 10
615.9452505913
 20
87.3979832978
 10
615.7509396939
 20
87.2958198363
 10
615.5446095657
 20
87.2116852209
 10
615.3262602067
 20
87.1455794516
 10
615.0978948221
 20
87.0995057337
 10
614.8575102067
 20
87.0714608619
 10
614.6051063605
 20
87.0614448363
 10
614.6051063605
 20
87.0614448363
 10
614.2565486682
 20
87.0814768875
 10
613.9200102067
 20
87.1435762465
 10
613.5914845657
 20
87.2437365029
 10
613.2749781554
 20
87.385964067
 10
612.9744973862
 20
87.5662525286
 10
612.7000582836
 20
87.7805954773
 10
612.4476544375
 20
88.0309961183
 10
612.2192890528
 20
88.3174544516
  0
LWPOLYLINE
  5
7A
330
1F
100
AcDbEntity
  8
0
  6
Continuous
 62
     7
100
AcDbPolyline
 90
       36
 70
   128
 43
0.0
 10
608.9409635635
 20
84.1127268875
 10
608.7108755913
 20
84.134762144
 10
608.4985358477
 20
84.2028711183
 10
608.3022217451
 20
84.3130474004
 10
608.1239364887
 20
84.4692974004
 10
607.9756993093
 20
84.6575986824
 10
607.8695294375
 20
84.8659320157
 10
607.8054268734
 20
85.0922941952
 10
607.7833916169
 20
85.3366852209
 10
607.7833916169
 20
85.3366852209
 10
607.8054268734
 20
85.5790730414
 10
607.8675262323
 20
85.8034320157
 10
607.9736961041
 20
86.0077589388
 10
608.1199300785
 20
86.1940570157
 10
608.2982153349
 20
86.3483038106
 10
608.4905230272
 20
86.4604832978
 10
608.7008595657
 20
86.526589067
 10
608.9272217451
 20
86.5486243234
 10
608.9272217451
 20
86.5486243234
 10
609.15959354
 20
86.526589067
 10
609.3739364887
 20
86.4584800927
 10
609.5722537964
 20
86.3442974004
 10
609.7505390528
 20
86.1860441952
 10
609.8987762323
 20
85.9957397081
 10
610.0069493093
 20
85.7874063747
 10
610.0690486682
 20
85.5590409901
 10
610.0910839246
 20
85.3106435542
 10
610.0910839246
 20
85.3106435542
 10
610.0690486682
 20
85.072262144
 10
610.0069493093
 20
84.8499063747
 10
609.9007794375
 20
84.6475826568
 10
609.752542258
 20
84.463287785
 10
609.5762602067
 20
84.3090409901
 10
609.3819493093
 20
84.2008679132
 10
609.1696095657
 20
84.134762144
 10
608.941244181
 20
84.1127268875
  0
LWPOLYLINE
  5
7B
330
1F
100
AcDbEntity
  8
0
  6
Continuous
 62
     7
100
AcDbPolyline
 90
        8
 70
   128
 43
0.0
 10
609.834556398
 20
87.1896499645
 10
608.0398018734
 20
87.1896499645
 10
608.0398018734
 20
87.1896499645
 10
608.0398018734
 20
94.4973422722
 10
608.0398018734
 20
94.4973422722
 10
609.8346736682
 20
94.4973422722
 10
609.8346736682
 20
94.4973422722
 10
609.8346736682
 20
87.1896499645
  0
LWPOLYLINE
  5
7C
330
1F
100
AcDbEntity
  8
0
  6
Continuous
 62
     7
100
AcDbPolyline
 90
      120
 70
   128
 43
0.0
 10
598.4753416153
 20
88.6800345799
 10
599.9620775144
 20
89.4973422722
 10
599.9620775144
 20
89.4973422722
 10
600.1704108477
 20
89.2970217593
 10
600.378744181
 20
89.1307557337
 10
600.5850743093
 20
88.9965409901
 10
600.7894012323
 20
88.8963807337
 10
601.003744181
 20
88.822262144
 10
601.2341127708
 20
88.7701788106
 10
601.4825102067
 20
88.7381275286
 10
601.7489364887
 20
88.7281115029
 10
601.7489364887
 20
88.7281115029
 10
601.9933275144
 20
88.7381275286
 10
602.2256993093
 20
88.7661724004
 10
602.4460518734
 20
88.8122461183
 10
602.6543852067
 20
88.8783518875
 10
602.8506993093
 20
88.9644897081
 10
603.0369973862
 20
89.0666531696
 10
603.2092730272
 20
89.1888486824
 10
603.3695294375
 20
89.3310762465
 10
603.5137602067
 20
89.4873262465
 10
603.6399621298
 20
89.6555954773
 10
603.7461320016
 20
89.8318775286
 10
603.8342730272
 20
90.0201788106
 10
603.9023820016
 20
90.2204993234
 10
603.9504589246
 20
90.4288326568
 10
603.9785037964
 20
90.6491852209
 10
603.9885198221
 20
90.8795538106
 10
603.9885198221
 20
90.8795538106
 10
603.9785037964
 20
91.103912785
 10
603.9524621298
 20
91.3182557337
 10
603.9063884118
 20
91.5205794516
 10
603.8402826426
 20
91.712887144
 10
603.7581512323
 20
91.8951788106
 10
603.6559877708
 20
92.0674544516
 10
603.5357954631
 20
92.2277108619
 10
603.3975743093
 20
92.3779512465
 10
603.2453307195
 20
92.5141691952
 10
603.0790646939
 20
92.6323582978
 10
602.9027826426
 20
92.7325185542
 10
602.7164845657
 20
92.8146499645
 10
602.5161640528
 20
92.8767493234
 10
602.3038243093
 20
92.9228230414
 10
602.08146854
 20
92.9488647081
 10
601.84709354
 20
92.9588807337
 10
601.84709354
 20
92.9588807337
 10
601.5586320016
 20
92.9468615029
 10
601.2861961041
 20
92.9108038106
 10
601.0317890528
 20
92.8507076568
 10
600.7914044375
 20
92.7665730414
 10
600.5690486682
 20
92.6583999645
 10
600.36271854
 20
92.526188426
 10
600.1724140528
 20
92.369938426
 10
599.9981352067
 20
92.1896499645
 10
599.9981352067
 20
92.1896499645
 10
598.6039044375
 20
93.1471820157
 10
598.6039044375
 20
93.1471820157
 10
598.9023820016
 20
93.4937365029
 10
599.2309076426
 20
93.7942172722
 10
599.5874781554
 20
94.0486243234
 10
599.9740967452
 20
94.2569576568
 10
600.3887602067
 20
94.417214067
 10
600.8334717451
 20
94.5333999645
 10
601.3082313605
 20
94.6015089388
 10
601.8110358477
 20
94.6255474004
 10
601.8110358477
 20
94.6255474004
 10
602.2637602067
 20
94.6075185542
 10
602.6924461041
 20
94.5554352209
 10
603.0950903349
 20
94.4672941952
 10
603.471692899
 20
94.3450986824
 10
603.8242570016
 20
94.1868454773
 10
604.1507794375
 20
93.9925345799
 10
604.4512602067
 20
93.7641691952
 10
604.7277025144
 20
93.5017493234
 10
604.9760999503
 20
93.2152909901
 10
605.190442899
 20
92.916813426
 10
605.3707313605
 20
92.604313426
 10
605.51896854
 20
92.2817974004
 10
605.6351544375
 20
91.947262144
 10
605.7172858477
 20
91.6007076568
 10
605.7673659759
 20
91.2401307337
 10
605.7833916169
 20
90.869537785
 10
605.7833916169
 20
90.869537785
 10
605.7753787964
 20
90.6111243234
 10
605.7513403349
 20
90.3587204773
 10
605.7112762323
 20
90.1103230414
 10
605.6551864887
 20
89.8679352209
 10
605.581067899
 20
89.6295538106
 10
605.4929268734
 20
89.3971820157
 10
605.3867570016
 20
89.1688166311
 10
605.2665646939
 20
88.9464608619
 10
605.1303467451
 20
88.7321179132
 10
604.9821095657
 20
88.5297941952
 10
604.8218531554
 20
88.3394897081
 10
604.6475743093
 20
88.1612044516
 10
604.4612762323
 20
87.994938426
 10
604.2609557195
 20
87.838688426
 10
604.0486159759
 20
87.6964608619
 10
603.8242570016
 20
87.5642493234
 10
603.5898820016
 20
87.4460602209
 10
603.3494973862
 20
87.3438967593
 10
603.1010999503
 20
87.2577589388
 10
602.846692899
 20
87.1876467593
 10
602.5842730272
 20
87.1315570157
 10
602.31584354
 20
87.0934961183
 10
602.0394012323
 20
87.0694576568
 10
601.7569493093
 20
87.0614448363
 10
601.7569493093
 20
87.0614448363
 10
601.4945294375
 20
87.0674544516
 10
601.2401223862
 20
87.0874865029
 10
600.9917249503
 20
87.1215409901
 10
600.7513403349
 20
87.1676147081
 10
600.5169653349
 20
87.2257076568
 10
600.2885999503
 20
87.2978230414
 10
600.0682473862
 20
87.3839608619
 10
599.8539044375
 20
87.4821179132
 10
599.4532634118
 20
87.7164929132
 10
599.0886800785
 20
87.9929352209
 10
598.7641608477
 20
88.3154512465
 10
598.4756993093
 20
88.6800345799
  0
LINE
  5
7D
330
1F
100
AcDbEntity
  8
0
  6
Continuous
 62
     7
370
    25
100
AcDbLine
 10
574.8685056778
 20
339.2214194411
 30
0.0
 11
574.8685056778
 21
342.3964194411
 31
0.0
  0
LINE
  5
7E
330
1F
100
AcDbEntity
  8
0
  6
Continuous
 62
     7
370
    25
100
AcDbLine
 10
524.0685056778
 20
342.3964194411
 30
0.0
 11
574.8685056778
 21
342.3964194411
 31
0.0
  0
LINE
  5
7F
330
1F
100
AcDbEntity
  8
0
  6
Continuous
 62
     7
370
    25
100
AcDbLine
 10
524.0685056778
 20
339.2214194411
 30
0.0
 11
524.0685056778
 21
342.3964194411
 31
0.0
  0
LINE
  5
80
330
1F
100
AcDbEntity
  8
0
  6
Continuous
 62
     7
370
    25
100
AcDbLine
 10
524.0685056778
 20
339.2214194411
 30
0.0
 11
574.8685056778
 21
339.2214194411
 31
0.0
  0
LINE
  5
81
330
1F
100
AcDbEntity
  8
0
  6
Continuous
 62
     7
370
    25
100
AcDbLine
 10
473.2685056778
 20
339.2214194411
 30
0.0
 11
473.2685056778
 21
342.3964194411
 31
0.0
  0
LINE
  5
82
330
1F
100
AcDbEntity
  8
0
  6
Continuous
 62
     7
370
    25
100
AcDbLine
 10
422.4685056778
 20
342.3964194411
 30
0.0
 11
473.2685056778
 21
342.3964194411
 31
0.0
  0
LINE
  5
83
330
1F
100
AcDbEntity
  8
0
  6
Continuous
 62
     7
370
    25
100
AcDbLine
 10
422.4685056778
 20
339.2214194411
 30
0.0
 11
422.4685056778
 21
342.3964194411
 31
0.0
  0
LINE
  5
84
330
1F
100
AcDbEntity
  8
0
  6
Continuous
 62
     7
370
    25
100
AcDbLine
 10
422.4685056778
 20
339.2214194411
 30
0.0
 11
473.2685056778
 21
339.2214194411
 31
0.0
  0
LINE
  5
85
330
1F
100
AcDbEntity
  8
0
  6
Continuous
 62
     7
370
    25
100
AcDbLine
 10
371.6685056778
 20
339.2214194411
 30
0.0
 11
371.6685056778
 21
342.3964194411
 31
0.0
  0
LINE
  5
86
330
1F
100
AcDbEntity
  8
0
  6
Continuous
 62
     7
370
    25
100
AcDbLine
 10
320.8685056778
 20
342.3964194411
 30
0.0
 11
371.6685056778
 21
342.3964194411
 31
0.0
  0
LINE
  5
87
330
1F
100
AcDbEntity
  8
0
  6
Continuous
 62
     7
370
    25
100
AcDbLine
 10
320.8685056778
 20
339.2214194411
 30
0.0
 11
320.8685056778
 21
342.3964194411
 31
0.0
  0
LINE
  5
88
330
1F
100
AcDbEntity
  8
0
  6
Continuous
 62
     7
370
    25
100
AcDbLine
 10
320.8685056778
 20
339.2214194411
 30
0.0
 11
371.6685056778
 21
339.2214194411
 31
0.0
  0
LINE
  5
89
330
1F
100
AcDbEntity
  8
0
  6
Continuous
 62
     7
370
    25
100
AcDbLine
 10
270.0685056778
 20
339.2214194411
 30
0.0
 11
270.0685056778
 21
342.3964194411
 31
0.0
  0
LINE
  5
8A
330
1F
100
AcDbEntity
  8
0
  6
Continuous
 62
     7
370
    25
100
AcDbLine
 10
219.2685056778
 20
342.3964194411
 30
0.0
 11
270.0685056778
 21
342.3964194411
 31
0.0
  0
LINE
  5
8B
330
1F
100
AcDbEntity
  8
0
  6
Continuous
 62
     7
370
    25
100
AcDbLine
 10
219.2685056778
 20
339.2214194411
 30
0.0
 11
219.2685056778
 21
342.3964194411
 31
0.0
  0
LINE
  5
8C
330
1F
100
AcDbEntity
  8
0
  6
Continuous
 62
     7
370
    25
100
AcDbLine
 10
219.2685056778
 20
339.2214194411
 30
0.0
 11
270.0685056778
 21
339.2214194411
 31
0.0
  0
LINE
  5
8D
330
1F
100
AcDbEntity
  8
0
  6
Continuous
 62
     7
370
    25
100
AcDbLine
 10
168.4685056778
 20
339.2214194411
 30
0.0
 11
168.4685056778
 21
342.3964194411
 31
0.0
  0
LINE
  5
8E
330
1F
100
AcDbEntity
  8
0
  6
Continuous
 62
     7
370
    25
100
AcDbLine
 10
117.6685056778
 20
342.3964194411
 30
0.0
 11
168.4685056778
 21
342.3964194411
 31
0.0
  0
LINE
  5
8F
330
1F
100
AcDbEntity
  8
0
  6
Continuous
 62
     7
370
    25
100
AcDbLine
 10
117.6685056778
 20
339.2214194411
 30
0.0
 11
117.6685056778
 21
342.3964194411
 31
0.0
  0
LINE
  5
90
330
1F
100
AcDbEntity
  8
0
  6
Continuous
 62
     7
370
    25
100
AcDbLine
 10
117.6685056778
 20
339.2214194411
 30
0.0
 11
168.4685056778
 21
339.2214194411
 31
0.0
  0
LINE
  5
91
330
1F
100
AcDbEntity
  8
0
  6
Continuous
 62
     7
370
    25
100
AcDbLine
 10
603.4435056778
 20
326.5214194411
 30
0.0
 11
600.2685056778
 21
326.5214194411
 31
0.0
  0
LINE
  5
92
330
1F
100
AcDbEntity
  8
0
  6
Continuous
 62
     7
370
    25
100
AcDbLine
 10
600.2685056778
 20
301.1214194411
 30
0.0
 11
600.2685056778
 21
326.5214194411
 31
0.0
  0
LINE
  5
93
330
1F
100
AcDbEntity
  8
0
  6
Continuous
 62
     7
370
    25
100
AcDbLine
 10
603.4435056778
 20
301.1214194411
 30
0.0
 11
600.2685056778
 21
301.1214194411
 31
0.0
  0
LINE
  5
94
330
1F
100
AcDbEntity
  8
0
  6
Continuous
 62
     7
370
    25
100
AcDbLine
 10
603.4435056778
 20
250.3214194411
 30
0.0
 11
603.4435056778
 21
275.7214194411
 31
0.0
  0
LINE
  5
95
330
1F
100
AcDbEntity
  8
0
  6
Continuous
 62
     7
370
    25
100
AcDbLine
 10
603.4435056778
 20
224.9214194411
 30
0.0
 11
600.2685056778
 21
224.9214194411
 31
0.0
  0
LINE
  5
96
330
1F
100
AcDbEntity
  8
0
  6
Continuous
 62
     7
370
    25
100
AcDbLine
 10
600.2685056778
 20
199.5214194411
 30
0.0
 11
600.2685056778
 21
224.9214194411
 31
0.0
  0
LINE
  5
97
330
1F
100
AcDbEntity
  8
0
  6
Continuous
 62
     7
370
    25
100
AcDbLine
 10
603.4435056778
 20
199.5214194411
 30
0.0
 11
600.2685056778
 21
199.5214194411
 31
0.0
  0
LINE
  5
98
330
1F
100
AcDbEntity
  8
0
  6
Continuous
 62
     7
370
    25
100
AcDbLine
 10
603.4435056778
 20
199.5214194411
 30
0.0
 11
603.4435056778
 21
224.9214194411
 31
0.0
  0
LINE
  5
99
330
1F
100
AcDbEntity
  8
0
  6
Continuous
 62
     7
370
    25
100
AcDbLine
 10
603.4435056778
 20
174.1214194411
 30
0.0
 11
600.2685056778
 21
174.1214194411
 31
0.0
  0
LINE
  5
9A
330
1F
100
AcDbEntity
  8
0
  6
Continuous
 62
     7
370
    25
100
AcDbLine
 10
92.2685056778
 20
301.1214194411
 30
0.0
 11
92.2685056778
 21
326.5214194411
 31
0.0
  0
LINE
  5
9B
330
1F
100
AcDbEntity
  8
0
  6
Continuous
 62
     7
370
    25
100
AcDbLine
 10
92.2685056778
 20
326.5214194411
 30
0.0
 11
89.0935056778
 21
326.5214194411
 31
0.0
  0
LINE
  5
9C
330
1F
100
AcDbEntity
  8
0
  6
Continuous
 62
     7
370
    25
100
AcDbLine
 10
89.0935056778
 20
301.1214194411
 30
0.0
 11
89.0935056778
 21
326.5214194411
 31
0.0
  0
LINE
  5
9D
330
1F
100
AcDbEntity
  8
0
  6
Continuous
 62
     7
370
    25
100
AcDbLine
 10
92.2685056778
 20
301.1214194411
 30
0.0
 11
89.0935056778
 21
301.1214194411
 31
0.0
  0
LINE
  5
9E
330
1F
100
AcDbEntity
  8
0
  6
Continuous
 62
     7
370
    25
100
AcDbLine
 10
92.2685056778
 20
250.3214194411
 30
0.0
 11
92.2685056778
 21
275.7214194411
 31
0.0
  0
LINE
  5
9F
330
1F
100
AcDbEntity
  8
0
  6
Continuous
 62
     7
370
    25
100
AcDbLine
 10
92.2685056778
 20
275.7214194411
 30
0.0
 11
89.0935056778
 21
275.7214194411
 31
0.0
  0
LINE
  5
A0
330
1F
100
AcDbEntity
  8
0
  6
Continuous
 62
     7
370
    25
100
AcDbLine
 10
89.0935056778
 20
250.3214194411
 30
0.0
 11
89.0935056778
 21
275.7214194411
 31
0.0
  0
LINE
  5
A1
330
1F
100
AcDbEntity
  8
0
  6
Continuous
 62
     7
370
    25
100
AcDbLine
 10
92.2685056778
 20
250.3214194411
 30
0.0
 11
89.0935056778
 21
250.3214194411
 31
0.0
  0
LINE
  5
A2
330
1F
100
AcDbEntity
  8
0
  6
Continuous
 62
     7
370
    25
100
AcDbLine
 10
92.2685056778
 20
199.5214194411
 30
0.0
 11
92.2685056778
 21
224.9214194411
 31
0.0
  0
LINE
  5
A3
330
1F
100
AcDbEntity
  8
0
  6
Continuous
 62
     7
370
    25
100
AcDbLine
 10
92.2685056778
 20
224.9214194411
 30
0.0
 11
89.0935056778
 21
224.9214194411
 31
0.0
  0
LINE
  5
A4
330
1F
100
AcDbEntity
  8
0
  6
Continuous
 62
     7
370
    25
100
AcDbLine
 10
89.0935056778
 20
199.5214194411
 30
0.0
 11
89.0935056778
 21
224.9214194411
 31
0.0
  0
LINE
  5
A5
330
1F
100
AcDbEntity
  8
0
  6
Continuous
 62
     7
370
    25
100
AcDbLine
 10
92.2685056778
 20
199.5214194411
 30
0.0
 11
89.0935056778
 21
199.5214194411
 31
0.0
  0
LINE
  5
A6
330
1F
100
AcDbEntity
  8
0
  6
Continuous
 62
     7
370
    25
100
AcDbLine
 10
92.2685056778
 20
148.7214194411
 30
0.0
 11
92.2685056778
 21
174.1214194411
 31
0.0
  0
LINE
  5
A7
330
1F
100
AcDbEntity
  8
0
  6
Continuous
 62
     7
370
    25
100
AcDbLine
 10
92.2685056778
 20
174.1214194411
 30
0.0
 11
89.0935056778
 21
174.1214194411
 31
0.0
  0
LINE
  5
A8
330
1F
100
AcDbEntity
  8
0
  6
Continuous
 62
     7
370
    25
100
AcDbLine
 10
89.0935056778
 20
148.7214194411
 30
0.0
 11
89.0935056778
 21
174.1214194411
 31
0.0
  0
LINE
  5
A9
330
1F
100
AcDbEntity
  8
0
  6
Continuous
 62
     7
370
    25
100
AcDbLine
 10
92.2685056778
 20
148.7214194411
 30
0.0
 11
89.0935056778
 21
148.7214194411
 31
0.0
  0
LINE
  5
AA
330
1F
100
AcDbEntity
  8
0
  6
Continuous
 62
     7
370
    25
100
AcDbLine
 10
524.0685056778
 20
132.8464194411
 30
0.0
 11
574.8685056778
 21
132.8464194411
 31
0.0
  0
LINE
  5
AB
330
1F
100
AcDbEntity
  8
0
  6
Continuous
 62
     7
370
    25
100
AcDbLine
 10
574.8685056778
 20
132.8464194411
 30
0.0
 11
574.8685056778
 21
136.0214194411
 31
0.0
  0
LINE
  5
AC
330
1F
100
AcDbEntity
  8
0
  6
Continuous
 62
     7
370
    25
100
AcDbLine
 10
524.0685056778
 20
136.0214194411
 30
0.0
 11
574.8685056778
 21
136.0214194411
 31
0.0
  0
LINE
  5
AD
330
1F
100
AcDbEntity
  8
0
  6
Continuous
 62
     7
370
    25
100
AcDbLine
 10
524.0685056778
 20
132.8464194411
 30
0.0
 11
524.0685056778
 21
136.0214194411
 31
0.0
  0
LINE
  5
AE
330
1F
100
AcDbEntity
  8
0
  6
Continuous
 62
     7
370
    25
100
AcDbLine
 10
422.4685056778
 20
132.8464194411
 30
0.0
 11
473.2685056778
 21
132.8464194411
 31
0.0
  0
LINE
  5
AF
330
1F
100
AcDbEntity
  8
0
  6
Continuous
 62
     7
370
    25
100
AcDbLine
 10
473.2685056778
 20
132.8464194411
 30
0.0
 11
473.2685056778
 21
136.0214194411
 31
0.0
  0
LINE
  5
B0
330
1F
100
AcDbEntity
  8
0
  6
Continuous
 62
     7
370
    25
100
AcDbLine
 10
422.4685056778
 20
136.0214194411
 30
0.0
 11
473.2685056778
 21
136.0214194411
 31
0.0
  0
LINE
  5
B1
330
1F
100
AcDbEntity
  8
0
  6
Continuous
 62
     7
370
    25
100
AcDbLine
 10
422.4685056778
 20
132.8464194411
 30
0.0
 11
422.4685056778
 21
136.0214194411
 31
0.0
  0
LINE
  5
B2
330
1F
100
AcDbEntity
  8
0
  6
Continuous
 62
     7
370
    25
100
AcDbLine
 10
320.8685056778
 20
132.8464194411
 30
0.0
 11
371.6685056778
 21
132.8464194411
 31
0.0
  0
LINE
  5
B3
330
1F
100
AcDbEntity
  8
0
  6
Continuous
 62
     7
370
    25
100
AcDbLine
 10
371.6685056778
 20
132.8464194411
 30
0.0
 11
371.6685056778
 21
136.0214194411
 31
0.0
  0
LINE
  5
B4
330
1F
100
AcDbEntity
  8
0
  6
Continuous
 62
     7
370
    25
100
AcDbLine
 10
320.8685056778
 20
136.0214194411
 30
0.0
 11
371.6685056778
 21
136.0214194411
 31
0.0
  0
LINE
  5
B5
330
1F
100
AcDbEntity
  8
0
  6
Continuous
 62
     7
370
    25
100
AcDbLine
 10
320.8685056778
 20
132.8464194411
 30
0.0
 11
320.8685056778
 21
136.0214194411
 31
0.0
  0
LINE
  5
B6
330
1F
100
AcDbEntity
  8
0
  6
Continuous
 62
     7
370
    25
100
AcDbLine
 10
219.2685056778
 20
132.8464194411
 30
0.0
 11
270.0685056778
 21
132.8464194411
 31
0.0
  0
LINE
  5
B7
330
1F
100
AcDbEntity
  8
0
  6
Continuous
 62
     7
370
    25
100
AcDbLine
 10
270.0685056778
 20
132.8464194411
 30
0.0
 11
270.0685056778
 21
136.0214194411
 31
0.0
  0
LINE
  5
B8
330
1F
100
AcDbEntity
  8
0
  6
Continuous
 62
     7
370
    25
100
AcDbLine
 10
219.2685056778
 20
136.0214194411
 30
0.0
 11
270.0685056778
 21
136.0214194411
 31
0.0
  0
LINE
  5
B9
330
1F
100
AcDbEntity
  8
0
  6
Continuous
 62
     7
370
    25
100
AcDbLine
 10
219.2685056778
 20
132.8464194411
 30
0.0
 11
219.2685056778
 21
136.0214194411
 31
0.0
  0
LINE
  5
BA
330
1F
100
AcDbEntity
  8
0
  6
Continuous
 62
     7
370
    25
100
AcDbLine
 10
117.6685056778
 20
132.8464194411
 30
0.0
 11
168.4685056778
 21
132.8464194411
 31
0.0
  0
LINE
  5
BB
330
1F
100
AcDbEntity
  8
0
  6
Continuous
 62
     7
370
    25
100
AcDbLine
 10
168.4685056778
 20
132.8464194411
 30
0.0
 11
168.4685056778
 21
136.0214194411
 31
0.0
  0
LINE
  5
BC
330
1F
100
AcDbEntity
  8
0
  6
Continuous
 62
     7
370
    25
100
AcDbLine
 10
117.6685056778
 20
136.0214194411
 30
0.0
 11
168.4685056778
 21
136.0214194411
 31
0.0
  0
LINE
  5
BD
330
1F
100
AcDbEntity
  8
0
  6
Continuous
 62
     7
370
    25
100
AcDbLine
 10
117.6685056778
 20
132.8464194411
 30
0.0
 11
117.6685056778
 21
136.0214194411
 31
0.0
  0
LINE
  5
BE
330
1F
100
AcDbEntity
  8
0
  6
Continuous
 62
     7
370
    25
100
AcDbLine
 10
393.2685056778
 20
397.3964194411
 30
0.0
 11
393.2685056778
 21
342.3964194411
 31
0.0
  0
LINE
  5
BF
330
1F
100
AcDbEntity
  8
0
  6
Continuous
 62
     7
370
    25
100
AcDbLine
 10
393.2685056778
 20
342.3964194411
 30
0.0
 11
410.3685056778
 21
342.3964194411
 31
0.0
  0
LINE
  5
C0
330
1F
100
AcDbEntity
  8
0
  6
Continuous
 62
     7
370
    25
100
AcDbLine
 10
410.3685056778
 20
342.3964194411
 30
0.0
 11
410.3685056778
 21
397.3964194411
 31
0.0
  0
LINE
  5
C1
330
1F
100
AcDbEntity
  8
0
  6
Continuous
 62
     7
370
    25
100
AcDbLine
 10
410.3685056778
 20
397.3964194411
 30
0.0
 11
393.2685056778
 21
397.3964194411
 31
0.0
  0
LINE
  5
C2
330
1F
100
AcDbEntity
  8
0
  6
Continuous
 62
     7
370
    25
100
AcDbLine
 10
282.1685056778
 20
342.3964194411
 30
0.0
 11
299.2685056778
 21
342.3964194411
 31
0.0
  0
LINE
  5
C3
330
1F
100
AcDbEntity
  8
0
  6
Continuous
 62
     7
370
    25
100
AcDbLine
 10
299.2685056778
 20
342.3964194411
 30
0.0
 11
299.2685056778
 21
397.3964194411
 31
0.0
  0
LINE
  5
C4
330
1F
100
AcDbEntity
  8
0
  6
Continuous
 62
     7
370
    25
100
AcDbLine
 10
299.2685056778
 20
397.3964194411
 30
0.0
 11
282.1685056778
 21
397.3964194411
 31
0.0
  0
LINE
  5
C5
330
1F
100
AcDbEntity
  8
0
  6
Continuous
 62
     7
370
    25
100
AcDbLine
 10
282.1685056778
 20
397.3964194411
 30
0.0
 11
282.1685056778
 21
342.3964194411
 31
0.0
  0
CIRCLE
  5
C6
330
1F
100
AcDbEntity
  8
0
  6
Continuous
 62
     7
370
    25
100
AcDbCircle
 10
272.7185056778
 20
369.8964194411
 30
0.0
 40
1.499999999999943
  0
CIRCLE
  5
C7
330
1F
100
AcDbEntity
  8
0
  6
Continuous
 62
     7
370
    25
100
AcDbCircle
 10
308.7185056778
 20
369.8964194411
 30
0.0
 40
1.499999999999943
  0
CIRCLE
  5
C8
330
1F
100
AcDbEntity
  8
0
  6
Continuous
 62
     7
370
    25
100
AcDbCircle
 10
419.8185056778
 20
369.8964194411
 30
0.0
 40
1.499999999999943
  0
CIRCLE
  5
C9
330
1F
100
AcDbEntity
  8
0
  6
Continuous
 62
     7
370
    25
100
AcDbCircle
 10
383.8185056778
 20
369.8964194411
 30
0.0
 40
1.499999999999943
  0
LINE
  5
CA
330
1F
100
AcDbEntity
  8
0
  6
Continuous
 62
     7
370
    25
100
AcDbLine
 10
155.7685056778
 20
540.4214194411
 30
0.0
 11
130.3685056778
 21
540.4214194411
 31
0.0
  0
LINE
  5
CB
330
1F
100
AcDbEntity
  8
0
  6
Continuous
 62
     7
370
    25
100
AcDbLine
 10
155.7685056778
 20
540.4214194411
 30
0.0
 11
155.7685056778
 21
534.0714194411
 31
0.0
  0
LINE
  5
CC
330
1F
100
AcDbEntity
  8
0
  6
Continuous
 62
     7
370
    25
100
AcDbLine
 10
155.7685056778
 20
534.0714194411
 30
0.0
 11
181.1685056778
 21
534.0714194411
 31
0.0
  0
LINE
  5
CD
330
1F
100
AcDbEntity
  8
0
  6
Continuous
 62
     7
370
    25
100
AcDbLine
 10
181.1685056778
 20
534.0714194411
 30
0.0
 11
181.1685056778
 21
540.4214194411
 31
0.0
  0
LINE
  5
CE
330
1F
100
AcDbEntity
  8
0
  6
Continuous
 62
     7
370
    25
100
AcDbLine
 10
206.5685056778
 20
540.4214194411
 30
0.0
 11
181.1685056778
 21
540.4214194411
 31
0.0
  0
LINE
  5
CF
330
1F
100
AcDbEntity
  8
0
  6
Continuous
 62
     7
370
    25
100
AcDbLine
 10
206.5685056778
 20
540.4214194411
 30
0.0
 11
206.5685056778
 21
534.0714194411
 31
0.0
  0
LINE
  5
D0
330
1F
100
AcDbEntity
  8
0
  6
Continuous
 62
     7
370
    25
100
AcDbLine
 10
206.5685056778
 20
534.0714194411
 30
0.0
 11
231.9685056778
 21
534.0714194411
 31
0.0
  0
LINE
  5
D1
330
1F
100
AcDbEntity
  8
0
  6
Continuous
 62
     7
370
    25
100
AcDbLine
 10
231.9685056778
 20
534.0714194411
 30
0.0
 11
231.9685056778
 21
540.4214194411
 31
0.0
  0
LINE
  5
D2
330
1F
100
AcDbEntity
  8
0
  6
Continuous
 62
     7
370
    25
100
AcDbLine
 10
460.5685056778
 20
540.4214194411
 30
0.0
 11
231.9685056778
 21
540.4214194411
 31
0.0
  0
LINE
  5
D3
330
1F
100
AcDbEntity
  8
0
  6
Continuous
 62
     7
370
    25
100
AcDbLine
 10
460.5685056778
 20
540.4214194411
 30
0.0
 11
460.5685056778
 21
534.0714194411
 31
0.0
  0
LINE
  5
D4
330
1F
100
AcDbEntity
  8
0
  6
Continuous
 62
     7
370
    25
100
AcDbLine
 10
460.5685056778
 20
534.0714194411
 30
0.0
 11
485.9685056778
 21
534.0714194411
 31
0.0
  0
LINE
  5
D5
330
1F
100
AcDbEntity
  8
0
  6
Continuous
 62
     7
370
    25
100
AcDbLine
 10
485.9685056778
 20
534.0714194411
 30
0.0
 11
485.9685056778
 21
540.4214194411
 31
0.0
  0
LINE
  5
D6
330
1F
100
AcDbEntity
  8
0
  6
Continuous
 62
     7
370
    25
100
AcDbLine
 10
511.3685056778
 20
540.4214194411
 30
0.0
 11
485.9685056778
 21
540.4214194411
 31
0.0
  0
LINE
  5
D7
330
1F
100
AcDbEntity
  8
0
  6
Continuous
 62
     7
370
    25
100
AcDbLine
 10
511.3685056778
 20
540.4214194411
 30
0.0
 11
511.3685056778
 21
534.0714194411
 31
0.0
  0
LINE
  5
D8
330
1F
100
AcDbEntity
  8
0
  6
Continuous
 62
     7
370
    25
100
AcDbLine
 10
511.3685056778
 20
534.0714194411
 30
0.0
 11
536.7685056778
 21
534.0714194411
 31
0.0
  0
LINE
  5
D9
330
1F
100
AcDbEntity
  8
0
  6
Continuous
 62
     7
370
    25
100
AcDbLine
 10
536.7685056778
 20
534.0714194411
 30
0.0
 11
536.7685056778
 21
540.4214194411
 31
0.0
  0
LINE
  5
DA
330
1F
100
AcDbEntity
  8
0
  6
Continuous
 62
     7
370
    25
100
AcDbLine
 10
562.1685056778
 20
540.4214194411
 30
0.0
 11
536.7685056778
 21
540.4214194411
 31
0.0
  0
LINE
  5
DB
330
1F
100
AcDbEntity
  8
0
  6
Continuous
 62
     7
370
    25
100
AcDbLine
 10
562.1685056778
 20
540.4214194411
 30
0.0
 11
562.1685056778
 21
534.0714194411
 31
0.0
  0
LINE
  5
DC
330
1F
100
AcDbEntity
  8
0
  6
Continuous
 62
     7
370
    25
100
AcDbLine
 10
562.1685056778
 20
534.0714194411
 30
0.0
 11
587.5685056778
 21
534.0714194411
 31
0.0
  0
LINE
  5
DD
330
1F
100
AcDbEntity
  8
0
  6
Continuous
 62
     7
370
    25
100
AcDbLine
 10
587.5685056778
 20
534.0714194411
 30
0.0
 11
587.5685056778
 21
540.4214194411
 31
0.0
  0
LINE
  5
DE
330
1F
100
AcDbEntity
  8
0
  6
Continuous
 62
     7
370
    25
100
AcDbLine
 10
651.0685056778
 20
540.4214194411
 30
0.0
 11
587.5685056778
 21
540.4214194411
 31
0.0
  0
LINE
  5
DF
330
1F
100
AcDbEntity
  8
0
  6
Continuous
 62
     7
370
    25
100
AcDbLine
 10
651.0685056778
 20
59.8214194411
 30
0.0
 11
651.0685056778
 21
540.4214194411
 31
0.0
  0
LINE
  5
E0
330
1F
100
AcDbEntity
  8
0
  6
Continuous
 62
     7
370
    25
100
AcDbLine
 10
41.4685056778
 20
59.8214194411
 30
0.0
 11
651.0685056778
 21
59.8214194411
 31
0.0
  0
LINE
  5
E1
330
1F
100
AcDbEntity
  8
0
  6
Continuous
 62
     7
370
    25
100
AcDbLine
 10
41.4685056778
 20
540.4214194411
 30
0.0
 11
41.4685056778
 21
59.8214194411
 31
0.0
  0
LINE
  5
E2
330
1F
100
AcDbEntity
  8
0
  6
Continuous
 62
     7
370
    25
100
AcDbLine
 10
104.9685056778
 20
540.4214194411
 30
0.0
 11
41.4685056778
 21
540.4214194411
 31
0.0
  0
LINE
  5
E3
330
1F
100
AcDbEntity
  8
0
  6
Continuous
 62
     7
370
    25
100
AcDbLine
 10
104.9685056778
 20
540.4214194411
 30
0.0
 11
104.9685056778
 21
534.0714194411
 31
0.0
  0
LINE
  5
E4
330
1F
100
AcDbEntity
  8
0
  6
Continuous
 62
     7
370
    25
100
AcDbLine
 10
104.9685056778
 20
534.0714194411
 30
0.0
 11
130.3685056778
 21
534.0714194411
 31
0.0
  0
LINE
  5
E5
330
1F
100
AcDbEntity
  8
0
  6
Continuous
 62
     7
370
    25
100
AcDbLine
 10
130.3685056778
 20
534.0714194411
 30
0.0
 11
130.3685056778
 21
540.4214194411
 31
0.0
  0
LINE
  5
E6
330
1F
100
AcDbEntity
  8
0
  6
Continuous
 62
     7
370
    25
100
AcDbLine
 10
329.2685056778
 20
385.3964194411
 30
0.0
 11
344.2685056778
 21
385.3964194411
 31
0.0
  0
LINE
  5
E7
330
1F
100
AcDbEntity
  8
0
  6
Continuous
 62
     7
370
    25
100
AcDbLine
 10
344.2685056778
 20
385.3964194411
 30
0.0
 11
344.2685056778
 21
397.3964194411
 31
0.0
  0
LINE
  5
E8
330
1F
100
AcDbEntity
  8
0
  6
Continuous
 62
     7
370
    25
100
AcDbLine
 10
344.2685056778
 20
397.3964194411
 30
0.0
 11
329.2685056778
 21
397.3964194411
 31
0.0
  0
LINE
  5
E9
330
1F
100
AcDbEntity
  8
0
  6
Continuous
 62
     7
370
    25
100
AcDbLine
 10
329.2685056778
 20
397.3964194411
 30
0.0
 11
329.2685056778
 21
385.3964194411
 31
0.0
  0
LINE
  5
EA
330
1F
100
AcDbEntity
  8
0
  6
Continuous
 62
     7
370
    25
100
AcDbLine
 10
363.2685056778
 20
385.3964194411
 30
0.0
 11
363.2685056778
 21
397.3964194411
 31
0.0
  0
LINE
  5
EB
330
1F
100
AcDbEntity
  8
0
  6
Continuous
 62
     7
370
    25
100
AcDbLine
 10
363.2685056778
 20
397.3964194411
 30
0.0
 11
348.2685056778
 21
397.3964194411
 31
0.0
  0
LINE
  5
EC
330
1F
100
AcDbEntity
  8
0
  6
Continuous
 62
     7
370
    25
100
AcDbLine
 10
348.2685056778
 20
397.3964194411
 30
0.0
 11
348.2685056778
 21
385.3964194411
 31
0.0
  0
LINE
  5
ED
330
1F
100
AcDbEntity
  8
0
  6
Continuous
 62
     7
370
    25
100
AcDbLine
 10
348.2685056778
 20
385.3964194411
 30
0.0
 11
363.2685056778
 21
385.3964194411
 31
0.0
  0
CIRCLE
  5
EE
330
1F
100
AcDbEntity
  8
0
  6
Continuous
 62
     7
370
    25
100
AcDbCircle
 10
120.0985056778
 20
522.0714194411
 30
0.0
 40
1.499999999999886
  0
CIRCLE
  5
EF
330
1F
100
AcDbEntity
  8
0
  6
Continuous
 62
     7
370
    25
100
AcDbCircle
 10
572.4385056778
 20
522.0714194411
 30
0.0
 40
1.500000000000114
  0
CIRCLE
  5
F0
330
1F
100
AcDbEntity
  8
0
  6
Continuous
 62
     7
370
    25
100
AcDbCircle
 10
489.3805056778
 20
522.0714194411
 30
0.0
 40
1.500000000000114
  0
CIRCLE
  5
F1
330
1F
100
AcDbEntity
  8
0
  6
Continuous
 62
     7
370
    25
100
AcDbCircle
 10
489.3805056778
 20
400.3964194411
 30
0.0
 40
1.499999999999943
  0
CIRCLE
  5
F2
330
1F
100
AcDbEntity
  8
0
  6
Continuous
 62
     7
370
    25
100
AcDbCircle
 10
203.1565056778
 20
522.0714194411
 30
0.0
 40
1.499999999999886
  0
CIRCLE
  5
F3
330
1F
100
AcDbEntity
  8
0
  6
Continuous
 62
     7
370
    25
100
AcDbCircle
 10
203.1565056778
 20
400.3964194411
 30
0.0
 40
1.499999999999943
  0
CIRCLE
  5
F4
330
1F
100
AcDbEntity
  8
0
  6
Continuous
 62
     7
370
    25
100
AcDbCircle
 10
120.0985056778
 20
400.3964194411
 30
0.0
 40
1.499999999999943
  0
CIRCLE
  5
F5
330
1F
100
AcDbEntity
  8
0
  6
Continuous
 62
     7
370
    25
100
AcDbCircle
 10
572.4385056778
 20
400.3964194411
 30
0.0
 40
1.499999999999943
  0
LINE
  5
F6
330
1F
100
AcDbEntity
  8
0
  6
Continuous
 62
     7
370
    25
100
AcDbLine
 10
573.4095056778
 20
491.0714194411
 30
0.0
 11
573.4095056778
 21
494.0714194411
 31
0.0
  0
LINE
  5
F7
330
1F
100
AcDbEntity
  8
0
  6
Continuous
 62
     7
370
    25
100
AcDbLine
 10
573.4095056778
 20
494.0714194411
 30
0.0
 11
488.4095056778
 21
494.0714194411
 31
0.0
  0
LINE
  5
F8
330
1F
100
AcDbEntity
  8
0
  6
Continuous
 62
     7
370
    25
100
AcDbLine
 10
488.4095056778
 20
494.0714194411
 30
0.0
 11
488.4095056778
 21
491.0714194411
 31
0.0
  0
LINE
  5
F9
330
1F
100
AcDbEntity
  8
0
  6
Continuous
 62
     7
370
    25
100
AcDbLine
 10
488.4095056778
 20
491.0714194411
 30
0.0
 11
573.4095056778
 21
491.0714194411
 31
0.0
  0
LINE
  5
FA
330
1F
100
AcDbEntity
  8
0
  6
Continuous
 62
     7
370
    25
100
AcDbLine
 10
204.1275056778
 20
428.3964194411
 30
0.0
 11
204.1275056778
 21
431.3964194411
 31
0.0
  0
LINE
  5
FB
330
1F
100
AcDbEntity
  8
0
  6
Continuous
 62
     7
370
    25
100
AcDbLine
 10
204.1275056778
 20
431.3964194411
 30
0.0
 11
119.1275056778
 21
431.3964194411
 31
0.0
  0
LINE
  5
FC
330
1F
100
AcDbEntity
  8
0
  6
Continuous
 62
     7
370
    25
100
AcDbLine
 10
119.1275056778
 20
431.3964194411
 30
0.0
 11
119.1275056778
 21
428.3964194411
 31
0.0
  0
LINE
  5
FD
330
1F
100
AcDbEntity
  8
0
  6
Continuous
 62
     7
370
    25
100
AcDbLine
 10
119.1275056778
 20
428.3964194411
 30
0.0
 11
204.1275056778
 21
428.3964194411
 31
0.0
  0
LINE
  5
FE
330
1F
100
AcDbEntity
  8
0
  6
Continuous
 62
     7
370
    25
100
AcDbLine
 10
119.1275056778
 20
494.0714194411
 30
0.0
 11
119.1275056778
 21
491.0714194411
 31
0.0
  0
LINE
  5
FF
330
1F
100
AcDbEntity
  8
0
  6
Continuous
 62
     7
370
    25
100
AcDbLine
 10
119.1275056778
 20
491.0714194411
 30
0.0
 11
204.1275056778
 21
491.0714194411
 31
0.0
  0
LINE
  5
100
330
1F
100
AcDbEntity
  8
0
  6
Continuous
 62
     7
370
    25
100
AcDbLine
 10
204.1275056778
 20
491.0714194411
 30
0.0
 11
204.1275056778
 21
494.0714194411
 31
0.0
  0
LINE
  5
101
330
1F
100
AcDbEntity
  8
0
  6
Continuous
 62
     7
370
    25
100
AcDbLine
 10
204.1275056778
 20
494.0714194411
 30
0.0
 11
119.1275056778
 21
494.0714194411
 31
0.0
  0
LINE
  5
102
330
1F
100
AcDbEntity
  8
0
  6
Continuous
 62
     7
370
    25
100
AcDbLine
 10
488.4095056778
 20
431.3964194411
 30
0.0
 11
488.4095056778
 21
428.3964194411
 31
0.0
  0
LINE
  5
103
330
1F
100
AcDbEntity
  8
0
  6
Continuous
 62
     7
370
    25
100
AcDbLine
 10
488.4095056778
 20
428.3964194411
 30
0.0
 11
573.4095056778
 21
428.3964194411
 31
0.0
  0
LINE
  5
104
330
1F
100
AcDbEntity
  8
0
  6
Continuous
 62
     7
370
    25
100
AcDbLine
 10
573.4095056778
 20
428.3964194411
 30
0.0
 11
573.4095056778
 21
431.3964194411
 31
0.0
  0
LINE
  5
105
330
1F
100
AcDbEntity
  8
0
  6
Continuous
 62
     7
370
    25
100
AcDbLine
 10
573.4095056778
 20
431.3964194411
 30
0.0
 11
488.4095056778
 21
431.3964194411
 31
0.0
  0
CIRCLE
  5
106
330
1F
100
AcDbEntity
  8
0
  6
Continuous
 62
     7
370
    25
100
AcDbCircle
 10
487.4095056778
 20
441.1464194411
 30
0.0
 40
1.050000000000068
  0
LINE
  5
107
330
1F
100
AcDbEntity
  8
0
  6
Continuous
 62
     7
370
    25
100
AcDbLine
 10
115.8890836778
 20
436.8964194411
 30
0.0
 11
115.8890836778
 21
451.8964194411
 31
0.0
  0
LINE
  5
108
330
1F
100
AcDbEntity
  8
0
  6
Continuous
 62
     7
370
    25
100
AcDbLine
 10
115.8890836778
 20
451.8964194411
 30
0.0
 11
105.8890836778
 21
451.8964194411
 31
0.0
  0
LINE
  5
109
330
1F
100
AcDbEntity
  8
0
  6
Continuous
 62
     7
370
    25
100
AcDbLine
 10
105.8890836778
 20
451.8964194411
 30
0.0
 11
105.8890836778
 21
436.8964194411
 31
0.0
  0
LINE
  5
10A
330
1F
100
AcDbEntity
  8
0
  6
Continuous
 62
     7
370
    25
100
AcDbLine
 10
105.8890836778
 20
436.8964194411
 30
0.0
 11
115.8890836778
 21
436.8964194411
 31
0.0
  0
CIRCLE
  5
10B
330
1F
100
AcDbEntity
  8
0
  6
Continuous
 62
     7
370
    25
100
AcDbCircle
 10
120.8890836778
 20
447.6464194411
 30
0.0
 40
1.050000000000011
  0
CIRCLE
  5
10C
330
1F
100
AcDbEntity
  8
0
  6
Continuous
 62
     7
370
    25
100
AcDbCircle
 10
120.8890836778
 20
441.1464194411
 30
0.0
 40
1.049999999999955
  0
CIRCLE
  5
10D
330
1F
100
AcDbEntity
  8
0
  6
Continuous
 62
     7
370
    25
100
AcDbCircle
 10
571.6479276778
 20
481.3214194411
 30
0.0
 40
1.050000000000011
  0
CIRCLE
  5
10E
330
1F
100
AcDbEntity
  8
0
  6
Continuous
 62
     7
370
    25
100
AcDbCircle
 10
120.8890836778
 20
481.3214194411
 30
0.0
 40
1.049999999999955
  0
CIRCLE
  5
10F
330
1F
100
AcDbEntity
  8
0
  6
Continuous
 62
     7
370
    25
100
AcDbCircle
 10
120.8890836778
 20
474.8214194411
 30
0.0
 40
1.050000000000011
  0
LINE
  5
110
330
1F
100
AcDbEntity
  8
0
  6
Continuous
 62
     7
370
    25
100
AcDbLine
 10
105.8890836778
 20
470.5714194411
 30
0.0
 11
115.8890836778
 21
470.5714194411
 31
0.0
  0
LINE
  5
111
330
1F
100
AcDbEntity
  8
0
  6
Continuous
 62
     7
370
    25
100
AcDbLine
 10
115.8890836778
 20
470.5714194411
 30
0.0
 11
115.8890836778
 21
485.5714194411
 31
0.0
  0
LINE
  5
112
330
1F
100
AcDbEntity
  8
0
  6
Continuous
 62
     7
370
    25
100
AcDbLine
 10
115.8890836778
 20
485.5714194411
 30
0.0
 11
105.8890836778
 21
485.5714194411
 31
0.0
  0
LINE
  5
113
330
1F
100
AcDbEntity
  8
0
  6
Continuous
 62
     7
370
    25
100
AcDbLine
 10
105.8890836778
 20
485.5714194411
 30
0.0
 11
105.8890836778
 21
470.5714194411
 31
0.0
  0
CIRCLE
  5
114
330
1F
100
AcDbEntity
  8
0
  6
Continuous
 62
     7
370
    25
100
AcDbCircle
 10
205.1275056778
 20
474.8214194411
 30
0.0
 40
1.049999999999955
  0
CIRCLE
  5
115
330
1F
100
AcDbEntity
  8
0
  6
Continuous
 62
     7
370
    25
100
AcDbCircle
 10
205.1275056778
 20
481.3214194411
 30
0.0
 40
1.050000000000125
  0
LINE
  5
116
330
1F
100
AcDbEntity
  8
0
  6
Continuous
 62
     7
370
    25
100
AcDbLine
 10
472.4095056778
 20
485.5714194411
 30
0.0
 11
472.4095056778
 21
470.5714194411
 31
0.0
  0
LINE
  5
117
330
1F
100
AcDbEntity
  8
0
  6
Continuous
 62
     7
370
    25
100
AcDbLine
 10
472.4095056778
 20
470.5714194411
 30
0.0
 11
482.4095056778
 21
470.5714194411
 31
0.0
  0
LINE
  5
118
330
1F
100
AcDbEntity
  8
0
  6
Continuous
 62
     7
370
    25
100
AcDbLine
 10
482.4095056778
 20
470.5714194411
 30
0.0
 11
482.4095056778
 21
485.5714194411
 31
0.0
  0
LINE
  5
119
330
1F
100
AcDbEntity
  8
0
  6
Continuous
 62
     7
370
    25
100
AcDbLine
 10
482.4095056778
 20
485.5714194411
 30
0.0
 11
472.4095056778
 21
485.5714194411
 31
0.0
  0
CIRCLE
  5
11A
330
1F
100
AcDbEntity
  8
0
  6
Continuous
 62
     7
370
    25
100
AcDbCircle
 10
487.4095056778
 20
474.8214194411
 30
0.0
 40
1.049999999999898
  0
CIRCLE
  5
11B
330
1F
100
AcDbEntity
  8
0
  6
Continuous
 62
     7
370
    25
100
AcDbCircle
 10
487.4095056778
 20
447.6464194411
 30
0.0
 40
1.050000000000011
  0
LINE
  5
11C
330
1F
100
AcDbEntity
  8
0
  6
Continuous
 62
     7
370
    25
100
AcDbLine
 10
472.4095056778
 20
436.8964194411
 30
0.0
 11
482.4095056778
 21
436.8964194411
 31
0.0
  0
LINE
  5
11D
330
1F
100
AcDbEntity
  8
0
  6
Continuous
 62
     7
370
    25
100
AcDbLine
 10
482.4095056778
 20
436.8964194411
 30
0.0
 11
482.4095056778
 21
451.8964194411
 31
0.0
  0
LINE
  5
11E
330
1F
100
AcDbEntity
  8
0
  6
Continuous
 62
     7
370
    25
100
AcDbLine
 10
482.4095056778
 20
451.8964194411
 30
0.0
 11
472.4095056778
 21
451.8964194411
 31
0.0
  0
LINE
  5
11F
330
1F
100
AcDbEntity
  8
0
  6
Continuous
 62
     7
370
    25
100
AcDbLine
 10
472.4095056778
 20
451.8964194411
 30
0.0
 11
472.4095056778
 21
436.8964194411
 31
0.0
  0
CIRCLE
  5
120
330
1F
100
AcDbEntity
  8
0
  6
Continuous
 62
     7
370
    25
100
AcDbCircle
 10
571.6479276778
 20
447.6464194411
 30
0.0
 40
1.049999999999955
  0
CIRCLE
  5
121
330
1F
100
AcDbEntity
  8
0
  6
Continuous
 62
     7
370
    25
100
AcDbCircle
 10
487.4095056778
 20
481.3214194411
 30
0.0
 40
1.049999999999955
  0
LINE
  5
122
330
1F
100
AcDbEntity
  8
0
  6
Continuous
 62
     7
370
    25
100
AcDbLine
 10
210.1275056778
 20
436.8964194411
 30
0.0
 11
220.1275056778
 21
436.8964194411
 31
0.0
  0
LINE
  5
123
330
1F
100
AcDbEntity
  8
0
  6
Continuous
 62
     7
370
    25
100
AcDbLine
 10
220.1275056778
 20
436.8964194411
 30
0.0
 11
220.1275056778
 21
451.8964194411
 31
0.0
  0
LINE
  5
124
330
1F
100
AcDbEntity
  8
0
  6
Continuous
 62
     7
370
    25
100
AcDbLine
 10
220.1275056778
 20
451.8964194411
 30
0.0
 11
210.1275056778
 21
451.8964194411
 31
0.0
  0
LINE
  5
125
330
1F
100
AcDbEntity
  8
0
  6
Continuous
 62
     7
370
    25
100
AcDbLine
 10
210.1275056778
 20
451.8964194411
 30
0.0
 11
210.1275056778
 21
436.8964194411
 31
0.0
  0
CIRCLE
  5
126
330
1F
100
AcDbEntity
  8
0
  6
Continuous
 62
     7
370
    25
100
AcDbCircle
 10
205.1275056778
 20
441.1464194411
 30
0.0
 40
1.050000000000011
  0
CIRCLE
  5
127
330
1F
100
AcDbEntity
  8
0
  6
Continuous
 62
     7
370
    25
100
AcDbCircle
 10
205.1275056778
 20
447.6464194411
 30
0.0
 40
1.049999999999841
  0
LINE
  5
128
330
1F
100
AcDbEntity
  8
0
  6
Continuous
 62
     7
370
    25
100
AcDbLine
 10
220.1275056778
 20
485.5714194411
 30
0.0
 11
210.1275056778
 21
485.5714194411
 31
0.0
  0
LINE
  5
129
330
1F
100
AcDbEntity
  8
0
  6
Continuous
 62
     7
370
    25
100
AcDbLine
 10
210.1275056778
 20
485.5714194411
 30
0.0
 11
210.1275056778
 21
470.5714194411
 31
0.0
  0
LINE
  5
12A
330
1F
100
AcDbEntity
  8
0
  6
Continuous
 62
     7
370
    25
100
AcDbLine
 10
210.1275056778
 20
470.5714194411
 30
0.0
 11
220.1275056778
 21
470.5714194411
 31
0.0
  0
LINE
  5
12B
330
1F
100
AcDbEntity
  8
0
  6
Continuous
 62
     7
370
    25
100
AcDbLine
 10
220.1275056778
 20
470.5714194411
 30
0.0
 11
220.1275056778
 21
485.5714194411
 31
0.0
  0
CIRCLE
  5
12C
330
1F
100
AcDbEntity
  8
0
  6
Continuous
 62
     7
370
    25
100
AcDbCircle
 10
571.6479276778
 20
441.1464194411
 30
0.0
 40
1.050000000000011
  0
LINE
  5
12D
330
1F
100
AcDbEntity
  8
0
  6
Continuous
 62
     7
370
    25
100
AcDbLine
 10
576.6479276778
 20
436.8964194411
 30
0.0
 11
586.6479276778
 21
436.8964194411
 31
0.0
  0
LINE
  5
12E
330
1F
100
AcDbEntity
  8
0
  6
Continuous
 62
     7
370
    25
100
AcDbLine
 10
586.6479276778
 20
436.8964194411
 30
0.0
 11
586.6479276778
 21
451.8964194411
 31
0.0
  0
LINE
  5
12F
330
1F
100
AcDbEntity
  8
0
  6
Continuous
 62
     7
370
    25
100
AcDbLine
 10
586.6479276778
 20
451.8964194411
 30
0.0
 11
576.6479276778
 21
451.8964194411
 31
0.0
  0
LINE
  5
130
330
1F
100
AcDbEntity
  8
0
  6
Continuous
 62
     7
370
    25
100
AcDbLine
 10
576.6479276778
 20
451.8964194411
 30
0.0
 11
576.6479276778
 21
436.8964194411
 31
0.0
  0
LINE
  5
131
330
1F
100
AcDbEntity
  8
0
  6
Continuous
 62
     7
370
    25
100
AcDbLine
 10
576.6479276778
 20
485.5714194411
 30
0.0
 11
576.6479276778
 21
470.5714194411
 31
0.0
  0
LINE
  5
132
330
1F
100
AcDbEntity
  8
0
  6
Continuous
 62
     7
370
    25
100
AcDbLine
 10
576.6479276778
 20
470.5714194411
 30
0.0
 11
586.6479276778
 21
470.5714194411
 31
0.0
  0
LINE
  5
133
330
1F
100
AcDbEntity
  8
0
  6
Continuous
 62
     7
370
    25
100
AcDbLine
 10
586.6479276778
 20
470.5714194411
 30
0.0
 11
586.6479276778
 21
485.5714194411
 31
0.0
  0
LINE
  5
134
330
1F
100
AcDbEntity
  8
0
  6
Continuous
 62
     7
370
    25
100
AcDbLine
 10
586.6479276778
 20
485.5714194411
 30
0.0
 11
576.6479276778
 21
485.5714194411
 31
0.0
  0
CIRCLE
  5
135
330
1F
100
AcDbEntity
  8
0
  6
Continuous
 62
     7
370
    25
100
AcDbCircle
 10
571.6479276778
 20
474.8214194411
 30
0.0
 40
1.049999999999955
  0
CIRCLE
  5
136
330
1F
100
AcDbEntity
  8
0
  6
Continuous
 62
     7
370
    25
100
AcDbCircle
 10
256.3265056778
 20
525.0714194411
 30
0.0
 40
1.499999999999886
  0
CIRCLE
  5
137
330
1F
100
AcDbEntity
  8
0
  6
Continuous
 62
     7
370
    25
100
AcDbCircle
 10
436.2105056778
 20
525.0714194411
 30
0.0
 40
1.500000000000114
  0
CIRCLE
  5
138
330
1F
100
AcDbEntity
  8
0
  6
Continuous
 62
     7
370
    25
100
AcDbCircle
 10
436.2105056778
 20
517.0714194411
 30
0.0
 40
1.5
  0
CIRCLE
  5
139
330
1F
100
AcDbEntity
  8
0
  6
Continuous
 62
     7
370
    25
100
AcDbCircle
 10
436.2105056778
 20
405.3964194411
 30
0.0
 40
1.499999999999943
  0
CIRCLE
  5
13A
330
1F
100
AcDbEntity
  8
0
  6
Continuous
 62
     7
370
    25
100
AcDbCircle
 10
436.2105056778
 20
397.3964194411
 30
0.0
 40
1.500000000000057
  0
CIRCLE
  5
13B
330
1F
100
AcDbEntity
  8
0
  6
Continuous
 62
     7
370
    25
100
AcDbCircle
 10
256.3265056778
 20
397.3964194411
 30
0.0
 40
1.499999999999943
  0
CIRCLE
  5
13C
330
1F
100
AcDbEntity
  8
0
  6
Continuous
 62
     7
370
    25
100
AcDbCircle
 10
256.3265056778
 20
405.3964194411
 30
0.0
 40
1.499999999999943
  0
CIRCLE
  5
13D
330
1F
100
AcDbEntity
  8
0
  6
Continuous
 62
     7
370
    25
100
AcDbCircle
 10
256.3265056778
 20
517.0714194411
 30
0.0
 40
1.499999999999886
  0
LINE
  5
13E
330
1F
100
AcDbEntity
  8
0
  6
Continuous
 62
     7
370
    25
100
AcDbLine
 10
600.2685056778
 20
250.3214194411
 30
0.0
 11
600.2685056778
 21
275.7214194411
 31
0.0
  0
LINE
  5
13F
330
1F
100
AcDbEntity
  8
0
  6
Continuous
 62
     7
370
    25
100
AcDbLine
 10
603.4435056778
 20
250.3214194411
 30
0.0
 11
600.2685056778
 21
250.3214194411
 31
0.0
  0
LINE
  5
140
330
1F
100
AcDbEntity
  8
0
  6
Continuous
 62
     7
370
    25
100
AcDbLine
 10
603.4435056778
 20
275.7214194411
 30
0.0
 11
600.2685056778
 21
275.7214194411
 31
0.0
  0
LINE
  5
141
330
1F
100
AcDbEntity
  8
0
  6
Continuous
 62
     7
370
    25
100
AcDbLine
 10
603.4435056778
 20
301.1214194411
 30
0.0
 11
603.4435056778
 21
326.5214194411
 31
0.0
  0
LINE
  5
142
330
1F
100
AcDbEntity
  8
0
  6
Continuous
 62
     7
370
    25
100
AcDbLine
 10
603.4435056778
 20
148.7214194411
 30
0.0
 11
603.4435056778
 21
174.1214194411
 31
0.0
  0
LINE
  5
143
330
1F
100
AcDbEntity
  8
0
  6
Continuous
 62
     7
370
    25
100
AcDbLine
 10
600.2685056778
 20
148.7214194411
 30
0.0
 11
600.2685056778
 21
174.1214194411
 31
0.0
  0
LINE
  5
144
330
1F
100
AcDbEntity
  8
0
  6
Continuous
 62
     7
370
    25
100
AcDbLine
 10
603.4435056778
 20
148.7214194411
 30
0.0
 11
600.2685056778
 21
148.7214194411
 31
0.0
  0
MTEXT
  5
146
330
1F
100
AcDbEntity
  8
0
  6
Continuous
 62
     7
100
AcDbMText
 10
0.0
 20
28.9505231388
 30
0.0
 40
10.38
 41
0.0
 71
     1
 72
     1
  1
SOLIDWORKS Educational Product.
  7
SLDTEXTSTYLE0
 73
     1
 44
1.0
  0
MTEXT
  5
147
330
1F
100
AcDbEntity
  8
0
  6
Continuous
 62
     7
100
AcDbMText
 10
0.0
 20
13.3805231388
 30
0.0
 40
10.38
 41
0.0
 71
     1
 72
     1
  1
For Instructional Use Only.
  7
SLDTEXTSTYLE0
 73
     1
 44
1.0
  0
ENDSEC
  0
SECTION
  2
OBJECTS
  0
DICTIONARY
  5
C
330
0
100
AcDbDictionary
281
     1
  3
ACAD_GROUP
350
D
  3
ACAD_LAYOUT
350
1A
  3
ACAD_MLINESTYLE
350
17
  3
ACAD_PLOTSETTINGS
350
19
  3
ACAD_PLOTSTYLENAME
350
E
  3
ACAD_SCALELIST
350
47
  3
DWGPROPS
350
148
  0
DICTIONARY
  5
D
102
{ACAD_REACTORS
330
C
102
}
330
C
100
AcDbDictionary
281
     1
  0
DICTIONARY
  5
1A
102
{ACAD_REACTORS
330
C
102
}
330
C
100
AcDbDictionary
281
     1
  3
Layout1
350
1E
  3
Layout2
350
26
  3
Model
350
22
  0
DICTIONARY
  5
17
102
{ACAD_REACTORS
330
C
102
}
330
C
100
AcDbDictionary
281
     1
  3
Standard
350
18
  0
DICTIONARY
  5
19
102
{ACAD_REACTORS
330
C
102
}
330
C
100
AcDbDictionary
281
     1
  0
ACDBDICTIONARYWDFLT
  5
E
102
{ACAD_REACTORS
330
C
102
}
330
C
100
AcDbDictionary
281
     1
  3
Normal
350
F
100
AcDbDictionaryWithDefault
340
F
  0
DICTIONARY
  5
47
102
{ACAD_REACTORS
330
C
102
}
330
C
100
AcDbDictionary
281
     1
  3
A0
350
48
  3
A1
350
49
  3
A2
350
4A
  3
A3
350
4B
  3
A4
350
4C
  3
A5
350
4D
  3
A6
350
4E
  3
A7
350
4F
  3
A8
350
50
  3
A9
350
51
  3
B0
350
52
  3
B1
350
53
  3
B2
350
54
  3
B3
350
55
  3
B4
350
56
  3
B5
350
57
  3
B6
350
58
  3
B7
350
59
  3
B8
350
5A
  3
B9
350
5B
  3
C0
350
5C
  3
C1
350
5D
  3
C2
350
5E
  3
C3
350
5F
  3
C4
350
60
  3
C5
350
61
  3
C6
350
62
  3
C7
350
63
  3
C8
350
64
  3
C9
350
65
  3
D0
350
66
  3
D1
350
67
  3
D2
350
68
  0
XRECORD
  5
148
102
{ACAD_REACTORS
330
C
102
}
330
C
100
AcDbXrecord
280
     1
  1
DWGPROPS COOKIE
  2

  3

  4

  6

  7

  8
ryca1116
  9

300
=
301
=
302
=
303
=
304
=
305
=
306
=
307
=
308
=
309
=
 40
0.0
 41
2459996.974032454
 42
2459996.974032801
  1

 90
        0
  0
LAYOUT
  5
1E
102
{ACAD_REACTORS
330
1A
102
}
330
1A
100
AcDbPlotSettings
  1

  2
none_device
  4

  6

 40
0.0
 41
0.0
 42
0.0
 43
0.0
 44
0.0
 45
0.0
 46
0.0
 47
0.0
 48
0.0
 49
0.0
140
0.0
141
0.0
142
1.0
143
1.0
 70
   688
 72
     1
 73
     0
 74
     5
  7

 75
    16
147
1.0
148
0.0
149
0.0
100
AcDbLayout
  1
Layout1
 70
     1
 71
     1
 10
0.0
 20
0.0
 11
420.0
 21
297.0
 12
0.0
 22
0.0
 32
0.0
 14
1.0000000000E+20
 24
1.0000000000E+20
 34
1.0000000000E+20
 15
-1.0000000000E+20
 25
-1.0000000000E+20
 35
-1.0000000000E+20
146
0.0
 13
0.0
 23
0.0
 33
0.0
 16
1.0
 26
0.0
 36
0.0
 17
0.0
 27
1.0
 37
0.0
 76
     0
330
1B
  0
LAYOUT
  5
26
102
{ACAD_REACTORS
330
1A
102
}
330
1A
100
AcDbPlotSettings
  1

  2
none_device
  4

  6

 40
0.0
 41
0.0
 42
0.0
 43
0.0
 44
0.0
 45
0.0
 46
0.0
 47
0.0
 48
0.0
 49
0.0
140
0.0
141
0.0
142
1.0
143
1.0
 70
   688
 72
     1
 73
     0
 74
     5
  7

 75
    16
147
1.0
148
0.0
149
0.0
100
AcDbLayout
  1
Layout2
 70
     1
 71
     2
 10
0.0
 20
0.0
 11
0.0
 21
0.0
 12
0.0
 22
0.0
 32
0.0
 14
0.0
 24
0.0
 34
0.0
 15
0.0
 25
0.0
 35
0.0
146
0.0
 13
0.0
 23
0.0
 33
0.0
 16
1.0
 26
0.0
 36
0.0
 17
0.0
 27
1.0
 37
0.0
 76
     0
330
23
  0
LAYOUT
  5
22
102
{ACAD_REACTORS
330
1A
102
}
330
1A
100
AcDbPlotSettings
  1

  2
none_device
  4
Letter_(8.50_x_11.00_Inches)
  6

 40
6.35
 41
6.35
 42
6.35000508
 43
6.35000508
 44
215.9
 45
279.4
 46
0.0
 47
0.0
 48
0.0
 49
0.0
140
0.0
141
0.0
142
1.0
143
1.0
 70
  1712
 72
     1
 73
     0
 74
     0
  7

 75
     0
147
1.0
148
0.0
149
0.0
100
AcDbLayout
  1
Model
 70
     1
 71
     0
 10
0.0
 20
0.0
 11
700.0
 21
600.0
 12
0.0
 22
0.0
 32
0.0
 14
0.0
 24
0.0
 34
0.0
 15
700.0
 25
600.0
 35
0.0
146
0.0
 13
0.0
 23
0.0
 33
0.0
 16
1.0
 26
0.0
 36
0.0
 17
0.0
 27
1.0
 37
0.0
 76
     0
330
1F
331
29
  0
MLINESTYLE
  5
18
102
{ACAD_REACTORS
330
17
102
}
330
17
100
AcDbMlineStyle
  2
Standard
 70
     0
  3

 62
   256
 51
90.0
 52
90.0
 71
     2
 49
0.5
 62
   256
  6
BYLAYER
 49
-0.5
 62
   256
  6
BYLAYER
  0
ACDBPLACEHOLDER
  5
F
102
{ACAD_REACTORS
330
E
102
}
330
E
  0
SCALE
  5
48
102
{ACAD_REACTORS
330
47
102
}
330
47
100
AcDbScale
 70
     0
300
1:1
140
1.0
141
1.0
290
     1
  0
SCALE
  5
49
102
{ACAD_REACTORS
330
47
102
}
330
47
100
AcDbScale
 70
     0
300
1:2
140
1.0
141
2.0
290
     0
  0
SCALE
  5
4A
102
{ACAD_REACTORS
330
47
102
}
330
47
100
AcDbScale
 70
     0
300
1:4
140
1.0
141
4.0
290
     0
  0
SCALE
  5
4B
102
{ACAD_REACTORS
330
47
102
}
330
47
100
AcDbScale
 70
     0
300
1:5
140
1.0
141
5.0
290
     0
  0
SCALE
  5
4C
102
{ACAD_REACTORS
330
47
102
}
330
47
100
AcDbScale
 70
     0
300
1:8
140
1.0
141
8.0
290
     0
  0
SCALE
  5
4D
102
{ACAD_REACTORS
330
47
102
}
330
47
100
AcDbScale
 70
     0
300
1:10
140
1.0
141
10.0
290
     0
  0
SCALE
  5
4E
102
{ACAD_REACTORS
330
47
102
}
330
47
100
AcDbScale
 70
     0
300
1:16
140
1.0
141
16.0
290
     0
  0
SCALE
  5
4F
102
{ACAD_REACTORS
330
47
102
}
330
47
100
AcDbScale
 70
     0
300
1:20
140
1.0
141
20.0
290
     0
  0
SCALE
  5
50
102
{ACAD_REACTORS
330
47
102
}
330
47
100
AcDbScale
 70
     0
300
1:30
140
1.0
141
30.0
290
     0
  0
SCALE
  5
51
102
{ACAD_REACTORS
330
47
102
}
330
47
100
AcDbScale
 70
     0
300
1:40
140
1.0
141
40.0
290
     0
  0
SCALE
  5
52
102
{ACAD_REACTORS
330
47
102
}
330
47
100
AcDbScale
 70
     0
300
1:50
140
1.0
141
50.0
290
     0
  0
SCALE
  5
53
102
{ACAD_REACTORS
330
47
102
}
330
47
100
AcDbScale
 70
     0
300
1:100
140
1.0
141
100.0
290
     0
  0
SCALE
  5
54
102
{ACAD_REACTORS
330
47
102
}
330
47
100
AcDbScale
 70
     0
300
2:1
140
2.0
141
1.0
290
     0
  0
SCALE
  5
55
102
{ACAD_REACTORS
330
47
102
}
330
47
100
AcDbScale
 70
     0
300
4:1
140
4.0
141
1.0
290
     0
  0
SCALE
  5
56
102
{ACAD_REACTORS
330
47
102
}
330
47
100
AcDbScale
 70
     0
300
8:1
140
8.0
141
1.0
290
     0
  0
SCALE
  5
57
102
{ACAD_REACTORS
330
47
102
}
330
47
100
AcDbScale
 70
     0
300
10:1
140
10.0
141
1.0
290
     0
  0
SCALE
  5
58
102
{ACAD_REACTORS
330
47
102
}
330
47
100
AcDbScale
 70
     0
300
100:1
140
100.0
141
1.0
290
     0
  0
SCALE
  5
59
102
{ACAD_REACTORS
330
47
102
}
330
47
100
AcDbScale
 70
     0
300
1/128" = 1'-0"
140
0.0078125
141
12.0
290
     0
  0
SCALE
  5
5A
102
{ACAD_REACTORS
330
47
102
}
330
47
100
AcDbScale
 70
     0
300
1/64" = 1'-0"
140
0.015625
141
12.0
290
     0
  0
SCALE
  5
5B
102
{ACAD_REACTORS
330
47
102
}
330
47
100
AcDbScale
 70
     0
300
1/32" = 1'-0"
140
0.03125
141
12.0
290
     0
  0
SCALE
  5
5C
102
{ACAD_REACTORS
330
47
102
}
330
47
100
AcDbScale
 70
     0
300
1/16" = 1'-0"
140
0.0625
141
12.0
290
     0
  0
SCALE
  5
5D
102
{ACAD_REACTORS
330
47
102
}
330
47
100
AcDbScale
 70
     0
300
3/32" = 1'-0"
140
0.09375
141
12.0
290
     0
  0
SCALE
  5
5E
102
{ACAD_REACTORS
330
47
102
}
330
47
100
AcDbScale
 70
     0
300
1/8" = 1'-0"
140
0.125
141
12.0
290
     0
  0
SCALE
  5
5F
102
{ACAD_REACTORS
330
47
102
}
330
47
100
AcDbScale
 70
     0
300
3/16" = 1'-0"
140
0.1875
141
12.0
290
     0
  0
SCALE
  5
60
102
{ACAD_REACTORS
330
47
102
}
330
47
100
AcDbScale
 70
     0
300
1/4" = 1'-0"
140
0.25
141
12.0
290
     0
  0
SCALE
  5
61
102
{ACAD_REACTORS
330
47
102
}
330
47
100
AcDbScale
 70
     0
300
3/8" = 1'-0"
140
0.375
141
12.0
290
     0
  0
SCALE
  5
62
102
{ACAD_REACTORS
330
47
102
}
330
47
100
AcDbScale
 70
     0
300
1/2" = 1'-0"
140
0.5
141
12.0
290
     0
  0
SCALE
  5
63
102
{ACAD_REACTORS
330
47
102
}
330
47
100
AcDbScale
 70
     0
300
3/4" = 1'-0"
140
0.75
141
12.0
290
     0
  0
SCALE
  5
64
102
{ACAD_REACTORS
330
47
102
}
330
47
100
AcDbScale
 70
     0
300
1" = 1'-0"
140
1.0
141
12.0
290
     0
  0
SCALE
  5
65
102
{ACAD_REACTORS
330
47
102
}
330
47
100
AcDbScale
 70
     0
300
1-1/2" = 1'-0"
140
1.5
141
12.0
290
     0
  0
SCALE
  5
66
102
{ACAD_REACTORS
330
47
102
}
330
47
100
AcDbScale
 70
     0
300
3" = 1'-0"
140
3.0
141
12.0
290
     0
  0
SCALE
  5
67
102
{ACAD_REACTORS
330
47
102
}
330
47
100
AcDbScale
 70
     0
300
6" = 1'-0"
140
6.0
141
12.0
290
     0
  0
SCALE
  5
68
102
{ACAD_REACTORS
330
47
102
}
330
47
100
AcDbScale
 70
     0
300
1'-0" = 1'-0"
140
12.0
141
12.0
290
     0
  0
ENDSEC
  0
EOF
