  0
SECTION
  2
HEADER
  9
$ACADVER
  1
AC1015
  9
$ACADMAINTVER
 70
     6
  9
$DWGCODEPAGE
  3
ANSI_1252
  9
$INSBASE
 10
0.0
 20
0.0
 30
0.0
  9
$EXTMIN
 10
0.0
 20
0.0
 30
0.0
  9
$EXTMAX
 10
800.0
 20
600.0
 30
0.0
  9
$LIMMIN
 10
0.0
 20
0.0
  9
$LIMMAX
 10
800.0
 20
600.0
  9
$ORTHOMODE
 70
     0
  9
$REGENMODE
 70
     1
  9
$FILLMODE
 70
     1
  9
$QTEXTMODE
 70
     0
  9
$MIRRTEXT
 70
     1
  9
$LTSCALE
 40
1.0
  9
$ATTMODE
 70
     1
  9
$TEXTSIZE
 40
3.5
  9
$TRACEWID
 40
1.0
  9
$TEXTSTYLE
  7
Standard
  9
$CLAYER
  8
0
  9
$CELTYPE
  6
ByLayer
  9
$CECOLOR
 62
   256
  9
$CELTSCALE
 40
1.0
  9
$DISPSILH
 70
     0
  9
$DIMSCALE
 40
1.0
  9
$DIMASZ
 40
3.302
  9
$DIMEXO
 40
1.27
  9
$DIMDLI
 40
3.75
  9
$DIMRND
 40
0.0
  9
$DIMDLE
 40
0.0
  9
$DIMEXE
 40
3.175
  9
$DIMTP
 40
0.0
  9
$DIMTM
 40
0.0
  9
$DIMTXT
 40
3.5
  9
$DIMCEN
 40
2.5
  9
$DIMTSZ
 40
0.0
  9
$DIMTOL
 70
     0
  9
$DIMLIM
 70
     0
  9
$DIMTIH
 70
     1
  9
$DIMTOH
 70
     1
  9
$DIMSE1
 70
     0
  9
$DIMSE2
 70
     0
  9
$DIMTAD
 70
     1
  9
$DIMZIN
 70
     1
  9
$DIMBLK
  1

  9
$DIMASO
 70
     1
  9
$DIMSHO
 70
     1
  9
$DIMPOST
  1

  9
$DIMAPOST
  1

  9
$DIMALT
 70
     0
  9
$DIMALTD
 70
     3
  9
$DIMALTF
 40
0.0393700787
  9
$DIMLFAC
 40
1.0
  9
$DIMTOFL
 70
     1
  9
$DIMTVP
 40
0.0
  9
$DIMTIX
 70
     0
  9
$DIMSOXD
 70
     0
  9
$DIMSAH
 70
     0
  9
$DIMBLK1
  1

  9
$DIMBLK2
  1

  9
$DIMSTYLE
  2
ISO-25
  9
$DIMCLRD
 70
     0
  9
$DIMCLRE
 70
     0
  9
$DIMCLRT
 70
     0
  9
$DIMTFAC
 40
1.0
  9
$DIMGAP
 40
1.524
  9
$DIMJUST
 70
     0
  9
$DIMSD1
 70
     0
  9
$DIMSD2
 70
     0
  9
$DIMTOLJ
 70
     0
  9
$DIMTZIN
 70
     1
  9
$DIMALTZ
 70
     0
  9
$DIMALTTZ
 70
     0
  9
$DIMUPT
 70
     0
  9
$DIMDEC
 70
     2
  9
$DIMTDEC
 70
     2
  9
$DIMALTU
 70
     2
  9
$DIMALTTD
 70
     3
  9
$DIMTXSTY
  7
Standard
  9
$DIMAUNIT
 70
     0
  9
$DIMADEC
 70
     2
  9
$DIMALTRND
 40
0.0
  9
$DIMAZIN
 70
     0
  9
$DIMDSEP
 70
    44
  9
$DIMATFIT
 70
     3
  9
$DIMFRAC
 70
     0
  9
$DIMLDRBLK
  1

  9
$DIMLUNIT
 70
     2
  9
$DIMLWD
 70
    -2
  9
$DIMLWE
 70
    -2
  9
$DIMTMOVE
 70
     0
  9
$LUNITS
 70
     2
  9
$LUPREC
 70
     2
  9
$SKETCHINC
 40
1.0
  9
$FILLETRAD
 40
10.0
  9
$AUNITS
 70
     0
  9
$AUPREC
 70
     2
  9
$MENU
  1
.
  9
$ELEVATION
 40
0.0
  9
$PELEVATION
 40
0.0
  9
$THICKNESS
 40
0.0
  9
$LIMCHECK
 70
     0
  9
$CHAMFERA
 40
0.0
  9
$CHAMFERB
 40
0.0
  9
$CHAMFERC
 40
0.0
  9
$CHAMFERD
 40
0.0
  9
$SKPOLY
 70
     0
  9
$TDCREATE
 40
2459927.698578484
  9
$TDUCREATE
 40
2459927.99024515
  9
$TDUPDATE
 40
2459927.698579028
  9
$TDUUPDATE
 40
2459927.990245694
  9
$TDINDWG
 40
0.0000000116
  9
$TDUSRTIMER
 40
0.0000000116
  9
$USRTIMER
 70
     1
  9
$ANGBASE
 50
0.0
  9
$ANGDIR
 70
     0
  9
$PDMODE
 70
     0
  9
$PDSIZE
 40
-1.0
  9
$PLINEWID
 40
0.0
  9
$SPLFRAME
 70
     0
  9
$SPLINETYPE
 70
     6
  9
$SPLINESEGS
 70
     8
  9
$HANDSEED
  5
131
  9
$SURFTAB1
 70
     6
  9
$SURFTAB2
 70
     6
  9
$SURFTYPE
 70
     6
  9
$SURFU
 70
     6
  9
$SURFV
 70
     6
  9
$UCSBASE
  2

  9
$UCSNAME
  2

  9
$UCSORG
 10
0.0
 20
0.0
 30
0.0
  9
$UCSXDIR
 10
1.0
 20
0.0
 30
0.0
  9
$UCSYDIR
 10
0.0
 20
1.0
 30
0.0
  9
$UCSORTHOREF
  2

  9
$UCSORTHOVIEW
 70
     0
  9
$UCSORGTOP
 10
0.0
 20
0.0
 30
0.0
  9
$UCSORGBOTTOM
 10
0.0
 20
0.0
 30
0.0
  9
$UCSORGLEFT
 10
0.0
 20
0.0
 30
0.0
  9
$UCSORGRIGHT
 10
0.0
 20
0.0
 30
0.0
  9
$UCSORGFRONT
 10
0.0
 20
0.0
 30
0.0
  9
$UCSORGBACK
 10
0.0
 20
0.0
 30
0.0
  9
$PUCSBASE
  2

  9
$PUCSNAME
  2

  9
$PUCSORG
 10
0.0
 20
0.0
 30
0.0
  9
$PUCSXDIR
 10
1.0
 20
0.0
 30
0.0
  9
$PUCSYDIR
 10
0.0
 20
1.0
 30
0.0
  9
$PUCSORTHOREF
  2

  9
$PUCSORTHOVIEW
 70
     0
  9
$PUCSORGTOP
 10
0.0
 20
0.0
 30
0.0
  9
$PUCSORGBOTTOM
 10
0.0
 20
0.0
 30
0.0
  9
$PUCSORGLEFT
 10
0.0
 20
0.0
 30
0.0
  9
$PUCSORGRIGHT
 10
0.0
 20
0.0
 30
0.0
  9
$PUCSORGFRONT
 10
0.0
 20
0.0
 30
0.0
  9
$PUCSORGBACK
 10
0.0
 20
0.0
 30
0.0
  9
$USERI1
 70
     0
  9
$USERI2
 70
     0
  9
$USERI3
 70
     0
  9
$USERI4
 70
     0
  9
$USERI5
 70
     0
  9
$USERR1
 40
0.0
  9
$USERR2
 40
0.0
  9
$USERR3
 40
0.0
  9
$USERR4
 40
0.0
  9
$USERR5
 40
0.0
  9
$WORLDVIEW
 70
     1
  9
$SHADEDGE
 70
     3
  9
$SHADEDIF
 70
    70
  9
$TILEMODE
 70
     1
  9
$MAXACTVP
 70
    64
  9
$PINSBASE
 10
0.0
 20
0.0
 30
0.0
  9
$PLIMCHECK
 70
     0
  9
$PEXTMIN
 10
1.0000000000E+20
 20
1.0000000000E+20
 30
1.0000000000E+20
  9
$PEXTMAX
 10
-1.0000000000E+20
 20
-1.0000000000E+20
 30
-1.0000000000E+20
  9
$PLIMMIN
 10
0.0
 20
0.0
  9
$PLIMMAX
 10
420.0
 20
297.0
  9
$UNITMODE
 70
     0
  9
$VISRETAIN
 70
     1
  9
$PLINEGEN
 70
     0
  9
$PSLTSCALE
 70
     1
  9
$TREEDEPTH
 70
  3020
  9
$CMLSTYLE
  2
Standard
  9
$CMLJUST
 70
     0
  9
$CMLSCALE
 40
20.0
  9
$PROXYGRAPHICS
 70
     1
  9
$MEASUREMENT
 70
     1
  9
$CELWEIGHT
370
    -1
  9
$ENDCAPS
280
     0
  9
$JOINSTYLE
280
     0
  9
$LWDISPLAY
290
     1
  9
$INSUNITS
 70
     4
  9
$HYPERLINKBASE
  1

  9
$STYLESHEET
  1

  9
$XEDIT
290
     1
  9
$CEPSNTYPE
380
     0
  9
$PSTYLEMODE
290
     1
  9
$FINGERPRINTGUID
  2
{d58563eb-fe23-4c2d-adac-d93d917277c8}
  9
$VERSIONGUID
  2
{FAEB1C32-E019-11D5-929B-00C0DF256EC4}
  9
$EXTNAMES
290
     1
  9
$PSVPSCALE
 40
0.0
  9
$OLESTARTUP
290
     0
  0
ENDSEC
  0
SECTION
  2
CLASSES
  0
CLASS
  1
ACDBDICTIONARYWDFLT
  2
AcDbDictionaryWithDefault
  3
ObjectDBX Classes
 90
        0
280
     0
281
     0
  0
CLASS
  1
VISUALSTYLE
  2
AcDbVisualStyle
  3
ObjectDBX Classes
 90
     4095
280
     0
281
     0
  0
CLASS
  1
MATERIAL
  2
AcDbMaterial
  3
ObjectDBX Classes
 90
     1153
280
     0
281
     0
  0
CLASS
  1
SCALE
  2
AcDbScale
  3
ObjectDBX Classes
 90
     1153
280
     0
281
     0
  0
CLASS
  1
TABLESTYLE
  2
AcDbTableStyle
  3
ObjectDBX Classes
 90
     4095
280
     0
281
     0
  0
CLASS
  1
MLEADERSTYLE
  2
AcDbMLeaderStyle
  3
ACDB_MLEADERSTYLE_CLASS
 90
     4095
280
     0
281
     0
  0
CLASS
  1
SUN
  2
AcDbSun
  3
SCENEOE
 90
     1153
280
     0
281
     0
  0
CLASS
  1
ACDBPLACEHOLDER
  2
AcDbPlaceHolder
  3
ObjectDBX Classes
 90
        0
280
     0
281
     0
  0
CLASS
  1
LAYOUT
  2
AcDbLayout
  3
ObjectDBX Classes
 90
        0
280
     0
281
     0
  0
ENDSEC
  0
SECTION
  2
TABLES
  0
TABLE
  2
VPORT
  5
8
330
0
100
AcDbSymbolTable
 70
     1
  0
VPORT
  5
29
330
8
100
AcDbSymbolTableRecord
100
AcDbViewportTableRecord
  2
*Active
 70
     0
 10
0.0
 20
0.0
 11
1.0
 21
1.0
 12
400.0
 22
300.0
 13
0.0
 23
0.0
 14
10.0
 24
10.0
 15
10.0
 25
10.0
 16
0.0
 26
0.0
 36
1.0
 17
0.0
 27
0.0
 37
0.0
 40
600.0
 41
1.3333333333
 42
50.0
 43
0.0
 44
0.0
 50
0.0
 51
0.0
 71
     0
 72
  2000
 73
     1
 74
     3
 75
     0
 76
     0
 77
     0
 78
     0
281
     0
 65
     1
110
0.0
120
0.0
130
0.0
111
1.0
121
0.0
131
0.0
112
0.0
122
1.0
132
0.0
 79
     0
146
0.0
  0
ENDTAB
  0
TABLE
  2
LTYPE
  5
5
330
0
100
AcDbSymbolTable
 70
     6
  0
LTYPE
  5
14
330
5
100
AcDbSymbolTableRecord
100
AcDbLinetypeTableRecord
  2
ByBlock
 70
     0
  3

 72
    65
 73
     0
 40
0.0
  0
LTYPE
  5
15
330
5
100
AcDbSymbolTableRecord
100
AcDbLinetypeTableRecord
  2
ByLayer
 70
     0
  3

 72
    65
 73
     0
 40
0.0
  0
LTYPE
  5
16
330
5
100
AcDbSymbolTableRecord
100
AcDbLinetypeTableRecord
  2
Continuous
 70
     0
  3
Solid line
 72
    65
 73
     0
 40
0.0
  0
LTYPE
  5
6E
330
5
100
AcDbSymbolTableRecord
100
AcDbLinetypeTableRecord
  2
HIDDEN
 70
     0
  3
Hidden __ __ __ __ __ __ __ __ __ __ __ __ __ __
 72
    65
 73
     2
 40
1.905
 49
1.27
 74
     0
 49
-0.635
 74
     0
  0
LTYPE
  5
6F
330
5
100
AcDbSymbolTableRecord
100
AcDbLinetypeTableRecord
  2
PHANTOM
 70
     0
  3
Phantom ______  __  __  ______  __  __  ______
 72
    65
 73
     6
 40
12.7
 49
6.35
 74
     0
 49
-1.27
 74
     0
 49
1.27
 74
     0
 49
-1.27
 74
     0
 49
1.27
 74
     0
 49
-1.27
 74
     0
  0
LTYPE
  5
70
330
5
100
AcDbSymbolTableRecord
100
AcDbLinetypeTableRecord
  2
CENTER
 70
     0
  3
Center ____ _ ____ _ ____ _ ____ _ ____ _ ____
 72
    65
 73
     4
 40
10.16
 49
6.35
 74
     0
 49
-1.27
 74
     0
 49
1.27
 74
     0
 49
-1.27
 74
     0
  0
LTYPE
  5
71
330
5
100
AcDbSymbolTableRecord
100
AcDbLinetypeTableRecord
  2
CENTERX2
 70
     0
  3
Center (2x) ________  __  ________  __  _____
 72
    65
 73
     4
 40
20.32
 49
12.7
 74
     0
 49
-2.54
 74
     0
 49
2.54
 74
     0
 49
-2.54
 74
     0
  0
LTYPE
  5
72
330
5
100
AcDbSymbolTableRecord
100
AcDbLinetypeTableRecord
  2
DOT2
 70
     0
  3
Dot (.5x) ........................................
 72
    65
 73
     2
 40
0.635
 49
0.0
 74
     0
 49
-0.635
 74
     0
  0
ENDTAB
  0
TABLE
  2
LAYER
  5
2
330
0
100
AcDbSymbolTable
 70
     1
  0
LAYER
  5
10
330
2
100
AcDbSymbolTableRecord
100
AcDbLayerTableRecord
  2
0
 70
     0
 62
     7
  6
Continuous
370
    -3
390
F
  0
ENDTAB
  0
TABLE
  2
STYLE
  5
3
330
0
100
AcDbSymbolTable
 70
     2
  0
STYLE
  5
11
330
3
100
AcDbSymbolTableRecord
100
AcDbTextStyleTableRecord
  2
Standard
 70
     0
 40
0.0
 41
1.0
 50
0.0
 71
     0
 42
3.5
  3
txt
  4

  0
STYLE
  5
12D
330
3
100
AcDbSymbolTableRecord
100
AcDbTextStyleTableRecord
  2
SLDTEXTSTYLE0
 70
     0
 40
0.0
 41
0.7
 50
0.0
 71
     0
 42
3.5
  3
TXT
  4

  0
ENDTAB
  0
TABLE
  2
VIEW
  5
6
330
0
100
AcDbSymbolTable
 70
     0
  0
ENDTAB
  0
TABLE
  2
UCS
  5
7
330
0
100
AcDbSymbolTable
 70
     0
  0
ENDTAB
  0
TABLE
  2
APPID
  5
9
330
0
100
AcDbSymbolTable
 70
     1
  0
APPID
  5
12
330
9
100
AcDbSymbolTableRecord
100
AcDbRegAppTableRecord
  2
ACAD
 70
     0
  0
ENDTAB
  0
TABLE
  2
DIMSTYLE
  5
A
330
0
100
AcDbSymbolTable
 70
     1
100
AcDbDimStyleTable
  0
DIMSTYLE
105
27
330
A
100
AcDbSymbolTableRecord
100
AcDbDimStyleTableRecord
  2
ISO-25
 70
     0
 41
2.5
 42
0.625
 43
3.75
 44
1.25
 73
     0
 74
     0
 77
     1
 78
     8
140
2.5
141
2.5
143
0.0393700787
147
0.625
171
     3
172
     1
178
     0
271
     2
272
     2
274
     3
278
    44
283
     0
284
     8
340
11
  0
ENDTAB
  0
TABLE
  2
BLOCK_RECORD
  5
1
330
0
100
AcDbSymbolTable
 70
     1
  0
BLOCK_RECORD
  5
1F
330
1
100
AcDbSymbolTableRecord
100
AcDbBlockTableRecord
  2
*Model_Space
340
22
  0
BLOCK_RECORD
  5
1B
330
1
100
AcDbSymbolTableRecord
100
AcDbBlockTableRecord
  2
*Paper_Space
340
1E
  0
BLOCK_RECORD
  5
23
330
1
100
AcDbSymbolTableRecord
100
AcDbBlockTableRecord
  2
*Paper_Space0
340
26
  0
ENDTAB
  0
ENDSEC
  0
SECTION
  2
BLOCKS
  0
BLOCK
  5
20
330
1F
100
AcDbEntity
  8
0
100
AcDbBlockBegin
  2
*Model_Space
 70
     0
 10
0.0
 20
0.0
 30
0.0
  3
*Model_Space
  1

  0
ENDBLK
  5
21
330
1F
100
AcDbEntity
  8
0
100
AcDbBlockEnd
  0
BLOCK
  5
1C
330
1B
100
AcDbEntity
 67
     1
  8
0
100
AcDbBlockBegin
  2
*Paper_Space
 70
     0
 10
0.0
 20
0.0
 30
0.0
  3
*Paper_Space
  1

  0
ENDBLK
  5
1D
330
1B
100
AcDbEntity
 67
     1
  8
0
100
AcDbBlockEnd
  0
BLOCK
  5
24
330
23
100
AcDbEntity
  8
0
100
AcDbBlockBegin
  2
*Paper_Space0
 70
     0
 10
0.0
 20
0.0
 30
0.0
  3
*Paper_Space0
  1

  0
ENDBLK
  5
25
330
23
100
AcDbEntity
  8
0
100
AcDbBlockEnd
  0
ENDSEC
  0
SECTION
  2
ENTITIES
  0
LINE
  5
73
330
1F
100
AcDbEntity
  8
0
  6
Continuous
 62
     7
100
AcDbLine
 10
680.0250548267
 20
103.547280987
 30
0.0
 11
641.2136080163
 21
103.547280987
 31
0.0
  0
LWPOLYLINE
  5
74
330
1F
100
AcDbEntity
  8
0
  6
Continuous
 62
     7
100
AcDbPolyline
 90
       75
 70
   128
 43
0.0
 10
678.8708580214
 20
103.547280987
 10
678.8712086728
 20
93.547280987
 10
678.8712086728
 20
93.547280987
 10
677.2686445703
 20
93.547280987
 10
677.2686445703
 20
93.547280987
 10
676.9321061087
 20
93.5492841922
 10
676.6176029036
 20
93.5593002178
 10
676.3291413651
 20
93.5733226537
 10
676.0627150831
 20
93.5913514999
 10
675.8183240574
 20
93.6173931665
 10
675.5979714933
 20
93.6474412434
 10
675.4016573908
 20
93.6834989357
 10
675.2293817498
 20
93.7255662434
 10
675.2293817498
 20
93.7255662434
 10
675.0050227754
 20
93.7916720127
 10
674.7946862369
 20
93.8718002178
 10
674.5943657241
 20
93.9639476537
 10
674.4060644421
 20
94.0681143204
 10
674.2297823908
 20
94.1863034229
 10
674.0655195703
 20
94.3165117563
 10
673.9112727754
 20
94.4607425255
 10
673.7710484164
 20
94.6169925255
 10
673.6448464933
 20
94.7832585511
 10
673.5346702113
 20
94.9575373973
 10
673.4405195703
 20
95.139829064
 10
673.3664009805
 20
95.328130346
 10
673.3063048267
 20
95.5244444486
 10
673.264237519
 20
95.7267681665
 10
673.2381958523
 20
95.937104705
 10
673.2301830318
 20
96.155454064
 10
673.2301830318
 20
96.155454064
 10
673.2462086728
 20
96.4359027819
 10
673.2922823908
 20
96.7043322691
 10
673.3684041856
 20
96.9587393204
 10
673.4745740574
 20
97.1991239357
 10
673.6168016215
 20
97.4314957306
 10
673.795086878
 20
97.655854705
 10
674.0134362369
 20
97.8722008588
 10
674.2678432882
 20
98.0825373973
 10
674.2678432882
 20
98.0825373973
 10
674.0575067498
 20
98.1927136793
 10
673.8611926472
 20
98.3088995768
 10
673.6809041856
 20
98.4310950896
 10
673.5126349549
 20
98.5613034229
 10
673.3603913651
 20
98.6955181665
 10
673.2241734164
 20
98.8397489357
 10
673.0999746985
 20
98.9879861152
 10
672.9918016215
 20
99.1442361152
 10
672.8976509805
 20
99.3084989357
 10
672.8155195703
 20
99.4787713716
 10
672.7474105959
 20
99.6550534229
 10
672.6893176472
 20
99.8413514999
 10
672.6452471344
 20
100.0336591922
 10
672.6151990574
 20
100.2319764999
 10
672.5951670062
 20
100.4383066281
 10
672.5891573908
 20
100.6526495768
 10
672.5891573908
 20
100.6526495768
 10
672.6172022626
 20
101.0613034229
 10
672.6993336728
 20
101.4519284229
 10
672.8355516215
 20
101.8245245768
 10
673.0258561087
 20
102.1770886793
 10
673.2602311087
 20
102.499604705
 10
673.5266573908
 20
102.7800534229
 10
673.8231317498
 20
103.0144284229
 10
674.1516573908
 20
103.2067361152
 10
674.3319458523
 20
103.2868643204
 10
674.53026316
 20
103.3549732947
 10
674.7446061087
 20
103.4150694486
 10
674.9749746985
 20
103.4631463716
 10
675.2213689292
 20
103.499204064
 10
675.483788801
 20
103.5252457306
 10
675.7622343139
 20
103.5412713716
 10
676.0587086728
 20
103.547280987
 10
676.0587086728
 20
103.547280987
 10
678.8712086728
 20
103.547280987
  0
LWPOLYLINE
  5
75
330
1F
100
AcDbEntity
  8
0
  6
Continuous
 62
     7
100
AcDbPolyline
 90
       32
 70
   128
 43
0.0
 10
677.0760429579
 20
95.3421527819
 10
677.076336878
 20
97.5216399614
 10
677.076336878
 20
97.5216399614
 10
676.5995740574
 20
97.5216399614
 10
676.5995740574
 20
97.5216399614
 10
676.40526316
 20
97.5176335511
 10
676.2249746985
 20
97.5036111152
 10
676.0587086728
 20
97.4795726537
 10
675.9024586728
 20
97.4455181665
 10
675.7602311087
 20
97.4034508588
 10
675.6320259805
 20
97.3513675255
 10
675.5158400831
 20
97.2892681665
 10
675.4116734164
 20
97.219155987
 10
675.2434041856
 20
97.0548931665
 10
675.1212086728
 20
96.8625854742
 10
675.0490932882
 20
96.6422329101
 10
675.0250548267
 20
96.3958386793
 10
675.0250548267
 20
96.3958386793
 10
675.0470900831
 20
96.1654700896
 10
675.1172022626
 20
95.9611431665
 10
675.2313849549
 20
95.780854705
 10
675.3916413651
 20
95.6266079101
 10
675.4897984164
 20
95.5605021409
 10
675.5999746985
 20
95.5024091922
 10
675.7221702113
 20
95.452329064
 10
675.8563849549
 20
95.4142681665
 10
676.0026189292
 20
95.3822168845
 10
676.1608721344
 20
95.3601816281
 10
676.3311445703
 20
95.3461591922
 10
676.5134362369
 20
95.3421527819
 10
676.5134362369
 20
95.3421527819
 10
677.076336878
 20
95.3421527819
  0
LWPOLYLINE
  5
76
330
1F
100
AcDbEntity
  8
0
  6
Continuous
 62
     7
100
AcDbPolyline
 90
       40
 70
   128
 43
0.0
 10
677.0760429579
 20
99.1883066281
 10
677.076336878
 20
101.7524091922
 10
677.076336878
 20
101.7524091922
 10
676.5595099549
 20
101.7524091922
 10
676.5595099549
 20
101.7524091922
 10
676.2530195703
 20
101.7484027819
 10
675.9705676472
 20
101.734380346
 10
675.7161605959
 20
101.7103418845
 10
675.4857920062
 20
101.6782906024
 10
675.2834682882
 20
101.6342200896
 10
675.1071862369
 20
101.5841399614
 10
674.9549426472
 20
101.5220406024
 10
674.8307439292
 20
101.4519284229
 10
674.7265772626
 20
101.3738034229
 10
674.6344298267
 20
101.2856623973
 10
674.5583080318
 20
101.1895085511
 10
674.4962086728
 20
101.0853418845
 10
674.4461285446
 20
100.9731623973
 10
674.4120740574
 20
100.8509668845
 10
674.390038801
 20
100.7207585511
 10
674.3840291856
 20
100.5825373973
 10
674.3840291856
 20
100.5825373973
 10
674.3920420062
 20
100.4242841922
 10
674.4160804677
 20
100.2760470127
 10
674.4581477754
 20
100.1358226537
 10
674.514237519
 20
100.0036111152
 10
674.5883561087
 20
99.8794123973
 10
674.6785003395
 20
99.765229705
 10
674.7846702113
 20
99.6590598332
 10
674.9068657241
 20
99.5609027819
 10
675.0490932882
 20
99.4727617563
 10
675.2133561087
 20
99.3986431665
 10
675.3976509805
 20
99.3345406024
 10
675.6039811087
 20
99.2824572691
 10
675.8323464933
 20
99.2403899614
 10
676.0827471344
 20
99.2123450896
 10
676.3551830318
 20
99.1943162434
 10
676.6476509805
 20
99.1883066281
 10
676.6476509805
 20
99.1883066281
 10
677.076336878
 20
99.1883066281
  0
LWPOLYLINE
  5
77
330
1F
100
AcDbEntity
  8
0
  6
Continuous
 62
     7
100
AcDbPolyline
 90
       62
 70
   128
 43
0.0
 10
664.6916282851
 20
96.2395886793
 10
662.8968496985
 20
96.2395886793
 10
662.8968496985
 20
96.2395886793
 10
662.8968496985
 20
103.547280987
 10
662.8968496985
 20
103.547280987
 10
664.6917214933
 20
103.547280987
 10
664.6917214933
 20
103.547280987
 10
664.6917214933
 20
102.750005346
 10
664.6917214933
 20
102.750005346
 10
664.9621541856
 20
102.9783707306
 10
665.232586878
 20
103.1746848332
 10
665.5050227754
 20
103.3329380383
 10
665.7754554677
 20
103.4591399614
 10
666.0539009805
 20
103.5532906024
 10
666.342362519
 20
103.6213995768
 10
666.6428432882
 20
103.6614636793
 10
666.9553432882
 20
103.6754861152
 10
666.9553432882
 20
103.6754861152
 10
667.3059041856
 20
103.6594604742
 10
667.6444458523
 20
103.6073771409
 10
667.9689650831
 20
103.5232425255
 10
668.2834682882
 20
103.4050534229
 10
668.5859522626
 20
103.2528098332
 10
668.8764170062
 20
103.0665117563
 10
669.1528593139
 20
102.8481623973
 10
669.4192855959
 20
102.593755346
 10
669.6636766215
 20
102.3153098332
 10
669.8760163651
 20
102.0208386793
 10
670.0543016215
 20
101.7103418845
 10
670.2005355959
 20
101.3818162434
 10
670.3147182882
 20
101.0392681665
 10
670.3968496985
 20
100.6786912434
 10
670.4449266215
 20
100.3000854742
 10
670.4609522626
 20
99.9074572691
 10
670.4609522626
 20
99.9074572691
 10
670.4449266215
 20
99.5008066281
 10
670.3988529036
 20
99.1121848332
 10
670.3187246985
 20
98.7415918845
 10
670.2085484164
 20
98.391030987
 10
670.0683240574
 20
98.0584989357
 10
669.8940452113
 20
97.7459989357
 10
669.6897182882
 20
97.4515277819
 10
669.4533400831
 20
97.1750854742
 10
669.1949266215
 20
96.9266880383
 10
668.9244939292
 20
96.7103418845
 10
668.6380355959
 20
96.5260470127
 10
668.3395580318
 20
96.3778098332
 10
668.0270580318
 20
96.2616239357
 10
667.702538801
 20
96.1774893204
 10
667.3619939292
 20
96.1274091922
 10
667.0094298267
 20
96.1113835511
 10
667.0094298267
 20
96.1113835511
 10
666.6829073908
 20
96.125405987
 10
666.3664009805
 20
96.171479705
 10
666.061913801
 20
96.2435950896
 10
665.7654394421
 20
96.3477617563
 10
665.4809843139
 20
96.4819764999
 10
665.2065452113
 20
96.6462393204
 10
664.9441253395
 20
96.8385470127
 10
664.6917214933
 20
97.062905987
 10
664.6917214933
 20
97.062905987
 10
664.6917214933
 20
96.2395886793
  0
LWPOLYLINE
  5
78
330
1F
100
AcDbEntity
  8
0
  6
Continuous
 62
     7
100
AcDbPolyline
 90
       68
 70
   128
 43
0.0
 10
666.632355519
 20
97.7780502178
 10
666.8471702113
 20
97.7880662434
 10
667.0514971344
 20
97.8141079101
 10
667.2478112369
 20
97.8601816281
 10
667.4341093139
 20
97.9262873973
 10
667.6103913651
 20
98.0084188075
 10
667.7786605959
 20
98.108579064
 10
667.936913801
 20
98.2287713716
 10
668.0871541856
 20
98.3669925255
 10
668.2233721344
 20
98.5192361152
 10
668.3395580318
 20
98.6834989357
 10
668.4397182882
 20
98.8557745768
 10
668.5218496985
 20
99.0400694486
 10
668.5839490574
 20
99.234380346
 10
668.6300227754
 20
99.4387072691
 10
668.6560644421
 20
99.6550534229
 10
668.6660804677
 20
99.8794123973
 10
668.6660804677
 20
99.8794123973
 10
668.6560644421
 20
100.1057745768
 10
668.6300227754
 20
100.3241239357
 10
668.5839490574
 20
100.530454064
 10
668.5178432882
 20
100.7267681665
 10
668.435711878
 20
100.9130662434
 10
668.3335484164
 20
101.0873450896
 10
668.2133561087
 20
101.2536111152
 10
668.0751349549
 20
101.4078579101
 10
667.9228913651
 20
101.5480822691
 10
667.76463816
 20
101.6702777819
 10
667.5943657241
 20
101.7744444486
 10
667.4180836728
 20
101.858579064
 10
667.2317855959
 20
101.9246848332
 10
667.0394779036
 20
101.9707585511
 10
666.8351509805
 20
101.9988034229
 10
666.6248144421
 20
102.0088194486
 10
666.6248144421
 20
102.0088194486
 10
666.4064650831
 20
101.9988034229
 10
666.1981317498
 20
101.9727617563
 10
665.9998144421
 20
101.9266880383
 10
665.81151316
 20
101.8605822691
 10
665.6312246985
 20
101.7784508588
 10
665.4609522626
 20
101.6762873973
 10
665.3006958523
 20
101.5560950896
 10
665.1484522626
 20
101.4178739357
 10
665.0122343139
 20
101.265630346
 10
664.8920420062
 20
101.1013675255
 10
664.7918817498
 20
100.9250854742
 10
664.7097503395
 20
100.7367841922
 10
664.6456477754
 20
100.5384668845
 10
664.5995740574
 20
100.328130346
 10
664.5735323908
 20
100.1057745768
 10
664.5635163651
 20
99.8734027819
 10
664.5635163651
 20
99.8734027819
 10
664.5735323908
 20
99.6450373973
 10
664.5995740574
 20
99.4286912434
 10
664.6456477754
 20
99.2223611152
 10
664.7097503395
 20
99.0260470127
 10
664.7918817498
 20
98.8417521409
 10
664.8920420062
 20
98.6694764999
 10
665.0122343139
 20
98.5072168845
 10
665.1484522626
 20
98.3569764999
 10
665.3006958523
 20
98.2207585511
 10
665.4609522626
 20
98.1045726537
 10
665.6332279036
 20
98.0044123973
 10
665.8135163651
 20
97.922280987
 10
666.0038208523
 20
97.8601816281
 10
666.2041413651
 20
97.8141079101
 10
666.4124746985
 20
97.7880662434
 10
666.6328272626
 20
97.7780502178
  0
LWPOLYLINE
  5
79
330
1F
100
AcDbEntity
  8
0
  6
Continuous
 62
     7
100
AcDbPolyline
 90
      134
 70
   128
 43
0.0
 10
655.7685745436
 20
97.3673931665
 10
656.8664009805
 20
98.547280987
 10
656.8664009805
 20
98.547280987
 10
657.0326670062
 20
98.3669925255
 10
657.1929234164
 20
98.2107425255
 10
657.3511766215
 20
98.078530987
 10
657.5054234164
 20
97.9703579101
 10
657.6536605959
 20
97.8862232947
 10
657.7998945703
 20
97.8261271409
 10
657.9421221344
 20
97.7900694486
 10
658.0803432882
 20
97.7780502178
 10
658.0803432882
 20
97.7780502178
 10
658.2205676472
 20
97.7860630383
 10
658.3467695703
 20
97.8101014999
 10
658.4549426472
 20
97.8501656024
 10
658.5470900831
 20
97.906255346
 10
658.6212086728
 20
97.9743643204
 10
658.6752952113
 20
98.0504861152
 10
658.7073464933
 20
98.1326175255
 10
658.717362519
 20
98.2247649614
 10
658.717362519
 20
98.2247649614
 10
658.6913208523
 20
98.3629861152
 10
658.6091894421
 20
98.4911912434
 10
658.5370740574
 20
98.5572970127
 10
658.4248945703
 20
98.6354220127
 10
658.2726509805
 20
98.7235630383
 10
658.0803432882
 20
98.8237232947
 10
658.0803432882
 20
98.8237232947
 10
657.4313048267
 20
99.1522489357
 10
657.4313048267
 20
99.1522489357
 10
657.1849105959
 20
99.280454064
 10
656.9585484164
 20
99.4106623973
 10
656.7522182882
 20
99.5388675255
 10
656.5659202113
 20
99.671079064
 10
656.3996541856
 20
99.8012873973
 10
656.2554234164
 20
99.9334989357
 10
656.1292214933
 20
100.0657104742
 10
656.0230516215
 20
100.1979220127
 10
655.8547823908
 20
100.4763675255
 10
655.7365932882
 20
100.7768482947
 10
655.6644779036
 20
101.0993643204
 10
655.6404394421
 20
101.4459188075
 10
655.6404394421
 20
101.4459188075
 10
655.6524586728
 20
101.6802938075
 10
655.6845099549
 20
101.9026495768
 10
655.7405996985
 20
102.1169925255
 10
655.8167214933
 20
102.3213194486
 10
655.9168817498
 20
102.5136271409
 10
656.0390772626
 20
102.6979220127
 10
656.1813048267
 20
102.8722008588
 10
656.3475708523
 20
103.0364636793
 10
656.5318657241
 20
103.186704064
 10
656.7321862369
 20
103.3169123973
 10
656.9465291856
 20
103.4250854742
 10
657.1748945703
 20
103.515229705
 10
657.4192855959
 20
103.5853418845
 10
657.6797022626
 20
103.6354220127
 10
657.9541413651
 20
103.6654700896
 10
658.2446061087
 20
103.6754861152
 10
658.2446061087
 20
103.6754861152
 10
658.6292214933
 20
103.655454064
 10
658.9958080318
 20
103.5993643204
 10
659.3403593139
 20
103.5032104742
 10
659.6668817498
 20
103.3689957306
 10
659.9713689292
 20
103.1967200896
 10
660.2578272626
 20
102.984380346
 10
660.5222503395
 20
102.7359829101
 10
660.7686445703
 20
102.4475213716
 10
660.7686445703
 20
102.4475213716
 10
659.6809041856
 20
101.2395886793
 10
659.6809041856
 20
101.2395886793
 10
659.5186445703
 20
101.4038514999
 10
659.3443657241
 20
101.5520886793
 10
659.1540612369
 20
101.6822970127
 10
658.951737519
 20
101.796479705
 10
658.749413801
 20
101.8886271409
 10
658.5591093139
 20
101.9567361152
 10
658.3788208523
 20
101.9947970127
 10
658.2125548267
 20
102.0088194486
 10
658.2125548267
 20
102.0088194486
 10
658.046288801
 20
101.9988034229
 10
657.8960484164
 20
101.9667521409
 10
657.763836878
 20
101.9126656024
 10
657.6476509805
 20
101.8385470127
 10
657.5555035446
 20
101.750405987
 10
657.4893977754
 20
101.656255346
 10
657.4493336728
 20
101.5540918845
 10
657.4353112369
 20
101.4459188075
 10
657.4353112369
 20
101.4459188075
 10
657.4473304677
 20
101.343755346
 10
657.48338816
 20
101.2415918845
 10
657.5434843139
 20
101.1394284229
 10
657.6276189292
 20
101.0372649614
 10
657.7357920062
 20
100.937104705
 10
657.8700067498
 20
100.8369444486
 10
658.0262567498
 20
100.7367841922
 10
658.2065452113
 20
100.6386271409
 10
658.2065452113
 20
100.6386271409
 10
658.8014971344
 20
100.3381463716
 10
658.8014971344
 20
100.3381463716
 10
659.20213816
 20
100.1137873973
 10
659.5506958523
 20
99.875405987
 10
659.843163801
 20
99.6230021409
 10
660.0855516215
 20
99.3565758588
 10
660.2718496985
 20
99.078130346
 10
660.4060644421
 20
98.7836591922
 10
660.4861926472
 20
98.4771688075
 10
660.5122343139
 20
98.156655987
 10
660.5122343139
 20
98.156655987
 10
660.5022182882
 20
97.9483226537
 10
660.4701670062
 20
97.750005346
 10
660.4180836728
 20
97.5576976537
 10
660.3459682882
 20
97.3734027819
 10
660.2538208523
 20
97.1951175255
 10
660.13963816
 20
97.0268482947
 10
660.0054234164
 20
96.8645886793
 10
659.8491734164
 20
96.7103418845
 10
659.6768977754
 20
96.5701175255
 10
659.4946061087
 20
96.4479220127
 10
659.3002952113
 20
96.3457585511
 10
659.0939650831
 20
96.2616239357
 10
658.8756157241
 20
96.1955181665
 10
658.6472503395
 20
96.1494444486
 10
658.4068657241
 20
96.1213995768
 10
658.154461878
 20
96.1113835511
 10
658.154461878
 20
96.1113835511
 10
657.8059041856
 20
96.1314156024
 10
657.4693657241
 20
96.1935149614
 10
657.1408400831
 20
96.2936752178
 10
656.8243336728
 20
96.4359027819
 10
656.5238529036
 20
96.6161912434
 10
656.249413801
 20
96.8305341922
 10
655.9970099549
 20
97.0809348332
 10
655.7686445703
 20
97.3673931665
  0
LWPOLYLINE
  5
7A
330
1F
100
AcDbEntity
  8
0
  6
Continuous
 62
     7
100
AcDbPolyline
 90
       36
 70
   128
 43
0.0
 10
652.490319081
 20
93.1626656024
 10
652.2602311087
 20
93.1847008588
 10
652.0478913651
 20
93.2528098332
 10
651.8515772626
 20
93.3629861152
 10
651.6732920062
 20
93.5192361152
 10
651.5250548267
 20
93.7075373973
 10
651.4188849549
 20
93.9158707306
 10
651.3547823908
 20
94.1422329101
 10
651.3327471344
 20
94.3866239357
 10
651.3327471344
 20
94.3866239357
 10
651.3547823908
 20
94.6290117563
 10
651.4168817498
 20
94.8533707306
 10
651.5230516215
 20
95.0576976537
 10
651.6692855959
 20
95.2439957306
 10
651.8475708523
 20
95.3982425255
 10
652.0398785446
 20
95.5104220127
 10
652.2502150831
 20
95.5765277819
 10
652.4765772626
 20
95.5985630383
 10
652.4765772626
 20
95.5985630383
 10
652.7089490574
 20
95.5765277819
 10
652.9232920062
 20
95.5084188075
 10
653.1216093139
 20
95.3942361152
 10
653.2998945703
 20
95.2359829101
 10
653.4481317498
 20
95.0456784229
 10
653.5563048267
 20
94.8373450896
 10
653.6184041856
 20
94.608979705
 10
653.6404394421
 20
94.3605822691
 10
653.6404394421
 20
94.3605822691
 10
653.6184041856
 20
94.1222008588
 10
653.5563048267
 20
93.8998450896
 10
653.4501349549
 20
93.6975213716
 10
653.3018977754
 20
93.5132264999
 10
653.1256157241
 20
93.358979705
 10
652.9313048267
 20
93.2508066281
 10
652.7189650831
 20
93.1847008588
 10
652.4905996985
 20
93.1626656024
  0
LWPOLYLINE
  5
7B
330
1F
100
AcDbEntity
  8
0
  6
Continuous
 62
     7
100
AcDbPolyline
 90
        8
 70
   128
 43
0.0
 10
653.3839119154
 20
96.2395886793
 10
651.5891573908
 20
96.2395886793
 10
651.5891573908
 20
96.2395886793
 10
651.5891573908
 20
103.547280987
 10
651.5891573908
 20
103.547280987
 10
653.3840291856
 20
103.547280987
 10
653.3840291856
 20
103.547280987
 10
653.3840291856
 20
96.2395886793
  0
LWPOLYLINE
  5
7C
330
1F
100
AcDbEntity
  8
0
  6
Continuous
 62
     7
100
AcDbPolyline
 90
      120
 70
   128
 43
0.0
 10
642.0246971327
 20
97.7299732947
 10
643.5114330318
 20
98.547280987
 10
643.5114330318
 20
98.547280987
 10
643.7197663651
 20
98.3469604742
 10
643.9280996985
 20
98.1806944486
 10
644.1344298267
 20
98.046479705
 10
644.3387567498
 20
97.9463194486
 10
644.5530996985
 20
97.8722008588
 10
644.7834682882
 20
97.8201175255
 10
645.0318657241
 20
97.7880662434
 10
645.2982920062
 20
97.7780502178
 10
645.2982920062
 20
97.7780502178
 10
645.5426830318
 20
97.7880662434
 10
645.7750548267
 20
97.8161111152
 10
645.9954073908
 20
97.8621848332
 10
646.2037407241
 20
97.9282906024
 10
646.4000548267
 20
98.0144284229
 10
646.5863529036
 20
98.1165918845
 10
646.7586285446
 20
98.2387873973
 10
646.9188849549
 20
98.3810149614
 10
647.0631157241
 20
98.5372649614
 10
647.1893176472
 20
98.7055341922
 10
647.295487519
 20
98.8818162434
 10
647.3836285446
 20
99.0701175255
 10
647.451737519
 20
99.2704380383
 10
647.4998144421
 20
99.4787713716
 10
647.5278593139
 20
99.6991239357
 10
647.5378753395
 20
99.9294925255
 10
647.5378753395
 20
99.9294925255
 10
647.5278593139
 20
100.1538514999
 10
647.5018176472
 20
100.3681944486
 10
647.4557439292
 20
100.5705181665
 10
647.38963816
 20
100.7628258588
 10
647.3075067498
 20
100.9451175255
 10
647.2053432882
 20
101.1173931665
 10
647.0851509805
 20
101.2776495768
 10
646.9469298267
 20
101.4278899614
 10
646.7946862369
 20
101.5641079101
 10
646.6284202113
 20
101.6822970127
 10
646.45213816
 20
101.7824572691
 10
646.2658400831
 20
101.8645886793
 10
646.0655195703
 20
101.9266880383
 10
645.8531798267
 20
101.9727617563
 10
645.6308240574
 20
101.9988034229
 10
645.3964490574
 20
102.0088194486
 10
645.3964490574
 20
102.0088194486
 10
645.107987519
 20
101.9968002178
 10
644.8355516215
 20
101.9607425255
 10
644.5811445703
 20
101.9006463716
 10
644.3407599549
 20
101.8165117563
 10
644.1184041856
 20
101.7083386793
 10
643.9120740574
 20
101.5761271409
 10
643.7217695703
 20
101.4198771409
 10
643.5474907241
 20
101.2395886793
 10
643.5474907241
 20
101.2395886793
 10
642.1532599549
 20
102.1971207306
 10
642.1532599549
 20
102.1971207306
 10
642.451737519
 20
102.5436752178
 10
642.78026316
 20
102.844155987
 10
643.1368336728
 20
103.0985630383
 10
643.5234522626
 20
103.3068963716
 10
643.9381157241
 20
103.4671527819
 10
644.3828272626
 20
103.5833386793
 10
644.857586878
 20
103.6514476537
 10
645.3603913651
 20
103.6754861152
 10
645.3603913651
 20
103.6754861152
 10
645.8131157241
 20
103.6574572691
 10
646.2418016215
 20
103.6053739357
 10
646.6444458523
 20
103.5172329101
 10
647.0210484164
 20
103.3950373973
 10
647.373612519
 20
103.2367841922
 10
647.7001349549
 20
103.0424732947
 10
648.0006157241
 20
102.8141079101
 10
648.2770580318
 20
102.5516880383
 10
648.5254554677
 20
102.265229705
 10
648.7397984164
 20
101.9667521409
 10
648.920086878
 20
101.6542521409
 10
649.0683240574
 20
101.3317361152
 10
649.1845099549
 20
100.9972008588
 10
649.2666413651
 20
100.6506463716
 10
649.3167214933
 20
100.2900694486
 10
649.3327471344
 20
99.9194764999
 10
649.3327471344
 20
99.9194764999
 10
649.3247343139
 20
99.6610630383
 10
649.3006958523
 20
99.4086591922
 10
649.2606317498
 20
99.1602617563
 10
649.2045420062
 20
98.9178739357
 10
649.1304234164
 20
98.6794925255
 10
649.0422823908
 20
98.4471207306
 10
648.936112519
 20
98.218755346
 10
648.8159202113
 20
97.9963995768
 10
648.6797022626
 20
97.7820566281
 10
648.5314650831
 20
97.5797329101
 10
648.3712086728
 20
97.3894284229
 10
648.1969298267
 20
97.2111431665
 10
648.0106317498
 20
97.0448771409
 10
647.8103112369
 20
96.8886271409
 10
647.5979714933
 20
96.7463995768
 10
647.373612519
 20
96.6141880383
 10
647.139237519
 20
96.4959989357
 10
646.8988529036
 20
96.3938354742
 10
646.6504554677
 20
96.3076976537
 10
646.3960484164
 20
96.2375854742
 10
646.1336285446
 20
96.1814957306
 10
645.8651990574
 20
96.1434348332
 10
645.5887567498
 20
96.1193963716
 10
645.3063048267
 20
96.1113835511
 10
645.3063048267
 20
96.1113835511
 10
645.0438849549
 20
96.1173931665
 10
644.7894779036
 20
96.1374252178
 10
644.5410804677
 20
96.171479705
 10
644.3006958523
 20
96.2175534229
 10
644.0663208523
 20
96.2756463716
 10
643.8379554677
 20
96.3477617563
 10
643.6176029036
 20
96.4338995768
 10
643.4032599549
 20
96.5320566281
 10
643.0026189292
 20
96.7664316281
 10
642.6380355959
 20
97.0428739357
 10
642.3135163651
 20
97.3653899614
 10
642.0250548267
 20
97.7299732947
  0
LINE
  5
7D
330
1F
100
AcDbEntity
  8
0
  6
Continuous
 62
     7
370
    25
100
AcDbLine
 10
618.4178611952
 20
348.271358156
 30
0.0
 11
618.4178611952
 21
351.446358156
 31
0.0
  0
LINE
  5
7E
330
1F
100
AcDbEntity
  8
0
  6
Continuous
 62
     7
370
    25
100
AcDbLine
 10
567.6178611952
 20
351.446358156
 30
0.0
 11
618.4178611952
 21
351.446358156
 31
0.0
  0
LINE
  5
7F
330
1F
100
AcDbEntity
  8
0
  6
Continuous
 62
     7
370
    25
100
AcDbLine
 10
567.6178611952
 20
348.271358156
 30
0.0
 11
567.6178611952
 21
351.446358156
 31
0.0
  0
LINE
  5
80
330
1F
100
AcDbEntity
  8
0
  6
Continuous
 62
     7
370
    25
100
AcDbLine
 10
567.6178611952
 20
348.271358156
 30
0.0
 11
618.4178611952
 21
348.271358156
 31
0.0
  0
LINE
  5
81
330
1F
100
AcDbEntity
  8
0
  6
Continuous
 62
     7
370
    25
100
AcDbLine
 10
516.8178611952
 20
348.271358156
 30
0.0
 11
516.8178611952
 21
351.446358156
 31
0.0
  0
LINE
  5
82
330
1F
100
AcDbEntity
  8
0
  6
Continuous
 62
     7
370
    25
100
AcDbLine
 10
466.0178611952
 20
351.446358156
 30
0.0
 11
516.8178611952
 21
351.446358156
 31
0.0
  0
LINE
  5
83
330
1F
100
AcDbEntity
  8
0
  6
Continuous
 62
     7
370
    25
100
AcDbLine
 10
466.0178611952
 20
348.271358156
 30
0.0
 11
466.0178611952
 21
351.446358156
 31
0.0
  0
LINE
  5
84
330
1F
100
AcDbEntity
  8
0
  6
Continuous
 62
     7
370
    25
100
AcDbLine
 10
466.0178611952
 20
348.271358156
 30
0.0
 11
516.8178611952
 21
348.271358156
 31
0.0
  0
LINE
  5
85
330
1F
100
AcDbEntity
  8
0
  6
Continuous
 62
     7
370
    25
100
AcDbLine
 10
415.2178611952
 20
348.271358156
 30
0.0
 11
415.2178611952
 21
351.446358156
 31
0.0
  0
LINE
  5
86
330
1F
100
AcDbEntity
  8
0
  6
Continuous
 62
     7
370
    25
100
AcDbLine
 10
364.4178611952
 20
351.446358156
 30
0.0
 11
415.2178611952
 21
351.446358156
 31
0.0
  0
LINE
  5
87
330
1F
100
AcDbEntity
  8
0
  6
Continuous
 62
     7
370
    25
100
AcDbLine
 10
364.4178611952
 20
348.271358156
 30
0.0
 11
364.4178611952
 21
351.446358156
 31
0.0
  0
LINE
  5
88
330
1F
100
AcDbEntity
  8
0
  6
Continuous
 62
     7
370
    25
100
AcDbLine
 10
364.4178611952
 20
348.271358156
 30
0.0
 11
415.2178611952
 21
348.271358156
 31
0.0
  0
LINE
  5
89
330
1F
100
AcDbEntity
  8
0
  6
Continuous
 62
     7
370
    25
100
AcDbLine
 10
313.6178611952
 20
348.271358156
 30
0.0
 11
313.6178611952
 21
351.446358156
 31
0.0
  0
LINE
  5
8A
330
1F
100
AcDbEntity
  8
0
  6
Continuous
 62
     7
370
    25
100
AcDbLine
 10
262.8178611952
 20
351.446358156
 30
0.0
 11
313.6178611952
 21
351.446358156
 31
0.0
  0
LINE
  5
8B
330
1F
100
AcDbEntity
  8
0
  6
Continuous
 62
     7
370
    25
100
AcDbLine
 10
262.8178611952
 20
348.271358156
 30
0.0
 11
262.8178611952
 21
351.446358156
 31
0.0
  0
LINE
  5
8C
330
1F
100
AcDbEntity
  8
0
  6
Continuous
 62
     7
370
    25
100
AcDbLine
 10
262.8178611952
 20
348.271358156
 30
0.0
 11
313.6178611952
 21
348.271358156
 31
0.0
  0
LINE
  5
8D
330
1F
100
AcDbEntity
  8
0
  6
Continuous
 62
     7
370
    25
100
AcDbLine
 10
212.0178611952
 20
348.271358156
 30
0.0
 11
212.0178611952
 21
351.446358156
 31
0.0
  0
LINE
  5
8E
330
1F
100
AcDbEntity
  8
0
  6
Continuous
 62
     7
370
    25
100
AcDbLine
 10
161.2178611952
 20
351.446358156
 30
0.0
 11
212.0178611952
 21
351.446358156
 31
0.0
  0
LINE
  5
8F
330
1F
100
AcDbEntity
  8
0
  6
Continuous
 62
     7
370
    25
100
AcDbLine
 10
161.2178611952
 20
348.271358156
 30
0.0
 11
161.2178611952
 21
351.446358156
 31
0.0
  0
LINE
  5
90
330
1F
100
AcDbEntity
  8
0
  6
Continuous
 62
     7
370
    25
100
AcDbLine
 10
161.2178611952
 20
348.271358156
 30
0.0
 11
212.0178611952
 21
348.271358156
 31
0.0
  0
LINE
  5
91
330
1F
100
AcDbEntity
  8
0
  6
Continuous
 62
     7
370
    25
100
AcDbLine
 10
646.9928611952
 20
335.571358156
 30
0.0
 11
643.8178611952
 21
335.571358156
 31
0.0
  0
LINE
  5
92
330
1F
100
AcDbEntity
  8
0
  6
Continuous
 62
     7
370
    25
100
AcDbLine
 10
643.8178611952
 20
310.171358156
 30
0.0
 11
643.8178611952
 21
335.571358156
 31
0.0
  0
LINE
  5
93
330
1F
100
AcDbEntity
  8
0
  6
Continuous
 62
     7
370
    25
100
AcDbLine
 10
646.9928611952
 20
310.171358156
 30
0.0
 11
643.8178611952
 21
310.171358156
 31
0.0
  0
LINE
  5
94
330
1F
100
AcDbEntity
  8
0
  6
Continuous
 62
     7
370
    25
100
AcDbLine
 10
646.9928611952
 20
310.171358156
 30
0.0
 11
646.9928611952
 21
335.571358156
 31
0.0
  0
LINE
  5
95
330
1F
100
AcDbEntity
  8
0
  6
Continuous
 62
     7
370
    25
100
AcDbLine
 10
646.9928611952
 20
284.771358156
 30
0.0
 11
643.8178611952
 21
284.771358156
 31
0.0
  0
LINE
  5
96
330
1F
100
AcDbEntity
  8
0
  6
Continuous
 62
     7
370
    25
100
AcDbLine
 10
643.8178611952
 20
259.371358156
 30
0.0
 11
643.8178611952
 21
284.771358156
 31
0.0
  0
LINE
  5
97
330
1F
100
AcDbEntity
  8
0
  6
Continuous
 62
     7
370
    25
100
AcDbLine
 10
646.9928611952
 20
259.371358156
 30
0.0
 11
646.9928611952
 21
284.771358156
 31
0.0
  0
LINE
  5
98
330
1F
100
AcDbEntity
  8
0
  6
Continuous
 62
     7
370
    25
100
AcDbLine
 10
646.9928611952
 20
233.971358156
 30
0.0
 11
643.8178611952
 21
233.971358156
 31
0.0
  0
LINE
  5
99
330
1F
100
AcDbEntity
  8
0
  6
Continuous
 62
     7
370
    25
100
AcDbLine
 10
646.9928611952
 20
208.571358156
 30
0.0
 11
643.8178611952
 21
208.571358156
 31
0.0
  0
LINE
  5
9A
330
1F
100
AcDbEntity
  8
0
  6
Continuous
 62
     7
370
    25
100
AcDbLine
 10
135.8178611952
 20
310.171358156
 30
0.0
 11
135.8178611952
 21
335.571358156
 31
0.0
  0
LINE
  5
9B
330
1F
100
AcDbEntity
  8
0
  6
Continuous
 62
     7
370
    25
100
AcDbLine
 10
135.8178611952
 20
335.571358156
 30
0.0
 11
132.6428611952
 21
335.571358156
 31
0.0
  0
LINE
  5
9C
330
1F
100
AcDbEntity
  8
0
  6
Continuous
 62
     7
370
    25
100
AcDbLine
 10
132.6428611952
 20
310.171358156
 30
0.0
 11
132.6428611952
 21
335.571358156
 31
0.0
  0
LINE
  5
9D
330
1F
100
AcDbEntity
  8
0
  6
Continuous
 62
     7
370
    25
100
AcDbLine
 10
135.8178611952
 20
310.171358156
 30
0.0
 11
132.6428611952
 21
310.171358156
 31
0.0
  0
LINE
  5
9E
330
1F
100
AcDbEntity
  8
0
  6
Continuous
 62
     7
370
    25
100
AcDbLine
 10
135.8178611952
 20
259.371358156
 30
0.0
 11
135.8178611952
 21
284.771358156
 31
0.0
  0
LINE
  5
9F
330
1F
100
AcDbEntity
  8
0
  6
Continuous
 62
     7
370
    25
100
AcDbLine
 10
135.8178611952
 20
284.771358156
 30
0.0
 11
132.6428611952
 21
284.771358156
 31
0.0
  0
LINE
  5
A0
330
1F
100
AcDbEntity
  8
0
  6
Continuous
 62
     7
370
    25
100
AcDbLine
 10
132.6428611952
 20
259.371358156
 30
0.0
 11
132.6428611952
 21
284.771358156
 31
0.0
  0
LINE
  5
A1
330
1F
100
AcDbEntity
  8
0
  6
Continuous
 62
     7
370
    25
100
AcDbLine
 10
135.8178611952
 20
259.371358156
 30
0.0
 11
132.6428611952
 21
259.371358156
 31
0.0
  0
LINE
  5
A2
330
1F
100
AcDbEntity
  8
0
  6
Continuous
 62
     7
370
    25
100
AcDbLine
 10
135.8178611952
 20
208.571358156
 30
0.0
 11
135.8178611952
 21
233.971358156
 31
0.0
  0
LINE
  5
A3
330
1F
100
AcDbEntity
  8
0
  6
Continuous
 62
     7
370
    25
100
AcDbLine
 10
135.8178611952
 20
233.971358156
 30
0.0
 11
132.6428611952
 21
233.971358156
 31
0.0
  0
LINE
  5
A4
330
1F
100
AcDbEntity
  8
0
  6
Continuous
 62
     7
370
    25
100
AcDbLine
 10
132.6428611952
 20
208.571358156
 30
0.0
 11
132.6428611952
 21
233.971358156
 31
0.0
  0
LINE
  5
A5
330
1F
100
AcDbEntity
  8
0
  6
Continuous
 62
     7
370
    25
100
AcDbLine
 10
135.8178611952
 20
208.571358156
 30
0.0
 11
132.6428611952
 21
208.571358156
 31
0.0
  0
LINE
  5
A6
330
1F
100
AcDbEntity
  8
0
  6
Continuous
 62
     7
370
    25
100
AcDbLine
 10
135.8178611952
 20
157.771358156
 30
0.0
 11
135.8178611952
 21
183.171358156
 31
0.0
  0
LINE
  5
A7
330
1F
100
AcDbEntity
  8
0
  6
Continuous
 62
     7
370
    25
100
AcDbLine
 10
135.8178611952
 20
183.171358156
 30
0.0
 11
132.6428611952
 21
183.171358156
 31
0.0
  0
LINE
  5
A8
330
1F
100
AcDbEntity
  8
0
  6
Continuous
 62
     7
370
    25
100
AcDbLine
 10
132.6428611952
 20
157.771358156
 30
0.0
 11
132.6428611952
 21
183.171358156
 31
0.0
  0
LINE
  5
A9
330
1F
100
AcDbEntity
  8
0
  6
Continuous
 62
     7
370
    25
100
AcDbLine
 10
135.8178611952
 20
157.771358156
 30
0.0
 11
132.6428611952
 21
157.771358156
 31
0.0
  0
LINE
  5
AA
330
1F
100
AcDbEntity
  8
0
  6
Continuous
 62
     7
370
    25
100
AcDbLine
 10
567.6178611952
 20
141.896358156
 30
0.0
 11
618.4178611952
 21
141.896358156
 31
0.0
  0
LINE
  5
AB
330
1F
100
AcDbEntity
  8
0
  6
Continuous
 62
     7
370
    25
100
AcDbLine
 10
618.4178611952
 20
141.896358156
 30
0.0
 11
618.4178611952
 21
145.071358156
 31
0.0
  0
LINE
  5
AC
330
1F
100
AcDbEntity
  8
0
  6
Continuous
 62
     7
370
    25
100
AcDbLine
 10
567.6178611952
 20
145.071358156
 30
0.0
 11
618.4178611952
 21
145.071358156
 31
0.0
  0
LINE
  5
AD
330
1F
100
AcDbEntity
  8
0
  6
Continuous
 62
     7
370
    25
100
AcDbLine
 10
567.6178611952
 20
141.896358156
 30
0.0
 11
567.6178611952
 21
145.071358156
 31
0.0
  0
LINE
  5
AE
330
1F
100
AcDbEntity
  8
0
  6
Continuous
 62
     7
370
    25
100
AcDbLine
 10
466.0178611952
 20
141.896358156
 30
0.0
 11
516.8178611952
 21
141.896358156
 31
0.0
  0
LINE
  5
AF
330
1F
100
AcDbEntity
  8
0
  6
Continuous
 62
     7
370
    25
100
AcDbLine
 10
516.8178611952
 20
141.896358156
 30
0.0
 11
516.8178611952
 21
145.071358156
 31
0.0
  0
LINE
  5
B0
330
1F
100
AcDbEntity
  8
0
  6
Continuous
 62
     7
370
    25
100
AcDbLine
 10
466.0178611952
 20
145.071358156
 30
0.0
 11
516.8178611952
 21
145.071358156
 31
0.0
  0
LINE
  5
B1
330
1F
100
AcDbEntity
  8
0
  6
Continuous
 62
     7
370
    25
100
AcDbLine
 10
466.0178611952
 20
141.896358156
 30
0.0
 11
466.0178611952
 21
145.071358156
 31
0.0
  0
LINE
  5
B2
330
1F
100
AcDbEntity
  8
0
  6
Continuous
 62
     7
370
    25
100
AcDbLine
 10
364.4178611952
 20
141.896358156
 30
0.0
 11
415.2178611952
 21
141.896358156
 31
0.0
  0
LINE
  5
B3
330
1F
100
AcDbEntity
  8
0
  6
Continuous
 62
     7
370
    25
100
AcDbLine
 10
415.2178611952
 20
141.896358156
 30
0.0
 11
415.2178611952
 21
145.071358156
 31
0.0
  0
LINE
  5
B4
330
1F
100
AcDbEntity
  8
0
  6
Continuous
 62
     7
370
    25
100
AcDbLine
 10
364.4178611952
 20
145.071358156
 30
0.0
 11
415.2178611952
 21
145.071358156
 31
0.0
  0
LINE
  5
B5
330
1F
100
AcDbEntity
  8
0
  6
Continuous
 62
     7
370
    25
100
AcDbLine
 10
364.4178611952
 20
141.896358156
 30
0.0
 11
364.4178611952
 21
145.071358156
 31
0.0
  0
LINE
  5
B6
330
1F
100
AcDbEntity
  8
0
  6
Continuous
 62
     7
370
    25
100
AcDbLine
 10
262.8178611952
 20
141.896358156
 30
0.0
 11
313.6178611952
 21
141.896358156
 31
0.0
  0
LINE
  5
B7
330
1F
100
AcDbEntity
  8
0
  6
Continuous
 62
     7
370
    25
100
AcDbLine
 10
313.6178611952
 20
141.896358156
 30
0.0
 11
313.6178611952
 21
145.071358156
 31
0.0
  0
LINE
  5
B8
330
1F
100
AcDbEntity
  8
0
  6
Continuous
 62
     7
370
    25
100
AcDbLine
 10
262.8178611952
 20
145.071358156
 30
0.0
 11
313.6178611952
 21
145.071358156
 31
0.0
  0
LINE
  5
B9
330
1F
100
AcDbEntity
  8
0
  6
Continuous
 62
     7
370
    25
100
AcDbLine
 10
262.8178611952
 20
141.896358156
 30
0.0
 11
262.8178611952
 21
145.071358156
 31
0.0
  0
LINE
  5
BA
330
1F
100
AcDbEntity
  8
0
  6
Continuous
 62
     7
370
    25
100
AcDbLine
 10
161.2178611952
 20
141.896358156
 30
0.0
 11
212.0178611952
 21
141.896358156
 31
0.0
  0
LINE
  5
BB
330
1F
100
AcDbEntity
  8
0
  6
Continuous
 62
     7
370
    25
100
AcDbLine
 10
212.0178611952
 20
141.896358156
 30
0.0
 11
212.0178611952
 21
145.071358156
 31
0.0
  0
LINE
  5
BC
330
1F
100
AcDbEntity
  8
0
  6
Continuous
 62
     7
370
    25
100
AcDbLine
 10
161.2178611952
 20
145.071358156
 30
0.0
 11
212.0178611952
 21
145.071358156
 31
0.0
  0
LINE
  5
BD
330
1F
100
AcDbEntity
  8
0
  6
Continuous
 62
     7
370
    25
100
AcDbLine
 10
161.2178611952
 20
141.896358156
 30
0.0
 11
161.2178611952
 21
145.071358156
 31
0.0
  0
LINE
  5
BE
330
1F
100
AcDbEntity
  8
0
  6
Continuous
 62
     7
370
    25
100
AcDbLine
 10
436.8178611952
 20
406.446358156
 30
0.0
 11
436.8178611952
 21
351.446358156
 31
0.0
  0
LINE
  5
BF
330
1F
100
AcDbEntity
  8
0
  6
Continuous
 62
     7
370
    25
100
AcDbLine
 10
436.8178611952
 20
351.446358156
 30
0.0
 11
453.9178611952
 21
351.446358156
 31
0.0
  0
LINE
  5
C0
330
1F
100
AcDbEntity
  8
0
  6
Continuous
 62
     7
370
    25
100
AcDbLine
 10
453.9178611952
 20
351.446358156
 30
0.0
 11
453.9178611952
 21
406.446358156
 31
0.0
  0
LINE
  5
C1
330
1F
100
AcDbEntity
  8
0
  6
Continuous
 62
     7
370
    25
100
AcDbLine
 10
453.9178611952
 20
406.446358156
 30
0.0
 11
436.8178611952
 21
406.446358156
 31
0.0
  0
LINE
  5
C2
330
1F
100
AcDbEntity
  8
0
  6
Continuous
 62
     7
370
    25
100
AcDbLine
 10
325.7178611952
 20
351.446358156
 30
0.0
 11
342.8178611952
 21
351.446358156
 31
0.0
  0
LINE
  5
C3
330
1F
100
AcDbEntity
  8
0
  6
Continuous
 62
     7
370
    25
100
AcDbLine
 10
342.8178611952
 20
351.446358156
 30
0.0
 11
342.8178611952
 21
406.446358156
 31
0.0
  0
LINE
  5
C4
330
1F
100
AcDbEntity
  8
0
  6
Continuous
 62
     7
370
    25
100
AcDbLine
 10
342.8178611952
 20
406.446358156
 30
0.0
 11
325.7178611952
 21
406.446358156
 31
0.0
  0
LINE
  5
C5
330
1F
100
AcDbEntity
  8
0
  6
Continuous
 62
     7
370
    25
100
AcDbLine
 10
325.7178611952
 20
406.446358156
 30
0.0
 11
325.7178611952
 21
351.446358156
 31
0.0
  0
CIRCLE
  5
C6
330
1F
100
AcDbEntity
  8
0
  6
Continuous
 62
     7
370
    25
100
AcDbCircle
 10
316.2678611952
 20
378.946358156
 30
0.0
 40
1.499999999999943
  0
CIRCLE
  5
C7
330
1F
100
AcDbEntity
  8
0
  6
Continuous
 62
     7
370
    25
100
AcDbCircle
 10
352.2678611952
 20
378.946358156
 30
0.0
 40
1.499999999999943
  0
CIRCLE
  5
C8
330
1F
100
AcDbEntity
  8
0
  6
Continuous
 62
     7
370
    25
100
AcDbCircle
 10
463.3678611952
 20
378.946358156
 30
0.0
 40
1.499999999999943
  0
CIRCLE
  5
C9
330
1F
100
AcDbEntity
  8
0
  6
Continuous
 62
     7
370
    25
100
AcDbCircle
 10
427.3678611952
 20
378.946358156
 30
0.0
 40
1.499999999999943
  0
LINE
  5
CA
330
1F
100
AcDbEntity
  8
0
  6
Continuous
 62
     7
370
    25
100
AcDbLine
 10
199.3178611952
 20
549.471358156
 30
0.0
 11
173.9178611952
 21
549.471358156
 31
0.0
  0
LINE
  5
CB
330
1F
100
AcDbEntity
  8
0
  6
Continuous
 62
     7
370
    25
100
AcDbLine
 10
199.3178611952
 20
549.471358156
 30
0.0
 11
199.3178611952
 21
543.121358156
 31
0.0
  0
LINE
  5
CC
330
1F
100
AcDbEntity
  8
0
  6
Continuous
 62
     7
370
    25
100
AcDbLine
 10
199.3178611952
 20
543.121358156
 30
0.0
 11
224.7178611952
 21
543.121358156
 31
0.0
  0
LINE
  5
CD
330
1F
100
AcDbEntity
  8
0
  6
Continuous
 62
     7
370
    25
100
AcDbLine
 10
224.7178611952
 20
543.121358156
 30
0.0
 11
224.7178611952
 21
549.471358156
 31
0.0
  0
LINE
  5
CE
330
1F
100
AcDbEntity
  8
0
  6
Continuous
 62
     7
370
    25
100
AcDbLine
 10
250.1178611952
 20
549.471358156
 30
0.0
 11
224.7178611952
 21
549.471358156
 31
0.0
  0
LINE
  5
CF
330
1F
100
AcDbEntity
  8
0
  6
Continuous
 62
     7
370
    25
100
AcDbLine
 10
250.1178611952
 20
549.471358156
 30
0.0
 11
250.1178611952
 21
543.121358156
 31
0.0
  0
LINE
  5
D0
330
1F
100
AcDbEntity
  8
0
  6
Continuous
 62
     7
370
    25
100
AcDbLine
 10
250.1178611952
 20
543.121358156
 30
0.0
 11
275.5178611952
 21
543.121358156
 31
0.0
  0
LINE
  5
D1
330
1F
100
AcDbEntity
  8
0
  6
Continuous
 62
     7
370
    25
100
AcDbLine
 10
275.5178611952
 20
543.121358156
 30
0.0
 11
275.5178611952
 21
549.471358156
 31
0.0
  0
LINE
  5
D2
330
1F
100
AcDbEntity
  8
0
  6
Continuous
 62
     7
370
    25
100
AcDbLine
 10
504.1178611952
 20
549.471358156
 30
0.0
 11
275.5178611952
 21
549.471358156
 31
0.0
  0
LINE
  5
D3
330
1F
100
AcDbEntity
  8
0
  6
Continuous
 62
     7
370
    25
100
AcDbLine
 10
504.1178611952
 20
549.471358156
 30
0.0
 11
504.1178611952
 21
543.121358156
 31
0.0
  0
LINE
  5
D4
330
1F
100
AcDbEntity
  8
0
  6
Continuous
 62
     7
370
    25
100
AcDbLine
 10
504.1178611952
 20
543.121358156
 30
0.0
 11
529.5178611952
 21
543.121358156
 31
0.0
  0
LINE
  5
D5
330
1F
100
AcDbEntity
  8
0
  6
Continuous
 62
     7
370
    25
100
AcDbLine
 10
529.5178611952
 20
543.121358156
 30
0.0
 11
529.5178611952
 21
549.471358156
 31
0.0
  0
LINE
  5
D6
330
1F
100
AcDbEntity
  8
0
  6
Continuous
 62
     7
370
    25
100
AcDbLine
 10
554.9178611952
 20
549.471358156
 30
0.0
 11
529.5178611952
 21
549.471358156
 31
0.0
  0
LINE
  5
D7
330
1F
100
AcDbEntity
  8
0
  6
Continuous
 62
     7
370
    25
100
AcDbLine
 10
554.9178611952
 20
549.471358156
 30
0.0
 11
554.9178611952
 21
543.121358156
 31
0.0
  0
LINE
  5
D8
330
1F
100
AcDbEntity
  8
0
  6
Continuous
 62
     7
370
    25
100
AcDbLine
 10
554.9178611952
 20
543.121358156
 30
0.0
 11
580.3178611952
 21
543.121358156
 31
0.0
  0
LINE
  5
D9
330
1F
100
AcDbEntity
  8
0
  6
Continuous
 62
     7
370
    25
100
AcDbLine
 10
580.3178611952
 20
543.121358156
 30
0.0
 11
580.3178611952
 21
549.471358156
 31
0.0
  0
LINE
  5
DA
330
1F
100
AcDbEntity
  8
0
  6
Continuous
 62
     7
370
    25
100
AcDbLine
 10
605.7178611952
 20
549.471358156
 30
0.0
 11
580.3178611952
 21
549.471358156
 31
0.0
  0
LINE
  5
DB
330
1F
100
AcDbEntity
  8
0
  6
Continuous
 62
     7
370
    25
100
AcDbLine
 10
605.7178611952
 20
549.471358156
 30
0.0
 11
605.7178611952
 21
543.121358156
 31
0.0
  0
LINE
  5
DC
330
1F
100
AcDbEntity
  8
0
  6
Continuous
 62
     7
370
    25
100
AcDbLine
 10
605.7178611952
 20
543.121358156
 30
0.0
 11
631.1178611952
 21
543.121358156
 31
0.0
  0
LINE
  5
DD
330
1F
100
AcDbEntity
  8
0
  6
Continuous
 62
     7
370
    25
100
AcDbLine
 10
631.1178611952
 20
543.121358156
 30
0.0
 11
631.1178611952
 21
549.471358156
 31
0.0
  0
LINE
  5
DE
330
1F
100
AcDbEntity
  8
0
  6
Continuous
 62
     7
370
    25
100
AcDbLine
 10
694.6178611952
 20
549.471358156
 30
0.0
 11
631.1178611952
 21
549.471358156
 31
0.0
  0
LINE
  5
DF
330
1F
100
AcDbEntity
  8
0
  6
Continuous
 62
     7
370
    25
100
AcDbLine
 10
694.6178611952
 20
68.871358156
 30
0.0
 11
694.6178611952
 21
549.471358156
 31
0.0
  0
LINE
  5
E0
330
1F
100
AcDbEntity
  8
0
  6
Continuous
 62
     7
370
    25
100
AcDbLine
 10
85.0178611952
 20
68.871358156
 30
0.0
 11
694.6178611952
 21
68.871358156
 31
0.0
  0
LINE
  5
E1
330
1F
100
AcDbEntity
  8
0
  6
Continuous
 62
     7
370
    25
100
AcDbLine
 10
85.0178611952
 20
549.471358156
 30
0.0
 11
85.0178611952
 21
68.871358156
 31
0.0
  0
LINE
  5
E2
330
1F
100
AcDbEntity
  8
0
  6
Continuous
 62
     7
370
    25
100
AcDbLine
 10
148.5178611952
 20
549.471358156
 30
0.0
 11
85.0178611952
 21
549.471358156
 31
0.0
  0
LINE
  5
E3
330
1F
100
AcDbEntity
  8
0
  6
Continuous
 62
     7
370
    25
100
AcDbLine
 10
148.5178611952
 20
549.471358156
 30
0.0
 11
148.5178611952
 21
543.121358156
 31
0.0
  0
LINE
  5
E4
330
1F
100
AcDbEntity
  8
0
  6
Continuous
 62
     7
370
    25
100
AcDbLine
 10
148.5178611952
 20
543.121358156
 30
0.0
 11
173.9178611952
 21
543.121358156
 31
0.0
  0
LINE
  5
E5
330
1F
100
AcDbEntity
  8
0
  6
Continuous
 62
     7
370
    25
100
AcDbLine
 10
173.9178611952
 20
543.121358156
 30
0.0
 11
173.9178611952
 21
549.471358156
 31
0.0
  0
LINE
  5
E6
330
1F
100
AcDbEntity
  8
0
  6
Continuous
 62
     7
370
    25
100
AcDbLine
 10
372.8178611952
 20
394.446358156
 30
0.0
 11
387.8178611952
 21
394.446358156
 31
0.0
  0
LINE
  5
E7
330
1F
100
AcDbEntity
  8
0
  6
Continuous
 62
     7
370
    25
100
AcDbLine
 10
387.8178611952
 20
394.446358156
 30
0.0
 11
387.8178611952
 21
406.446358156
 31
0.0
  0
LINE
  5
E8
330
1F
100
AcDbEntity
  8
0
  6
Continuous
 62
     7
370
    25
100
AcDbLine
 10
387.8178611952
 20
406.446358156
 30
0.0
 11
372.8178611952
 21
406.446358156
 31
0.0
  0
LINE
  5
E9
330
1F
100
AcDbEntity
  8
0
  6
Continuous
 62
     7
370
    25
100
AcDbLine
 10
372.8178611952
 20
406.446358156
 30
0.0
 11
372.8178611952
 21
394.446358156
 31
0.0
  0
LINE
  5
EA
330
1F
100
AcDbEntity
  8
0
  6
Continuous
 62
     7
370
    25
100
AcDbLine
 10
406.8178611952
 20
394.446358156
 30
0.0
 11
406.8178611952
 21
406.446358156
 31
0.0
  0
LINE
  5
EB
330
1F
100
AcDbEntity
  8
0
  6
Continuous
 62
     7
370
    25
100
AcDbLine
 10
406.8178611952
 20
406.446358156
 30
0.0
 11
391.8178611952
 21
406.446358156
 31
0.0
  0
LINE
  5
EC
330
1F
100
AcDbEntity
  8
0
  6
Continuous
 62
     7
370
    25
100
AcDbLine
 10
391.8178611952
 20
406.446358156
 30
0.0
 11
391.8178611952
 21
394.446358156
 31
0.0
  0
LINE
  5
ED
330
1F
100
AcDbEntity
  8
0
  6
Continuous
 62
     7
370
    25
100
AcDbLine
 10
391.8178611952
 20
394.446358156
 30
0.0
 11
406.8178611952
 21
394.446358156
 31
0.0
  0
CIRCLE
  5
EE
330
1F
100
AcDbEntity
  8
0
  6
Continuous
 62
     7
370
    25
100
AcDbCircle
 10
163.6478611952
 20
531.121358156
 30
0.0
 40
1.5
  0
CIRCLE
  5
EF
330
1F
100
AcDbEntity
  8
0
  6
Continuous
 62
     7
370
    25
100
AcDbCircle
 10
615.9878611952
 20
531.121358156
 30
0.0
 40
1.500000000000114
  0
CIRCLE
  5
F0
330
1F
100
AcDbEntity
  8
0
  6
Continuous
 62
     7
370
    25
100
AcDbCircle
 10
532.9298611952
 20
531.121358156
 30
0.0
 40
1.500000000000114
  0
CIRCLE
  5
F1
330
1F
100
AcDbEntity
  8
0
  6
Continuous
 62
     7
370
    25
100
AcDbCircle
 10
532.9298611952
 20
409.446358156
 30
0.0
 40
1.499999999999943
  0
CIRCLE
  5
F2
330
1F
100
AcDbEntity
  8
0
  6
Continuous
 62
     7
370
    25
100
AcDbCircle
 10
246.7058611952
 20
531.121358156
 30
0.0
 40
1.5
  0
CIRCLE
  5
F3
330
1F
100
AcDbEntity
  8
0
  6
Continuous
 62
     7
370
    25
100
AcDbCircle
 10
246.7058611952
 20
409.446358156
 30
0.0
 40
1.500000000000057
  0
CIRCLE
  5
F4
330
1F
100
AcDbEntity
  8
0
  6
Continuous
 62
     7
370
    25
100
AcDbCircle
 10
163.6478611952
 20
409.446358156
 30
0.0
 40
1.500000000000057
  0
CIRCLE
  5
F5
330
1F
100
AcDbEntity
  8
0
  6
Continuous
 62
     7
370
    25
100
AcDbCircle
 10
615.9878611952
 20
409.446358156
 30
0.0
 40
1.499999999999943
  0
LINE
  5
F6
330
1F
100
AcDbEntity
  8
0
  6
Continuous
 62
     7
370
    25
100
AcDbLine
 10
616.9588611952
 20
500.121358156
 30
0.0
 11
616.9588611952
 21
503.121358156
 31
0.0
  0
LINE
  5
F7
330
1F
100
AcDbEntity
  8
0
  6
Continuous
 62
     7
370
    25
100
AcDbLine
 10
616.9588611952
 20
503.121358156
 30
0.0
 11
531.9588611952
 21
503.121358156
 31
0.0
  0
LINE
  5
F8
330
1F
100
AcDbEntity
  8
0
  6
Continuous
 62
     7
370
    25
100
AcDbLine
 10
531.9588611952
 20
503.121358156
 30
0.0
 11
531.9588611952
 21
500.121358156
 31
0.0
  0
LINE
  5
F9
330
1F
100
AcDbEntity
  8
0
  6
Continuous
 62
     7
370
    25
100
AcDbLine
 10
531.9588611952
 20
500.121358156
 30
0.0
 11
616.9588611952
 21
500.121358156
 31
0.0
  0
LINE
  5
FA
330
1F
100
AcDbEntity
  8
0
  6
Continuous
 62
     7
370
    25
100
AcDbLine
 10
247.6768611952
 20
437.446358156
 30
0.0
 11
247.6768611952
 21
440.446358156
 31
0.0
  0
LINE
  5
FB
330
1F
100
AcDbEntity
  8
0
  6
Continuous
 62
     7
370
    25
100
AcDbLine
 10
247.6768611952
 20
440.446358156
 30
0.0
 11
162.6768611952
 21
440.446358156
 31
0.0
  0
LINE
  5
FC
330
1F
100
AcDbEntity
  8
0
  6
Continuous
 62
     7
370
    25
100
AcDbLine
 10
162.6768611952
 20
440.446358156
 30
0.0
 11
162.6768611952
 21
437.446358156
 31
0.0
  0
LINE
  5
FD
330
1F
100
AcDbEntity
  8
0
  6
Continuous
 62
     7
370
    25
100
AcDbLine
 10
162.6768611952
 20
437.446358156
 30
0.0
 11
247.6768611952
 21
437.446358156
 31
0.0
  0
LINE
  5
FE
330
1F
100
AcDbEntity
  8
0
  6
Continuous
 62
     7
370
    25
100
AcDbLine
 10
162.6768611952
 20
503.121358156
 30
0.0
 11
162.6768611952
 21
500.121358156
 31
0.0
  0
LINE
  5
FF
330
1F
100
AcDbEntity
  8
0
  6
Continuous
 62
     7
370
    25
100
AcDbLine
 10
162.6768611952
 20
500.121358156
 30
0.0
 11
247.6768611952
 21
500.121358156
 31
0.0
  0
LINE
  5
100
330
1F
100
AcDbEntity
  8
0
  6
Continuous
 62
     7
370
    25
100
AcDbLine
 10
247.6768611952
 20
500.121358156
 30
0.0
 11
247.6768611952
 21
503.121358156
 31
0.0
  0
LINE
  5
101
330
1F
100
AcDbEntity
  8
0
  6
Continuous
 62
     7
370
    25
100
AcDbLine
 10
247.6768611952
 20
503.121358156
 30
0.0
 11
162.6768611952
 21
503.121358156
 31
0.0
  0
LINE
  5
102
330
1F
100
AcDbEntity
  8
0
  6
Continuous
 62
     7
370
    25
100
AcDbLine
 10
531.9588611952
 20
440.446358156
 30
0.0
 11
531.9588611952
 21
437.446358156
 31
0.0
  0
LINE
  5
103
330
1F
100
AcDbEntity
  8
0
  6
Continuous
 62
     7
370
    25
100
AcDbLine
 10
531.9588611952
 20
437.446358156
 30
0.0
 11
616.9588611952
 21
437.446358156
 31
0.0
  0
LINE
  5
104
330
1F
100
AcDbEntity
  8
0
  6
Continuous
 62
     7
370
    25
100
AcDbLine
 10
616.9588611952
 20
437.446358156
 30
0.0
 11
616.9588611952
 21
440.446358156
 31
0.0
  0
LINE
  5
105
330
1F
100
AcDbEntity
  8
0
  6
Continuous
 62
     7
370
    25
100
AcDbLine
 10
616.9588611952
 20
440.446358156
 30
0.0
 11
531.9588611952
 21
440.446358156
 31
0.0
  0
CIRCLE
  5
106
330
1F
100
AcDbEntity
  8
0
  6
Continuous
 62
     7
370
    25
100
AcDbCircle
 10
530.9588611952
 20
450.196358156
 30
0.0
 40
1.049999999999955
  0
LINE
  5
107
330
1F
100
AcDbEntity
  8
0
  6
Continuous
 62
     7
370
    25
100
AcDbLine
 10
253.6768611952
 20
445.946358156
 30
0.0
 11
263.6768611952
 21
445.946358156
 31
0.0
  0
LINE
  5
108
330
1F
100
AcDbEntity
  8
0
  6
Continuous
 62
     7
370
    25
100
AcDbLine
 10
263.6768611952
 20
445.946358156
 30
0.0
 11
263.6768611952
 21
460.946358156
 31
0.0
  0
LINE
  5
109
330
1F
100
AcDbEntity
  8
0
  6
Continuous
 62
     7
370
    25
100
AcDbLine
 10
263.6768611952
 20
460.946358156
 30
0.0
 11
253.6768611952
 21
460.946358156
 31
0.0
  0
LINE
  5
10A
330
1F
100
AcDbEntity
  8
0
  6
Continuous
 62
     7
370
    25
100
AcDbLine
 10
253.6768611952
 20
460.946358156
 30
0.0
 11
253.6768611952
 21
445.946358156
 31
0.0
  0
CIRCLE
  5
10B
330
1F
100
AcDbEntity
  8
0
  6
Continuous
 62
     7
370
    25
100
AcDbCircle
 10
248.6768611952
 20
450.196358156
 30
0.0
 40
1.050000000000125
  0
CIRCLE
  5
10C
330
1F
100
AcDbEntity
  8
0
  6
Continuous
 62
     7
370
    25
100
AcDbCircle
 10
248.6768611952
 20
456.696358156
 30
0.0
 40
1.050000000000011
  0
CIRCLE
  5
10D
330
1F
100
AcDbEntity
  8
0
  6
Continuous
 62
     7
370
    25
100
AcDbCircle
 10
530.9588611952
 20
456.696358156
 30
0.0
 40
1.049999999999841
  0
LINE
  5
10E
330
1F
100
AcDbEntity
  8
0
  6
Continuous
 62
     7
370
    25
100
AcDbLine
 10
515.9588611952
 20
445.946358156
 30
0.0
 11
525.9588611952
 21
445.946358156
 31
0.0
  0
LINE
  5
10F
330
1F
100
AcDbEntity
  8
0
  6
Continuous
 62
     7
370
    25
100
AcDbLine
 10
525.9588611952
 20
445.946358156
 30
0.0
 11
525.9588611952
 21
460.946358156
 31
0.0
  0
LINE
  5
110
330
1F
100
AcDbEntity
  8
0
  6
Continuous
 62
     7
370
    25
100
AcDbLine
 10
525.9588611952
 20
460.946358156
 30
0.0
 11
515.9588611952
 21
460.946358156
 31
0.0
  0
LINE
  5
111
330
1F
100
AcDbEntity
  8
0
  6
Continuous
 62
     7
370
    25
100
AcDbLine
 10
515.9588611952
 20
460.946358156
 30
0.0
 11
515.9588611952
 21
445.946358156
 31
0.0
  0
CIRCLE
  5
112
330
1F
100
AcDbEntity
  8
0
  6
Continuous
 62
     7
370
    25
100
AcDbCircle
 10
530.9588611952
 20
490.371358156
 30
0.0
 40
1.050000000000125
  0
CIRCLE
  5
113
330
1F
100
AcDbEntity
  8
0
  6
Continuous
 62
     7
370
    25
100
AcDbCircle
 10
530.9588611952
 20
483.871358156
 30
0.0
 40
1.050000000000011
  0
LINE
  5
114
330
1F
100
AcDbEntity
  8
0
  6
Continuous
 62
     7
370
    25
100
AcDbLine
 10
263.6768611952
 20
494.621358156
 30
0.0
 11
253.6768611952
 21
494.621358156
 31
0.0
  0
LINE
  5
115
330
1F
100
AcDbEntity
  8
0
  6
Continuous
 62
     7
370
    25
100
AcDbLine
 10
253.6768611952
 20
494.621358156
 30
0.0
 11
253.6768611952
 21
479.621358156
 31
0.0
  0
LINE
  5
116
330
1F
100
AcDbEntity
  8
0
  6
Continuous
 62
     7
370
    25
100
AcDbLine
 10
253.6768611952
 20
479.621358156
 30
0.0
 11
263.6768611952
 21
479.621358156
 31
0.0
  0
LINE
  5
117
330
1F
100
AcDbEntity
  8
0
  6
Continuous
 62
     7
370
    25
100
AcDbLine
 10
263.6768611952
 20
479.621358156
 30
0.0
 11
263.6768611952
 21
494.621358156
 31
0.0
  0
CIRCLE
  5
118
330
1F
100
AcDbEntity
  8
0
  6
Continuous
 62
     7
370
    25
100
AcDbCircle
 10
248.6768611952
 20
483.871358156
 30
0.0
 40
1.049999999999898
  0
CIRCLE
  5
119
330
1F
100
AcDbEntity
  8
0
  6
Continuous
 62
     7
370
    25
100
AcDbCircle
 10
248.6768611952
 20
490.371358156
 30
0.0
 40
1.049999999999955
  0
LINE
  5
11A
330
1F
100
AcDbEntity
  8
0
  6
Continuous
 62
     7
370
    25
100
AcDbLine
 10
515.9588611952
 20
494.621358156
 30
0.0
 11
515.9588611952
 21
479.621358156
 31
0.0
  0
LINE
  5
11B
330
1F
100
AcDbEntity
  8
0
  6
Continuous
 62
     7
370
    25
100
AcDbLine
 10
515.9588611952
 20
479.621358156
 30
0.0
 11
525.9588611952
 21
479.621358156
 31
0.0
  0
LINE
  5
11C
330
1F
100
AcDbEntity
  8
0
  6
Continuous
 62
     7
370
    25
100
AcDbLine
 10
525.9588611952
 20
479.621358156
 30
0.0
 11
525.9588611952
 21
494.621358156
 31
0.0
  0
LINE
  5
11D
330
1F
100
AcDbEntity
  8
0
  6
Continuous
 62
     7
370
    25
100
AcDbLine
 10
525.9588611952
 20
494.621358156
 30
0.0
 11
515.9588611952
 21
494.621358156
 31
0.0
  0
CIRCLE
  5
11E
330
1F
100
AcDbEntity
  8
0
  6
Continuous
 62
     7
370
    25
100
AcDbCircle
 10
299.8758611952
 20
538.121358156
 30
0.0
 40
1.5
  0
CIRCLE
  5
11F
330
1F
100
AcDbEntity
  8
0
  6
Continuous
 62
     7
370
    25
100
AcDbCircle
 10
479.7598611952
 20
538.121358156
 30
0.0
 40
1.500000000000114
  0
CIRCLE
  5
120
330
1F
100
AcDbEntity
  8
0
  6
Continuous
 62
     7
370
    25
100
AcDbCircle
 10
479.7598611952
 20
530.121358156
 30
0.0
 40
1.5
  0
CIRCLE
  5
121
330
1F
100
AcDbEntity
  8
0
  6
Continuous
 62
     7
370
    25
100
AcDbCircle
 10
479.7598611952
 20
410.446358156
 30
0.0
 40
1.499999999999943
  0
CIRCLE
  5
122
330
1F
100
AcDbEntity
  8
0
  6
Continuous
 62
     7
370
    25
100
AcDbCircle
 10
479.7598611952
 20
402.446358156
 30
0.0
 40
1.500000000000057
  0
CIRCLE
  5
123
330
1F
100
AcDbEntity
  8
0
  6
Continuous
 62
     7
370
    25
100
AcDbCircle
 10
299.8758611952
 20
402.446358156
 30
0.0
 40
1.500000000000057
  0
CIRCLE
  5
124
330
1F
100
AcDbEntity
  8
0
  6
Continuous
 62
     7
370
    25
100
AcDbCircle
 10
299.8758611952
 20
410.446358156
 30
0.0
 40
1.500000000000057
  0
CIRCLE
  5
125
330
1F
100
AcDbEntity
  8
0
  6
Continuous
 62
     7
370
    25
100
AcDbCircle
 10
299.8758611952
 20
530.121358156
 30
0.0
 40
1.5
  0
LINE
  5
126
330
1F
100
AcDbEntity
  8
0
  6
Continuous
 62
     7
370
    25
100
AcDbLine
 10
646.9928611952
 20
259.371358156
 30
0.0
 11
643.8178611952
 21
259.371358156
 31
0.0
  0
LINE
  5
127
330
1F
100
AcDbEntity
  8
0
  6
Continuous
 62
     7
370
    25
100
AcDbLine
 10
646.9928611952
 20
157.771358156
 30
0.0
 11
646.9928611952
 21
183.171358156
 31
0.0
  0
LINE
  5
128
330
1F
100
AcDbEntity
  8
0
  6
Continuous
 62
     7
370
    25
100
AcDbLine
 10
643.8178611952
 20
157.771358156
 30
0.0
 11
643.8178611952
 21
183.171358156
 31
0.0
  0
LINE
  5
129
330
1F
100
AcDbEntity
  8
0
  6
Continuous
 62
     7
370
    25
100
AcDbLine
 10
646.9928611952
 20
157.771358156
 30
0.0
 11
643.8178611952
 21
157.771358156
 31
0.0
  0
LINE
  5
12A
330
1F
100
AcDbEntity
  8
0
  6
Continuous
 62
     7
370
    25
100
AcDbLine
 10
646.9928611952
 20
183.171358156
 30
0.0
 11
643.8178611952
 21
183.171358156
 31
0.0
  0
LINE
  5
12B
330
1F
100
AcDbEntity
  8
0
  6
Continuous
 62
     7
370
    25
100
AcDbLine
 10
646.9928611952
 20
208.571358156
 30
0.0
 11
646.9928611952
 21
233.971358156
 31
0.0
  0
LINE
  5
12C
330
1F
100
AcDbEntity
  8
0
  6
Continuous
 62
     7
370
    25
100
AcDbLine
 10
643.8178611952
 20
208.571358156
 30
0.0
 11
643.8178611952
 21
233.971358156
 31
0.0
  0
MTEXT
  5
12E
330
1F
100
AcDbEntity
  8
0
  6
Continuous
 62
     7
100
AcDbMText
 10
0.0
 20
28.9505231388
 30
0.0
 40
10.38
 41
0.0
 71
     1
 72
     1
  1
SOLIDWORKS Educational Product.
  7
SLDTEXTSTYLE0
 73
     1
 44
1.0
  0
MTEXT
  5
12F
330
1F
100
AcDbEntity
  8
0
  6
Continuous
 62
     7
100
AcDbMText
 10
0.0
 20
13.3805231388
 30
0.0
 40
10.38
 41
0.0
 71
     1
 72
     1
  1
For Instructional Use Only.
  7
SLDTEXTSTYLE0
 73
     1
 44
1.0
  0
ENDSEC
  0
SECTION
  2
OBJECTS
  0
DICTIONARY
  5
C
330
0
100
AcDbDictionary
281
     1
  3
ACAD_GROUP
350
D
  3
ACAD_LAYOUT
350
1A
  3
ACAD_MLINESTYLE
350
17
  3
ACAD_PLOTSETTINGS
350
19
  3
ACAD_PLOTSTYLENAME
350
E
  3
ACAD_SCALELIST
350
47
  3
DWGPROPS
350
130
  0
DICTIONARY
  5
D
102
{ACAD_REACTORS
330
C
102
}
330
C
100
AcDbDictionary
281
     1
  0
DICTIONARY
  5
1A
102
{ACAD_REACTORS
330
C
102
}
330
C
100
AcDbDictionary
281
     1
  3
Layout1
350
1E
  3
Layout2
350
26
  3
Model
350
22
  0
DICTIONARY
  5
17
102
{ACAD_REACTORS
330
C
102
}
330
C
100
AcDbDictionary
281
     1
  3
Standard
350
18
  0
DICTIONARY
  5
19
102
{ACAD_REACTORS
330
C
102
}
330
C
100
AcDbDictionary
281
     1
  0
ACDBDICTIONARYWDFLT
  5
E
102
{ACAD_REACTORS
330
C
102
}
330
C
100
AcDbDictionary
281
     1
  3
Normal
350
F
100
AcDbDictionaryWithDefault
340
F
  0
DICTIONARY
  5
47
102
{ACAD_REACTORS
330
C
102
}
330
C
100
AcDbDictionary
281
     1
  3
A0
350
48
  3
A1
350
49
  3
A2
350
4A
  3
A3
350
4B
  3
A4
350
4C
  3
A5
350
4D
  3
A6
350
4E
  3
A7
350
4F
  3
A8
350
50
  3
A9
350
51
  3
B0
350
52
  3
B1
350
53
  3
B2
350
54
  3
B3
350
55
  3
B4
350
56
  3
B5
350
57
  3
B6
350
58
  3
B7
350
59
  3
B8
350
5A
  3
B9
350
5B
  3
C0
350
5C
  3
C1
350
5D
  3
C2
350
5E
  3
C3
350
5F
  3
C4
350
60
  3
C5
350
61
  3
C6
350
62
  3
C7
350
63
  3
C8
350
64
  3
C9
350
65
  3
D0
350
66
  3
D1
350
67
  3
D2
350
68
  0
XRECORD
  5
130
102
{ACAD_REACTORS
330
C
102
}
330
C
100
AcDbXrecord
280
     1
  1
DWGPROPS COOKIE
  2

  3

  4

  6

  7

  8
ryca1116
  9

300
=
301
=
302
=
303
=
304
=
305
=
306
=
307
=
308
=
309
=
 40
0.0
 41
2459927.99024515
 42
2459927.990245694
  1

 90
        0
  0
LAYOUT
  5
1E
102
{ACAD_REACTORS
330
1A
102
}
330
1A
100
AcDbPlotSettings
  1

  2
none_device
  4

  6

 40
0.0
 41
0.0
 42
0.0
 43
0.0
 44
0.0
 45
0.0
 46
0.0
 47
0.0
 48
0.0
 49
0.0
140
0.0
141
0.0
142
1.0
143
1.0
 70
   688
 72
     1
 73
     0
 74
     5
  7

 75
    16
147
1.0
148
0.0
149
0.0
100
AcDbLayout
  1
Layout1
 70
     1
 71
     1
 10
0.0
 20
0.0
 11
420.0
 21
297.0
 12
0.0
 22
0.0
 32
0.0
 14
1.0000000000E+20
 24
1.0000000000E+20
 34
1.0000000000E+20
 15
-1.0000000000E+20
 25
-1.0000000000E+20
 35
-1.0000000000E+20
146
0.0
 13
0.0
 23
0.0
 33
0.0
 16
1.0
 26
0.0
 36
0.0
 17
0.0
 27
1.0
 37
0.0
 76
     0
330
1B
  0
LAYOUT
  5
26
102
{ACAD_REACTORS
330
1A
102
}
330
1A
100
AcDbPlotSettings
  1

  2
none_device
  4

  6

 40
0.0
 41
0.0
 42
0.0
 43
0.0
 44
0.0
 45
0.0
 46
0.0
 47
0.0
 48
0.0
 49
0.0
140
0.0
141
0.0
142
1.0
143
1.0
 70
   688
 72
     1
 73
     0
 74
     5
  7

 75
    16
147
1.0
148
0.0
149
0.0
100
AcDbLayout
  1
Layout2
 70
     1
 71
     2
 10
0.0
 20
0.0
 11
0.0
 21
0.0
 12
0.0
 22
0.0
 32
0.0
 14
0.0
 24
0.0
 34
0.0
 15
0.0
 25
0.0
 35
0.0
146
0.0
 13
0.0
 23
0.0
 33
0.0
 16
1.0
 26
0.0
 36
0.0
 17
0.0
 27
1.0
 37
0.0
 76
     0
330
23
  0
LAYOUT
  5
22
102
{ACAD_REACTORS
330
1A
102
}
330
1A
100
AcDbPlotSettings
  1

  2
none_device
  4
Letter_(8.50_x_11.00_Inches)
  6

 40
6.35
 41
6.35
 42
6.35000508
 43
6.35000508
 44
215.9
 45
279.4
 46
0.0
 47
0.0
 48
0.0
 49
0.0
140
0.0
141
0.0
142
1.0
143
1.0
 70
  1712
 72
     1
 73
     0
 74
     0
  7

 75
     0
147
1.0
148
0.0
149
0.0
100
AcDbLayout
  1
Model
 70
     1
 71
     0
 10
0.0
 20
0.0
 11
800.0
 21
600.0
 12
0.0
 22
0.0
 32
0.0
 14
0.0
 24
0.0
 34
0.0
 15
800.0
 25
600.0
 35
0.0
146
0.0
 13
0.0
 23
0.0
 33
0.0
 16
1.0
 26
0.0
 36
0.0
 17
0.0
 27
1.0
 37
0.0
 76
     0
330
1F
331
29
  0
MLINESTYLE
  5
18
102
{ACAD_REACTORS
330
17
102
}
330
17
100
AcDbMlineStyle
  2
Standard
 70
     0
  3

 62
   256
 51
90.0
 52
90.0
 71
     2
 49
0.5
 62
   256
  6
BYLAYER
 49
-0.5
 62
   256
  6
BYLAYER
  0
ACDBPLACEHOLDER
  5
F
102
{ACAD_REACTORS
330
E
102
}
330
E
  0
SCALE
  5
48
102
{ACAD_REACTORS
330
47
102
}
330
47
100
AcDbScale
 70
     0
300
1:1
140
1.0
141
1.0
290
     1
  0
SCALE
  5
49
102
{ACAD_REACTORS
330
47
102
}
330
47
100
AcDbScale
 70
     0
300
1:2
140
1.0
141
2.0
290
     0
  0
SCALE
  5
4A
102
{ACAD_REACTORS
330
47
102
}
330
47
100
AcDbScale
 70
     0
300
1:4
140
1.0
141
4.0
290
     0
  0
SCALE
  5
4B
102
{ACAD_REACTORS
330
47
102
}
330
47
100
AcDbScale
 70
     0
300
1:5
140
1.0
141
5.0
290
     0
  0
SCALE
  5
4C
102
{ACAD_REACTORS
330
47
102
}
330
47
100
AcDbScale
 70
     0
300
1:8
140
1.0
141
8.0
290
     0
  0
SCALE
  5
4D
102
{ACAD_REACTORS
330
47
102
}
330
47
100
AcDbScale
 70
     0
300
1:10
140
1.0
141
10.0
290
     0
  0
SCALE
  5
4E
102
{ACAD_REACTORS
330
47
102
}
330
47
100
AcDbScale
 70
     0
300
1:16
140
1.0
141
16.0
290
     0
  0
SCALE
  5
4F
102
{ACAD_REACTORS
330
47
102
}
330
47
100
AcDbScale
 70
     0
300
1:20
140
1.0
141
20.0
290
     0
  0
SCALE
  5
50
102
{ACAD_REACTORS
330
47
102
}
330
47
100
AcDbScale
 70
     0
300
1:30
140
1.0
141
30.0
290
     0
  0
SCALE
  5
51
102
{ACAD_REACTORS
330
47
102
}
330
47
100
AcDbScale
 70
     0
300
1:40
140
1.0
141
40.0
290
     0
  0
SCALE
  5
52
102
{ACAD_REACTORS
330
47
102
}
330
47
100
AcDbScale
 70
     0
300
1:50
140
1.0
141
50.0
290
     0
  0
SCALE
  5
53
102
{ACAD_REACTORS
330
47
102
}
330
47
100
AcDbScale
 70
     0
300
1:100
140
1.0
141
100.0
290
     0
  0
SCALE
  5
54
102
{ACAD_REACTORS
330
47
102
}
330
47
100
AcDbScale
 70
     0
300
2:1
140
2.0
141
1.0
290
     0
  0
SCALE
  5
55
102
{ACAD_REACTORS
330
47
102
}
330
47
100
AcDbScale
 70
     0
300
4:1
140
4.0
141
1.0
290
     0
  0
SCALE
  5
56
102
{ACAD_REACTORS
330
47
102
}
330
47
100
AcDbScale
 70
     0
300
8:1
140
8.0
141
1.0
290
     0
  0
SCALE
  5
57
102
{ACAD_REACTORS
330
47
102
}
330
47
100
AcDbScale
 70
     0
300
10:1
140
10.0
141
1.0
290
     0
  0
SCALE
  5
58
102
{ACAD_REACTORS
330
47
102
}
330
47
100
AcDbScale
 70
     0
300
100:1
140
100.0
141
1.0
290
     0
  0
SCALE
  5
59
102
{ACAD_REACTORS
330
47
102
}
330
47
100
AcDbScale
 70
     0
300
1/128" = 1'-0"
140
0.0078125
141
12.0
290
     0
  0
SCALE
  5
5A
102
{ACAD_REACTORS
330
47
102
}
330
47
100
AcDbScale
 70
     0
300
1/64" = 1'-0"
140
0.015625
141
12.0
290
     0
  0
SCALE
  5
5B
102
{ACAD_REACTORS
330
47
102
}
330
47
100
AcDbScale
 70
     0
300
1/32" = 1'-0"
140
0.03125
141
12.0
290
     0
  0
SCALE
  5
5C
102
{ACAD_REACTORS
330
47
102
}
330
47
100
AcDbScale
 70
     0
300
1/16" = 1'-0"
140
0.0625
141
12.0
290
     0
  0
SCALE
  5
5D
102
{ACAD_REACTORS
330
47
102
}
330
47
100
AcDbScale
 70
     0
300
3/32" = 1'-0"
140
0.09375
141
12.0
290
     0
  0
SCALE
  5
5E
102
{ACAD_REACTORS
330
47
102
}
330
47
100
AcDbScale
 70
     0
300
1/8" = 1'-0"
140
0.125
141
12.0
290
     0
  0
SCALE
  5
5F
102
{ACAD_REACTORS
330
47
102
}
330
47
100
AcDbScale
 70
     0
300
3/16" = 1'-0"
140
0.1875
141
12.0
290
     0
  0
SCALE
  5
60
102
{ACAD_REACTORS
330
47
102
}
330
47
100
AcDbScale
 70
     0
300
1/4" = 1'-0"
140
0.25
141
12.0
290
     0
  0
SCALE
  5
61
102
{ACAD_REACTORS
330
47
102
}
330
47
100
AcDbScale
 70
     0
300
3/8" = 1'-0"
140
0.375
141
12.0
290
     0
  0
SCALE
  5
62
102
{ACAD_REACTORS
330
47
102
}
330
47
100
AcDbScale
 70
     0
300
1/2" = 1'-0"
140
0.5
141
12.0
290
     0
  0
SCALE
  5
63
102
{ACAD_REACTORS
330
47
102
}
330
47
100
AcDbScale
 70
     0
300
3/4" = 1'-0"
140
0.75
141
12.0
290
     0
  0
SCALE
  5
64
102
{ACAD_REACTORS
330
47
102
}
330
47
100
AcDbScale
 70
     0
300
1" = 1'-0"
140
1.0
141
12.0
290
     0
  0
SCALE
  5
65
102
{ACAD_REACTORS
330
47
102
}
330
47
100
AcDbScale
 70
     0
300
1-1/2" = 1'-0"
140
1.5
141
12.0
290
     0
  0
SCALE
  5
66
102
{ACAD_REACTORS
330
47
102
}
330
47
100
AcDbScale
 70
     0
300
3" = 1'-0"
140
3.0
141
12.0
290
     0
  0
SCALE
  5
67
102
{ACAD_REACTORS
330
47
102
}
330
47
100
AcDbScale
 70
     0
300
6" = 1'-0"
140
6.0
141
12.0
290
     0
  0
SCALE
  5
68
102
{ACAD_REACTORS
330
47
102
}
330
47
100
AcDbScale
 70
     0
300
1'-0" = 1'-0"
140
12.0
141
12.0
290
     0
  0
ENDSEC
  0
EOF
