  0
SECTION
  2
HEADER
  9
$ACADVER
  1
AC1009
  9
$EXTMIN
 10
0.0
 20
0.0
 30
0.0
  9
$EXTMAX
 10
1000.0
 20
1000.0
 30
0.0
  9
$FILLMODE
 70
 0
  9
$SPLFRAME
 70
 1
  0
ENDSEC
  0
SECTION
  2
TABLES
  0
TABLE
  2
LAYER
 70
1
  0
LAYER
  2
0
 70
     0
 62
     7
  6
CONTINUOUS
  0
ENDTAB
  0
ENDSEC
  0
SECTION
  2
ENTITIES
  0
POLYLINE
  8
0
 62
     0
 66
     1
 10
0
 20
0
 30
0.0
 70
     1
 40
24
 41
24
  0
VERTEX
  8
0
 10
20.7264
 20
326.34
 30
0.0
 40
0.333333
 41
0.333333
  0
VERTEX
  8
0
 10
20.7264
 20
326.301
 30
0.0
 40
0.333333
 41
0.333333
  0
VERTEX
  8
0
 10
20.7186
 20
326.186
 30
0.0
 40
0.333333
 41
0.333333
  0
VERTEX
  8
0
 10
20.696
 20
326.037
 30
0.0
 40
0.333333
 41
0.333333
  0
VERTEX
  8
0
 10
20.659
 20
325.894
 30
0.0
 40
0.333333
 41
0.333333
  0
VERTEX
  8
0
 10
20.6085
 20
325.756
 30
0.0
 40
0.333333
 41
0.333333
  0
VERTEX
  8
0
 10
20.5454
 20
325.625
 30
0.0
 40
0.333333
 41
0.333333
  0
VERTEX
  8
0
 10
20.4703
 20
325.501
 30
0.0
 40
0.333333
 41
0.333333
  0
VERTEX
  8
0
 10
20.3839
 20
325.386
 30
0.0
 40
0.333333
 41
0.333333
  0
VERTEX
  8
0
 10
20.2871
 20
325.279
 30
0.0
 40
0.333333
 41
0.333333
  0
VERTEX
  8
0
 10
20.1806
 20
325.182
 30
0.0
 40
0.333333
 41
0.333333
  0
VERTEX
  8
0
 10
20.065
 20
325.096
 30
0.0
 40
0.333333
 41
0.333333
  0
VERTEX
  8
0
 10
19.9414
 20
325.021
 30
0.0
 40
0.333333
 41
0.333333
  0
VERTEX
  8
0
 10
19.8103
 20
324.958
 30
0.0
 40
0.333333
 41
0.333333
  0
VERTEX
  8
0
 10
19.6724
 20
324.907
 30
0.0
 40
0.333333
 41
0.333333
  0
VERTEX
  8
0
 10
19.5287
 20
324.871
 30
0.0
 40
0.333333
 41
0.333333
  0
VERTEX
  8
0
 10
19.3797
 20
324.847
 30
0.0
 40
0.333333
 41
0.333333
  0
VERTEX
  8
0
 10
19.2647
 20
324.84
 30
0.0
 40
0.333333
 41
0.333333
  0
VERTEX
  8
0
 10
19.2264
 20
324.84
 30
0.0
 40
0.333333
 41
0.333333
  0
VERTEX
  8
0
 10
19.1881
 20
324.84
 30
0.0
 40
0.333333
 41
0.333333
  0
VERTEX
  8
0
 10
19.0731
 20
324.847
 30
0.0
 40
0.333333
 41
0.333333
  0
VERTEX
  8
0
 10
18.9242
 20
324.871
 30
0.0
 40
0.333333
 41
0.333333
  0
VERTEX
  8
0
 10
18.7803
 20
324.907
 30
0.0
 40
0.333333
 41
0.333333
  0
VERTEX
  8
0
 10
18.6425
 20
324.958
 30
0.0
 40
0.333333
 41
0.333333
  0
VERTEX
  8
0
 10
18.5114
 20
325.021
 30
0.0
 40
0.333333
 41
0.333333
  0
VERTEX
  8
0
 10
18.3876
 20
325.096
 30
0.0
 40
0.333333
 41
0.333333
  0
VERTEX
  8
0
 10
18.2722
 20
325.182
 30
0.0
 40
0.333333
 41
0.333333
  0
VERTEX
  8
0
 10
18.1657
 20
325.279
 30
0.0
 40
0.333333
 41
0.333333
  0
VERTEX
  8
0
 10
18.0689
 20
325.386
 30
0.0
 40
0.333333
 41
0.333333
  0
VERTEX
  8
0
 10
17.9825
 20
325.501
 30
0.0
 40
0.333333
 41
0.333333
  0
VERTEX
  8
0
 10
17.9075
 20
325.625
 30
0.0
 40
0.333333
 41
0.333333
  0
VERTEX
  8
0
 10
17.8443
 20
325.756
 30
0.0
 40
0.333333
 41
0.333333
  0
VERTEX
  8
0
 10
17.7939
 20
325.894
 30
0.0
 40
0.333333
 41
0.333333
  0
VERTEX
  8
0
 10
17.7568
 20
326.037
 30
0.0
 40
0.333333
 41
0.333333
  0
VERTEX
  8
0
 10
17.7342
 20
326.186
 30
0.0
 40
0.333333
 41
0.333333
  0
VERTEX
  8
0
 10
17.7264
 20
326.301
 30
0.0
 40
0.333333
 41
0.333333
  0
VERTEX
  8
0
 10
17.7264
 20
326.34
 30
0.0
 40
0.333333
 41
0.333333
  0
VERTEX
  8
0
 10
17.7264
 20
326.378
 30
0.0
 40
0.333333
 41
0.333333
  0
VERTEX
  8
0
 10
17.7342
 20
326.493
 30
0.0
 40
0.333333
 41
0.333333
  0
VERTEX
  8
0
 10
17.7568
 20
326.642
 30
0.0
 40
0.333333
 41
0.333333
  0
VERTEX
  8
0
 10
17.7939
 20
326.786
 30
0.0
 40
0.333333
 41
0.333333
  0
VERTEX
  8
0
 10
17.8443
 20
326.924
 30
0.0
 40
0.333333
 41
0.333333
  0
VERTEX
  8
0
 10
17.9075
 20
327.054
 30
0.0
 40
0.333333
 41
0.333333
  0
VERTEX
  8
0
 10
17.9825
 20
327.179
 30
0.0
 40
0.333333
 41
0.333333
  0
VERTEX
  8
0
 10
18.0689
 20
327.294
 30
0.0
 40
0.333333
 41
0.333333
  0
VERTEX
  8
0
 10
18.1657
 20
327.4
 30
0.0
 40
0.333333
 41
0.333333
  0
VERTEX
  8
0
 10
18.2722
 20
327.497
 30
0.0
 40
0.333333
 41
0.333333
  0
VERTEX
  8
0
 10
18.3876
 20
327.583
 30
0.0
 40
0.333333
 41
0.333333
  0
VERTEX
  8
0
 10
18.5114
 20
327.658
 30
0.0
 40
0.333333
 41
0.333333
  0
VERTEX
  8
0
 10
18.6425
 20
327.722
 30
0.0
 40
0.333333
 41
0.333333
  0
VERTEX
  8
0
 10
18.7803
 20
327.772
 30
0.0
 40
0.333333
 41
0.333333
  0
VERTEX
  8
0
 10
18.9242
 20
327.81
 30
0.0
 40
0.333333
 41
0.333333
  0
VERTEX
  8
0
 10
19.0731
 20
327.832
 30
0.0
 40
0.333333
 41
0.333333
  0
VERTEX
  8
0
 10
19.1881
 20
327.84
 30
0.0
 40
0.333333
 41
0.333333
  0
VERTEX
  8
0
 10
19.2264
 20
327.84
 30
0.0
 40
0.333333
 41
0.333333
  0
VERTEX
  8
0
 10
19.2647
 20
327.84
 30
0.0
 40
0.333333
 41
0.333333
  0
VERTEX
  8
0
 10
19.3797
 20
327.832
 30
0.0
 40
0.333333
 41
0.333333
  0
VERTEX
  8
0
 10
19.5287
 20
327.81
 30
0.0
 40
0.333333
 41
0.333333
  0
VERTEX
  8
0
 10
19.6724
 20
327.772
 30
0.0
 40
0.333333
 41
0.333333
  0
VERTEX
  8
0
 10
19.8103
 20
327.722
 30
0.0
 40
0.333333
 41
0.333333
  0
VERTEX
  8
0
 10
19.9414
 20
327.658
 30
0.0
 40
0.333333
 41
0.333333
  0
VERTEX
  8
0
 10
20.065
 20
327.583
 30
0.0
 40
0.333333
 41
0.333333
  0
VERTEX
  8
0
 10
20.1806
 20
327.497
 30
0.0
 40
0.333333
 41
0.333333
  0
VERTEX
  8
0
 10
20.2871
 20
327.4
 30
0.0
 40
0.333333
 41
0.333333
  0
VERTEX
  8
0
 10
20.3839
 20
327.294
 30
0.0
 40
0.333333
 41
0.333333
  0
VERTEX
  8
0
 10
20.4703
 20
327.179
 30
0.0
 40
0.333333
 41
0.333333
  0
VERTEX
  8
0
 10
20.5454
 20
327.054
 30
0.0
 40
0.333333
 41
0.333333
  0
VERTEX
  8
0
 10
20.6085
 20
326.924
 30
0.0
 40
0.333333
 41
0.333333
  0
VERTEX
  8
0
 10
20.659
 20
326.786
 30
0.0
 40
0.333333
 41
0.333333
  0
VERTEX
  8
0
 10
20.696
 20
326.642
 30
0.0
 40
0.333333
 41
0.333333
  0
VERTEX
  8
0
 10
20.7186
 20
326.493
 30
0.0
 40
0.333333
 41
0.333333
  0
VERTEX
  8
0
 10
20.7264
 20
326.378
 30
0.0
 40
0.333333
 41
0.333333
  0
VERTEX
  8
0
 10
20.7264
 20
326.34
 30
0.0
 40
0.333333
 41
0.333333
  0
SEQEND
 8
0
  0
POLYLINE
  8
0
 62
     0
 66
     1
 10
0
 20
0
 30
0.0
 70
     1
 40
24
 41
24
  0
VERTEX
  8
0
 10
20.7264
 20
342.09
 30
0.0
 40
0.333333
 41
0.333333
  0
VERTEX
  8
0
 10
20.7264
 20
342.051
 30
0.0
 40
0.333333
 41
0.333333
  0
VERTEX
  8
0
 10
20.7186
 20
341.936
 30
0.0
 40
0.333333
 41
0.333333
  0
VERTEX
  8
0
 10
20.696
 20
341.787
 30
0.0
 40
0.333333
 41
0.333333
  0
VERTEX
  8
0
 10
20.659
 20
341.644
 30
0.0
 40
0.333333
 41
0.333333
  0
VERTEX
  8
0
 10
20.6085
 20
341.506
 30
0.0
 40
0.333333
 41
0.333333
  0
VERTEX
  8
0
 10
20.5454
 20
341.375
 30
0.0
 40
0.333333
 41
0.333333
  0
VERTEX
  8
0
 10
20.4703
 20
341.251
 30
0.0
 40
0.333333
 41
0.333333
  0
VERTEX
  8
0
 10
20.3839
 20
341.136
 30
0.0
 40
0.333333
 41
0.333333
  0
VERTEX
  8
0
 10
20.2871
 20
341.029
 30
0.0
 40
0.333333
 41
0.333333
  0
VERTEX
  8
0
 10
20.1806
 20
340.932
 30
0.0
 40
0.333333
 41
0.333333
  0
VERTEX
  8
0
 10
20.065
 20
340.846
 30
0.0
 40
0.333333
 41
0.333333
  0
VERTEX
  8
0
 10
19.9414
 20
340.771
 30
0.0
 40
0.333333
 41
0.333333
  0
VERTEX
  8
0
 10
19.8103
 20
340.708
 30
0.0
 40
0.333333
 41
0.333333
  0
VERTEX
  8
0
 10
19.6724
 20
340.657
 30
0.0
 40
0.333333
 41
0.333333
  0
VERTEX
  8
0
 10
19.5287
 20
340.621
 30
0.0
 40
0.333333
 41
0.333333
  0
VERTEX
  8
0
 10
19.3797
 20
340.597
 30
0.0
 40
0.333333
 41
0.333333
  0
VERTEX
  8
0
 10
19.2647
 20
340.59
 30
0.0
 40
0.333333
 41
0.333333
  0
VERTEX
  8
0
 10
19.2264
 20
340.59
 30
0.0
 40
0.333333
 41
0.333333
  0
VERTEX
  8
0
 10
19.1881
 20
340.59
 30
0.0
 40
0.333333
 41
0.333333
  0
VERTEX
  8
0
 10
19.0731
 20
340.597
 30
0.0
 40
0.333333
 41
0.333333
  0
VERTEX
  8
0
 10
18.9242
 20
340.621
 30
0.0
 40
0.333333
 41
0.333333
  0
VERTEX
  8
0
 10
18.7803
 20
340.657
 30
0.0
 40
0.333333
 41
0.333333
  0
VERTEX
  8
0
 10
18.6425
 20
340.708
 30
0.0
 40
0.333333
 41
0.333333
  0
VERTEX
  8
0
 10
18.5114
 20
340.771
 30
0.0
 40
0.333333
 41
0.333333
  0
VERTEX
  8
0
 10
18.3876
 20
340.846
 30
0.0
 40
0.333333
 41
0.333333
  0
VERTEX
  8
0
 10
18.2722
 20
340.932
 30
0.0
 40
0.333333
 41
0.333333
  0
VERTEX
  8
0
 10
18.1657
 20
341.029
 30
0.0
 40
0.333333
 41
0.333333
  0
VERTEX
  8
0
 10
18.0689
 20
341.136
 30
0.0
 40
0.333333
 41
0.333333
  0
VERTEX
  8
0
 10
17.9825
 20
341.251
 30
0.0
 40
0.333333
 41
0.333333
  0
VERTEX
  8
0
 10
17.9075
 20
341.375
 30
0.0
 40
0.333333
 41
0.333333
  0
VERTEX
  8
0
 10
17.8443
 20
341.506
 30
0.0
 40
0.333333
 41
0.333333
  0
VERTEX
  8
0
 10
17.7939
 20
341.644
 30
0.0
 40
0.333333
 41
0.333333
  0
VERTEX
  8
0
 10
17.7568
 20
341.787
 30
0.0
 40
0.333333
 41
0.333333
  0
VERTEX
  8
0
 10
17.7342
 20
341.936
 30
0.0
 40
0.333333
 41
0.333333
  0
VERTEX
  8
0
 10
17.7264
 20
342.051
 30
0.0
 40
0.333333
 41
0.333333
  0
VERTEX
  8
0
 10
17.7264
 20
342.09
 30
0.0
 40
0.333333
 41
0.333333
  0
VERTEX
  8
0
 10
17.7264
 20
342.128
 30
0.0
 40
0.333333
 41
0.333333
  0
VERTEX
  8
0
 10
17.7342
 20
342.243
 30
0.0
 40
0.333333
 41
0.333333
  0
VERTEX
  8
0
 10
17.7568
 20
342.392
 30
0.0
 40
0.333333
 41
0.333333
  0
VERTEX
  8
0
 10
17.7939
 20
342.536
 30
0.0
 40
0.333333
 41
0.333333
  0
VERTEX
  8
0
 10
17.8443
 20
342.674
 30
0.0
 40
0.333333
 41
0.333333
  0
VERTEX
  8
0
 10
17.9075
 20
342.804
 30
0.0
 40
0.333333
 41
0.333333
  0
VERTEX
  8
0
 10
17.9825
 20
342.929
 30
0.0
 40
0.333333
 41
0.333333
  0
VERTEX
  8
0
 10
18.0689
 20
343.044
 30
0.0
 40
0.333333
 41
0.333333
  0
VERTEX
  8
0
 10
18.1657
 20
343.15
 30
0.0
 40
0.333333
 41
0.333333
  0
VERTEX
  8
0
 10
18.2722
 20
343.247
 30
0.0
 40
0.333333
 41
0.333333
  0
VERTEX
  8
0
 10
18.3876
 20
343.333
 30
0.0
 40
0.333333
 41
0.333333
  0
VERTEX
  8
0
 10
18.5114
 20
343.408
 30
0.0
 40
0.333333
 41
0.333333
  0
VERTEX
  8
0
 10
18.6425
 20
343.472
 30
0.0
 40
0.333333
 41
0.333333
  0
VERTEX
  8
0
 10
18.7803
 20
343.522
 30
0.0
 40
0.333333
 41
0.333333
  0
VERTEX
  8
0
 10
18.9242
 20
343.56
 30
0.0
 40
0.333333
 41
0.333333
  0
VERTEX
  8
0
 10
19.0731
 20
343.582
 30
0.0
 40
0.333333
 41
0.333333
  0
VERTEX
  8
0
 10
19.1881
 20
343.59
 30
0.0
 40
0.333333
 41
0.333333
  0
VERTEX
  8
0
 10
19.2264
 20
343.59
 30
0.0
 40
0.333333
 41
0.333333
  0
VERTEX
  8
0
 10
19.2647
 20
343.59
 30
0.0
 40
0.333333
 41
0.333333
  0
VERTEX
  8
0
 10
19.3797
 20
343.582
 30
0.0
 40
0.333333
 41
0.333333
  0
VERTEX
  8
0
 10
19.5287
 20
343.56
 30
0.0
 40
0.333333
 41
0.333333
  0
VERTEX
  8
0
 10
19.6724
 20
343.522
 30
0.0
 40
0.333333
 41
0.333333
  0
VERTEX
  8
0
 10
19.8103
 20
343.472
 30
0.0
 40
0.333333
 41
0.333333
  0
VERTEX
  8
0
 10
19.9414
 20
343.408
 30
0.0
 40
0.333333
 41
0.333333
  0
VERTEX
  8
0
 10
20.065
 20
343.333
 30
0.0
 40
0.333333
 41
0.333333
  0
VERTEX
  8
0
 10
20.1806
 20
343.247
 30
0.0
 40
0.333333
 41
0.333333
  0
VERTEX
  8
0
 10
20.2871
 20
343.15
 30
0.0
 40
0.333333
 41
0.333333
  0
VERTEX
  8
0
 10
20.3839
 20
343.044
 30
0.0
 40
0.333333
 41
0.333333
  0
VERTEX
  8
0
 10
20.4703
 20
342.929
 30
0.0
 40
0.333333
 41
0.333333
  0
VERTEX
  8
0
 10
20.5454
 20
342.804
 30
0.0
 40
0.333333
 41
0.333333
  0
VERTEX
  8
0
 10
20.6085
 20
342.674
 30
0.0
 40
0.333333
 41
0.333333
  0
VERTEX
  8
0
 10
20.659
 20
342.536
 30
0.0
 40
0.333333
 41
0.333333
  0
VERTEX
  8
0
 10
20.696
 20
342.392
 30
0.0
 40
0.333333
 41
0.333333
  0
VERTEX
  8
0
 10
20.7186
 20
342.243
 30
0.0
 40
0.333333
 41
0.333333
  0
VERTEX
  8
0
 10
20.7264
 20
342.128
 30
0.0
 40
0.333333
 41
0.333333
  0
VERTEX
  8
0
 10
20.7264
 20
342.09
 30
0.0
 40
0.333333
 41
0.333333
  0
SEQEND
 8
0
  0
POLYLINE
  8
0
 62
     0
 66
     1
 10
0
 20
0
 30
0.0
 70
     1
 40
24
 41
24
  0
VERTEX
  8
0
 10
192.176
 20
342.09
 30
0.0
 40
0.333333
 41
0.333333
  0
VERTEX
  8
0
 10
192.176
 20
342.051
 30
0.0
 40
0.333333
 41
0.333333
  0
VERTEX
  8
0
 10
192.169
 20
341.936
 30
0.0
 40
0.333333
 41
0.333333
  0
VERTEX
  8
0
 10
192.146
 20
341.787
 30
0.0
 40
0.333333
 41
0.333333
  0
VERTEX
  8
0
 10
192.11
 20
341.644
 30
0.0
 40
0.333333
 41
0.333333
  0
VERTEX
  8
0
 10
192.058
 20
341.506
 30
0.0
 40
0.333333
 41
0.333333
  0
VERTEX
  8
0
 10
191.996
 20
341.375
 30
0.0
 40
0.333333
 41
0.333333
  0
VERTEX
  8
0
 10
191.921
 20
341.251
 30
0.0
 40
0.333333
 41
0.333333
  0
VERTEX
  8
0
 10
191.835
 20
341.136
 30
0.0
 40
0.333333
 41
0.333333
  0
VERTEX
  8
0
 10
191.737
 20
341.029
 30
0.0
 40
0.333333
 41
0.333333
  0
VERTEX
  8
0
 10
191.631
 20
340.932
 30
0.0
 40
0.333333
 41
0.333333
  0
VERTEX
  8
0
 10
191.515
 20
340.846
 30
0.0
 40
0.333333
 41
0.333333
  0
VERTEX
  8
0
 10
191.392
 20
340.771
 30
0.0
 40
0.333333
 41
0.333333
  0
VERTEX
  8
0
 10
191.261
 20
340.708
 30
0.0
 40
0.333333
 41
0.333333
  0
VERTEX
  8
0
 10
191.122
 20
340.657
 30
0.0
 40
0.333333
 41
0.333333
  0
VERTEX
  8
0
 10
190.979
 20
340.621
 30
0.0
 40
0.333333
 41
0.333333
  0
VERTEX
  8
0
 10
190.831
 20
340.597
 30
0.0
 40
0.333333
 41
0.333333
  0
VERTEX
  8
0
 10
190.715
 20
340.59
 30
0.0
 40
0.333333
 41
0.333333
  0
VERTEX
  8
0
 10
190.676
 20
340.59
 30
0.0
 40
0.333333
 41
0.333333
  0
VERTEX
  8
0
 10
190.639
 20
340.59
 30
0.0
 40
0.333333
 41
0.333333
  0
VERTEX
  8
0
 10
190.524
 20
340.597
 30
0.0
 40
0.333333
 41
0.333333
  0
VERTEX
  8
0
 10
190.375
 20
340.621
 30
0.0
 40
0.333333
 41
0.333333
  0
VERTEX
  8
0
 10
190.231
 20
340.657
 30
0.0
 40
0.333333
 41
0.333333
  0
VERTEX
  8
0
 10
190.093
 20
340.708
 30
0.0
 40
0.333333
 41
0.333333
  0
VERTEX
  8
0
 10
189.961
 20
340.771
 30
0.0
 40
0.333333
 41
0.333333
  0
VERTEX
  8
0
 10
189.837
 20
340.846
 30
0.0
 40
0.333333
 41
0.333333
  0
VERTEX
  8
0
 10
189.722
 20
340.932
 30
0.0
 40
0.333333
 41
0.333333
  0
VERTEX
  8
0
 10
189.617
 20
341.029
 30
0.0
 40
0.333333
 41
0.333333
  0
VERTEX
  8
0
 10
189.519
 20
341.136
 30
0.0
 40
0.333333
 41
0.333333
  0
VERTEX
  8
0
 10
189.433
 20
341.251
 30
0.0
 40
0.333333
 41
0.333333
  0
VERTEX
  8
0
 10
189.358
 20
341.375
 30
0.0
 40
0.333333
 41
0.333333
  0
VERTEX
  8
0
 10
189.294
 20
341.506
 30
0.0
 40
0.333333
 41
0.333333
  0
VERTEX
  8
0
 10
189.244
 20
341.644
 30
0.0
 40
0.333333
 41
0.333333
  0
VERTEX
  8
0
 10
189.207
 20
341.787
 30
0.0
 40
0.333333
 41
0.333333
  0
VERTEX
  8
0
 10
189.185
 20
341.936
 30
0.0
 40
0.333333
 41
0.333333
  0
VERTEX
  8
0
 10
189.176
 20
342.051
 30
0.0
 40
0.333333
 41
0.333333
  0
VERTEX
  8
0
 10
189.176
 20
342.09
 30
0.0
 40
0.333333
 41
0.333333
  0
VERTEX
  8
0
 10
189.176
 20
342.128
 30
0.0
 40
0.333333
 41
0.333333
  0
VERTEX
  8
0
 10
189.185
 20
342.243
 30
0.0
 40
0.333333
 41
0.333333
  0
VERTEX
  8
0
 10
189.207
 20
342.392
 30
0.0
 40
0.333333
 41
0.333333
  0
VERTEX
  8
0
 10
189.244
 20
342.536
 30
0.0
 40
0.333333
 41
0.333333
  0
VERTEX
  8
0
 10
189.294
 20
342.674
 30
0.0
 40
0.333333
 41
0.333333
  0
VERTEX
  8
0
 10
189.358
 20
342.804
 30
0.0
 40
0.333333
 41
0.333333
  0
VERTEX
  8
0
 10
189.433
 20
342.929
 30
0.0
 40
0.333333
 41
0.333333
  0
VERTEX
  8
0
 10
189.519
 20
343.044
 30
0.0
 40
0.333333
 41
0.333333
  0
VERTEX
  8
0
 10
189.617
 20
343.15
 30
0.0
 40
0.333333
 41
0.333333
  0
VERTEX
  8
0
 10
189.722
 20
343.247
 30
0.0
 40
0.333333
 41
0.333333
  0
VERTEX
  8
0
 10
189.837
 20
343.333
 30
0.0
 40
0.333333
 41
0.333333
  0
VERTEX
  8
0
 10
189.961
 20
343.408
 30
0.0
 40
0.333333
 41
0.333333
  0
VERTEX
  8
0
 10
190.093
 20
343.472
 30
0.0
 40
0.333333
 41
0.333333
  0
VERTEX
  8
0
 10
190.231
 20
343.522
 30
0.0
 40
0.333333
 41
0.333333
  0
VERTEX
  8
0
 10
190.375
 20
343.56
 30
0.0
 40
0.333333
 41
0.333333
  0
VERTEX
  8
0
 10
190.524
 20
343.582
 30
0.0
 40
0.333333
 41
0.333333
  0
VERTEX
  8
0
 10
190.639
 20
343.59
 30
0.0
 40
0.333333
 41
0.333333
  0
VERTEX
  8
0
 10
190.676
 20
343.59
 30
0.0
 40
0.333333
 41
0.333333
  0
VERTEX
  8
0
 10
190.715
 20
343.59
 30
0.0
 40
0.333333
 41
0.333333
  0
VERTEX
  8
0
 10
190.831
 20
343.582
 30
0.0
 40
0.333333
 41
0.333333
  0
VERTEX
  8
0
 10
190.979
 20
343.56
 30
0.0
 40
0.333333
 41
0.333333
  0
VERTEX
  8
0
 10
191.122
 20
343.522
 30
0.0
 40
0.333333
 41
0.333333
  0
VERTEX
  8
0
 10
191.261
 20
343.472
 30
0.0
 40
0.333333
 41
0.333333
  0
VERTEX
  8
0
 10
191.392
 20
343.408
 30
0.0
 40
0.333333
 41
0.333333
  0
VERTEX
  8
0
 10
191.515
 20
343.333
 30
0.0
 40
0.333333
 41
0.333333
  0
VERTEX
  8
0
 10
191.631
 20
343.247
 30
0.0
 40
0.333333
 41
0.333333
  0
VERTEX
  8
0
 10
191.737
 20
343.15
 30
0.0
 40
0.333333
 41
0.333333
  0
VERTEX
  8
0
 10
191.835
 20
343.044
 30
0.0
 40
0.333333
 41
0.333333
  0
VERTEX
  8
0
 10
191.921
 20
342.929
 30
0.0
 40
0.333333
 41
0.333333
  0
VERTEX
  8
0
 10
191.996
 20
342.804
 30
0.0
 40
0.333333
 41
0.333333
  0
VERTEX
  8
0
 10
192.058
 20
342.674
 30
0.0
 40
0.333333
 41
0.333333
  0
VERTEX
  8
0
 10
192.11
 20
342.536
 30
0.0
 40
0.333333
 41
0.333333
  0
VERTEX
  8
0
 10
192.146
 20
342.392
 30
0.0
 40
0.333333
 41
0.333333
  0
VERTEX
  8
0
 10
192.169
 20
342.243
 30
0.0
 40
0.333333
 41
0.333333
  0
VERTEX
  8
0
 10
192.176
 20
342.128
 30
0.0
 40
0.333333
 41
0.333333
  0
VERTEX
  8
0
 10
192.176
 20
342.09
 30
0.0
 40
0.333333
 41
0.333333
  0
SEQEND
 8
0
  0
POLYLINE
  8
0
 62
     0
 66
     1
 10
0
 20
0
 30
0.0
 70
     1
 40
24
 41
24
  0
VERTEX
  8
0
 10
192.176
 20
326.34
 30
0.0
 40
0.333333
 41
0.333333
  0
VERTEX
  8
0
 10
192.176
 20
326.301
 30
0.0
 40
0.333333
 41
0.333333
  0
VERTEX
  8
0
 10
192.169
 20
326.186
 30
0.0
 40
0.333333
 41
0.333333
  0
VERTEX
  8
0
 10
192.146
 20
326.037
 30
0.0
 40
0.333333
 41
0.333333
  0
VERTEX
  8
0
 10
192.11
 20
325.894
 30
0.0
 40
0.333333
 41
0.333333
  0
VERTEX
  8
0
 10
192.058
 20
325.756
 30
0.0
 40
0.333333
 41
0.333333
  0
VERTEX
  8
0
 10
191.996
 20
325.625
 30
0.0
 40
0.333333
 41
0.333333
  0
VERTEX
  8
0
 10
191.921
 20
325.501
 30
0.0
 40
0.333333
 41
0.333333
  0
VERTEX
  8
0
 10
191.835
 20
325.386
 30
0.0
 40
0.333333
 41
0.333333
  0
VERTEX
  8
0
 10
191.737
 20
325.279
 30
0.0
 40
0.333333
 41
0.333333
  0
VERTEX
  8
0
 10
191.631
 20
325.182
 30
0.0
 40
0.333333
 41
0.333333
  0
VERTEX
  8
0
 10
191.515
 20
325.096
 30
0.0
 40
0.333333
 41
0.333333
  0
VERTEX
  8
0
 10
191.392
 20
325.021
 30
0.0
 40
0.333333
 41
0.333333
  0
VERTEX
  8
0
 10
191.261
 20
324.958
 30
0.0
 40
0.333333
 41
0.333333
  0
VERTEX
  8
0
 10
191.122
 20
324.907
 30
0.0
 40
0.333333
 41
0.333333
  0
VERTEX
  8
0
 10
190.979
 20
324.871
 30
0.0
 40
0.333333
 41
0.333333
  0
VERTEX
  8
0
 10
190.831
 20
324.847
 30
0.0
 40
0.333333
 41
0.333333
  0
VERTEX
  8
0
 10
190.715
 20
324.84
 30
0.0
 40
0.333333
 41
0.333333
  0
VERTEX
  8
0
 10
190.676
 20
324.84
 30
0.0
 40
0.333333
 41
0.333333
  0
VERTEX
  8
0
 10
190.639
 20
324.84
 30
0.0
 40
0.333333
 41
0.333333
  0
VERTEX
  8
0
 10
190.524
 20
324.847
 30
0.0
 40
0.333333
 41
0.333333
  0
VERTEX
  8
0
 10
190.375
 20
324.871
 30
0.0
 40
0.333333
 41
0.333333
  0
VERTEX
  8
0
 10
190.231
 20
324.907
 30
0.0
 40
0.333333
 41
0.333333
  0
VERTEX
  8
0
 10
190.093
 20
324.958
 30
0.0
 40
0.333333
 41
0.333333
  0
VERTEX
  8
0
 10
189.961
 20
325.021
 30
0.0
 40
0.333333
 41
0.333333
  0
VERTEX
  8
0
 10
189.837
 20
325.096
 30
0.0
 40
0.333333
 41
0.333333
  0
VERTEX
  8
0
 10
189.722
 20
325.182
 30
0.0
 40
0.333333
 41
0.333333
  0
VERTEX
  8
0
 10
189.617
 20
325.279
 30
0.0
 40
0.333333
 41
0.333333
  0
VERTEX
  8
0
 10
189.519
 20
325.386
 30
0.0
 40
0.333333
 41
0.333333
  0
VERTEX
  8
0
 10
189.433
 20
325.501
 30
0.0
 40
0.333333
 41
0.333333
  0
VERTEX
  8
0
 10
189.358
 20
325.625
 30
0.0
 40
0.333333
 41
0.333333
  0
VERTEX
  8
0
 10
189.294
 20
325.756
 30
0.0
 40
0.333333
 41
0.333333
  0
VERTEX
  8
0
 10
189.244
 20
325.894
 30
0.0
 40
0.333333
 41
0.333333
  0
VERTEX
  8
0
 10
189.207
 20
326.037
 30
0.0
 40
0.333333
 41
0.333333
  0
VERTEX
  8
0
 10
189.185
 20
326.186
 30
0.0
 40
0.333333
 41
0.333333
  0
VERTEX
  8
0
 10
189.176
 20
326.301
 30
0.0
 40
0.333333
 41
0.333333
  0
VERTEX
  8
0
 10
189.176
 20
326.34
 30
0.0
 40
0.333333
 41
0.333333
  0
VERTEX
  8
0
 10
189.176
 20
326.378
 30
0.0
 40
0.333333
 41
0.333333
  0
VERTEX
  8
0
 10
189.185
 20
326.493
 30
0.0
 40
0.333333
 41
0.333333
  0
VERTEX
  8
0
 10
189.207
 20
326.642
 30
0.0
 40
0.333333
 41
0.333333
  0
VERTEX
  8
0
 10
189.244
 20
326.786
 30
0.0
 40
0.333333
 41
0.333333
  0
VERTEX
  8
0
 10
189.294
 20
326.924
 30
0.0
 40
0.333333
 41
0.333333
  0
VERTEX
  8
0
 10
189.358
 20
327.054
 30
0.0
 40
0.333333
 41
0.333333
  0
VERTEX
  8
0
 10
189.433
 20
327.179
 30
0.0
 40
0.333333
 41
0.333333
  0
VERTEX
  8
0
 10
189.519
 20
327.294
 30
0.0
 40
0.333333
 41
0.333333
  0
VERTEX
  8
0
 10
189.617
 20
327.4
 30
0.0
 40
0.333333
 41
0.333333
  0
VERTEX
  8
0
 10
189.722
 20
327.497
 30
0.0
 40
0.333333
 41
0.333333
  0
VERTEX
  8
0
 10
189.837
 20
327.583
 30
0.0
 40
0.333333
 41
0.333333
  0
VERTEX
  8
0
 10
189.961
 20
327.658
 30
0.0
 40
0.333333
 41
0.333333
  0
VERTEX
  8
0
 10
190.093
 20
327.722
 30
0.0
 40
0.333333
 41
0.333333
  0
VERTEX
  8
0
 10
190.231
 20
327.772
 30
0.0
 40
0.333333
 41
0.333333
  0
VERTEX
  8
0
 10
190.375
 20
327.81
 30
0.0
 40
0.333333
 41
0.333333
  0
VERTEX
  8
0
 10
190.524
 20
327.832
 30
0.0
 40
0.333333
 41
0.333333
  0
VERTEX
  8
0
 10
190.639
 20
327.84
 30
0.0
 40
0.333333
 41
0.333333
  0
VERTEX
  8
0
 10
190.676
 20
327.84
 30
0.0
 40
0.333333
 41
0.333333
  0
VERTEX
  8
0
 10
190.715
 20
327.84
 30
0.0
 40
0.333333
 41
0.333333
  0
VERTEX
  8
0
 10
190.831
 20
327.832
 30
0.0
 40
0.333333
 41
0.333333
  0
VERTEX
  8
0
 10
190.979
 20
327.81
 30
0.0
 40
0.333333
 41
0.333333
  0
VERTEX
  8
0
 10
191.122
 20
327.772
 30
0.0
 40
0.333333
 41
0.333333
  0
VERTEX
  8
0
 10
191.261
 20
327.722
 30
0.0
 40
0.333333
 41
0.333333
  0
VERTEX
  8
0
 10
191.392
 20
327.658
 30
0.0
 40
0.333333
 41
0.333333
  0
VERTEX
  8
0
 10
191.515
 20
327.583
 30
0.0
 40
0.333333
 41
0.333333
  0
VERTEX
  8
0
 10
191.631
 20
327.497
 30
0.0
 40
0.333333
 41
0.333333
  0
VERTEX
  8
0
 10
191.737
 20
327.4
 30
0.0
 40
0.333333
 41
0.333333
  0
VERTEX
  8
0
 10
191.835
 20
327.294
 30
0.0
 40
0.333333
 41
0.333333
  0
VERTEX
  8
0
 10
191.921
 20
327.179
 30
0.0
 40
0.333333
 41
0.333333
  0
VERTEX
  8
0
 10
191.996
 20
327.054
 30
0.0
 40
0.333333
 41
0.333333
  0
VERTEX
  8
0
 10
192.058
 20
326.924
 30
0.0
 40
0.333333
 41
0.333333
  0
VERTEX
  8
0
 10
192.11
 20
326.786
 30
0.0
 40
0.333333
 41
0.333333
  0
VERTEX
  8
0
 10
192.146
 20
326.642
 30
0.0
 40
0.333333
 41
0.333333
  0
VERTEX
  8
0
 10
192.169
 20
326.493
 30
0.0
 40
0.333333
 41
0.333333
  0
VERTEX
  8
0
 10
192.176
 20
326.378
 30
0.0
 40
0.333333
 41
0.333333
  0
VERTEX
  8
0
 10
192.176
 20
326.34
 30
0.0
 40
0.333333
 41
0.333333
  0
SEQEND
 8
0
  0
POLYLINE
  8
0
 62
     0
 66
     1
 10
0
 20
0
 30
0.0
 70
     1
 40
24
 41
24
  0
VERTEX
  8
0
 10
70.6515
 20
56.5394
 30
0.0
 40
0.333333
 41
0.333333
  0
VERTEX
  8
0
 10
70.6515
 20
56.3349
 30
0.0
 40
0.333333
 41
0.333333
  0
VERTEX
  8
0
 10
70.6313
 20
55.7212
 30
0.0
 40
0.333333
 41
0.333333
  0
VERTEX
  8
0
 10
70.5707
 20
54.9086
 30
0.0
 40
0.333333
 41
0.333333
  0
VERTEX
  8
0
 10
70.4707
 20
54.1029
 30
0.0
 40
0.333333
 41
0.333333
  0
VERTEX
  8
0
 10
70.3315
 20
53.3054
 30
0.0
 40
0.333333
 41
0.333333
  0
VERTEX
  8
0
 10
70.1537
 20
52.5176
 30
0.0
 40
0.333333
 41
0.333333
  0
VERTEX
  8
0
 10
69.9382
 20
51.7407
 30
0.0
 40
0.333333
 41
0.333333
  0
VERTEX
  8
0
 10
69.6853
 20
50.9761
 30
0.0
 40
0.333333
 41
0.333333
  0
VERTEX
  8
0
 10
69.3954
 20
50.2251
 30
0.0
 40
0.333333
 41
0.333333
  0
VERTEX
  8
0
 10
69.0694
 20
49.4893
 30
0.0
 40
0.333333
 41
0.333333
  0
VERTEX
  8
0
 10
68.7076
 20
48.7697
 30
0.0
 40
0.333333
 41
0.333333
  0
VERTEX
  8
0
 10
68.3108
 20
48.0679
 30
0.0
 40
0.333333
 41
0.333333
  0
VERTEX
  8
0
 10
67.8792
 20
47.3851
 30
0.0
 40
0.333333
 41
0.333333
  0
VERTEX
  8
0
 10
67.4138
 20
46.7229
 30
0.0
 40
0.333333
 41
0.333333
  0
VERTEX
  8
0
 10
66.9147
 20
46.0824
 30
0.0
 40
0.333333
 41
0.333333
  0
VERTEX
  8
0
 10
66.3829
 20
45.465
 30
0.0
 40
0.333333
 41
0.333333
  0
VERTEX
  8
0
 10
65.9633
 20
45.0168
 30
0.0
 40
0.333333
 41
0.333333
  0
VERTEX
  8
0
 10
65.8188
 20
44.8721
 30
0.0
 40
0.333333
 41
0.333333
  0
VERTEX
  8
0
 10
65.6742
 20
44.7275
 30
0.0
 40
0.333333
 41
0.333333
  0
VERTEX
  8
0
 10
65.2258
 20
44.3079
 30
0.0
 40
0.333333
 41
0.333333
  0
VERTEX
  8
0
 10
64.6085
 20
43.7761
 30
0.0
 40
0.333333
 41
0.333333
  0
VERTEX
  8
0
 10
63.9679
 20
43.2771
 30
0.0
 40
0.333333
 41
0.333333
  0
VERTEX
  8
0
 10
63.3057
 20
42.8117
 30
0.0
 40
0.333333
 41
0.333333
  0
VERTEX
  8
0
 10
62.6229
 20
42.3801
 30
0.0
 40
0.333333
 41
0.333333
  0
VERTEX
  8
0
 10
61.9211
 20
41.9832
 30
0.0
 40
0.333333
 41
0.333333
  0
VERTEX
  8
0
 10
61.2017
 20
41.6215
 30
0.0
 40
0.333333
 41
0.333333
  0
VERTEX
  8
0
 10
60.4657
 20
41.2954
 30
0.0
 40
0.333333
 41
0.333333
  0
VERTEX
  8
0
 10
59.7149
 20
41.0056
 30
0.0
 40
0.333333
 41
0.333333
  0
VERTEX
  8
0
 10
58.9503
 20
40.7526
 30
0.0
 40
0.333333
 41
0.333333
  0
VERTEX
  8
0
 10
58.1733
 20
40.5371
 30
0.0
 40
0.333333
 41
0.333333
  0
VERTEX
  8
0
 10
57.3854
 20
40.3594
 30
0.0
 40
0.333333
 41
0.333333
  0
VERTEX
  8
0
 10
56.5881
 20
40.2203
 30
0.0
 40
0.333333
 41
0.333333
  0
VERTEX
  8
0
 10
55.7822
 20
40.1201
 30
0.0
 40
0.333333
 41
0.333333
  0
VERTEX
  8
0
 10
54.9696
 20
40.0597
 30
0.0
 40
0.333333
 41
0.333333
  0
VERTEX
  8
0
 10
54.356
 20
40.0394
 30
0.0
 40
0.333333
 41
0.333333
  0
VERTEX
  8
0
 10
54.1515
 20
40.0394
 30
0.0
 40
0.333333
 41
0.333333
  0
VERTEX
  8
0
 10
53.9469
 20
40.0394
 30
0.0
 40
0.333333
 41
0.333333
  0
VERTEX
  8
0
 10
53.3333
 20
40.0597
 30
0.0
 40
0.333333
 41
0.333333
  0
VERTEX
  8
0
 10
52.5206
 20
40.1201
 30
0.0
 40
0.333333
 41
0.333333
  0
VERTEX
  8
0
 10
51.7149
 20
40.2203
 30
0.0
 40
0.333333
 41
0.333333
  0
VERTEX
  8
0
 10
50.9174
 20
40.3594
 30
0.0
 40
0.333333
 41
0.333333
  0
VERTEX
  8
0
 10
50.1296
 20
40.5371
 30
0.0
 40
0.333333
 41
0.333333
  0
VERTEX
  8
0
 10
49.3526
 20
40.7526
 30
0.0
 40
0.333333
 41
0.333333
  0
VERTEX
  8
0
 10
48.5881
 20
41.0056
 30
0.0
 40
0.333333
 41
0.333333
  0
VERTEX
  8
0
 10
47.8372
 20
41.2954
 30
0.0
 40
0.333333
 41
0.333333
  0
VERTEX
  8
0
 10
47.1013
 20
41.6215
 30
0.0
 40
0.333333
 41
0.333333
  0
VERTEX
  8
0
 10
46.3817
 20
41.9832
 30
0.0
 40
0.333333
 41
0.333333
  0
VERTEX
  8
0
 10
45.68
 20
42.3801
 30
0.0
 40
0.333333
 41
0.333333
  0
VERTEX
  8
0
 10
44.9972
 20
42.8117
 30
0.0
 40
0.333333
 41
0.333333
  0
VERTEX
  8
0
 10
44.335
 20
43.2771
 30
0.0
 40
0.333333
 41
0.333333
  0
VERTEX
  8
0
 10
43.6944
 20
43.7761
 30
0.0
 40
0.333333
 41
0.333333
  0
VERTEX
  8
0
 10
43.0771
 20
44.3079
 30
0.0
 40
0.333333
 41
0.333333
  0
VERTEX
  8
0
 10
42.6288
 20
44.7275
 30
0.0
 40
0.333333
 41
0.333333
  0
VERTEX
  8
0
 10
42.4842
 20
44.8721
 30
0.0
 40
0.333333
 41
0.333333
  0
VERTEX
  8
0
 10
42.3396
 20
45.0168
 30
0.0
 40
0.333333
 41
0.333333
  0
VERTEX
  8
0
 10
41.92
 20
45.465
 30
0.0
 40
0.333333
 41
0.333333
  0
VERTEX
  8
0
 10
41.3881
 20
46.0824
 30
0.0
 40
0.333333
 41
0.333333
  0
VERTEX
  8
0
 10
40.8892
 20
46.7229
 30
0.0
 40
0.333333
 41
0.333333
  0
VERTEX
  8
0
 10
40.4236
 20
47.3851
 30
0.0
 40
0.333333
 41
0.333333
  0
VERTEX
  8
0
 10
39.9921
 20
48.0679
 30
0.0
 40
0.333333
 41
0.333333
  0
VERTEX
  8
0
 10
39.5953
 20
48.7697
 30
0.0
 40
0.333333
 41
0.333333
  0
VERTEX
  8
0
 10
39.2335
 20
49.4893
 30
0.0
 40
0.333333
 41
0.333333
  0
VERTEX
  8
0
 10
38.9074
 20
50.2251
 30
0.0
 40
0.333333
 41
0.333333
  0
VERTEX
  8
0
 10
38.6175
 20
50.9761
 30
0.0
 40
0.333333
 41
0.333333
  0
VERTEX
  8
0
 10
38.3646
 20
51.7407
 30
0.0
 40
0.333333
 41
0.333333
  0
VERTEX
  8
0
 10
38.149
 20
52.5176
 30
0.0
 40
0.333333
 41
0.333333
  0
VERTEX
  8
0
 10
37.9714
 20
53.3054
 30
0.0
 40
0.333333
 41
0.333333
  0
VERTEX
  8
0
 10
37.8322
 20
54.1029
 30
0.0
 40
0.333333
 41
0.333333
  0
VERTEX
  8
0
 10
37.7321
 20
54.9086
 30
0.0
 40
0.333333
 41
0.333333
  0
VERTEX
  8
0
 10
37.6717
 20
55.7212
 30
0.0
 40
0.333333
 41
0.333333
  0
VERTEX
  8
0
 10
37.6514
 20
56.3349
 30
0.0
 40
0.333333
 41
0.333333
  0
VERTEX
  8
0
 10
37.6514
 20
56.5394
 30
0.0
 40
0.333333
 41
0.333333
  0
VERTEX
  8
0
 10
37.6514
 20
56.744
 30
0.0
 40
0.333333
 41
0.333333
  0
VERTEX
  8
0
 10
37.6717
 20
57.3576
 30
0.0
 40
0.333333
 41
0.333333
  0
VERTEX
  8
0
 10
37.7321
 20
58.1703
 30
0.0
 40
0.333333
 41
0.333333
  0
VERTEX
  8
0
 10
37.8322
 20
58.976
 30
0.0
 40
0.333333
 41
0.333333
  0
VERTEX
  8
0
 10
37.9714
 20
59.7735
 30
0.0
 40
0.333333
 41
0.333333
  0
VERTEX
  8
0
 10
38.149
 20
60.5614
 30
0.0
 40
0.333333
 41
0.333333
  0
VERTEX
  8
0
 10
38.3646
 20
61.3383
 30
0.0
 40
0.333333
 41
0.333333
  0
VERTEX
  8
0
 10
38.6175
 20
62.1029
 30
0.0
 40
0.333333
 41
0.333333
  0
VERTEX
  8
0
 10
38.9074
 20
62.8538
 30
0.0
 40
0.333333
 41
0.333333
  0
VERTEX
  8
0
 10
39.2335
 20
63.5896
 30
0.0
 40
0.333333
 41
0.333333
  0
VERTEX
  8
0
 10
39.5953
 20
64.3092
 30
0.0
 40
0.333333
 41
0.333333
  0
VERTEX
  8
0
 10
39.9921
 20
65.011
 30
0.0
 40
0.333333
 41
0.333333
  0
VERTEX
  8
0
 10
40.4236
 20
65.6938
 30
0.0
 40
0.333333
 41
0.333333
  0
VERTEX
  8
0
 10
40.8892
 20
66.356
 30
0.0
 40
0.333333
 41
0.333333
  0
VERTEX
  8
0
 10
41.3881
 20
66.9965
 30
0.0
 40
0.333333
 41
0.333333
  0
VERTEX
  8
0
 10
41.92
 20
67.6139
 30
0.0
 40
0.333333
 41
0.333333
  0
VERTEX
  8
0
 10
42.3396
 20
68.0621
 30
0.0
 40
0.333333
 41
0.333333
  0
VERTEX
  8
0
 10
42.4842
 20
68.2067
 30
0.0
 40
0.333333
 41
0.333333
  0
VERTEX
  8
0
 10
42.6289
 20
68.3514
 30
0.0
 40
0.333333
 41
0.333333
  0
VERTEX
  8
0
 10
43.0771
 20
68.771
 30
0.0
 40
0.333333
 41
0.333333
  0
VERTEX
  8
0
 10
43.6944
 20
69.3028
 30
0.0
 40
0.333333
 41
0.333333
  0
VERTEX
  8
0
 10
44.335
 20
69.8018
 30
0.0
 40
0.333333
 41
0.333333
  0
VERTEX
  8
0
 10
44.9972
 20
70.2672
 30
0.0
 40
0.333333
 41
0.333333
  0
VERTEX
  8
0
 10
45.68
 20
70.6988
 30
0.0
 40
0.333333
 41
0.333333
  0
VERTEX
  8
0
 10
46.3817
 20
71.0957
 30
0.0
 40
0.333333
 41
0.333333
  0
VERTEX
  8
0
 10
47.1013
 20
71.4574
 30
0.0
 40
0.333333
 41
0.333333
  0
VERTEX
  8
0
 10
47.8372
 20
71.7835
 30
0.0
 40
0.333333
 41
0.333333
  0
VERTEX
  8
0
 10
48.5881
 20
72.0733
 30
0.0
 40
0.333333
 41
0.333333
  0
VERTEX
  8
0
 10
49.3526
 20
72.3263
 30
0.0
 40
0.333333
 41
0.333333
  0
VERTEX
  8
0
 10
50.1296
 20
72.5418
 30
0.0
 40
0.333333
 41
0.333333
  0
VERTEX
  8
0
 10
50.9174
 20
72.7194
 30
0.0
 40
0.333333
 41
0.333333
  0
VERTEX
  8
0
 10
51.7149
 20
72.8586
 30
0.0
 40
0.333333
 41
0.333333
  0
VERTEX
  8
0
 10
52.5206
 20
72.9587
 30
0.0
 40
0.333333
 41
0.333333
  0
VERTEX
  8
0
 10
53.3333
 20
73.0192
 30
0.0
 40
0.333333
 41
0.333333
  0
VERTEX
  8
0
 10
53.9469
 20
73.0394
 30
0.0
 40
0.333333
 41
0.333333
  0
VERTEX
  8
0
 10
54.1515
 20
73.0394
 30
0.0
 40
0.333333
 41
0.333333
  0
VERTEX
  8
0
 10
54.356
 20
73.0394
 30
0.0
 40
0.333333
 41
0.333333
  0
VERTEX
  8
0
 10
54.9696
 20
73.0192
 30
0.0
 40
0.333333
 41
0.333333
  0
VERTEX
  8
0
 10
55.7822
 20
72.9587
 30
0.0
 40
0.333333
 41
0.333333
  0
VERTEX
  8
0
 10
56.5881
 20
72.8586
 30
0.0
 40
0.333333
 41
0.333333
  0
VERTEX
  8
0
 10
57.3854
 20
72.7194
 30
0.0
 40
0.333333
 41
0.333333
  0
VERTEX
  8
0
 10
58.1733
 20
72.5418
 30
0.0
 40
0.333333
 41
0.333333
  0
VERTEX
  8
0
 10
58.9503
 20
72.3263
 30
0.0
 40
0.333333
 41
0.333333
  0
VERTEX
  8
0
 10
59.7149
 20
72.0733
 30
0.0
 40
0.333333
 41
0.333333
  0
VERTEX
  8
0
 10
60.4657
 20
71.7835
 30
0.0
 40
0.333333
 41
0.333333
  0
VERTEX
  8
0
 10
61.2017
 20
71.4574
 30
0.0
 40
0.333333
 41
0.333333
  0
VERTEX
  8
0
 10
61.9211
 20
71.0957
 30
0.0
 40
0.333333
 41
0.333333
  0
VERTEX
  8
0
 10
62.6229
 20
70.6988
 30
0.0
 40
0.333333
 41
0.333333
  0
VERTEX
  8
0
 10
63.3057
 20
70.2672
 30
0.0
 40
0.333333
 41
0.333333
  0
VERTEX
  8
0
 10
63.9679
 20
69.8018
 30
0.0
 40
0.333333
 41
0.333333
  0
VERTEX
  8
0
 10
64.6085
 20
69.3028
 30
0.0
 40
0.333333
 41
0.333333
  0
VERTEX
  8
0
 10
65.2258
 20
68.771
 30
0.0
 40
0.333333
 41
0.333333
  0
VERTEX
  8
0
 10
65.6742
 20
68.3514
 30
0.0
 40
0.333333
 41
0.333333
  0
VERTEX
  8
0
 10
65.8188
 20
68.2067
 30
0.0
 40
0.333333
 41
0.333333
  0
VERTEX
  8
0
 10
65.9633
 20
68.0621
 30
0.0
 40
0.333333
 41
0.333333
  0
VERTEX
  8
0
 10
66.3829
 20
67.6139
 30
0.0
 40
0.333333
 41
0.333333
  0
VERTEX
  8
0
 10
66.9147
 20
66.9965
 30
0.0
 40
0.333333
 41
0.333333
  0
VERTEX
  8
0
 10
67.4138
 20
66.356
 30
0.0
 40
0.333333
 41
0.333333
  0
VERTEX
  8
0
 10
67.8792
 20
65.6938
 30
0.0
 40
0.333333
 41
0.333333
  0
VERTEX
  8
0
 10
68.3108
 20
65.011
 30
0.0
 40
0.333333
 41
0.333333
  0
VERTEX
  8
0
 10
68.7076
 20
64.3092
 30
0.0
 40
0.333333
 41
0.333333
  0
VERTEX
  8
0
 10
69.0694
 20
63.5896
 30
0.0
 40
0.333333
 41
0.333333
  0
VERTEX
  8
0
 10
69.3954
 20
62.8538
 30
0.0
 40
0.333333
 41
0.333333
  0
VERTEX
  8
0
 10
69.6853
 20
62.1029
 30
0.0
 40
0.333333
 41
0.333333
  0
VERTEX
  8
0
 10
69.9382
 20
61.3383
 30
0.0
 40
0.333333
 41
0.333333
  0
VERTEX
  8
0
 10
70.1537
 20
60.5614
 30
0.0
 40
0.333333
 41
0.333333
  0
VERTEX
  8
0
 10
70.3315
 20
59.7735
 30
0.0
 40
0.333333
 41
0.333333
  0
VERTEX
  8
0
 10
70.4707
 20
58.976
 30
0.0
 40
0.333333
 41
0.333333
  0
VERTEX
  8
0
 10
70.5707
 20
58.1703
 30
0.0
 40
0.333333
 41
0.333333
  0
VERTEX
  8
0
 10
70.6313
 20
57.3576
 30
0.0
 40
0.333333
 41
0.333333
  0
VERTEX
  8
0
 10
70.6515
 20
56.744
 30
0.0
 40
0.333333
 41
0.333333
  0
VERTEX
  8
0
 10
70.6515
 20
56.5394
 30
0.0
 40
0.333333
 41
0.333333
  0
SEQEND
 8
0
  0
POLYLINE
  8
0
 62
     0
 66
     1
 10
0
 20
0
 30
0.0
 70
     1
 40
24
 41
24
  0
VERTEX
  8
0
 10
30.6514
 20
81.5394
 30
0.0
 40
0.333333
 41
0.333333
  0
VERTEX
  8
0
 10
30.6514
 20
81.5011
 30
0.0
 40
0.333333
 41
0.333333
  0
VERTEX
  8
0
 10
30.6436
 20
81.3861
 30
0.0
 40
0.333333
 41
0.333333
  0
VERTEX
  8
0
 10
30.621
 20
81.2372
 30
0.0
 40
0.333333
 41
0.333333
  0
VERTEX
  8
0
 10
30.584
 20
81.0935
 30
0.0
 40
0.333333
 41
0.333333
  0
VERTEX
  8
0
 10
30.5335
 20
80.9556
 30
0.0
 40
0.333333
 41
0.333333
  0
VERTEX
  8
0
 10
30.4704
 20
80.8244
 30
0.0
 40
0.333333
 41
0.333333
  0
VERTEX
  8
0
 10
30.3953
 20
80.7008
 30
0.0
 40
0.333333
 41
0.333333
  0
VERTEX
  8
0
 10
30.3089
 20
80.5853
 30
0.0
 40
0.333333
 41
0.333333
  0
VERTEX
  8
0
 10
30.2121
 20
80.4789
 30
0.0
 40
0.333333
 41
0.333333
  0
VERTEX
  8
0
 10
30.1056
 20
80.3819
 30
0.0
 40
0.333333
 41
0.333333
  0
VERTEX
  8
0
 10
29.9901
 20
80.2957
 30
0.0
 40
0.333333
 41
0.333333
  0
VERTEX
  8
0
 10
29.8664
 20
80.2206
 30
0.0
 40
0.333333
 41
0.333333
  0
VERTEX
  8
0
 10
29.7353
 20
80.1574
 30
0.0
 40
0.333333
 41
0.333333
  0
VERTEX
  8
0
 10
29.5975
 20
80.1069
 30
0.0
 40
0.333333
 41
0.333333
  0
VERTEX
  8
0
 10
29.4537
 20
80.07
 30
0.0
 40
0.333333
 41
0.333333
  0
VERTEX
  8
0
 10
29.3047
 20
80.0472
 30
0.0
 40
0.333333
 41
0.333333
  0
VERTEX
  8
0
 10
29.1897
 20
80.0394
 30
0.0
 40
0.333333
 41
0.333333
  0
VERTEX
  8
0
 10
29.1514
 20
80.0394
 30
0.0
 40
0.333333
 41
0.333333
  0
VERTEX
  8
0
 10
29.1131
 20
80.0394
 30
0.0
 40
0.333333
 41
0.333333
  0
VERTEX
  8
0
 10
28.9981
 20
80.0472
 30
0.0
 40
0.333333
 41
0.333333
  0
VERTEX
  8
0
 10
28.8492
 20
80.07
 30
0.0
 40
0.333333
 41
0.333333
  0
VERTEX
  8
0
 10
28.7054
 20
80.1069
 30
0.0
 40
0.333333
 41
0.333333
  0
VERTEX
  8
0
 10
28.5675
 20
80.1574
 30
0.0
 40
0.333333
 41
0.333333
  0
VERTEX
  8
0
 10
28.4364
 20
80.2206
 30
0.0
 40
0.333333
 41
0.333333
  0
VERTEX
  8
0
 10
28.3128
 20
80.2957
 30
0.0
 40
0.333333
 41
0.333333
  0
VERTEX
  8
0
 10
28.1972
 20
80.3819
 30
0.0
 40
0.333333
 41
0.333333
  0
VERTEX
  8
0
 10
28.0908
 20
80.4789
 30
0.0
 40
0.333333
 41
0.333333
  0
VERTEX
  8
0
 10
27.9939
 20
80.5853
 30
0.0
 40
0.333333
 41
0.333333
  0
VERTEX
  8
0
 10
27.9075
 20
80.7008
 30
0.0
 40
0.333333
 41
0.333333
  0
VERTEX
  8
0
 10
27.8325
 20
80.8244
 30
0.0
 40
0.333333
 41
0.333333
  0
VERTEX
  8
0
 10
27.7693
 20
80.9556
 30
0.0
 40
0.333333
 41
0.333333
  0
VERTEX
  8
0
 10
27.7189
 20
81.0935
 30
0.0
 40
0.333333
 41
0.333333
  0
VERTEX
  8
0
 10
27.6818
 20
81.2372
 30
0.0
 40
0.333333
 41
0.333333
  0
VERTEX
  8
0
 10
27.6592
 20
81.3861
 30
0.0
 40
0.333333
 41
0.333333
  0
VERTEX
  8
0
 10
27.6514
 20
81.5011
 30
0.0
 40
0.333333
 41
0.333333
  0
VERTEX
  8
0
 10
27.6514
 20
81.5394
 30
0.0
 40
0.333333
 41
0.333333
  0
VERTEX
  8
0
 10
27.6514
 20
81.5778
 30
0.0
 40
0.333333
 41
0.333333
  0
VERTEX
  8
0
 10
27.6592
 20
81.6928
 30
0.0
 40
0.333333
 41
0.333333
  0
VERTEX
  8
0
 10
27.6818
 20
81.8418
 30
0.0
 40
0.333333
 41
0.333333
  0
VERTEX
  8
0
 10
27.7189
 20
81.9856
 30
0.0
 40
0.333333
 41
0.333333
  0
VERTEX
  8
0
 10
27.7693
 20
82.1233
 30
0.0
 40
0.333333
 41
0.333333
  0
VERTEX
  8
0
 10
27.8325
 20
82.2544
 30
0.0
 40
0.333333
 41
0.333333
  0
VERTEX
  8
0
 10
27.9075
 20
82.3782
 30
0.0
 40
0.333333
 41
0.333333
  0
VERTEX
  8
0
 10
27.9939
 20
82.4936
 30
0.0
 40
0.333333
 41
0.333333
  0
VERTEX
  8
0
 10
28.0908
 20
82.6001
 30
0.0
 40
0.333333
 41
0.333333
  0
VERTEX
  8
0
 10
28.1972
 20
82.6969
 30
0.0
 40
0.333333
 41
0.333333
  0
VERTEX
  8
0
 10
28.3128
 20
82.7833
 30
0.0
 40
0.333333
 41
0.333333
  0
VERTEX
  8
0
 10
28.4364
 20
82.8585
 30
0.0
 40
0.333333
 41
0.333333
  0
VERTEX
  8
0
 10
28.5675
 20
82.9217
 30
0.0
 40
0.333333
 41
0.333333
  0
VERTEX
  8
0
 10
28.7054
 20
82.9721
 30
0.0
 40
0.333333
 41
0.333333
  0
VERTEX
  8
0
 10
28.8492
 20
83.009
 30
0.0
 40
0.333333
 41
0.333333
  0
VERTEX
  8
0
 10
28.9981
 20
83.0318
 30
0.0
 40
0.333333
 41
0.333333
  0
VERTEX
  8
0
 10
29.1131
 20
83.0394
 30
0.0
 40
0.333333
 41
0.333333
  0
VERTEX
  8
0
 10
29.1514
 20
83.0394
 30
0.0
 40
0.333333
 41
0.333333
  0
VERTEX
  8
0
 10
29.1897
 20
83.0394
 30
0.0
 40
0.333333
 41
0.333333
  0
VERTEX
  8
0
 10
29.3047
 20
83.0318
 30
0.0
 40
0.333333
 41
0.333333
  0
VERTEX
  8
0
 10
29.4537
 20
83.009
 30
0.0
 40
0.333333
 41
0.333333
  0
VERTEX
  8
0
 10
29.5975
 20
82.9721
 30
0.0
 40
0.333333
 41
0.333333
  0
VERTEX
  8
0
 10
29.7353
 20
82.9217
 30
0.0
 40
0.333333
 41
0.333333
  0
VERTEX
  8
0
 10
29.8664
 20
82.8585
 30
0.0
 40
0.333333
 41
0.333333
  0
VERTEX
  8
0
 10
29.9901
 20
82.7833
 30
0.0
 40
0.333333
 41
0.333333
  0
VERTEX
  8
0
 10
30.1056
 20
82.6969
 30
0.0
 40
0.333333
 41
0.333333
  0
VERTEX
  8
0
 10
30.2121
 20
82.6001
 30
0.0
 40
0.333333
 41
0.333333
  0
VERTEX
  8
0
 10
30.3089
 20
82.4936
 30
0.0
 40
0.333333
 41
0.333333
  0
VERTEX
  8
0
 10
30.3953
 20
82.3782
 30
0.0
 40
0.333333
 41
0.333333
  0
VERTEX
  8
0
 10
30.4704
 20
82.2544
 30
0.0
 40
0.333333
 41
0.333333
  0
VERTEX
  8
0
 10
30.5335
 20
82.1233
 30
0.0
 40
0.333333
 41
0.333333
  0
VERTEX
  8
0
 10
30.584
 20
81.9856
 30
0.0
 40
0.333333
 41
0.333333
  0
VERTEX
  8
0
 10
30.621
 20
81.8418
 30
0.0
 40
0.333333
 41
0.333333
  0
VERTEX
  8
0
 10
30.6436
 20
81.6928
 30
0.0
 40
0.333333
 41
0.333333
  0
VERTEX
  8
0
 10
30.6514
 20
81.5778
 30
0.0
 40
0.333333
 41
0.333333
  0
VERTEX
  8
0
 10
30.6514
 20
81.5394
 30
0.0
 40
0.333333
 41
0.333333
  0
SEQEND
 8
0
  0
POLYLINE
  8
0
 62
     0
 66
     1
 10
0
 20
0
 30
0.0
 70
     1
 40
24
 41
24
  0
VERTEX
  8
0
 10
80.6515
 20
81.5394
 30
0.0
 40
0.333333
 41
0.333333
  0
VERTEX
  8
0
 10
80.6515
 20
81.5011
 30
0.0
 40
0.333333
 41
0.333333
  0
VERTEX
  8
0
 10
80.6438
 20
81.3861
 30
0.0
 40
0.333333
 41
0.333333
  0
VERTEX
  8
0
 10
80.621
 20
81.2372
 30
0.0
 40
0.333333
 41
0.333333
  0
VERTEX
  8
0
 10
80.584
 20
81.0935
 30
0.0
 40
0.333333
 41
0.333333
  0
VERTEX
  8
0
 10
80.5336
 20
80.9556
 30
0.0
 40
0.333333
 41
0.333333
  0
VERTEX
  8
0
 10
80.4704
 20
80.8244
 30
0.0
 40
0.333333
 41
0.333333
  0
VERTEX
  8
0
 10
80.3953
 20
80.7008
 30
0.0
 40
0.333333
 41
0.333333
  0
VERTEX
  8
0
 10
80.309
 20
80.5853
 30
0.0
 40
0.333333
 41
0.333333
  0
VERTEX
  8
0
 10
80.2121
 20
80.4789
 30
0.0
 40
0.333333
 41
0.333333
  0
VERTEX
  8
0
 10
80.1057
 20
80.3819
 30
0.0
 40
0.333333
 41
0.333333
  0
VERTEX
  8
0
 10
79.9901
 20
80.2957
 30
0.0
 40
0.333333
 41
0.333333
  0
VERTEX
  8
0
 10
79.8665
 20
80.2206
 30
0.0
 40
0.333333
 41
0.333333
  0
VERTEX
  8
0
 10
79.7354
 20
80.1574
 30
0.0
 40
0.333333
 41
0.333333
  0
VERTEX
  8
0
 10
79.5975
 20
80.1069
 30
0.0
 40
0.333333
 41
0.333333
  0
VERTEX
  8
0
 10
79.4537
 20
80.07
 30
0.0
 40
0.333333
 41
0.333333
  0
VERTEX
  8
0
 10
79.3049
 20
80.0472
 30
0.0
 40
0.333333
 41
0.333333
  0
VERTEX
  8
0
 10
79.1899
 20
80.0394
 30
0.0
 40
0.333333
 41
0.333333
  0
VERTEX
  8
0
 10
79.1515
 20
80.0394
 30
0.0
 40
0.333333
 41
0.333333
  0
VERTEX
  8
0
 10
79.1132
 20
80.0394
 30
0.0
 40
0.333333
 41
0.333333
  0
VERTEX
  8
0
 10
78.9982
 20
80.0472
 30
0.0
 40
0.333333
 41
0.333333
  0
VERTEX
  8
0
 10
78.8492
 20
80.07
 30
0.0
 40
0.333333
 41
0.333333
  0
VERTEX
  8
0
 10
78.7054
 20
80.1069
 30
0.0
 40
0.333333
 41
0.333333
  0
VERTEX
  8
0
 10
78.5676
 20
80.1574
 30
0.0
 40
0.333333
 41
0.333333
  0
VERTEX
  8
0
 10
78.4365
 20
80.2206
 30
0.0
 40
0.333333
 41
0.333333
  0
VERTEX
  8
0
 10
78.3128
 20
80.2957
 30
0.0
 40
0.333333
 41
0.333333
  0
VERTEX
  8
0
 10
78.1974
 20
80.3819
 30
0.0
 40
0.333333
 41
0.333333
  0
VERTEX
  8
0
 10
78.0908
 20
80.4789
 30
0.0
 40
0.333333
 41
0.333333
  0
VERTEX
  8
0
 10
77.994
 20
80.5853
 30
0.0
 40
0.333333
 41
0.333333
  0
VERTEX
  8
0
 10
77.9076
 20
80.7008
 30
0.0
 40
0.333333
 41
0.333333
  0
VERTEX
  8
0
 10
77.8325
 20
80.8244
 30
0.0
 40
0.333333
 41
0.333333
  0
VERTEX
  8
0
 10
77.7693
 20
80.9556
 30
0.0
 40
0.333333
 41
0.333333
  0
VERTEX
  8
0
 10
77.7189
 20
81.0935
 30
0.0
 40
0.333333
 41
0.333333
  0
VERTEX
  8
0
 10
77.6819
 20
81.2372
 30
0.0
 40
0.333333
 41
0.333333
  0
VERTEX
  8
0
 10
77.6592
 20
81.3861
 30
0.0
 40
0.333333
 41
0.333333
  0
VERTEX
  8
0
 10
77.6515
 20
81.5011
 30
0.0
 40
0.333333
 41
0.333333
  0
VERTEX
  8
0
 10
77.6515
 20
81.5394
 30
0.0
 40
0.333333
 41
0.333333
  0
VERTEX
  8
0
 10
77.6515
 20
81.5778
 30
0.0
 40
0.333333
 41
0.333333
  0
VERTEX
  8
0
 10
77.6592
 20
81.6928
 30
0.0
 40
0.333333
 41
0.333333
  0
VERTEX
  8
0
 10
77.6819
 20
81.8418
 30
0.0
 40
0.333333
 41
0.333333
  0
VERTEX
  8
0
 10
77.7189
 20
81.9856
 30
0.0
 40
0.333333
 41
0.333333
  0
VERTEX
  8
0
 10
77.7693
 20
82.1233
 30
0.0
 40
0.333333
 41
0.333333
  0
VERTEX
  8
0
 10
77.8325
 20
82.2544
 30
0.0
 40
0.333333
 41
0.333333
  0
VERTEX
  8
0
 10
77.9076
 20
82.3782
 30
0.0
 40
0.333333
 41
0.333333
  0
VERTEX
  8
0
 10
77.994
 20
82.4936
 30
0.0
 40
0.333333
 41
0.333333
  0
VERTEX
  8
0
 10
78.0908
 20
82.6001
 30
0.0
 40
0.333333
 41
0.333333
  0
VERTEX
  8
0
 10
78.1974
 20
82.6969
 30
0.0
 40
0.333333
 41
0.333333
  0
VERTEX
  8
0
 10
78.3128
 20
82.7833
 30
0.0
 40
0.333333
 41
0.333333
  0
VERTEX
  8
0
 10
78.4365
 20
82.8585
 30
0.0
 40
0.333333
 41
0.333333
  0
VERTEX
  8
0
 10
78.5676
 20
82.9217
 30
0.0
 40
0.333333
 41
0.333333
  0
VERTEX
  8
0
 10
78.7054
 20
82.9721
 30
0.0
 40
0.333333
 41
0.333333
  0
VERTEX
  8
0
 10
78.8492
 20
83.009
 30
0.0
 40
0.333333
 41
0.333333
  0
VERTEX
  8
0
 10
78.9982
 20
83.0318
 30
0.0
 40
0.333333
 41
0.333333
  0
VERTEX
  8
0
 10
79.1132
 20
83.0394
 30
0.0
 40
0.333333
 41
0.333333
  0
VERTEX
  8
0
 10
79.1515
 20
83.0394
 30
0.0
 40
0.333333
 41
0.333333
  0
VERTEX
  8
0
 10
79.1899
 20
83.0394
 30
0.0
 40
0.333333
 41
0.333333
  0
VERTEX
  8
0
 10
79.3049
 20
83.0318
 30
0.0
 40
0.333333
 41
0.333333
  0
VERTEX
  8
0
 10
79.4537
 20
83.009
 30
0.0
 40
0.333333
 41
0.333333
  0
VERTEX
  8
0
 10
79.5975
 20
82.9721
 30
0.0
 40
0.333333
 41
0.333333
  0
VERTEX
  8
0
 10
79.7354
 20
82.9217
 30
0.0
 40
0.333333
 41
0.333333
  0
VERTEX
  8
0
 10
79.8665
 20
82.8585
 30
0.0
 40
0.333333
 41
0.333333
  0
VERTEX
  8
0
 10
79.9901
 20
82.7833
 30
0.0
 40
0.333333
 41
0.333333
  0
VERTEX
  8
0
 10
80.1057
 20
82.6969
 30
0.0
 40
0.333333
 41
0.333333
  0
VERTEX
  8
0
 10
80.2121
 20
82.6001
 30
0.0
 40
0.333333
 41
0.333333
  0
VERTEX
  8
0
 10
80.309
 20
82.4936
 30
0.0
 40
0.333333
 41
0.333333
  0
VERTEX
  8
0
 10
80.3953
 20
82.3782
 30
0.0
 40
0.333333
 41
0.333333
  0
VERTEX
  8
0
 10
80.4704
 20
82.2544
 30
0.0
 40
0.333333
 41
0.333333
  0
VERTEX
  8
0
 10
80.5336
 20
82.1233
 30
0.0
 40
0.333333
 41
0.333333
  0
VERTEX
  8
0
 10
80.584
 20
81.9856
 30
0.0
 40
0.333333
 41
0.333333
  0
VERTEX
  8
0
 10
80.621
 20
81.8418
 30
0.0
 40
0.333333
 41
0.333333
  0
VERTEX
  8
0
 10
80.6438
 20
81.6928
 30
0.0
 40
0.333333
 41
0.333333
  0
VERTEX
  8
0
 10
80.6515
 20
81.5778
 30
0.0
 40
0.333333
 41
0.333333
  0
VERTEX
  8
0
 10
80.6515
 20
81.5394
 30
0.0
 40
0.333333
 41
0.333333
  0
SEQEND
 8
0
  0
POLYLINE
  8
0
 62
     0
 66
     1
 10
0
 20
0
 30
0.0
 70
     1
 40
24
 41
24
  0
VERTEX
  8
0
 10
80.6515
 20
31.5394
 30
0.0
 40
0.333333
 41
0.333333
  0
VERTEX
  8
0
 10
80.6515
 20
31.5011
 30
0.0
 40
0.333333
 41
0.333333
  0
VERTEX
  8
0
 10
80.6438
 20
31.3861
 30
0.0
 40
0.333333
 41
0.333333
  0
VERTEX
  8
0
 10
80.621
 20
31.2371
 30
0.0
 40
0.333333
 41
0.333333
  0
VERTEX
  8
0
 10
80.584
 20
31.0933
 30
0.0
 40
0.333333
 41
0.333333
  0
VERTEX
  8
0
 10
80.5336
 20
30.9556
 30
0.0
 40
0.333333
 41
0.333333
  0
VERTEX
  8
0
 10
80.4704
 20
30.8244
 30
0.0
 40
0.333333
 41
0.333333
  0
VERTEX
  8
0
 10
80.3953
 20
30.7007
 30
0.0
 40
0.333333
 41
0.333333
  0
VERTEX
  8
0
 10
80.309
 20
30.5853
 30
0.0
 40
0.333333
 41
0.333333
  0
VERTEX
  8
0
 10
80.2121
 20
30.4787
 30
0.0
 40
0.333333
 41
0.333333
  0
VERTEX
  8
0
 10
80.1057
 20
30.3819
 30
0.0
 40
0.333333
 41
0.333333
  0
VERTEX
  8
0
 10
79.9901
 20
30.2956
 30
0.0
 40
0.333333
 41
0.333333
  0
VERTEX
  8
0
 10
79.8665
 20
30.2206
 30
0.0
 40
0.333333
 41
0.333333
  0
VERTEX
  8
0
 10
79.7354
 20
30.1572
 30
0.0
 40
0.333333
 41
0.333333
  0
VERTEX
  8
0
 10
79.5975
 20
30.1069
 30
0.0
 40
0.333333
 41
0.333333
  0
VERTEX
  8
0
 10
79.4537
 20
30.0699
 30
0.0
 40
0.333333
 41
0.333333
  0
VERTEX
  8
0
 10
79.3049
 20
30.0471
 30
0.0
 40
0.333333
 41
0.333333
  0
VERTEX
  8
0
 10
79.1899
 20
30.0394
 30
0.0
 40
0.333333
 41
0.333333
  0
VERTEX
  8
0
 10
79.1515
 20
30.0394
 30
0.0
 40
0.333333
 41
0.333333
  0
VERTEX
  8
0
 10
79.1132
 20
30.0394
 30
0.0
 40
0.333333
 41
0.333333
  0
VERTEX
  8
0
 10
78.9982
 20
30.0471
 30
0.0
 40
0.333333
 41
0.333333
  0
VERTEX
  8
0
 10
78.8492
 20
30.0699
 30
0.0
 40
0.333333
 41
0.333333
  0
VERTEX
  8
0
 10
78.7054
 20
30.1069
 30
0.0
 40
0.333333
 41
0.333333
  0
VERTEX
  8
0
 10
78.5676
 20
30.1572
 30
0.0
 40
0.333333
 41
0.333333
  0
VERTEX
  8
0
 10
78.4365
 20
30.2206
 30
0.0
 40
0.333333
 41
0.333333
  0
VERTEX
  8
0
 10
78.3128
 20
30.2956
 30
0.0
 40
0.333333
 41
0.333333
  0
VERTEX
  8
0
 10
78.1974
 20
30.3819
 30
0.0
 40
0.333333
 41
0.333333
  0
VERTEX
  8
0
 10
78.0908
 20
30.4787
 30
0.0
 40
0.333333
 41
0.333333
  0
VERTEX
  8
0
 10
77.994
 20
30.5853
 30
0.0
 40
0.333333
 41
0.333333
  0
VERTEX
  8
0
 10
77.9076
 20
30.7007
 30
0.0
 40
0.333333
 41
0.333333
  0
VERTEX
  8
0
 10
77.8325
 20
30.8244
 30
0.0
 40
0.333333
 41
0.333333
  0
VERTEX
  8
0
 10
77.7693
 20
30.9556
 30
0.0
 40
0.333333
 41
0.333333
  0
VERTEX
  8
0
 10
77.7189
 20
31.0933
 30
0.0
 40
0.333333
 41
0.333333
  0
VERTEX
  8
0
 10
77.6819
 20
31.2371
 30
0.0
 40
0.333333
 41
0.333333
  0
VERTEX
  8
0
 10
77.6592
 20
31.3861
 30
0.0
 40
0.333333
 41
0.333333
  0
VERTEX
  8
0
 10
77.6515
 20
31.5011
 30
0.0
 40
0.333333
 41
0.333333
  0
VERTEX
  8
0
 10
77.6515
 20
31.5394
 30
0.0
 40
0.333333
 41
0.333333
  0
VERTEX
  8
0
 10
77.6515
 20
31.5778
 30
0.0
 40
0.333333
 41
0.333333
  0
VERTEX
  8
0
 10
77.6592
 20
31.6928
 30
0.0
 40
0.333333
 41
0.333333
  0
VERTEX
  8
0
 10
77.6819
 20
31.8418
 30
0.0
 40
0.333333
 41
0.333333
  0
VERTEX
  8
0
 10
77.7189
 20
31.9854
 30
0.0
 40
0.333333
 41
0.333333
  0
VERTEX
  8
0
 10
77.7693
 20
32.1233
 30
0.0
 40
0.333333
 41
0.333333
  0
VERTEX
  8
0
 10
77.8325
 20
32.2544
 30
0.0
 40
0.333333
 41
0.333333
  0
VERTEX
  8
0
 10
77.9076
 20
32.3781
 30
0.0
 40
0.333333
 41
0.333333
  0
VERTEX
  8
0
 10
77.994
 20
32.4936
 30
0.0
 40
0.333333
 41
0.333333
  0
VERTEX
  8
0
 10
78.0908
 20
32.6001
 30
0.0
 40
0.333333
 41
0.333333
  0
VERTEX
  8
0
 10
78.1974
 20
32.6969
 30
0.0
 40
0.333333
 41
0.333333
  0
VERTEX
  8
0
 10
78.3128
 20
32.7832
 30
0.0
 40
0.333333
 41
0.333333
  0
VERTEX
  8
0
 10
78.4365
 20
32.8583
 30
0.0
 40
0.333333
 41
0.333333
  0
VERTEX
  8
0
 10
78.5676
 20
32.9215
 30
0.0
 40
0.333333
 41
0.333333
  0
VERTEX
  8
0
 10
78.7054
 20
32.9719
 30
0.0
 40
0.333333
 41
0.333333
  0
VERTEX
  8
0
 10
78.8492
 20
33.0089
 30
0.0
 40
0.333333
 41
0.333333
  0
VERTEX
  8
0
 10
78.9982
 20
33.0317
 30
0.0
 40
0.333333
 41
0.333333
  0
VERTEX
  8
0
 10
79.1132
 20
33.0394
 30
0.0
 40
0.333333
 41
0.333333
  0
VERTEX
  8
0
 10
79.1515
 20
33.0394
 30
0.0
 40
0.333333
 41
0.333333
  0
VERTEX
  8
0
 10
79.1899
 20
33.0394
 30
0.0
 40
0.333333
 41
0.333333
  0
VERTEX
  8
0
 10
79.3049
 20
33.0317
 30
0.0
 40
0.333333
 41
0.333333
  0
VERTEX
  8
0
 10
79.4537
 20
33.0089
 30
0.0
 40
0.333333
 41
0.333333
  0
VERTEX
  8
0
 10
79.5975
 20
32.9719
 30
0.0
 40
0.333333
 41
0.333333
  0
VERTEX
  8
0
 10
79.7354
 20
32.9215
 30
0.0
 40
0.333333
 41
0.333333
  0
VERTEX
  8
0
 10
79.8665
 20
32.8583
 30
0.0
 40
0.333333
 41
0.333333
  0
VERTEX
  8
0
 10
79.9901
 20
32.7832
 30
0.0
 40
0.333333
 41
0.333333
  0
VERTEX
  8
0
 10
80.1057
 20
32.6969
 30
0.0
 40
0.333333
 41
0.333333
  0
VERTEX
  8
0
 10
80.2121
 20
32.6001
 30
0.0
 40
0.333333
 41
0.333333
  0
VERTEX
  8
0
 10
80.309
 20
32.4936
 30
0.0
 40
0.333333
 41
0.333333
  0
VERTEX
  8
0
 10
80.3953
 20
32.3781
 30
0.0
 40
0.333333
 41
0.333333
  0
VERTEX
  8
0
 10
80.4704
 20
32.2544
 30
0.0
 40
0.333333
 41
0.333333
  0
VERTEX
  8
0
 10
80.5336
 20
32.1233
 30
0.0
 40
0.333333
 41
0.333333
  0
VERTEX
  8
0
 10
80.584
 20
31.9854
 30
0.0
 40
0.333333
 41
0.333333
  0
VERTEX
  8
0
 10
80.621
 20
31.8418
 30
0.0
 40
0.333333
 41
0.333333
  0
VERTEX
  8
0
 10
80.6438
 20
31.6928
 30
0.0
 40
0.333333
 41
0.333333
  0
VERTEX
  8
0
 10
80.6515
 20
31.5778
 30
0.0
 40
0.333333
 41
0.333333
  0
VERTEX
  8
0
 10
80.6515
 20
31.5394
 30
0.0
 40
0.333333
 41
0.333333
  0
SEQEND
 8
0
  0
POLYLINE
  8
0
 62
     0
 66
     1
 10
0
 20
0
 30
0.0
 70
     1
 40
24
 41
24
  0
VERTEX
  8
0
 10
30.6514
 20
31.5394
 30
0.0
 40
0.333333
 41
0.333333
  0
VERTEX
  8
0
 10
30.6514
 20
31.5011
 30
0.0
 40
0.333333
 41
0.333333
  0
VERTEX
  8
0
 10
30.6436
 20
31.3861
 30
0.0
 40
0.333333
 41
0.333333
  0
VERTEX
  8
0
 10
30.621
 20
31.2371
 30
0.0
 40
0.333333
 41
0.333333
  0
VERTEX
  8
0
 10
30.584
 20
31.0933
 30
0.0
 40
0.333333
 41
0.333333
  0
VERTEX
  8
0
 10
30.5335
 20
30.9556
 30
0.0
 40
0.333333
 41
0.333333
  0
VERTEX
  8
0
 10
30.4704
 20
30.8244
 30
0.0
 40
0.333333
 41
0.333333
  0
VERTEX
  8
0
 10
30.3953
 20
30.7007
 30
0.0
 40
0.333333
 41
0.333333
  0
VERTEX
  8
0
 10
30.3089
 20
30.5853
 30
0.0
 40
0.333333
 41
0.333333
  0
VERTEX
  8
0
 10
30.2121
 20
30.4787
 30
0.0
 40
0.333333
 41
0.333333
  0
VERTEX
  8
0
 10
30.1056
 20
30.3819
 30
0.0
 40
0.333333
 41
0.333333
  0
VERTEX
  8
0
 10
29.9901
 20
30.2956
 30
0.0
 40
0.333333
 41
0.333333
  0
VERTEX
  8
0
 10
29.8664
 20
30.2206
 30
0.0
 40
0.333333
 41
0.333333
  0
VERTEX
  8
0
 10
29.7353
 20
30.1572
 30
0.0
 40
0.333333
 41
0.333333
  0
VERTEX
  8
0
 10
29.5975
 20
30.1069
 30
0.0
 40
0.333333
 41
0.333333
  0
VERTEX
  8
0
 10
29.4537
 20
30.0699
 30
0.0
 40
0.333333
 41
0.333333
  0
VERTEX
  8
0
 10
29.3047
 20
30.0471
 30
0.0
 40
0.333333
 41
0.333333
  0
VERTEX
  8
0
 10
29.1897
 20
30.0394
 30
0.0
 40
0.333333
 41
0.333333
  0
VERTEX
  8
0
 10
29.1514
 20
30.0394
 30
0.0
 40
0.333333
 41
0.333333
  0
VERTEX
  8
0
 10
29.1131
 20
30.0394
 30
0.0
 40
0.333333
 41
0.333333
  0
VERTEX
  8
0
 10
28.9981
 20
30.0471
 30
0.0
 40
0.333333
 41
0.333333
  0
VERTEX
  8
0
 10
28.8492
 20
30.0699
 30
0.0
 40
0.333333
 41
0.333333
  0
VERTEX
  8
0
 10
28.7054
 20
30.1069
 30
0.0
 40
0.333333
 41
0.333333
  0
VERTEX
  8
0
 10
28.5675
 20
30.1572
 30
0.0
 40
0.333333
 41
0.333333
  0
VERTEX
  8
0
 10
28.4364
 20
30.2206
 30
0.0
 40
0.333333
 41
0.333333
  0
VERTEX
  8
0
 10
28.3128
 20
30.2956
 30
0.0
 40
0.333333
 41
0.333333
  0
VERTEX
  8
0
 10
28.1972
 20
30.3819
 30
0.0
 40
0.333333
 41
0.333333
  0
VERTEX
  8
0
 10
28.0908
 20
30.4787
 30
0.0
 40
0.333333
 41
0.333333
  0
VERTEX
  8
0
 10
27.9939
 20
30.5853
 30
0.0
 40
0.333333
 41
0.333333
  0
VERTEX
  8
0
 10
27.9075
 20
30.7007
 30
0.0
 40
0.333333
 41
0.333333
  0
VERTEX
  8
0
 10
27.8325
 20
30.8244
 30
0.0
 40
0.333333
 41
0.333333
  0
VERTEX
  8
0
 10
27.7693
 20
30.9556
 30
0.0
 40
0.333333
 41
0.333333
  0
VERTEX
  8
0
 10
27.7189
 20
31.0933
 30
0.0
 40
0.333333
 41
0.333333
  0
VERTEX
  8
0
 10
27.6818
 20
31.2371
 30
0.0
 40
0.333333
 41
0.333333
  0
VERTEX
  8
0
 10
27.6592
 20
31.3861
 30
0.0
 40
0.333333
 41
0.333333
  0
VERTEX
  8
0
 10
27.6514
 20
31.5011
 30
0.0
 40
0.333333
 41
0.333333
  0
VERTEX
  8
0
 10
27.6514
 20
31.5394
 30
0.0
 40
0.333333
 41
0.333333
  0
VERTEX
  8
0
 10
27.6514
 20
31.5778
 30
0.0
 40
0.333333
 41
0.333333
  0
VERTEX
  8
0
 10
27.6592
 20
31.6928
 30
0.0
 40
0.333333
 41
0.333333
  0
VERTEX
  8
0
 10
27.6818
 20
31.8418
 30
0.0
 40
0.333333
 41
0.333333
  0
VERTEX
  8
0
 10
27.7189
 20
31.9854
 30
0.0
 40
0.333333
 41
0.333333
  0
VERTEX
  8
0
 10
27.7693
 20
32.1233
 30
0.0
 40
0.333333
 41
0.333333
  0
VERTEX
  8
0
 10
27.8325
 20
32.2544
 30
0.0
 40
0.333333
 41
0.333333
  0
VERTEX
  8
0
 10
27.9075
 20
32.3781
 30
0.0
 40
0.333333
 41
0.333333
  0
VERTEX
  8
0
 10
27.9939
 20
32.4936
 30
0.0
 40
0.333333
 41
0.333333
  0
VERTEX
  8
0
 10
28.0908
 20
32.6001
 30
0.0
 40
0.333333
 41
0.333333
  0
VERTEX
  8
0
 10
28.1972
 20
32.6969
 30
0.0
 40
0.333333
 41
0.333333
  0
VERTEX
  8
0
 10
28.3128
 20
32.7832
 30
0.0
 40
0.333333
 41
0.333333
  0
VERTEX
  8
0
 10
28.4364
 20
32.8583
 30
0.0
 40
0.333333
 41
0.333333
  0
VERTEX
  8
0
 10
28.5675
 20
32.9215
 30
0.0
 40
0.333333
 41
0.333333
  0
VERTEX
  8
0
 10
28.7054
 20
32.9719
 30
0.0
 40
0.333333
 41
0.333333
  0
VERTEX
  8
0
 10
28.8492
 20
33.0089
 30
0.0
 40
0.333333
 41
0.333333
  0
VERTEX
  8
0
 10
28.9981
 20
33.0317
 30
0.0
 40
0.333333
 41
0.333333
  0
VERTEX
  8
0
 10
29.1131
 20
33.0394
 30
0.0
 40
0.333333
 41
0.333333
  0
VERTEX
  8
0
 10
29.1514
 20
33.0394
 30
0.0
 40
0.333333
 41
0.333333
  0
VERTEX
  8
0
 10
29.1897
 20
33.0394
 30
0.0
 40
0.333333
 41
0.333333
  0
VERTEX
  8
0
 10
29.3047
 20
33.0317
 30
0.0
 40
0.333333
 41
0.333333
  0
VERTEX
  8
0
 10
29.4537
 20
33.0089
 30
0.0
 40
0.333333
 41
0.333333
  0
VERTEX
  8
0
 10
29.5975
 20
32.9719
 30
0.0
 40
0.333333
 41
0.333333
  0
VERTEX
  8
0
 10
29.7353
 20
32.9215
 30
0.0
 40
0.333333
 41
0.333333
  0
VERTEX
  8
0
 10
29.8664
 20
32.8583
 30
0.0
 40
0.333333
 41
0.333333
  0
VERTEX
  8
0
 10
29.9901
 20
32.7832
 30
0.0
 40
0.333333
 41
0.333333
  0
VERTEX
  8
0
 10
30.1056
 20
32.6969
 30
0.0
 40
0.333333
 41
0.333333
  0
VERTEX
  8
0
 10
30.2121
 20
32.6001
 30
0.0
 40
0.333333
 41
0.333333
  0
VERTEX
  8
0
 10
30.3089
 20
32.4936
 30
0.0
 40
0.333333
 41
0.333333
  0
VERTEX
  8
0
 10
30.3953
 20
32.3781
 30
0.0
 40
0.333333
 41
0.333333
  0
VERTEX
  8
0
 10
30.4704
 20
32.2544
 30
0.0
 40
0.333333
 41
0.333333
  0
VERTEX
  8
0
 10
30.5335
 20
32.1233
 30
0.0
 40
0.333333
 41
0.333333
  0
VERTEX
  8
0
 10
30.584
 20
31.9854
 30
0.0
 40
0.333333
 41
0.333333
  0
VERTEX
  8
0
 10
30.621
 20
31.8418
 30
0.0
 40
0.333333
 41
0.333333
  0
VERTEX
  8
0
 10
30.6436
 20
31.6928
 30
0.0
 40
0.333333
 41
0.333333
  0
VERTEX
  8
0
 10
30.6514
 20
31.5778
 30
0.0
 40
0.333333
 41
0.333333
  0
VERTEX
  8
0
 10
30.6514
 20
31.5394
 30
0.0
 40
0.333333
 41
0.333333
  0
SEQEND
 8
0
  0
POLYLINE
  8
0
 62
     0
 66
     1
 10
0
 20
0
 30
0.0
 70
     1
 40
24
 41
24
  0
VERTEX
  8
0
 10
192.176
 20
296.34
 30
0.0
 40
0.333333
 41
0.333333
  0
VERTEX
  8
0
 10
192.176
 20
296.301
 30
0.0
 40
0.333333
 41
0.333333
  0
VERTEX
  8
0
 10
192.169
 20
296.186
 30
0.0
 40
0.333333
 41
0.333333
  0
VERTEX
  8
0
 10
192.146
 20
296.037
 30
0.0
 40
0.333333
 41
0.333333
  0
VERTEX
  8
0
 10
192.11
 20
295.894
 30
0.0
 40
0.333333
 41
0.333333
  0
VERTEX
  8
0
 10
192.058
 20
295.756
 30
0.0
 40
0.333333
 41
0.333333
  0
VERTEX
  8
0
 10
191.996
 20
295.625
 30
0.0
 40
0.333333
 41
0.333333
  0
VERTEX
  8
0
 10
191.921
 20
295.501
 30
0.0
 40
0.333333
 41
0.333333
  0
VERTEX
  8
0
 10
191.835
 20
295.386
 30
0.0
 40
0.333333
 41
0.333333
  0
VERTEX
  8
0
 10
191.737
 20
295.279
 30
0.0
 40
0.333333
 41
0.333333
  0
VERTEX
  8
0
 10
191.631
 20
295.182
 30
0.0
 40
0.333333
 41
0.333333
  0
VERTEX
  8
0
 10
191.515
 20
295.096
 30
0.0
 40
0.333333
 41
0.333333
  0
VERTEX
  8
0
 10
191.392
 20
295.021
 30
0.0
 40
0.333333
 41
0.333333
  0
VERTEX
  8
0
 10
191.261
 20
294.958
 30
0.0
 40
0.333333
 41
0.333333
  0
VERTEX
  8
0
 10
191.122
 20
294.907
 30
0.0
 40
0.333333
 41
0.333333
  0
VERTEX
  8
0
 10
190.979
 20
294.871
 30
0.0
 40
0.333333
 41
0.333333
  0
VERTEX
  8
0
 10
190.831
 20
294.847
 30
0.0
 40
0.333333
 41
0.333333
  0
VERTEX
  8
0
 10
190.715
 20
294.84
 30
0.0
 40
0.333333
 41
0.333333
  0
VERTEX
  8
0
 10
190.676
 20
294.84
 30
0.0
 40
0.333333
 41
0.333333
  0
VERTEX
  8
0
 10
190.639
 20
294.84
 30
0.0
 40
0.333333
 41
0.333333
  0
VERTEX
  8
0
 10
190.524
 20
294.847
 30
0.0
 40
0.333333
 41
0.333333
  0
VERTEX
  8
0
 10
190.375
 20
294.871
 30
0.0
 40
0.333333
 41
0.333333
  0
VERTEX
  8
0
 10
190.231
 20
294.907
 30
0.0
 40
0.333333
 41
0.333333
  0
VERTEX
  8
0
 10
190.093
 20
294.958
 30
0.0
 40
0.333333
 41
0.333333
  0
VERTEX
  8
0
 10
189.961
 20
295.021
 30
0.0
 40
0.333333
 41
0.333333
  0
VERTEX
  8
0
 10
189.837
 20
295.096
 30
0.0
 40
0.333333
 41
0.333333
  0
VERTEX
  8
0
 10
189.722
 20
295.182
 30
0.0
 40
0.333333
 41
0.333333
  0
VERTEX
  8
0
 10
189.617
 20
295.279
 30
0.0
 40
0.333333
 41
0.333333
  0
VERTEX
  8
0
 10
189.519
 20
295.386
 30
0.0
 40
0.333333
 41
0.333333
  0
VERTEX
  8
0
 10
189.433
 20
295.501
 30
0.0
 40
0.333333
 41
0.333333
  0
VERTEX
  8
0
 10
189.358
 20
295.625
 30
0.0
 40
0.333333
 41
0.333333
  0
VERTEX
  8
0
 10
189.294
 20
295.756
 30
0.0
 40
0.333333
 41
0.333333
  0
VERTEX
  8
0
 10
189.244
 20
295.894
 30
0.0
 40
0.333333
 41
0.333333
  0
VERTEX
  8
0
 10
189.207
 20
296.037
 30
0.0
 40
0.333333
 41
0.333333
  0
VERTEX
  8
0
 10
189.185
 20
296.186
 30
0.0
 40
0.333333
 41
0.333333
  0
VERTEX
  8
0
 10
189.176
 20
296.301
 30
0.0
 40
0.333333
 41
0.333333
  0
VERTEX
  8
0
 10
189.176
 20
296.34
 30
0.0
 40
0.333333
 41
0.333333
  0
VERTEX
  8
0
 10
189.176
 20
296.378
 30
0.0
 40
0.333333
 41
0.333333
  0
VERTEX
  8
0
 10
189.185
 20
296.493
 30
0.0
 40
0.333333
 41
0.333333
  0
VERTEX
  8
0
 10
189.207
 20
296.642
 30
0.0
 40
0.333333
 41
0.333333
  0
VERTEX
  8
0
 10
189.244
 20
296.786
 30
0.0
 40
0.333333
 41
0.333333
  0
VERTEX
  8
0
 10
189.294
 20
296.924
 30
0.0
 40
0.333333
 41
0.333333
  0
VERTEX
  8
0
 10
189.358
 20
297.054
 30
0.0
 40
0.333333
 41
0.333333
  0
VERTEX
  8
0
 10
189.433
 20
297.179
 30
0.0
 40
0.333333
 41
0.333333
  0
VERTEX
  8
0
 10
189.519
 20
297.294
 30
0.0
 40
0.333333
 41
0.333333
  0
VERTEX
  8
0
 10
189.617
 20
297.4
 30
0.0
 40
0.333333
 41
0.333333
  0
VERTEX
  8
0
 10
189.722
 20
297.497
 30
0.0
 40
0.333333
 41
0.333333
  0
VERTEX
  8
0
 10
189.837
 20
297.583
 30
0.0
 40
0.333333
 41
0.333333
  0
VERTEX
  8
0
 10
189.961
 20
297.658
 30
0.0
 40
0.333333
 41
0.333333
  0
VERTEX
  8
0
 10
190.093
 20
297.722
 30
0.0
 40
0.333333
 41
0.333333
  0
VERTEX
  8
0
 10
190.231
 20
297.772
 30
0.0
 40
0.333333
 41
0.333333
  0
VERTEX
  8
0
 10
190.375
 20
297.81
 30
0.0
 40
0.333333
 41
0.333333
  0
VERTEX
  8
0
 10
190.524
 20
297.832
 30
0.0
 40
0.333333
 41
0.333333
  0
VERTEX
  8
0
 10
190.639
 20
297.84
 30
0.0
 40
0.333333
 41
0.333333
  0
VERTEX
  8
0
 10
190.676
 20
297.84
 30
0.0
 40
0.333333
 41
0.333333
  0
VERTEX
  8
0
 10
190.715
 20
297.84
 30
0.0
 40
0.333333
 41
0.333333
  0
VERTEX
  8
0
 10
190.831
 20
297.832
 30
0.0
 40
0.333333
 41
0.333333
  0
VERTEX
  8
0
 10
190.979
 20
297.81
 30
0.0
 40
0.333333
 41
0.333333
  0
VERTEX
  8
0
 10
191.122
 20
297.772
 30
0.0
 40
0.333333
 41
0.333333
  0
VERTEX
  8
0
 10
191.261
 20
297.722
 30
0.0
 40
0.333333
 41
0.333333
  0
VERTEX
  8
0
 10
191.392
 20
297.658
 30
0.0
 40
0.333333
 41
0.333333
  0
VERTEX
  8
0
 10
191.515
 20
297.583
 30
0.0
 40
0.333333
 41
0.333333
  0
VERTEX
  8
0
 10
191.631
 20
297.497
 30
0.0
 40
0.333333
 41
0.333333
  0
VERTEX
  8
0
 10
191.737
 20
297.4
 30
0.0
 40
0.333333
 41
0.333333
  0
VERTEX
  8
0
 10
191.835
 20
297.294
 30
0.0
 40
0.333333
 41
0.333333
  0
VERTEX
  8
0
 10
191.921
 20
297.179
 30
0.0
 40
0.333333
 41
0.333333
  0
VERTEX
  8
0
 10
191.996
 20
297.054
 30
0.0
 40
0.333333
 41
0.333333
  0
VERTEX
  8
0
 10
192.058
 20
296.924
 30
0.0
 40
0.333333
 41
0.333333
  0
VERTEX
  8
0
 10
192.11
 20
296.786
 30
0.0
 40
0.333333
 41
0.333333
  0
VERTEX
  8
0
 10
192.146
 20
296.642
 30
0.0
 40
0.333333
 41
0.333333
  0
VERTEX
  8
0
 10
192.169
 20
296.493
 30
0.0
 40
0.333333
 41
0.333333
  0
VERTEX
  8
0
 10
192.176
 20
296.378
 30
0.0
 40
0.333333
 41
0.333333
  0
VERTEX
  8
0
 10
192.176
 20
296.34
 30
0.0
 40
0.333333
 41
0.333333
  0
SEQEND
 8
0
  0
POLYLINE
  8
0
 62
     0
 66
     1
 10
0
 20
0
 30
0.0
 70
     1
 40
24
 41
24
  0
VERTEX
  8
0
 10
192.176
 20
280.59
 30
0.0
 40
0.333333
 41
0.333333
  0
VERTEX
  8
0
 10
192.176
 20
280.551
 30
0.0
 40
0.333333
 41
0.333333
  0
VERTEX
  8
0
 10
192.169
 20
280.436
 30
0.0
 40
0.333333
 41
0.333333
  0
VERTEX
  8
0
 10
192.146
 20
280.287
 30
0.0
 40
0.333333
 41
0.333333
  0
VERTEX
  8
0
 10
192.11
 20
280.144
 30
0.0
 40
0.333333
 41
0.333333
  0
VERTEX
  8
0
 10
192.058
 20
280.006
 30
0.0
 40
0.333333
 41
0.333333
  0
VERTEX
  8
0
 10
191.996
 20
279.875
 30
0.0
 40
0.333333
 41
0.333333
  0
VERTEX
  8
0
 10
191.921
 20
279.751
 30
0.0
 40
0.333333
 41
0.333333
  0
VERTEX
  8
0
 10
191.835
 20
279.636
 30
0.0
 40
0.333333
 41
0.333333
  0
VERTEX
  8
0
 10
191.737
 20
279.529
 30
0.0
 40
0.333333
 41
0.333333
  0
VERTEX
  8
0
 10
191.631
 20
279.432
 30
0.0
 40
0.333333
 41
0.333333
  0
VERTEX
  8
0
 10
191.515
 20
279.346
 30
0.0
 40
0.333333
 41
0.333333
  0
VERTEX
  8
0
 10
191.392
 20
279.271
 30
0.0
 40
0.333333
 41
0.333333
  0
VERTEX
  8
0
 10
191.261
 20
279.208
 30
0.0
 40
0.333333
 41
0.333333
  0
VERTEX
  8
0
 10
191.122
 20
279.157
 30
0.0
 40
0.333333
 41
0.333333
  0
VERTEX
  8
0
 10
190.979
 20
279.121
 30
0.0
 40
0.333333
 41
0.333333
  0
VERTEX
  8
0
 10
190.831
 20
279.097
 30
0.0
 40
0.333333
 41
0.333333
  0
VERTEX
  8
0
 10
190.715
 20
279.09
 30
0.0
 40
0.333333
 41
0.333333
  0
VERTEX
  8
0
 10
190.676
 20
279.09
 30
0.0
 40
0.333333
 41
0.333333
  0
VERTEX
  8
0
 10
190.639
 20
279.09
 30
0.0
 40
0.333333
 41
0.333333
  0
VERTEX
  8
0
 10
190.524
 20
279.097
 30
0.0
 40
0.333333
 41
0.333333
  0
VERTEX
  8
0
 10
190.375
 20
279.121
 30
0.0
 40
0.333333
 41
0.333333
  0
VERTEX
  8
0
 10
190.231
 20
279.157
 30
0.0
 40
0.333333
 41
0.333333
  0
VERTEX
  8
0
 10
190.093
 20
279.208
 30
0.0
 40
0.333333
 41
0.333333
  0
VERTEX
  8
0
 10
189.961
 20
279.271
 30
0.0
 40
0.333333
 41
0.333333
  0
VERTEX
  8
0
 10
189.837
 20
279.346
 30
0.0
 40
0.333333
 41
0.333333
  0
VERTEX
  8
0
 10
189.722
 20
279.432
 30
0.0
 40
0.333333
 41
0.333333
  0
VERTEX
  8
0
 10
189.617
 20
279.529
 30
0.0
 40
0.333333
 41
0.333333
  0
VERTEX
  8
0
 10
189.519
 20
279.636
 30
0.0
 40
0.333333
 41
0.333333
  0
VERTEX
  8
0
 10
189.433
 20
279.751
 30
0.0
 40
0.333333
 41
0.333333
  0
VERTEX
  8
0
 10
189.358
 20
279.875
 30
0.0
 40
0.333333
 41
0.333333
  0
VERTEX
  8
0
 10
189.294
 20
280.006
 30
0.0
 40
0.333333
 41
0.333333
  0
VERTEX
  8
0
 10
189.244
 20
280.144
 30
0.0
 40
0.333333
 41
0.333333
  0
VERTEX
  8
0
 10
189.207
 20
280.287
 30
0.0
 40
0.333333
 41
0.333333
  0
VERTEX
  8
0
 10
189.185
 20
280.436
 30
0.0
 40
0.333333
 41
0.333333
  0
VERTEX
  8
0
 10
189.176
 20
280.551
 30
0.0
 40
0.333333
 41
0.333333
  0
VERTEX
  8
0
 10
189.176
 20
280.59
 30
0.0
 40
0.333333
 41
0.333333
  0
VERTEX
  8
0
 10
189.176
 20
280.628
 30
0.0
 40
0.333333
 41
0.333333
  0
VERTEX
  8
0
 10
189.185
 20
280.743
 30
0.0
 40
0.333333
 41
0.333333
  0
VERTEX
  8
0
 10
189.207
 20
280.892
 30
0.0
 40
0.333333
 41
0.333333
  0
VERTEX
  8
0
 10
189.244
 20
281.036
 30
0.0
 40
0.333333
 41
0.333333
  0
VERTEX
  8
0
 10
189.294
 20
281.174
 30
0.0
 40
0.333333
 41
0.333333
  0
VERTEX
  8
0
 10
189.358
 20
281.304
 30
0.0
 40
0.333333
 41
0.333333
  0
VERTEX
  8
0
 10
189.433
 20
281.429
 30
0.0
 40
0.333333
 41
0.333333
  0
VERTEX
  8
0
 10
189.519
 20
281.544
 30
0.0
 40
0.333333
 41
0.333333
  0
VERTEX
  8
0
 10
189.617
 20
281.65
 30
0.0
 40
0.333333
 41
0.333333
  0
VERTEX
  8
0
 10
189.722
 20
281.747
 30
0.0
 40
0.333333
 41
0.333333
  0
VERTEX
  8
0
 10
189.837
 20
281.833
 30
0.0
 40
0.333333
 41
0.333333
  0
VERTEX
  8
0
 10
189.961
 20
281.908
 30
0.0
 40
0.333333
 41
0.333333
  0
VERTEX
  8
0
 10
190.093
 20
281.972
 30
0.0
 40
0.333333
 41
0.333333
  0
VERTEX
  8
0
 10
190.231
 20
282.022
 30
0.0
 40
0.333333
 41
0.333333
  0
VERTEX
  8
0
 10
190.375
 20
282.06
 30
0.0
 40
0.333333
 41
0.333333
  0
VERTEX
  8
0
 10
190.524
 20
282.082
 30
0.0
 40
0.333333
 41
0.333333
  0
VERTEX
  8
0
 10
190.639
 20
282.09
 30
0.0
 40
0.333333
 41
0.333333
  0
VERTEX
  8
0
 10
190.676
 20
282.09
 30
0.0
 40
0.333333
 41
0.333333
  0
VERTEX
  8
0
 10
190.715
 20
282.09
 30
0.0
 40
0.333333
 41
0.333333
  0
VERTEX
  8
0
 10
190.831
 20
282.082
 30
0.0
 40
0.333333
 41
0.333333
  0
VERTEX
  8
0
 10
190.979
 20
282.06
 30
0.0
 40
0.333333
 41
0.333333
  0
VERTEX
  8
0
 10
191.122
 20
282.022
 30
0.0
 40
0.333333
 41
0.333333
  0
VERTEX
  8
0
 10
191.261
 20
281.972
 30
0.0
 40
0.333333
 41
0.333333
  0
VERTEX
  8
0
 10
191.392
 20
281.908
 30
0.0
 40
0.333333
 41
0.333333
  0
VERTEX
  8
0
 10
191.515
 20
281.833
 30
0.0
 40
0.333333
 41
0.333333
  0
VERTEX
  8
0
 10
191.631
 20
281.747
 30
0.0
 40
0.333333
 41
0.333333
  0
VERTEX
  8
0
 10
191.737
 20
281.65
 30
0.0
 40
0.333333
 41
0.333333
  0
VERTEX
  8
0
 10
191.835
 20
281.544
 30
0.0
 40
0.333333
 41
0.333333
  0
VERTEX
  8
0
 10
191.921
 20
281.429
 30
0.0
 40
0.333333
 41
0.333333
  0
VERTEX
  8
0
 10
191.996
 20
281.304
 30
0.0
 40
0.333333
 41
0.333333
  0
VERTEX
  8
0
 10
192.058
 20
281.174
 30
0.0
 40
0.333333
 41
0.333333
  0
VERTEX
  8
0
 10
192.11
 20
281.036
 30
0.0
 40
0.333333
 41
0.333333
  0
VERTEX
  8
0
 10
192.146
 20
280.892
 30
0.0
 40
0.333333
 41
0.333333
  0
VERTEX
  8
0
 10
192.169
 20
280.743
 30
0.0
 40
0.333333
 41
0.333333
  0
VERTEX
  8
0
 10
192.176
 20
280.628
 30
0.0
 40
0.333333
 41
0.333333
  0
VERTEX
  8
0
 10
192.176
 20
280.59
 30
0.0
 40
0.333333
 41
0.333333
  0
SEQEND
 8
0
  0
POLYLINE
  8
0
 62
     0
 66
     1
 10
0
 20
0
 30
0.0
 70
     1
 40
24
 41
24
  0
VERTEX
  8
0
 10
20.7264
 20
280.59
 30
0.0
 40
0.333333
 41
0.333333
  0
VERTEX
  8
0
 10
20.7264
 20
280.551
 30
0.0
 40
0.333333
 41
0.333333
  0
VERTEX
  8
0
 10
20.7186
 20
280.436
 30
0.0
 40
0.333333
 41
0.333333
  0
VERTEX
  8
0
 10
20.696
 20
280.287
 30
0.0
 40
0.333333
 41
0.333333
  0
VERTEX
  8
0
 10
20.659
 20
280.144
 30
0.0
 40
0.333333
 41
0.333333
  0
VERTEX
  8
0
 10
20.6085
 20
280.006
 30
0.0
 40
0.333333
 41
0.333333
  0
VERTEX
  8
0
 10
20.5454
 20
279.875
 30
0.0
 40
0.333333
 41
0.333333
  0
VERTEX
  8
0
 10
20.4703
 20
279.751
 30
0.0
 40
0.333333
 41
0.333333
  0
VERTEX
  8
0
 10
20.3839
 20
279.636
 30
0.0
 40
0.333333
 41
0.333333
  0
VERTEX
  8
0
 10
20.2871
 20
279.529
 30
0.0
 40
0.333333
 41
0.333333
  0
VERTEX
  8
0
 10
20.1806
 20
279.432
 30
0.0
 40
0.333333
 41
0.333333
  0
VERTEX
  8
0
 10
20.065
 20
279.346
 30
0.0
 40
0.333333
 41
0.333333
  0
VERTEX
  8
0
 10
19.9414
 20
279.271
 30
0.0
 40
0.333333
 41
0.333333
  0
VERTEX
  8
0
 10
19.8103
 20
279.208
 30
0.0
 40
0.333333
 41
0.333333
  0
VERTEX
  8
0
 10
19.6724
 20
279.157
 30
0.0
 40
0.333333
 41
0.333333
  0
VERTEX
  8
0
 10
19.5287
 20
279.121
 30
0.0
 40
0.333333
 41
0.333333
  0
VERTEX
  8
0
 10
19.3797
 20
279.097
 30
0.0
 40
0.333333
 41
0.333333
  0
VERTEX
  8
0
 10
19.2647
 20
279.09
 30
0.0
 40
0.333333
 41
0.333333
  0
VERTEX
  8
0
 10
19.2264
 20
279.09
 30
0.0
 40
0.333333
 41
0.333333
  0
VERTEX
  8
0
 10
19.1881
 20
279.09
 30
0.0
 40
0.333333
 41
0.333333
  0
VERTEX
  8
0
 10
19.0731
 20
279.097
 30
0.0
 40
0.333333
 41
0.333333
  0
VERTEX
  8
0
 10
18.9242
 20
279.121
 30
0.0
 40
0.333333
 41
0.333333
  0
VERTEX
  8
0
 10
18.7803
 20
279.157
 30
0.0
 40
0.333333
 41
0.333333
  0
VERTEX
  8
0
 10
18.6425
 20
279.208
 30
0.0
 40
0.333333
 41
0.333333
  0
VERTEX
  8
0
 10
18.5114
 20
279.271
 30
0.0
 40
0.333333
 41
0.333333
  0
VERTEX
  8
0
 10
18.3876
 20
279.346
 30
0.0
 40
0.333333
 41
0.333333
  0
VERTEX
  8
0
 10
18.2722
 20
279.432
 30
0.0
 40
0.333333
 41
0.333333
  0
VERTEX
  8
0
 10
18.1657
 20
279.529
 30
0.0
 40
0.333333
 41
0.333333
  0
VERTEX
  8
0
 10
18.0689
 20
279.636
 30
0.0
 40
0.333333
 41
0.333333
  0
VERTEX
  8
0
 10
17.9825
 20
279.751
 30
0.0
 40
0.333333
 41
0.333333
  0
VERTEX
  8
0
 10
17.9075
 20
279.875
 30
0.0
 40
0.333333
 41
0.333333
  0
VERTEX
  8
0
 10
17.8443
 20
280.006
 30
0.0
 40
0.333333
 41
0.333333
  0
VERTEX
  8
0
 10
17.7939
 20
280.144
 30
0.0
 40
0.333333
 41
0.333333
  0
VERTEX
  8
0
 10
17.7568
 20
280.287
 30
0.0
 40
0.333333
 41
0.333333
  0
VERTEX
  8
0
 10
17.7342
 20
280.436
 30
0.0
 40
0.333333
 41
0.333333
  0
VERTEX
  8
0
 10
17.7264
 20
280.551
 30
0.0
 40
0.333333
 41
0.333333
  0
VERTEX
  8
0
 10
17.7264
 20
280.59
 30
0.0
 40
0.333333
 41
0.333333
  0
VERTEX
  8
0
 10
17.7264
 20
280.628
 30
0.0
 40
0.333333
 41
0.333333
  0
VERTEX
  8
0
 10
17.7342
 20
280.743
 30
0.0
 40
0.333333
 41
0.333333
  0
VERTEX
  8
0
 10
17.7568
 20
280.892
 30
0.0
 40
0.333333
 41
0.333333
  0
VERTEX
  8
0
 10
17.7939
 20
281.036
 30
0.0
 40
0.333333
 41
0.333333
  0
VERTEX
  8
0
 10
17.8443
 20
281.174
 30
0.0
 40
0.333333
 41
0.333333
  0
VERTEX
  8
0
 10
17.9075
 20
281.304
 30
0.0
 40
0.333333
 41
0.333333
  0
VERTEX
  8
0
 10
17.9825
 20
281.429
 30
0.0
 40
0.333333
 41
0.333333
  0
VERTEX
  8
0
 10
18.0689
 20
281.544
 30
0.0
 40
0.333333
 41
0.333333
  0
VERTEX
  8
0
 10
18.1657
 20
281.65
 30
0.0
 40
0.333333
 41
0.333333
  0
VERTEX
  8
0
 10
18.2722
 20
281.747
 30
0.0
 40
0.333333
 41
0.333333
  0
VERTEX
  8
0
 10
18.3876
 20
281.833
 30
0.0
 40
0.333333
 41
0.333333
  0
VERTEX
  8
0
 10
18.5114
 20
281.908
 30
0.0
 40
0.333333
 41
0.333333
  0
VERTEX
  8
0
 10
18.6425
 20
281.972
 30
0.0
 40
0.333333
 41
0.333333
  0
VERTEX
  8
0
 10
18.7803
 20
282.022
 30
0.0
 40
0.333333
 41
0.333333
  0
VERTEX
  8
0
 10
18.9242
 20
282.06
 30
0.0
 40
0.333333
 41
0.333333
  0
VERTEX
  8
0
 10
19.0731
 20
282.082
 30
0.0
 40
0.333333
 41
0.333333
  0
VERTEX
  8
0
 10
19.1881
 20
282.09
 30
0.0
 40
0.333333
 41
0.333333
  0
VERTEX
  8
0
 10
19.2264
 20
282.09
 30
0.0
 40
0.333333
 41
0.333333
  0
VERTEX
  8
0
 10
19.2647
 20
282.09
 30
0.0
 40
0.333333
 41
0.333333
  0
VERTEX
  8
0
 10
19.3797
 20
282.082
 30
0.0
 40
0.333333
 41
0.333333
  0
VERTEX
  8
0
 10
19.5287
 20
282.06
 30
0.0
 40
0.333333
 41
0.333333
  0
VERTEX
  8
0
 10
19.6724
 20
282.022
 30
0.0
 40
0.333333
 41
0.333333
  0
VERTEX
  8
0
 10
19.8103
 20
281.972
 30
0.0
 40
0.333333
 41
0.333333
  0
VERTEX
  8
0
 10
19.9414
 20
281.908
 30
0.0
 40
0.333333
 41
0.333333
  0
VERTEX
  8
0
 10
20.065
 20
281.833
 30
0.0
 40
0.333333
 41
0.333333
  0
VERTEX
  8
0
 10
20.1806
 20
281.747
 30
0.0
 40
0.333333
 41
0.333333
  0
VERTEX
  8
0
 10
20.2871
 20
281.65
 30
0.0
 40
0.333333
 41
0.333333
  0
VERTEX
  8
0
 10
20.3839
 20
281.544
 30
0.0
 40
0.333333
 41
0.333333
  0
VERTEX
  8
0
 10
20.4703
 20
281.429
 30
0.0
 40
0.333333
 41
0.333333
  0
VERTEX
  8
0
 10
20.5454
 20
281.304
 30
0.0
 40
0.333333
 41
0.333333
  0
VERTEX
  8
0
 10
20.6085
 20
281.174
 30
0.0
 40
0.333333
 41
0.333333
  0
VERTEX
  8
0
 10
20.659
 20
281.036
 30
0.0
 40
0.333333
 41
0.333333
  0
VERTEX
  8
0
 10
20.696
 20
280.892
 30
0.0
 40
0.333333
 41
0.333333
  0
VERTEX
  8
0
 10
20.7186
 20
280.743
 30
0.0
 40
0.333333
 41
0.333333
  0
VERTEX
  8
0
 10
20.7264
 20
280.628
 30
0.0
 40
0.333333
 41
0.333333
  0
VERTEX
  8
0
 10
20.7264
 20
280.59
 30
0.0
 40
0.333333
 41
0.333333
  0
SEQEND
 8
0
  0
POLYLINE
  8
0
 62
     0
 66
     1
 10
0
 20
0
 30
0.0
 70
     1
 40
24
 41
24
  0
VERTEX
  8
0
 10
20.7264
 20
296.34
 30
0.0
 40
0.333333
 41
0.333333
  0
VERTEX
  8
0
 10
20.7264
 20
296.301
 30
0.0
 40
0.333333
 41
0.333333
  0
VERTEX
  8
0
 10
20.7186
 20
296.186
 30
0.0
 40
0.333333
 41
0.333333
  0
VERTEX
  8
0
 10
20.696
 20
296.037
 30
0.0
 40
0.333333
 41
0.333333
  0
VERTEX
  8
0
 10
20.659
 20
295.894
 30
0.0
 40
0.333333
 41
0.333333
  0
VERTEX
  8
0
 10
20.6085
 20
295.756
 30
0.0
 40
0.333333
 41
0.333333
  0
VERTEX
  8
0
 10
20.5454
 20
295.625
 30
0.0
 40
0.333333
 41
0.333333
  0
VERTEX
  8
0
 10
20.4703
 20
295.501
 30
0.0
 40
0.333333
 41
0.333333
  0
VERTEX
  8
0
 10
20.3839
 20
295.386
 30
0.0
 40
0.333333
 41
0.333333
  0
VERTEX
  8
0
 10
20.2871
 20
295.279
 30
0.0
 40
0.333333
 41
0.333333
  0
VERTEX
  8
0
 10
20.1806
 20
295.182
 30
0.0
 40
0.333333
 41
0.333333
  0
VERTEX
  8
0
 10
20.065
 20
295.096
 30
0.0
 40
0.333333
 41
0.333333
  0
VERTEX
  8
0
 10
19.9414
 20
295.021
 30
0.0
 40
0.333333
 41
0.333333
  0
VERTEX
  8
0
 10
19.8103
 20
294.958
 30
0.0
 40
0.333333
 41
0.333333
  0
VERTEX
  8
0
 10
19.6724
 20
294.907
 30
0.0
 40
0.333333
 41
0.333333
  0
VERTEX
  8
0
 10
19.5287
 20
294.871
 30
0.0
 40
0.333333
 41
0.333333
  0
VERTEX
  8
0
 10
19.3797
 20
294.847
 30
0.0
 40
0.333333
 41
0.333333
  0
VERTEX
  8
0
 10
19.2647
 20
294.84
 30
0.0
 40
0.333333
 41
0.333333
  0
VERTEX
  8
0
 10
19.2264
 20
294.84
 30
0.0
 40
0.333333
 41
0.333333
  0
VERTEX
  8
0
 10
19.1881
 20
294.84
 30
0.0
 40
0.333333
 41
0.333333
  0
VERTEX
  8
0
 10
19.0731
 20
294.847
 30
0.0
 40
0.333333
 41
0.333333
  0
VERTEX
  8
0
 10
18.9242
 20
294.871
 30
0.0
 40
0.333333
 41
0.333333
  0
VERTEX
  8
0
 10
18.7803
 20
294.907
 30
0.0
 40
0.333333
 41
0.333333
  0
VERTEX
  8
0
 10
18.6425
 20
294.958
 30
0.0
 40
0.333333
 41
0.333333
  0
VERTEX
  8
0
 10
18.5114
 20
295.021
 30
0.0
 40
0.333333
 41
0.333333
  0
VERTEX
  8
0
 10
18.3876
 20
295.096
 30
0.0
 40
0.333333
 41
0.333333
  0
VERTEX
  8
0
 10
18.2722
 20
295.182
 30
0.0
 40
0.333333
 41
0.333333
  0
VERTEX
  8
0
 10
18.1657
 20
295.279
 30
0.0
 40
0.333333
 41
0.333333
  0
VERTEX
  8
0
 10
18.0689
 20
295.386
 30
0.0
 40
0.333333
 41
0.333333
  0
VERTEX
  8
0
 10
17.9825
 20
295.501
 30
0.0
 40
0.333333
 41
0.333333
  0
VERTEX
  8
0
 10
17.9075
 20
295.625
 30
0.0
 40
0.333333
 41
0.333333
  0
VERTEX
  8
0
 10
17.8443
 20
295.756
 30
0.0
 40
0.333333
 41
0.333333
  0
VERTEX
  8
0
 10
17.7939
 20
295.894
 30
0.0
 40
0.333333
 41
0.333333
  0
VERTEX
  8
0
 10
17.7568
 20
296.037
 30
0.0
 40
0.333333
 41
0.333333
  0
VERTEX
  8
0
 10
17.7342
 20
296.186
 30
0.0
 40
0.333333
 41
0.333333
  0
VERTEX
  8
0
 10
17.7264
 20
296.301
 30
0.0
 40
0.333333
 41
0.333333
  0
VERTEX
  8
0
 10
17.7264
 20
296.34
 30
0.0
 40
0.333333
 41
0.333333
  0
VERTEX
  8
0
 10
17.7264
 20
296.378
 30
0.0
 40
0.333333
 41
0.333333
  0
VERTEX
  8
0
 10
17.7342
 20
296.493
 30
0.0
 40
0.333333
 41
0.333333
  0
VERTEX
  8
0
 10
17.7568
 20
296.642
 30
0.0
 40
0.333333
 41
0.333333
  0
VERTEX
  8
0
 10
17.7939
 20
296.786
 30
0.0
 40
0.333333
 41
0.333333
  0
VERTEX
  8
0
 10
17.8443
 20
296.924
 30
0.0
 40
0.333333
 41
0.333333
  0
VERTEX
  8
0
 10
17.9075
 20
297.054
 30
0.0
 40
0.333333
 41
0.333333
  0
VERTEX
  8
0
 10
17.9825
 20
297.179
 30
0.0
 40
0.333333
 41
0.333333
  0
VERTEX
  8
0
 10
18.0689
 20
297.294
 30
0.0
 40
0.333333
 41
0.333333
  0
VERTEX
  8
0
 10
18.1657
 20
297.4
 30
0.0
 40
0.333333
 41
0.333333
  0
VERTEX
  8
0
 10
18.2722
 20
297.497
 30
0.0
 40
0.333333
 41
0.333333
  0
VERTEX
  8
0
 10
18.3876
 20
297.583
 30
0.0
 40
0.333333
 41
0.333333
  0
VERTEX
  8
0
 10
18.5114
 20
297.658
 30
0.0
 40
0.333333
 41
0.333333
  0
VERTEX
  8
0
 10
18.6425
 20
297.722
 30
0.0
 40
0.333333
 41
0.333333
  0
VERTEX
  8
0
 10
18.7803
 20
297.772
 30
0.0
 40
0.333333
 41
0.333333
  0
VERTEX
  8
0
 10
18.9242
 20
297.81
 30
0.0
 40
0.333333
 41
0.333333
  0
VERTEX
  8
0
 10
19.0731
 20
297.832
 30
0.0
 40
0.333333
 41
0.333333
  0
VERTEX
  8
0
 10
19.1881
 20
297.84
 30
0.0
 40
0.333333
 41
0.333333
  0
VERTEX
  8
0
 10
19.2264
 20
297.84
 30
0.0
 40
0.333333
 41
0.333333
  0
VERTEX
  8
0
 10
19.2647
 20
297.84
 30
0.0
 40
0.333333
 41
0.333333
  0
VERTEX
  8
0
 10
19.3797
 20
297.832
 30
0.0
 40
0.333333
 41
0.333333
  0
VERTEX
  8
0
 10
19.5287
 20
297.81
 30
0.0
 40
0.333333
 41
0.333333
  0
VERTEX
  8
0
 10
19.6724
 20
297.772
 30
0.0
 40
0.333333
 41
0.333333
  0
VERTEX
  8
0
 10
19.8103
 20
297.722
 30
0.0
 40
0.333333
 41
0.333333
  0
VERTEX
  8
0
 10
19.9414
 20
297.658
 30
0.0
 40
0.333333
 41
0.333333
  0
VERTEX
  8
0
 10
20.065
 20
297.583
 30
0.0
 40
0.333333
 41
0.333333
  0
VERTEX
  8
0
 10
20.1806
 20
297.497
 30
0.0
 40
0.333333
 41
0.333333
  0
VERTEX
  8
0
 10
20.2871
 20
297.4
 30
0.0
 40
0.333333
 41
0.333333
  0
VERTEX
  8
0
 10
20.3839
 20
297.294
 30
0.0
 40
0.333333
 41
0.333333
  0
VERTEX
  8
0
 10
20.4703
 20
297.179
 30
0.0
 40
0.333333
 41
0.333333
  0
VERTEX
  8
0
 10
20.5454
 20
297.054
 30
0.0
 40
0.333333
 41
0.333333
  0
VERTEX
  8
0
 10
20.6085
 20
296.924
 30
0.0
 40
0.333333
 41
0.333333
  0
VERTEX
  8
0
 10
20.659
 20
296.786
 30
0.0
 40
0.333333
 41
0.333333
  0
VERTEX
  8
0
 10
20.696
 20
296.642
 30
0.0
 40
0.333333
 41
0.333333
  0
VERTEX
  8
0
 10
20.7186
 20
296.493
 30
0.0
 40
0.333333
 41
0.333333
  0
VERTEX
  8
0
 10
20.7264
 20
296.378
 30
0.0
 40
0.333333
 41
0.333333
  0
VERTEX
  8
0
 10
20.7264
 20
296.34
 30
0.0
 40
0.333333
 41
0.333333
  0
SEQEND
 8
0
  0
POLYLINE
  8
0
 62
     0
 66
     1
 10
0
 20
0
 30
0.0
 40
25.4
 41
25.4
  0
VERTEX
  8
0
 10
0.176378
 20
311.34
 30
0.0
 40
0.352778
 41
0.352778
  0
VERTEX
  8
0
 10
209.726
 20
311.34
 30
0.0
 40
0.352778
 41
0.352778
  0
VERTEX
  8
0
 10
209.726
 20
324.04
 30
0.0
 40
0.352778
 41
0.352778
  0
VERTEX
  8
0
 10
206.551
 20
324.04
 30
0.0
 40
0.352778
 41
0.352778
  0
VERTEX
  8
0
 10
206.551
 20
336.74
 30
0.0
 40
0.352778
 41
0.352778
  0
VERTEX
  8
0
 10
209.726
 20
336.74
 30
0.0
 40
0.352778
 41
0.352778
  0
VERTEX
  8
0
 10
209.726
 20
349.44
 30
0.0
 40
0.352778
 41
0.352778
  0
VERTEX
  8
0
 10
206.551
 20
349.44
 30
0.0
 40
0.352778
 41
0.352778
  0
VERTEX
  8
0
 10
206.551
 20
362.14
 30
0.0
 40
0.352778
 41
0.352778
  0
VERTEX
  8
0
 10
209.726
 20
362.14
 30
0.0
 40
0.352778
 41
0.352778
  0
VERTEX
  8
0
 10
209.726
 20
374.84
 30
0.0
 40
0.352778
 41
0.352778
  0
VERTEX
  8
0
 10
206.551
 20
374.84
 30
0.0
 40
0.352778
 41
0.352778
  0
VERTEX
  8
0
 10
206.551
 20
387.54
 30
0.0
 40
0.352778
 41
0.352778
  0
VERTEX
  8
0
 10
209.726
 20
387.54
 30
0.0
 40
0.352778
 41
0.352778
  0
VERTEX
  8
0
 10
209.726
 20
400.24
 30
0.0
 40
0.352778
 41
0.352778
  0
VERTEX
  8
0
 10
206.551
 20
400.24
 30
0.0
 40
0.352778
 41
0.352778
  0
VERTEX
  8
0
 10
206.551
 20
412.94
 30
0.0
 40
0.352778
 41
0.352778
  0
VERTEX
  8
0
 10
209.726
 20
412.94
 30
0.0
 40
0.352778
 41
0.352778
  0
VERTEX
  8
0
 10
209.726
 20
425.64
 30
0.0
 40
0.352778
 41
0.352778
  0
VERTEX
  8
0
 10
206.551
 20
425.64
 30
0.0
 40
0.352778
 41
0.352778
  0
VERTEX
  8
0
 10
206.551
 20
438.34
 30
0.0
 40
0.352778
 41
0.352778
  0
VERTEX
  8
0
 10
209.726
 20
438.34
 30
0.0
 40
0.352778
 41
0.352778
  0
VERTEX
  8
0
 10
209.726
 20
451.04
 30
0.0
 40
0.352778
 41
0.352778
  0
VERTEX
  8
0
 10
206.551
 20
451.04
 30
0.0
 40
0.352778
 41
0.352778
  0
VERTEX
  8
0
 10
206.551
 20
463.74
 30
0.0
 40
0.352778
 41
0.352778
  0
VERTEX
  8
0
 10
209.726
 20
463.74
 30
0.0
 40
0.352778
 41
0.352778
  0
VERTEX
  8
0
 10
209.726
 20
476.44
 30
0.0
 40
0.352778
 41
0.352778
  0
VERTEX
  8
0
 10
206.551
 20
476.44
 30
0.0
 40
0.352778
 41
0.352778
  0
VERTEX
  8
0
 10
206.551
 20
489.14
 30
0.0
 40
0.352778
 41
0.352778
  0
VERTEX
  8
0
 10
209.726
 20
489.14
 30
0.0
 40
0.352778
 41
0.352778
  0
VERTEX
  8
0
 10
209.726
 20
501.84
 30
0.0
 40
0.352778
 41
0.352778
  0
VERTEX
  8
0
 10
206.551
 20
501.84
 30
0.0
 40
0.352778
 41
0.352778
  0
VERTEX
  8
0
 10
206.551
 20
514.54
 30
0.0
 40
0.352778
 41
0.352778
  0
VERTEX
  8
0
 10
209.726
 20
514.54
 30
0.0
 40
0.352778
 41
0.352778
  0
VERTEX
  8
0
 10
209.726
 20
527.24
 30
0.0
 40
0.352778
 41
0.352778
  0
VERTEX
  8
0
 10
206.551
 20
527.24
 30
0.0
 40
0.352778
 41
0.352778
  0
VERTEX
  8
0
 10
206.551
 20
539.94
 30
0.0
 40
0.352778
 41
0.352778
  0
VERTEX
  8
0
 10
209.726
 20
539.94
 30
0.0
 40
0.352778
 41
0.352778
  0
VERTEX
  8
0
 10
209.726
 20
552.64
 30
0.0
 40
0.352778
 41
0.352778
  0
VERTEX
  8
0
 10
206.551
 20
552.64
 30
0.0
 40
0.352778
 41
0.352778
  0
VERTEX
  8
0
 10
206.551
 20
565.34
 30
0.0
 40
0.352778
 41
0.352778
  0
VERTEX
  8
0
 10
209.726
 20
565.34
 30
0.0
 40
0.352778
 41
0.352778
  0
VERTEX
  8
0
 10
209.726
 20
578.04
 30
0.0
 40
0.352778
 41
0.352778
  0
VERTEX
  8
0
 10
206.551
 20
578.04
 30
0.0
 40
0.352778
 41
0.352778
  0
VERTEX
  8
0
 10
206.551
 20
590.74
 30
0.0
 40
0.352778
 41
0.352778
  0
VERTEX
  8
0
 10
209.726
 20
590.74
 30
0.0
 40
0.352778
 41
0.352778
  0
VERTEX
  8
0
 10
209.726
 20
603.44
 30
0.0
 40
0.352778
 41
0.352778
  0
VERTEX
  8
0
 10
206.551
 20
603.44
 30
0.0
 40
0.352778
 41
0.352778
  0
VERTEX
  8
0
 10
206.551
 20
616.14
 30
0.0
 40
0.352778
 41
0.352778
  0
VERTEX
  8
0
 10
193.851
 20
616.14
 30
0.0
 40
0.352778
 41
0.352778
  0
VERTEX
  8
0
 10
193.851
 20
622.49
 30
0.0
 40
0.352778
 41
0.352778
  0
VERTEX
  8
0
 10
168.451
 20
622.49
 30
0.0
 40
0.352778
 41
0.352778
  0
VERTEX
  8
0
 10
168.451
 20
616.14
 30
0.0
 40
0.352778
 41
0.352778
  0
VERTEX
  8
0
 10
143.051
 20
616.14
 30
0.0
 40
0.352778
 41
0.352778
  0
VERTEX
  8
0
 10
143.051
 20
622.49
 30
0.0
 40
0.352778
 41
0.352778
  0
VERTEX
  8
0
 10
117.652
 20
622.49
 30
0.0
 40
0.352778
 41
0.352778
  0
VERTEX
  8
0
 10
117.652
 20
616.14
 30
0.0
 40
0.352778
 41
0.352778
  0
VERTEX
  8
0
 10
92.2515
 20
616.14
 30
0.0
 40
0.352778
 41
0.352778
  0
VERTEX
  8
0
 10
92.2515
 20
622.49
 30
0.0
 40
0.352778
 41
0.352778
  0
VERTEX
  8
0
 10
66.8515
 20
622.49
 30
0.0
 40
0.352778
 41
0.352778
  0
VERTEX
  8
0
 10
66.8515
 20
616.14
 30
0.0
 40
0.352778
 41
0.352778
  0
VERTEX
  8
0
 10
41.4514
 20
616.14
 30
0.0
 40
0.352778
 41
0.352778
  0
VERTEX
  8
0
 10
41.4514
 20
622.49
 30
0.0
 40
0.352778
 41
0.352778
  0
VERTEX
  8
0
 10
16.0514
 20
622.49
 30
0.0
 40
0.352778
 41
0.352778
  0
VERTEX
  8
0
 10
16.0514
 20
616.14
 30
0.0
 40
0.352778
 41
0.352778
  0
VERTEX
  8
0
 10
3.3514
 20
616.14
 30
0.0
 40
0.352778
 41
0.352778
  0
VERTEX
  8
0
 10
3.3514
 20
603.44
 30
0.0
 40
0.352778
 41
0.352778
  0
VERTEX
  8
0
 10
0.176378
 20
603.44
 30
0.0
 40
0.352778
 41
0.352778
  0
VERTEX
  8
0
 10
0.176378
 20
590.74
 30
0.0
 40
0.352778
 41
0.352778
  0
VERTEX
  8
0
 10
3.3514
 20
590.74
 30
0.0
 40
0.352778
 41
0.352778
  0
VERTEX
  8
0
 10
3.3514
 20
578.04
 30
0.0
 40
0.352778
 41
0.352778
  0
VERTEX
  8
0
 10
0.176378
 20
578.04
 30
0.0
 40
0.352778
 41
0.352778
  0
VERTEX
  8
0
 10
0.176378
 20
565.34
 30
0.0
 40
0.352778
 41
0.352778
  0
VERTEX
  8
0
 10
3.3514
 20
565.34
 30
0.0
 40
0.352778
 41
0.352778
  0
VERTEX
  8
0
 10
3.3514
 20
552.64
 30
0.0
 40
0.352778
 41
0.352778
  0
VERTEX
  8
0
 10
0.176378
 20
552.64
 30
0.0
 40
0.352778
 41
0.352778
  0
VERTEX
  8
0
 10
0.176378
 20
539.94
 30
0.0
 40
0.352778
 41
0.352778
  0
VERTEX
  8
0
 10
3.3514
 20
539.94
 30
0.0
 40
0.352778
 41
0.352778
  0
VERTEX
  8
0
 10
3.3514
 20
527.24
 30
0.0
 40
0.352778
 41
0.352778
  0
VERTEX
  8
0
 10
0.176378
 20
527.24
 30
0.0
 40
0.352778
 41
0.352778
  0
VERTEX
  8
0
 10
0.176378
 20
514.54
 30
0.0
 40
0.352778
 41
0.352778
  0
VERTEX
  8
0
 10
3.3514
 20
514.54
 30
0.0
 40
0.352778
 41
0.352778
  0
VERTEX
  8
0
 10
3.3514
 20
501.84
 30
0.0
 40
0.352778
 41
0.352778
  0
VERTEX
  8
0
 10
0.176378
 20
501.84
 30
0.0
 40
0.352778
 41
0.352778
  0
VERTEX
  8
0
 10
0.176378
 20
489.14
 30
0.0
 40
0.352778
 41
0.352778
  0
VERTEX
  8
0
 10
3.3514
 20
489.14
 30
0.0
 40
0.352778
 41
0.352778
  0
VERTEX
  8
0
 10
3.3514
 20
476.44
 30
0.0
 40
0.352778
 41
0.352778
  0
VERTEX
  8
0
 10
0.176378
 20
476.44
 30
0.0
 40
0.352778
 41
0.352778
  0
VERTEX
  8
0
 10
0.176378
 20
463.74
 30
0.0
 40
0.352778
 41
0.352778
  0
VERTEX
  8
0
 10
3.3514
 20
463.74
 30
0.0
 40
0.352778
 41
0.352778
  0
VERTEX
  8
0
 10
3.3514
 20
451.04
 30
0.0
 40
0.352778
 41
0.352778
  0
VERTEX
  8
0
 10
0.176378
 20
451.04
 30
0.0
 40
0.352778
 41
0.352778
  0
VERTEX
  8
0
 10
0.176378
 20
438.34
 30
0.0
 40
0.352778
 41
0.352778
  0
VERTEX
  8
0
 10
3.3514
 20
438.34
 30
0.0
 40
0.352778
 41
0.352778
  0
VERTEX
  8
0
 10
3.3514
 20
425.64
 30
0.0
 40
0.352778
 41
0.352778
  0
VERTEX
  8
0
 10
0.176378
 20
425.64
 30
0.0
 40
0.352778
 41
0.352778
  0
VERTEX
  8
0
 10
0.176378
 20
412.94
 30
0.0
 40
0.352778
 41
0.352778
  0
VERTEX
  8
0
 10
3.3514
 20
412.94
 30
0.0
 40
0.352778
 41
0.352778
  0
VERTEX
  8
0
 10
3.3514
 20
400.24
 30
0.0
 40
0.352778
 41
0.352778
  0
VERTEX
  8
0
 10
0.176378
 20
400.24
 30
0.0
 40
0.352778
 41
0.352778
  0
VERTEX
  8
0
 10
0.176378
 20
387.54
 30
0.0
 40
0.352778
 41
0.352778
  0
VERTEX
  8
0
 10
3.3514
 20
387.54
 30
0.0
 40
0.352778
 41
0.352778
  0
VERTEX
  8
0
 10
3.3514
 20
374.84
 30
0.0
 40
0.352778
 41
0.352778
  0
VERTEX
  8
0
 10
0.176378
 20
374.84
 30
0.0
 40
0.352778
 41
0.352778
  0
VERTEX
  8
0
 10
0.176378
 20
362.14
 30
0.0
 40
0.352778
 41
0.352778
  0
VERTEX
  8
0
 10
3.3514
 20
362.14
 30
0.0
 40
0.352778
 41
0.352778
  0
VERTEX
  8
0
 10
3.3514
 20
349.44
 30
0.0
 40
0.352778
 41
0.352778
  0
VERTEX
  8
0
 10
0.176378
 20
349.44
 30
0.0
 40
0.352778
 41
0.352778
  0
VERTEX
  8
0
 10
0.176378
 20
336.74
 30
0.0
 40
0.352778
 41
0.352778
  0
VERTEX
  8
0
 10
3.3514
 20
336.74
 30
0.0
 40
0.352778
 41
0.352778
  0
VERTEX
  8
0
 10
3.3514
 20
324.04
 30
0.0
 40
0.352778
 41
0.352778
  0
VERTEX
  8
0
 10
0.176378
 20
324.04
 30
0.0
 40
0.352778
 41
0.352778
  0
VERTEX
  8
0
 10
0.176378
 20
298.64
 30
0.0
 40
0.352778
 41
0.352778
  0
SEQEND
 8
0
  0
POLYLINE
  8
0
 62
     0
 66
     1
 10
0
 20
0
 30
0.0
 40
25.4
 41
25.4
  0
VERTEX
  8
0
 10
0.176378
 20
298.64
 30
0.0
 40
0.352778
 41
0.352778
  0
VERTEX
  8
0
 10
3.3514
 20
298.64
 30
0.0
 40
0.352778
 41
0.352778
  0
VERTEX
  8
0
 10
3.3514
 20
285.94
 30
0.0
 40
0.352778
 41
0.352778
  0
VERTEX
  8
0
 10
0.176378
 20
285.94
 30
0.0
 40
0.352778
 41
0.352778
  0
VERTEX
  8
0
 10
0.176378
 20
273.24
 30
0.0
 40
0.352778
 41
0.352778
  0
VERTEX
  8
0
 10
3.3514
 20
273.24
 30
0.0
 40
0.352778
 41
0.352778
  0
VERTEX
  8
0
 10
3.3514
 20
260.54
 30
0.0
 40
0.352778
 41
0.352778
  0
VERTEX
  8
0
 10
0.176378
 20
260.54
 30
0.0
 40
0.352778
 41
0.352778
  0
VERTEX
  8
0
 10
0.176378
 20
247.84
 30
0.0
 40
0.352778
 41
0.352778
  0
VERTEX
  8
0
 10
3.3514
 20
247.84
 30
0.0
 40
0.352778
 41
0.352778
  0
VERTEX
  8
0
 10
3.3514
 20
235.14
 30
0.0
 40
0.352778
 41
0.352778
  0
VERTEX
  8
0
 10
0.176378
 20
235.14
 30
0.0
 40
0.352778
 41
0.352778
  0
VERTEX
  8
0
 10
0.176378
 20
222.44
 30
0.0
 40
0.352778
 41
0.352778
  0
VERTEX
  8
0
 10
3.3514
 20
222.44
 30
0.0
 40
0.352778
 41
0.352778
  0
VERTEX
  8
0
 10
3.3514
 20
209.74
 30
0.0
 40
0.352778
 41
0.352778
  0
VERTEX
  8
0
 10
0.176378
 20
209.74
 30
0.0
 40
0.352778
 41
0.352778
  0
VERTEX
  8
0
 10
0.176378
 20
197.04
 30
0.0
 40
0.352778
 41
0.352778
  0
VERTEX
  8
0
 10
3.3514
 20
197.04
 30
0.0
 40
0.352778
 41
0.352778
  0
VERTEX
  8
0
 10
3.3514
 20
184.34
 30
0.0
 40
0.352778
 41
0.352778
  0
VERTEX
  8
0
 10
0.176378
 20
184.34
 30
0.0
 40
0.352778
 41
0.352778
  0
VERTEX
  8
0
 10
0.176378
 20
171.64
 30
0.0
 40
0.352778
 41
0.352778
  0
VERTEX
  8
0
 10
3.3514
 20
171.64
 30
0.0
 40
0.352778
 41
0.352778
  0
VERTEX
  8
0
 10
3.3514
 20
158.939
 30
0.0
 40
0.352778
 41
0.352778
  0
VERTEX
  8
0
 10
0.176378
 20
158.939
 30
0.0
 40
0.352778
 41
0.352778
  0
VERTEX
  8
0
 10
0.176378
 20
146.239
 30
0.0
 40
0.352778
 41
0.352778
  0
VERTEX
  8
0
 10
3.3514
 20
146.239
 30
0.0
 40
0.352778
 41
0.352778
  0
VERTEX
  8
0
 10
3.3514
 20
133.54
 30
0.0
 40
0.352778
 41
0.352778
  0
VERTEX
  8
0
 10
0.176378
 20
133.54
 30
0.0
 40
0.352778
 41
0.352778
  0
VERTEX
  8
0
 10
0.176378
 20
120.84
 30
0.0
 40
0.352778
 41
0.352778
  0
VERTEX
  8
0
 10
3.3514
 20
120.84
 30
0.0
 40
0.352778
 41
0.352778
  0
VERTEX
  8
0
 10
3.3514
 20
108.139
 30
0.0
 40
0.352778
 41
0.352778
  0
VERTEX
  8
0
 10
0.176378
 20
108.139
 30
0.0
 40
0.352778
 41
0.352778
  0
VERTEX
  8
0
 10
0.176378
 20
95.4394
 30
0.0
 40
0.352778
 41
0.352778
  0
VERTEX
  8
0
 10
3.3514
 20
95.4394
 30
0.0
 40
0.352778
 41
0.352778
  0
VERTEX
  8
0
 10
3.3514
 20
82.7394
 30
0.0
 40
0.352778
 41
0.352778
  0
VERTEX
  8
0
 10
0.176378
 20
82.7394
 30
0.0
 40
0.352778
 41
0.352778
  0
VERTEX
  8
0
 10
0.176378
 20
70.0394
 30
0.0
 40
0.352778
 41
0.352778
  0
VERTEX
  8
0
 10
3.3514
 20
70.0394
 30
0.0
 40
0.352778
 41
0.352778
  0
VERTEX
  8
0
 10
3.3514
 20
57.3394
 30
0.0
 40
0.352778
 41
0.352778
  0
VERTEX
  8
0
 10
0.176378
 20
57.3394
 30
0.0
 40
0.352778
 41
0.352778
  0
VERTEX
  8
0
 10
0.176378
 20
44.6394
 30
0.0
 40
0.352778
 41
0.352778
  0
VERTEX
  8
0
 10
3.3514
 20
44.6394
 30
0.0
 40
0.352778
 41
0.352778
  0
VERTEX
  8
0
 10
3.3514
 20
31.9394
 30
0.0
 40
0.352778
 41
0.352778
  0
VERTEX
  8
0
 10
0.176378
 20
31.9394
 30
0.0
 40
0.352778
 41
0.352778
  0
VERTEX
  8
0
 10
0.176378
 20
19.2393
 30
0.0
 40
0.352778
 41
0.352778
  0
VERTEX
  8
0
 10
3.3514
 20
19.2393
 30
0.0
 40
0.352778
 41
0.352778
  0
VERTEX
  8
0
 10
3.3514
 20
6.53933
 30
0.0
 40
0.352778
 41
0.352778
  0
VERTEX
  8
0
 10
16.0514
 20
6.53933
 30
0.0
 40
0.352778
 41
0.352778
  0
VERTEX
  8
0
 10
16.0514
 20
0.189344
 30
0.0
 40
0.352778
 41
0.352778
  0
VERTEX
  8
0
 10
41.4514
 20
0.189344
 30
0.0
 40
0.352778
 41
0.352778
  0
VERTEX
  8
0
 10
41.4514
 20
6.53933
 30
0.0
 40
0.352778
 41
0.352778
  0
VERTEX
  8
0
 10
66.8515
 20
6.53933
 30
0.0
 40
0.352778
 41
0.352778
  0
VERTEX
  8
0
 10
66.8515
 20
0.189344
 30
0.0
 40
0.352778
 41
0.352778
  0
VERTEX
  8
0
 10
92.2515
 20
0.189344
 30
0.0
 40
0.352778
 41
0.352778
  0
VERTEX
  8
0
 10
92.2515
 20
6.53933
 30
0.0
 40
0.352778
 41
0.352778
  0
VERTEX
  8
0
 10
117.652
 20
6.53933
 30
0.0
 40
0.352778
 41
0.352778
  0
VERTEX
  8
0
 10
117.652
 20
0.189344
 30
0.0
 40
0.352778
 41
0.352778
  0
VERTEX
  8
0
 10
143.051
 20
0.189344
 30
0.0
 40
0.352778
 41
0.352778
  0
VERTEX
  8
0
 10
143.051
 20
6.53933
 30
0.0
 40
0.352778
 41
0.352778
  0
VERTEX
  8
0
 10
168.451
 20
6.53933
 30
0.0
 40
0.352778
 41
0.352778
  0
VERTEX
  8
0
 10
168.451
 20
0.189344
 30
0.0
 40
0.352778
 41
0.352778
  0
VERTEX
  8
0
 10
193.851
 20
0.189344
 30
0.0
 40
0.352778
 41
0.352778
  0
VERTEX
  8
0
 10
193.851
 20
6.53933
 30
0.0
 40
0.352778
 41
0.352778
  0
VERTEX
  8
0
 10
206.551
 20
6.53933
 30
0.0
 40
0.352778
 41
0.352778
  0
VERTEX
  8
0
 10
206.551
 20
19.2393
 30
0.0
 40
0.352778
 41
0.352778
  0
VERTEX
  8
0
 10
209.726
 20
19.2393
 30
0.0
 40
0.352778
 41
0.352778
  0
VERTEX
  8
0
 10
209.726
 20
31.9394
 30
0.0
 40
0.352778
 41
0.352778
  0
VERTEX
  8
0
 10
206.551
 20
31.9394
 30
0.0
 40
0.352778
 41
0.352778
  0
VERTEX
  8
0
 10
206.551
 20
44.6394
 30
0.0
 40
0.352778
 41
0.352778
  0
VERTEX
  8
0
 10
209.726
 20
44.6394
 30
0.0
 40
0.352778
 41
0.352778
  0
VERTEX
  8
0
 10
209.726
 20
57.3394
 30
0.0
 40
0.352778
 41
0.352778
  0
VERTEX
  8
0
 10
206.551
 20
57.3394
 30
0.0
 40
0.352778
 41
0.352778
  0
VERTEX
  8
0
 10
206.551
 20
70.0394
 30
0.0
 40
0.352778
 41
0.352778
  0
VERTEX
  8
0
 10
209.726
 20
70.0394
 30
0.0
 40
0.352778
 41
0.352778
  0
VERTEX
  8
0
 10
209.726
 20
82.7394
 30
0.0
 40
0.352778
 41
0.352778
  0
VERTEX
  8
0
 10
206.551
 20
82.7394
 30
0.0
 40
0.352778
 41
0.352778
  0
VERTEX
  8
0
 10
206.551
 20
95.4394
 30
0.0
 40
0.352778
 41
0.352778
  0
VERTEX
  8
0
 10
209.726
 20
95.4394
 30
0.0
 40
0.352778
 41
0.352778
  0
VERTEX
  8
0
 10
209.726
 20
108.139
 30
0.0
 40
0.352778
 41
0.352778
  0
VERTEX
  8
0
 10
206.551
 20
108.139
 30
0.0
 40
0.352778
 41
0.352778
  0
VERTEX
  8
0
 10
206.551
 20
120.84
 30
0.0
 40
0.352778
 41
0.352778
  0
VERTEX
  8
0
 10
209.726
 20
120.84
 30
0.0
 40
0.352778
 41
0.352778
  0
VERTEX
  8
0
 10
209.726
 20
133.54
 30
0.0
 40
0.352778
 41
0.352778
  0
VERTEX
  8
0
 10
206.551
 20
133.54
 30
0.0
 40
0.352778
 41
0.352778
  0
VERTEX
  8
0
 10
206.551
 20
146.239
 30
0.0
 40
0.352778
 41
0.352778
  0
VERTEX
  8
0
 10
209.726
 20
146.239
 30
0.0
 40
0.352778
 41
0.352778
  0
VERTEX
  8
0
 10
209.726
 20
158.939
 30
0.0
 40
0.352778
 41
0.352778
  0
VERTEX
  8
0
 10
206.551
 20
158.939
 30
0.0
 40
0.352778
 41
0.352778
  0
VERTEX
  8
0
 10
206.551
 20
171.64
 30
0.0
 40
0.352778
 41
0.352778
  0
VERTEX
  8
0
 10
209.726
 20
171.64
 30
0.0
 40
0.352778
 41
0.352778
  0
VERTEX
  8
0
 10
209.726
 20
184.34
 30
0.0
 40
0.352778
 41
0.352778
  0
VERTEX
  8
0
 10
206.551
 20
184.34
 30
0.0
 40
0.352778
 41
0.352778
  0
VERTEX
  8
0
 10
206.551
 20
197.04
 30
0.0
 40
0.352778
 41
0.352778
  0
VERTEX
  8
0
 10
209.726
 20
197.04
 30
0.0
 40
0.352778
 41
0.352778
  0
VERTEX
  8
0
 10
209.726
 20
209.74
 30
0.0
 40
0.352778
 41
0.352778
  0
VERTEX
  8
0
 10
206.551
 20
209.74
 30
0.0
 40
0.352778
 41
0.352778
  0
VERTEX
  8
0
 10
206.551
 20
222.44
 30
0.0
 40
0.352778
 41
0.352778
  0
VERTEX
  8
0
 10
209.726
 20
222.44
 30
0.0
 40
0.352778
 41
0.352778
  0
VERTEX
  8
0
 10
209.726
 20
235.14
 30
0.0
 40
0.352778
 41
0.352778
  0
VERTEX
  8
0
 10
206.551
 20
235.14
 30
0.0
 40
0.352778
 41
0.352778
  0
VERTEX
  8
0
 10
206.551
 20
247.84
 30
0.0
 40
0.352778
 41
0.352778
  0
VERTEX
  8
0
 10
209.726
 20
247.84
 30
0.0
 40
0.352778
 41
0.352778
  0
VERTEX
  8
0
 10
209.726
 20
260.54
 30
0.0
 40
0.352778
 41
0.352778
  0
VERTEX
  8
0
 10
206.551
 20
260.54
 30
0.0
 40
0.352778
 41
0.352778
  0
VERTEX
  8
0
 10
206.551
 20
273.24
 30
0.0
 40
0.352778
 41
0.352778
  0
VERTEX
  8
0
 10
209.726
 20
273.24
 30
0.0
 40
0.352778
 41
0.352778
  0
VERTEX
  8
0
 10
209.726
 20
285.94
 30
0.0
 40
0.352778
 41
0.352778
  0
VERTEX
  8
0
 10
206.551
 20
285.94
 30
0.0
 40
0.352778
 41
0.352778
  0
VERTEX
  8
0
 10
206.551
 20
298.64
 30
0.0
 40
0.352778
 41
0.352778
  0
VERTEX
  8
0
 10
209.726
 20
298.64
 30
0.0
 40
0.352778
 41
0.352778
  0
VERTEX
  8
0
 10
209.726
 20
311.34
 30
0.0
 40
0.352778
 41
0.352778
  0
SEQEND
 8
0
  0
POLYLINE
  8
0
 62
     0
 66
     1
 10
0
 20
0
 30
0.0
 70
     1
 40
25.4
 41
25.4
  0
VERTEX
  8
0
 10
162.364
 20
30.9893
 30
0.0
 40
0.352778
 41
0.352778
  0
VERTEX
  8
0
 10
192.939
 20
30.9893
 30
0.0
 40
0.352778
 41
0.352778
  0
VERTEX
  8
0
 10
192.939
 20
18.5504
 30
0.0
 40
0.352778
 41
0.352778
  0
VERTEX
  8
0
 10
162.364
 20
18.5504
 30
0.0
 40
0.352778
 41
0.352778
  0
VERTEX
  8
0
 10
162.364
 20
30.9893
 30
0.0
 40
0.352778
 41
0.352778
  0
SEQEND
 8
0
  0
ENDSEC
  0
EOF
