<?xml version="1.0" encoding="UTF-8"?>
<svg xmlns="http://www.w3.org/2000/svg" xmlns:xlink="http://www.w3.org/1999/xlink" width="44.339mm" height="243.991mm" viewBox="0.987110 1.040062 44.338562 243.990860">
    <path transform="translate(0.987109,0.679263)" style="stroke:#000000;stroke-width:0.05mm;fill:none" d="M0.338499,122.358437L0.338499,22.358292C0.339903,10.208828,10.189509,0.360553,22.338978,0.3608C34.488441,0.361046,44.337654,10.209718,44.338562,22.358292L44.338562,122.358437L0.000002,122.358437"/>
    <path transform="translate(0.987109,0.679263)" style="stroke:#000000;stroke-width:0.05mm;fill:none" d="M42.338558,77.358368L2.338502,77.358368L2.338502,22.358292C2.341795,11.314714,11.295452,2.363949,22.339029,2.364226C33.382607,2.364501,42.335815,11.315714,42.338558,22.358292L42.338558,77.358368z"/>
    <path transform="translate(0.987109,0.679263)" style="stroke:#000000;stroke-width:0.05mm;fill:none" d="M0.000002,122.358437L0.000002,222.358582C0.003846,234.506195,9.852507,244.351685,22.00009,244.351669C34.147675,244.351639,43.996284,234.506058,44.000065,222.358582L44.000065,122.358437"/>
    <path transform="translate(0.987109,0.679263)" style="stroke:#000000;stroke-width:0.05mm;fill:none" d="M42.000061,167.358505L2.000005,167.358505L2.000005,222.358582C2.0026,233.402664,10.956442,242.354187,22.0005,242.353928C33.044559,242.353668,41.997982,233.401718,42.000061,222.358582L42.000061,167.358505z"/>
    <path transform="translate(0.987109,0.679263)" style="stroke:#000000;stroke-width:0.05mm;fill:none" d="M12.000016,167.358505C23.041359,167.364548,31.988972,176.31694,31.989105,187.358276C31.989243,198.399628,23.041861,207.352249,12.000016,207.358551L42.000061,207.358551"/>
</svg>
