  0
SECTION
  2
HEADER
  9
$ACADVER
  1
AC1009
  0
ENDSEC
  0
SECTION
  2
ENTITIES
  0
POLYLINE
  5
90
  8
Layer_0
  62
0
  66
1
  10
0
  20
0
  30
0
  0
VERTEX
  5
90
  8
Layer_0
  10
1.3256079
  20
476.96231
  0
VERTEX
  5
91
  8
Layer_0
  10
1.3256079
  20
576.96246
  0
VERTEX
  5
92
  8
Layer_0
  10
1.3543612
  20
578.09448
  0
VERTEX
  5
93
  8
Layer_0
  10
1.4394368
  20
579.21167
  0
VERTEX
  5
94
  8
Layer_0
  10
1.5794525
  20
580.31256
  0
VERTEX
  5
95
  8
Layer_0
  10
1.7730259
  20
581.39587
  0
VERTEX
  5
96
  8
Layer_0
  10
2.018775
  20
582.46014
  0
VERTEX
  5
97
  8
Layer_0
  10
2.3153176
  20
583.50409
  0
VERTEX
  5
98
  8
Layer_0
  10
2.661272
  20
584.52618
  0
VERTEX
  5
99
  8
Layer_0
  10
3.0552559
  20
585.52515
  0
VERTEX
  5
9a
  8
Layer_0
  10
3.4958866
  20
586.49957
  0
VERTEX
  5
9b
  8
Layer_0
  10
3.9817824
  20
587.44806
  0
VERTEX
  5
9c
  8
Layer_0
  10
4.5115614
  20
588.36926
  0
VERTEX
  5
9d
  8
Layer_0
  10
5.0838404
  20
589.26178
  0
VERTEX
  5
9e
  8
Layer_0
  10
5.6972389
  20
590.12421
  0
VERTEX
  5
9f
  8
Layer_0
  10
6.3503733
  20
590.9552
  0
VERTEX
  5
a0
  8
Layer_0
  10
7.0418615
  20
591.75336
  0
VERTEX
  5
a1
  8
Layer_0
  10
7.7703228
  20
592.51733
  0
VERTEX
  5
a2
  8
Layer_0
  10
8.5343742
  20
593.24567
  0
VERTEX
  5
a3
  8
Layer_0
  10
9.3326321
  20
593.93707
  0
VERTEX
  5
a4
  8
Layer_0
  10
10.163716
  20
594.59009
  0
VERTEX
  5
a5
  8
Layer_0
  10
11.026245
  20
595.20337
  0
VERTEX
  5
a6
  8
Layer_0
  10
11.918836
  20
595.77551
  0
VERTEX
  5
a7
  8
Layer_0
  10
12.840105
  20
596.30518
  0
VERTEX
  5
a8
  8
Layer_0
  10
13.788671
  20
596.79095
  0
VERTEX
  5
a9
  8
Layer_0
  10
14.763152
  20
597.23145
  0
VERTEX
  5
aa
  8
Layer_0
  10
15.762166
  20
597.62531
  0
VERTEX
  5
ab
  8
Layer_0
  10
16.78433
  20
597.97113
  0
VERTEX
  5
ac
  8
Layer_0
  10
17.828266
  20
598.26752
  0
VERTEX
  5
ad
  8
Layer_0
  10
18.892586
  20
598.51312
  0
VERTEX
  5
ae
  8
Layer_0
  10
19.97591
  20
598.70654
  0
VERTEX
  5
af
  8
Layer_0
  10
21.076855
  20
598.84644
  0
VERTEX
  5
b0
  8
Layer_0
  10
22.194042
  20
598.93134
  0
VERTEX
  5
b1
  8
Layer_0
  10
23.326086
  20
598.95996
  0
VERTEX
  5
b2
  8
Layer_0
  10
24.45813
  20
598.93127
  0
VERTEX
  5
b3
  8
Layer_0
  10
25.575312
  20
598.84631
  0
VERTEX
  5
b4
  8
Layer_0
  10
26.676254
  20
598.70642
  0
VERTEX
  5
b5
  8
Layer_0
  10
27.759569
  20
598.51294
  0
VERTEX
  5
b6
  8
Layer_0
  10
28.823879
  20
598.26727
  0
VERTEX
  5
b7
  8
Layer_0
  10
29.8678
  20
597.97089
  0
VERTEX
  5
b8
  8
Layer_0
  10
30.889952
  20
597.625
  0
VERTEX
  5
b9
  8
Layer_0
  10
31.888948
  20
597.23114
  0
VERTEX
  5
ba
  8
Layer_0
  10
32.863411
  20
596.79059
  0
VERTEX
  5
bb
  8
Layer_0
  10
33.811958
  20
596.30481
  0
VERTEX
  5
bc
  8
Layer_0
  10
34.733204
  20
595.77509
  0
VERTEX
  5
bd
  8
Layer_0
  10
35.625771
  20
595.20294
  0
VERTEX
  5
be
  8
Layer_0
  10
36.488274
  20
594.5896
  0
VERTEX
  5
bf
  8
Layer_0
  10
37.319336
  20
593.93658
  0
VERTEX
  5
c0
  8
Layer_0
  10
38.117569
  20
593.24518
  0
VERTEX
  5
c1
  8
Layer_0
  10
38.881588
  20
592.51685
  0
VERTEX
  5
c2
  8
Layer_0
  10
39.610016
  20
591.75287
  0
VERTEX
  5
c3
  8
Layer_0
  10
40.301476
  20
590.95471
  0
VERTEX
  5
c4
  8
Layer_0
  10
40.954578
  20
590.12372
  0
VERTEX
  5
c5
  8
Layer_0
  10
41.56794
  20
589.26123
  0
VERTEX
  5
c6
  8
Layer_0
  10
42.140182
  20
588.36877
  0
VERTEX
  5
c7
  8
Layer_0
  10
42.669926
  20
587.44757
  0
VERTEX
  5
c8
  8
Layer_0
  10
43.155785
  20
586.49908
  0
VERTEX
  5
c9
  8
Layer_0
  10
43.596375
  20
585.52472
  0
VERTEX
  5
ca
  8
Layer_0
  10
43.990318
  20
584.52576
  0
VERTEX
  5
cb
  8
Layer_0
  10
44.336231
  20
583.50372
  0
VERTEX
  5
cc
  8
Layer_0
  10
44.632729
  20
582.45984
  0
VERTEX
  5
cd
  8
Layer_0
  10
44.878437
  20
581.39563
  0
VERTEX
  5
ce
  8
Layer_0
  10
45.071968
  20
580.31238
  0
VERTEX
  5
cf
  8
Layer_0
  10
45.211937
  20
579.21149
  0
VERTEX
  5
d0
  8
Layer_0
  10
45.296967
  20
578.09442
  0
VERTEX
  5
d1
  8
Layer_0
  10
45.325672
  20
576.96246
  0
VERTEX
  5
d2
  8
Layer_0
  10
45.325672
  20
476.96231
  0
VERTEX
  5
d3
  8
Layer_0
  10
0.98711038
  20
476.96231
  0
SEQEND
  0
POLYLINE
  5
d5
  8
Layer_0
  62
0
  70
1
  66
1
  10
0
  20
0
  30
0
  0
VERTEX
  5
d5
  8
Layer_0
  10
43.325668
  20
521.9624
  0
VERTEX
  5
d6
  8
Layer_0
  10
3.3256106
  20
521.9624
  0
VERTEX
  5
d7
  8
Layer_0
  10
3.3256106
  20
576.96246
  0
VERTEX
  5
d8
  8
Layer_0
  10
3.3519318
  20
577.99146
  0
VERTEX
  5
d9
  8
Layer_0
  10
3.4294405
  20
579.0069
  0
VERTEX
  5
da
  8
Layer_0
  10
3.55688
  20
580.00763
  0
VERTEX
  5
db
  8
Layer_0
  10
3.7329946
  20
580.99231
  0
VERTEX
  5
dc
  8
Layer_0
  10
3.9565279
  20
581.95966
  0
VERTEX
  5
dd
  8
Layer_0
  10
4.2262239
  20
582.90851
  0
VERTEX
  5
de
  8
Layer_0
  10
4.5408268
  20
583.83759
  0
VERTEX
  5
df
  8
Layer_0
  10
4.8990793
  20
584.74554
  0
VERTEX
  5
e0
  8
Layer_0
  10
5.299726
  20
585.63123
  0
VERTEX
  5
e1
  8
Layer_0
  10
5.7415109
  20
586.49335
  0
VERTEX
  5
e2
  8
Layer_0
  10
6.223177
  20
587.33069
  0
VERTEX
  5
e3
  8
Layer_0
  10
6.7434692
  20
588.14191
  0
VERTEX
  5
e4
  8
Layer_0
  10
7.3011303
  20
588.92578
  0
VERTEX
  5
e5
  8
Layer_0
  10
7.8949051
  20
589.68109
  0
VERTEX
  5
e6
  8
Layer_0
  10
8.5235367
  20
590.40656
  0
VERTEX
  5
e7
  8
Layer_0
  10
9.1857681
  20
591.10095
  0
VERTEX
  5
e8
  8
Layer_0
  10
9.8803444
  20
591.76294
  0
VERTEX
  5
e9
  8
Layer_0
  10
10.606009
  20
592.39136
  0
VERTEX
  5
ea
  8
Layer_0
  10
11.361507
  20
592.98486
  0
VERTEX
  5
eb
  8
Layer_0
  10
12.14558
  20
593.54224
  0
VERTEX
  5
ec
  8
Layer_0
  10
12.956973
  20
594.06232
  0
VERTEX
  5
ed
  8
Layer_0
  10
13.79443
  20
594.5437
  0
VERTEX
  5
ee
  8
Layer_0
  10
14.656694
  20
594.98517
  0
VERTEX
  5
ef
  8
Layer_0
  10
15.542509
  20
595.38556
  0
VERTEX
  5
f0
  8
Layer_0
  10
16.450619
  20
595.74353
  0
VERTEX
  5
f1
  8
Layer_0
  10
17.379768
  20
596.0578
  0
VERTEX
  5
f2
  8
Layer_0
  10
18.328701
  20
596.32721
  0
VERTEX
  5
f3
  8
Layer_0
  10
19.296162
  20
596.55042
  0
VERTEX
  5
f4
  8
Layer_0
  10
20.280891
  20
596.7262
  0
VERTEX
  5
f5
  8
Layer_0
  10
21.281631
  20
596.85333
  0
VERTEX
  5
f6
  8
Layer_0
  10
22.297134
  20
596.93054
  0
VERTEX
  5
f7
  8
Layer_0
  10
23.326138
  20
596.95648
  0
VERTEX
  5
f8
  8
Layer_0
  10
24.355141
  20
596.93048
  0
VERTEX
  5
f9
  8
Layer_0
  10
25.370636
  20
596.85321
  0
VERTEX
  5
fa
  8
Layer_0
  10
26.371372
  20
596.72607
  0
VERTEX
  5
fb
  8
Layer_0
  10
27.356094
  20
596.55023
  0
VERTEX
  5
fc
  8
Layer_0
  10
28.323542
  20
596.32697
  0
VERTEX
  5
fd
  8
Layer_0
  10
29.272461
  20
596.05756
  0
VERTEX
  5
fe
  8
Layer_0
  10
30.201595
  20
595.74316
  0
VERTEX
  5
ff
  8
Layer_0
  10
31.109688
  20
595.38519
  0
VERTEX
  5
100
  8
Layer_0
  10
31.995485
  20
594.9848
  0
VERTEX
  5
101
  8
Layer_0
  10
32.857727
  20
594.54327
  0
VERTEX
  5
102
  8
Layer_0
  10
33.695156
  20
594.06183
  0
VERTEX
  5
103
  8
Layer_0
  10
34.506523
  20
593.54175
  0
VERTEX
  5
104
  8
Layer_0
  10
35.290569
  20
592.98431
  0
VERTEX
  5
105
  8
Layer_0
  10
36.046036
  20
592.39075
  0
VERTEX
  5
106
  8
Layer_0
  10
36.771671
  20
591.76239
  0
VERTEX
  5
107
  8
Layer_0
  10
37.466217
  20
591.10034
  0
VERTEX
  5
108
  8
Layer_0
  10
38.128414
  20
590.40594
  0
VERTEX
  5
109
  8
Layer_0
  10
38.757011
  20
589.68048
  0
VERTEX
  5
10a
  8
Layer_0
  10
39.350746
  20
588.92517
  0
VERTEX
  5
10b
  8
Layer_0
  10
39.908371
  20
588.1413
  0
VERTEX
  5
10c
  8
Layer_0
  10
40.428623
  20
587.33008
  0
VERTEX
  5
10d
  8
Layer_0
  10
40.910248
  20
586.4928
  0
VERTEX
  5
10e
  8
Layer_0
  10
41.351986
  20
585.63074
  0
VERTEX
  5
10f
  8
Layer_0
  10
41.752586
  20
584.74506
  0
VERTEX
  5
110
  8
Layer_0
  10
42.110794
  20
583.8371
  0
VERTEX
  5
111
  8
Layer_0
  10
42.425354
  20
582.90808
  0
VERTEX
  5
112
  8
Layer_0
  10
42.695
  20
581.95929
  0
VERTEX
  5
113
  8
Layer_0
  10
42.918488
  20
580.992
  0
VERTEX
  5
114
  8
Layer_0
  10
43.094551
  20
580.00739
  0
VERTEX
  5
115
  8
Layer_0
  10
43.221939
  20
579.00677
  0
VERTEX
  5
116
  8
Layer_0
  10
43.2994
  20
577.99133
  0
VERTEX
  5
117
  8
Layer_0
  10
43.325668
  20
576.96246
  0
VERTEX
  5
118
  8
Layer_0
  10
43.325668
  20
521.9624
  0
SEQEND
  0
POLYLINE
  5
11a
  8
Layer_0
  62
0
  66
1
  10
0
  20
0
  30
0
  0
VERTEX
  5
11a
  8
Layer_0
  10
0.98711038
  20
476.96231
  0
VERTEX
  5
11b
  8
Layer_0
  10
0.98711038
  20
376.96216
  0
VERTEX
  5
11c
  8
Layer_0
  10
1.0160828
  20
375.83029
  0
VERTEX
  5
11d
  8
Layer_0
  10
1.1013578
  20
374.71332
  0
VERTEX
  5
11e
  8
Layer_0
  10
1.241554
  20
373.61258
  0
VERTEX
  5
11f
  8
Layer_0
  10
1.4352896
  20
372.52948
  0
VERTEX
  5
120
  8
Layer_0
  10
1.6811829
  20
371.46536
  0
VERTEX
  5
121
  8
Layer_0
  10
1.9778521
  20
370.42166
  0
VERTEX
  5
122
  8
Layer_0
  10
2.3239157
  20
369.39975
  0
VERTEX
  5
123
  8
Layer_0
  10
2.7179918
  20
368.40097
  0
VERTEX
  5
124
  8
Layer_0
  10
3.158699
  20
367.42673
  0
VERTEX
  5
125
  8
Layer_0
  10
3.6446552
  20
366.47842
  0
VERTEX
  5
126
  8
Layer_0
  10
4.1744795
  20
365.55743
  0
VERTEX
  5
127
  8
Layer_0
  10
4.746789
  20
364.6651
  0
VERTEX
  5
128
  8
Layer_0
  10
5.3602028
  20
363.80283
  0
VERTEX
  5
129
  8
Layer_0
  10
6.013339
  20
362.97202
  0
VERTEX
  5
12a
  8
Layer_0
  10
6.7048159
  20
362.17404
  0
VERTEX
  5
12b
  8
Layer_0
  10
7.4332523
  20
361.41025
  0
VERTEX
  5
12c
  8
Layer_0
  10
8.1972656
  20
360.68207
  0
VERTEX
  5
12d
  8
Layer_0
  10
8.9954748
  20
359.99081
  0
VERTEX
  5
12e
  8
Layer_0
  10
9.826498
  20
359.33795
  0
VERTEX
  5
12f
  8
Layer_0
  10
10.688953
  20
358.72479
  0
VERTEX
  5
130
  8
Layer_0
  10
11.581459
  20
358.15277
  0
VERTEX
  5
131
  8
Layer_0
  10
12.502634
  20
357.62323
  0
VERTEX
  5
132
  8
Layer_0
  10
13.451096
  20
357.1376
  0
VERTEX
  5
133
  8
Layer_0
  10
14.425463
  20
356.6972
  0
VERTEX
  5
134
  8
Layer_0
  10
15.424355
  20
356.30347
  0
VERTEX
  5
135
  8
Layer_0
  10
16.446388
  20
355.95773
  0
VERTEX
  5
136
  8
Layer_0
  10
17.490183
  20
355.66138
  0
VERTEX
  5
137
  8
Layer_0
  10
18.554356
  20
355.41583
  0
VERTEX
  5
138
  8
Layer_0
  10
19.637526
  20
355.22241
  0
VERTEX
  5
139
  8
Layer_0
  10
20.738308
  20
355.08258
  0
VERTEX
  5
13a
  8
Layer_0
  10
21.855328
  20
354.99768
  0
VERTEX
  5
13b
  8
Layer_0
  10
22.987198
  20
354.96906
  0
VERTEX
  5
13c
  8
Layer_0
  10
24.119068
  20
354.99768
  0
VERTEX
  5
13d
  8
Layer_0
  10
25.236088
  20
355.08261
  0
VERTEX
  5
13e
  8
Layer_0
  10
26.33687
  20
355.22247
  0
VERTEX
  5
13f
  8
Layer_0
  10
27.42004
  20
355.41586
  0
VERTEX
  5
140
  8
Layer_0
  10
28.484213
  20
355.66144
  0
VERTEX
  5
141
  8
Layer_0
  10
29.528004
  20
355.95776
  0
VERTEX
  5
142
  8
Layer_0
  10
30.550037
  20
356.3035
  0
VERTEX
  5
143
  8
Layer_0
  10
31.548925
  20
356.69727
  0
VERTEX
  5
144
  8
Layer_0
  10
32.523293
  20
357.13766
  0
VERTEX
  5
145
  8
Layer_0
  10
33.471752
  20
357.62332
  0
VERTEX
  5
146
  8
Layer_0
  10
34.392925
  20
358.15286
  0
VERTEX
  5
147
  8
Layer_0
  10
35.285427
  20
358.72488
  0
VERTEX
  5
148
  8
Layer_0
  10
36.147877
  20
359.33804
  0
VERTEX
  5
149
  8
Layer_0
  10
36.978897
  20
359.99091
  0
VERTEX
  5
14a
  8
Layer_0
  10
37.777103
  20
360.68213
  0
VERTEX
  5
14b
  8
Layer_0
  10
38.541115
  20
361.41034
  0
VERTEX
  5
14c
  8
Layer_0
  10
39.269547
  20
362.1741
  0
VERTEX
  5
14d
  8
Layer_0
  10
39.961021
  20
362.97211
  0
VERTEX
  5
14e
  8
Layer_0
  10
40.614151
  20
363.80292
  0
VERTEX
  5
14f
  8
Layer_0
  10
41.227562
  20
364.66516
  0
VERTEX
  5
150
  8
Layer_0
  10
41.79987
  20
365.5575
  0
VERTEX
  5
151
  8
Layer_0
  10
42.329689
  20
366.47852
  0
VERTEX
  5
152
  8
Layer_0
  10
42.815639
  20
367.42682
  0
VERTEX
  5
153
  8
Layer_0
  10
43.256336
  20
368.40103
  0
VERTEX
  5
154
  8
Layer_0
  10
43.650402
  20
369.39978
  0
VERTEX
  5
155
  8
Layer_0
  10
43.99646
  20
370.42169
  0
VERTEX
  5
156
  8
Layer_0
  10
44.293129
  20
371.46539
  0
VERTEX
  5
157
  8
Layer_0
  10
44.539017
  20
372.52948
  0
VERTEX
  5
158
  8
Layer_0
  10
44.732746
  20
373.61258
  0
VERTEX
  5
159
  8
Layer_0
  10
44.87294
  20
374.71332
  0
VERTEX
  5
15a
  8
Layer_0
  10
44.958206
  20
375.83029
  0
VERTEX
  5
15b
  8
Layer_0
  10
44.987175
  20
376.96216
  0
VERTEX
  5
15c
  8
Layer_0
  10
44.987175
  20
476.96231
  0
SEQEND
  0
POLYLINE
  5
15e
  8
Layer_0
  62
0
  70
1
  66
1
  10
0
  20
0
  30
0
  0
VERTEX
  5
15e
  8
Layer_0
  10
42.987171
  20
431.96222
  0
VERTEX
  5
15f
  8
Layer_0
  10
2.9871135
  20
431.96222
  0
VERTEX
  5
160
  8
Layer_0
  10
2.9871135
  20
376.96216
  0
VERTEX
  5
161
  8
Layer_0
  10
3.0133717
  20
375.93314
  0
VERTEX
  5
162
  8
Layer_0
  10
3.0908225
  20
374.9176
  0
VERTEX
  5
163
  8
Layer_0
  10
3.2182093
  20
373.91684
  0
VERTEX
  5
164
  8
Layer_0
  10
3.3942759
  20
372.93213
  0
VERTEX
  5
165
  8
Layer_0
  10
3.6177661
  20
371.96466
  0
VERTEX
  5
166
  8
Layer_0
  10
3.8874235
  20
371.01578
  0
VERTEX
  5
167
  8
Layer_0
  10
4.201992
  20
370.08667
  0
VERTEX
  5
168
  8
Layer_0
  10
4.560215
  20
369.17865
  0
VERTEX
  5
169
  8
Layer_0
  10
4.9608364
  20
368.29291
  0
VERTEX
  5
16a
  8
Layer_0
  10
5.4025998
  20
367.43073
  0
VERTEX
  5
16b
  8
Layer_0
  10
5.8842492
  20
366.59338
  0
VERTEX
  5
16c
  8
Layer_0
  10
6.4045281
  20
365.7821
  0
VERTEX
  5
16d
  8
Layer_0
  10
6.9621801
  20
364.99814
  0
VERTEX
  5
16e
  8
Layer_0
  10
7.5559487
  20
364.2428
  0
VERTEX
  5
16f
  8
Layer_0
  10
8.1845779
  20
363.51727
  0
VERTEX
  5
170
  8
Layer_0
  10
8.8468122
  20
362.82288
  0
VERTEX
  5
171
  8
Layer_0
  10
9.5413933
  20
362.16083
  0
VERTEX
  5
172
  8
Layer_0
  10
10.267067
  20
361.53235
  0
VERTEX
  5
173
  8
Layer_0
  10
11.022577
  20
360.93878
  0
VERTEX
  5
174
  8
Layer_0
  10
11.806665
  20
360.38135
  0
VERTEX
  5
175
  8
Layer_0
  10
12.618076
  20
359.86127
  0
VERTEX
  5
176
  8
Layer_0
  10
13.455554
  20
359.37982
  0
VERTEX
  5
177
  8
Layer_0
  10
14.317842
  20
358.93829
  0
VERTEX
  5
178
  8
Layer_0
  10
15.203684
  20
358.5379
  0
VERTEX
  5
179
  8
Layer_0
  10
16.111824
  20
358.17987
  0
VERTEX
  5
17a
  8
Layer_0
  10
17.041004
  20
357.86554
  0
VERTEX
  5
17b
  8
Layer_0
  10
17.989971
  20
357.59613
  0
VERTEX
  5
17c
  8
Layer_0
  10
18.957466
  20
357.37292
  0
VERTEX
  5
17d
  8
Layer_0
  10
19.942234
  20
357.19708
  0
VERTEX
  5
17e
  8
Layer_0
  10
20.943018
  20
357.06998
  0
VERTEX
  5
17f
  8
Layer_0
  10
21.958561
  20
356.9928
  0
VERTEX
  5
180
  8
Layer_0
  10
22.987608
  20
356.9668
  0
VERTEX
  5
181
  8
Layer_0
  10
24.016653
  20
356.99286
  0
VERTEX
  5
182
  8
Layer_0
  10
25.032194
  20
357.0701
  0
VERTEX
  5
183
  8
Layer_0
  10
26.032972
  20
357.19727
  0
VERTEX
  5
184
  8
Layer_0
  10
27.017733
  20
357.37311
  0
VERTEX
  5
185
  8
Layer_0
  10
27.985218
  20
357.59641
  0
VERTEX
  5
186
  8
Layer_0
  10
28.934172
  20
357.86584
  0
VERTEX
  5
187
  8
Layer_0
  10
29.863338
  20
358.18024
  0
VERTEX
  5
188
  8
Layer_0
  10
30.771461
  20
358.53827
  0
VERTEX
  5
189
  8
Layer_0
  10
31.657286
  20
358.93866
  0
VERTEX
  5
18a
  8
Layer_0
  10
32.519554
  20
359.38025
  0
VERTEX
  5
18b
  8
Layer_0
  10
33.35701
  20
359.86169
  0
VERTEX
  5
18c
  8
Layer_0
  10
34.168396
  20
360.38181
  0
VERTEX
  5
18d
  8
Layer_0
  10
34.952457
  20
360.93927
  0
VERTEX
  5
18e
  8
Layer_0
  10
35.707939
  20
361.5329
  0
VERTEX
  5
18f
  8
Layer_0
  10
36.433586
  20
362.16135
  0
VERTEX
  5
190
  8
Layer_0
  10
37.128132
  20
362.82343
  0
VERTEX
  5
191
  8
Layer_0
  10
37.790329
  20
363.51782
  0
VERTEX
  5
192
  8
Layer_0
  10
38.418926
  20
364.24335
  0
VERTEX
  5
193
  8
Layer_0
  10
39.012657
  20
364.99869
  0
VERTEX
  5
194
  8
Layer_0
  10
39.570274
  20
365.78262
  0
VERTEX
  5
195
  8
Layer_0
  10
40.090515
  20
366.59387
  0
VERTEX
  5
196
  8
Layer_0
  10
40.572124
  20
367.43121
  0
VERTEX
  5
197
  8
Layer_0
  10
41.013847
  20
368.2934
  0
VERTEX
  5
198
  8
Layer_0
  10
41.414429
  20
369.17908
  0
VERTEX
  5
199
  8
Layer_0
  10
41.77261
  20
370.0871
  0
VERTEX
  5
19a
  8
Layer_0
  10
42.087135
  20
371.01617
  0
VERTEX
  5
19b
  8
Layer_0
  10
42.35675
  20
371.96503
  0
VERTEX
  5
19c
  8
Layer_0
  10
42.580193
  20
372.9324
  0
VERTEX
  5
19d
  8
Layer_0
  10
42.75621
  20
373.91705
  0
VERTEX
  5
19e
  8
Layer_0
  10
42.883553
  20
374.91776
  0
VERTEX
  5
19f
  8
Layer_0
  10
42.96096
  20
375.9332
  0
VERTEX
  5
1a0
  8
Layer_0
  10
42.987171
  20
376.96216
  0
VERTEX
  5
1a1
  8
Layer_0
  10
42.987171
  20
431.96222
  0
SEQEND
  0
POLYLINE
  5
1a3
  8
Layer_0
  62
0
  66
1
  10
0
  20
0
  30
0
  0
VERTEX
  5
1a3
  8
Layer_0
  10
12.987124
  20
431.96222
  0
VERTEX
  5
1a4
  8
Layer_0
  10
14.015907
  20
431.93567
  0
VERTEX
  5
1a5
  8
Layer_0
  10
15.031167
  20
431.85794
  0
VERTEX
  5
1a6
  8
Layer_0
  10
16.031649
  20
431.73029
  0
VERTEX
  5
1a7
  8
Layer_0
  10
17.016098
  20
431.55402
  0
VERTEX
  5
1a8
  8
Layer_0
  10
17.983261
  20
431.33032
  0
VERTEX
  5
1a9
  8
Layer_0
  10
18.931877
  20
431.06049
  0
VERTEX
  5
1aa
  8
Layer_0
  10
19.860699
  20
430.74576
  0
VERTEX
  5
1ab
  8
Layer_0
  10
20.768467
  20
430.38742
  0
VERTEX
  5
1ac
  8
Layer_0
  10
21.653929
  20
429.98669
  0
VERTEX
  5
1ad
  8
Layer_0
  10
22.515827
  20
429.54483
  0
VERTEX
  5
1ae
  8
Layer_0
  10
23.352909
  20
429.06311
  0
VERTEX
  5
1af
  8
Layer_0
  10
24.163918
  20
428.54282
  0
VERTEX
  5
1b0
  8
Layer_0
  10
24.947598
  20
427.98517
  0
VERTEX
  5
1b1
  8
Layer_0
  10
25.702694
  20
427.39139
  0
VERTEX
  5
1b2
  8
Layer_0
  10
26.427956
  20
426.76279
  0
VERTEX
  5
1b3
  8
Layer_0
  10
27.122124
  20
426.10059
  0
VERTEX
  5
1b4
  8
Layer_0
  10
27.783947
  20
425.40607
  0
VERTEX
  5
1b5
  8
Layer_0
  10
28.412165
  20
424.68048
  0
VERTEX
  5
1b6
  8
Layer_0
  10
29.005527
  20
423.92505
  0
VERTEX
  5
1b7
  8
Layer_0
  10
29.562777
  20
423.14108
  0
VERTEX
  5
1b8
  8
Layer_0
  10
30.082659
  20
422.3298
  0
VERTEX
  5
1b9
  8
Layer_0
  10
30.563919
  20
421.49243
  0
VERTEX
  5
1ba
  8
Layer_0
  10
31.005302
  20
420.63031
  0
VERTEX
  5
1bb
  8
Layer_0
  10
31.405552
  20
419.74463
  0
VERTEX
  5
1bc
  8
Layer_0
  10
31.763416
  20
418.83667
  0
VERTEX
  5
1bd
  8
Layer_0
  10
32.077637
  20
417.90771
  0
VERTEX
  5
1be
  8
Layer_0
  10
32.346962
  20
416.95892
  0
VERTEX
  5
1bf
  8
Layer_0
  10
32.570137
  20
415.99164
  0
VERTEX
  5
1c0
  8
Layer_0
  10
32.745903
  20
415.00711
  0
VERTEX
  5
1c1
  8
Layer_0
  10
32.873009
  20
414.00656
  0
VERTEX
  5
1c2
  8
Layer_0
  10
32.950195
  20
412.99124
  0
VERTEX
  5
1c3
  8
Layer_0
  10
32.976215
  20
411.96246
  0
VERTEX
  5
1c4
  8
Layer_0
  10
32.950226
  20
410.93365
  0
VERTEX
  5
1c5
  8
Layer_0
  10
32.873062
  20
409.91837
  0
VERTEX
  5
1c6
  8
Layer_0
  10
32.745979
  20
408.91782
  0
VERTEX
  5
1c7
  8
Layer_0
  10
32.570236
  20
407.93326
  0
VERTEX
  5
1c8
  8
Layer_0
  10
32.347084
  20
406.96594
  0
VERTEX
  5
1c9
  8
Layer_0
  10
32.077782
  20
406.01721
  0
VERTEX
  5
1ca
  8
Layer_0
  10
31.76358
  20
405.0882
  0
VERTEX
  5
1cb
  8
Layer_0
  10
31.405737
  20
404.18024
  0
VERTEX
  5
1cc
  8
Layer_0
  10
31.005505
  20
403.29456
  0
VERTEX
  5
1cd
  8
Layer_0
  10
30.564138
  20
402.4324
  0
VERTEX
  5
1ce
  8
Layer_0
  10
30.082895
  20
401.59506
  0
VERTEX
  5
1cf
  8
Layer_0
  10
29.563026
  20
400.78375
  0
VERTEX
  5
1d0
  8
Layer_0
  10
29.005787
  20
399.99976
  0
VERTEX
  5
1d1
  8
Layer_0
  10
28.412437
  20
399.24432
  0
VERTEX
  5
1d2
  8
Layer_0
  10
27.784229
  20
398.51874
  0
VERTEX
  5
1d3
  8
Layer_0
  10
27.122414
  20
397.82419
  0
VERTEX
  5
1d4
  8
Layer_0
  10
26.428249
  20
397.16199
  0
VERTEX
  5
1d5
  8
Layer_0
  10
25.702991
  20
396.53333
  0
VERTEX
  5
1d6
  8
Layer_0
  10
24.947891
  20
395.93954
  0
VERTEX
  5
1d7
  8
Layer_0
  10
24.164207
  20
395.38187
  0
VERTEX
  5
1d8
  8
Layer_0
  10
23.353195
  20
394.86154
  0
VERTEX
  5
1d9
  8
Layer_0
  10
22.516104
  20
394.37982
  0
VERTEX
  5
1da
  8
Layer_0
  10
21.654194
  20
393.93793
  0
VERTEX
  5
1db
  8
Layer_0
  10
20.768719
  20
393.5372
  0
VERTEX
  5
1dc
  8
Layer_0
  10
19.860931
  20
393.17883
  0
VERTEX
  5
1dd
  8
Layer_0
  10
18.932089
  20
392.86407
  0
VERTEX
  5
1de
  8
Layer_0
  10
17.983444
  20
392.59424
  0
VERTEX
  5
1df
  8
Layer_0
  10
17.016254
  20
392.37051
  0
VERTEX
  5
1e0
  8
Layer_0
  10
16.031773
  20
392.19421
  0
VERTEX
  5
1e1
  8
Layer_0
  10
15.031253
  20
392.06653
  0
VERTEX
  5
1e2
  8
Layer_0
  10
14.015953
  20
391.98877
  0
VERTEX
  5
1e3
  8
Layer_0
  10
12.987124
  20
391.96219
  0
VERTEX
  5
1e4
  8
Layer_0
  10
42.987171
  20
391.96219
  0
SEQEND
  0
ENDSEC
  0
EOF
