  0
SECTION
  2
HEADER
  9
$ACADVER
  1
AC1009
  9
$EXTMIN
 10
0.0
 20
0.0
 30
0.0
  9
$EXTMAX
 10
1000.0
 20
1000.0
 30
0.0
  9
$FILLMODE
 70
 0
  9
$SPLFRAME
 70
 1
  0
ENDSEC
  0
SECTION
  2
TABLES
  0
TABLE
  2
LAYER
 70
1
  0
LAYER
  2
0
 70
     0
 62
     7
  6
CONTINUOUS
  0
ENDTAB
  0
ENDSEC
  0
SECTION
  2
ENTITIES
  0
POLYLINE
  8
0
 62
     0
 66
     1
 10
0
 20
0
 30
0.0
 40
24
 41
24
  0
VERTEX
  8
0
 10
0.505154
 20
122.18
 30
0.0
 40
0.333333
 41
0.333333
  0
VERTEX
  8
0
 10
0.505154
 20
222.181
 30
0.0
 40
0.333333
 41
0.333333
  0
VERTEX
  8
0
 10
0.505154
 20
222.364
 30
0.0
 40
0.333333
 41
0.333333
  0
VERTEX
  8
0
 10
0.517361
 20
222.915
 30
0.0
 40
0.333333
 41
0.333333
  0
VERTEX
  8
0
 10
0.553874
 20
223.647
 30
0.0
 40
0.333333
 41
0.333333
  0
VERTEX
  8
0
 10
0.614367
 20
224.374
 30
0.0
 40
0.333333
 41
0.333333
  0
VERTEX
  8
0
 10
0.698622
 20
225.094
 30
0.0
 40
0.333333
 41
0.333333
  0
VERTEX
  8
0
 10
0.806207
 20
225.811
 30
0.0
 40
0.333333
 41
0.333333
  0
VERTEX
  8
0
 10
0.936957
 20
226.521
 30
0.0
 40
0.333333
 41
0.333333
  0
VERTEX
  8
0
 10
1.09055
 20
227.224
 30
0.0
 40
0.333333
 41
0.333333
  0
VERTEX
  8
0
 10
1.26666
 20
227.921
 30
0.0
 40
0.333333
 41
0.333333
  0
VERTEX
  8
0
 10
1.46506
 20
228.61
 30
0.0
 40
0.333333
 41
0.333333
  0
VERTEX
  8
0
 10
1.68539
 20
229.29
 30
0.0
 40
0.333333
 41
0.333333
  0
VERTEX
  8
0
 10
1.9274
 20
229.964
 30
0.0
 40
0.333333
 41
0.333333
  0
VERTEX
  8
0
 10
2.19081
 20
230.626
 30
0.0
 40
0.333333
 41
0.333333
  0
VERTEX
  8
0
 10
2.47538
 20
231.281
 30
0.0
 40
0.333333
 41
0.333333
  0
VERTEX
  8
0
 10
2.78065
 20
231.925
 30
0.0
 40
0.333333
 41
0.333333
  0
VERTEX
  8
0
 10
3.1065
 20
232.558
 30
0.0
 40
0.333333
 41
0.333333
  0
VERTEX
  8
0
 10
3.45258
 20
233.181
 30
0.0
 40
0.333333
 41
0.333333
  0
VERTEX
  8
0
 10
3.81858
 20
233.792
 30
0.0
 40
0.333333
 41
0.333333
  0
VERTEX
  8
0
 10
4.20426
 20
234.39
 30
0.0
 40
0.333333
 41
0.333333
  0
VERTEX
  8
0
 10
4.60932
 20
234.976
 30
0.0
 40
0.333333
 41
0.333333
  0
VERTEX
  8
0
 10
5.03342
 20
235.55
 30
0.0
 40
0.333333
 41
0.333333
  0
VERTEX
  8
0
 10
5.47629
 20
236.11
 30
0.0
 40
0.333333
 41
0.333333
  0
VERTEX
  8
0
 10
5.93767
 20
236.656
 30
0.0
 40
0.333333
 41
0.333333
  0
VERTEX
  8
0
 10
6.41726
 20
237.188
 30
0.0
 40
0.333333
 41
0.333333
  0
VERTEX
  8
0
 10
6.91476
 20
237.704
 30
0.0
 40
0.333333
 41
0.333333
  0
VERTEX
  8
0
 10
7.4299
 20
238.204
 30
0.0
 40
0.333333
 41
0.333333
  0
VERTEX
  8
0
 10
7.9624
 20
238.689
 30
0.0
 40
0.333333
 41
0.333333
  0
VERTEX
  8
0
 10
8.51193
 20
239.157
 30
0.0
 40
0.333333
 41
0.333333
  0
VERTEX
  8
0
 10
9.07824
 20
239.608
 30
0.0
 40
0.333333
 41
0.333333
  0
VERTEX
  8
0
 10
9.66097
 20
240.042
 30
0.0
 40
0.333333
 41
0.333333
  0
VERTEX
  8
0
 10
10.2599
 20
240.458
 30
0.0
 40
0.333333
 41
0.333333
  0
VERTEX
  8
0
 10
10.8747
 20
240.856
 30
0.0
 40
0.333333
 41
0.333333
  0
VERTEX
  8
0
 10
11.346
 20
241.142
 30
0.0
 40
0.333333
 41
0.333333
  0
VERTEX
  8
0
 10
11.5052
 20
241.233
 30
0.0
 40
0.333333
 41
0.333333
  0
VERTEX
  8
0
 10
11.6643
 20
241.325
 30
0.0
 40
0.333333
 41
0.333333
  0
VERTEX
  8
0
 10
12.1478
 20
241.59
 30
0.0
 40
0.333333
 41
0.333333
  0
VERTEX
  8
0
 10
12.7992
 20
241.924
 30
0.0
 40
0.333333
 41
0.333333
  0
VERTEX
  8
0
 10
13.4587
 20
242.235
 30
0.0
 40
0.333333
 41
0.333333
  0
VERTEX
  8
0
 10
14.1256
 20
242.522
 30
0.0
 40
0.333333
 41
0.333333
  0
VERTEX
  8
0
 10
14.7996
 20
242.787
 30
0.0
 40
0.333333
 41
0.333333
  0
VERTEX
  8
0
 10
15.4797
 20
243.029
 30
0.0
 40
0.333333
 41
0.333333
  0
VERTEX
  8
0
 10
16.1658
 20
243.249
 30
0.0
 40
0.333333
 41
0.333333
  0
VERTEX
  8
0
 10
16.8571
 20
243.443
 30
0.0
 40
0.333333
 41
0.333333
  0
VERTEX
  8
0
 10
17.5531
 20
243.617
 30
0.0
 40
0.333333
 41
0.333333
  0
VERTEX
  8
0
 10
18.2529
 20
243.767
 30
0.0
 40
0.333333
 41
0.333333
  0
VERTEX
  8
0
 10
18.9564
 20
243.893
 30
0.0
 40
0.333333
 41
0.333333
  0
VERTEX
  8
0
 10
19.6626
 20
243.996
 30
0.0
 40
0.333333
 41
0.333333
  0
VERTEX
  8
0
 10
20.3712
 20
244.076
 30
0.0
 40
0.333333
 41
0.333333
  0
VERTEX
  8
0
 10
21.0817
 20
244.135
 30
0.0
 40
0.333333
 41
0.333333
  0
VERTEX
  8
0
 10
21.7931
 20
244.169
 30
0.0
 40
0.333333
 41
0.333333
  0
VERTEX
  8
0
 10
22.5053
 20
244.181
 30
0.0
 40
0.333333
 41
0.333333
  0
VERTEX
  8
0
 10
23.2172
 20
244.169
 30
0.0
 40
0.333333
 41
0.333333
  0
VERTEX
  8
0
 10
23.9288
 20
244.135
 30
0.0
 40
0.333333
 41
0.333333
  0
VERTEX
  8
0
 10
24.6392
 20
244.076
 30
0.0
 40
0.333333
 41
0.333333
  0
VERTEX
  8
0
 10
25.3478
 20
243.996
 30
0.0
 40
0.333333
 41
0.333333
  0
VERTEX
  8
0
 10
26.054
 20
243.893
 30
0.0
 40
0.333333
 41
0.333333
  0
VERTEX
  8
0
 10
26.7575
 20
243.767
 30
0.0
 40
0.333333
 41
0.333333
  0
VERTEX
  8
0
 10
27.4574
 20
243.617
 30
0.0
 40
0.333333
 41
0.333333
  0
VERTEX
  8
0
 10
28.1533
 20
243.443
 30
0.0
 40
0.333333
 41
0.333333
  0
VERTEX
  8
0
 10
28.8444
 20
243.249
 30
0.0
 40
0.333333
 41
0.333333
  0
VERTEX
  8
0
 10
29.5306
 20
243.029
 30
0.0
 40
0.333333
 41
0.333333
  0
VERTEX
  8
0
 10
30.2108
 20
242.787
 30
0.0
 40
0.333333
 41
0.333333
  0
VERTEX
  8
0
 10
30.8847
 20
242.522
 30
0.0
 40
0.333333
 41
0.333333
  0
VERTEX
  8
0
 10
31.5517
 20
242.235
 30
0.0
 40
0.333333
 41
0.333333
  0
VERTEX
  8
0
 10
32.2111
 20
241.924
 30
0.0
 40
0.333333
 41
0.333333
  0
VERTEX
  8
0
 10
32.8625
 20
241.59
 30
0.0
 40
0.333333
 41
0.333333
  0
VERTEX
  8
0
 10
33.346
 20
241.325
 30
0.0
 40
0.333333
 41
0.333333
  0
VERTEX
  8
0
 10
33.5053
 20
241.233
 30
0.0
 40
0.333333
 41
0.333333
  0
VERTEX
  8
0
 10
33.6643
 20
241.142
 30
0.0
 40
0.333333
 41
0.333333
  0
VERTEX
  8
0
 10
34.1357
 20
240.856
 30
0.0
 40
0.333333
 41
0.333333
  0
VERTEX
  8
0
 10
34.7504
 20
240.458
 30
0.0
 40
0.333333
 41
0.333333
  0
VERTEX
  8
0
 10
35.3494
 20
240.042
 30
0.0
 40
0.333333
 41
0.333333
  0
VERTEX
  8
0
 10
35.9321
 20
239.608
 30
0.0
 40
0.333333
 41
0.333333
  0
VERTEX
  8
0
 10
36.4985
 20
239.157
 30
0.0
 40
0.333333
 41
0.333333
  0
VERTEX
  8
0
 10
37.0479
 20
238.689
 30
0.0
 40
0.333333
 41
0.333333
  0
VERTEX
  8
0
 10
37.5804
 20
238.204
 30
0.0
 40
0.333333
 41
0.333333
  0
VERTEX
  8
0
 10
38.0956
 20
237.704
 30
0.0
 40
0.333333
 41
0.333333
  0
VERTEX
  8
0
 10
38.5931
 20
237.188
 30
0.0
 40
0.333333
 41
0.333333
  0
VERTEX
  8
0
 10
39.0726
 20
236.656
 30
0.0
 40
0.333333
 41
0.333333
  0
VERTEX
  8
0
 10
39.534
 20
236.11
 30
0.0
 40
0.333333
 41
0.333333
  0
VERTEX
  8
0
 10
39.9769
 20
235.55
 30
0.0
 40
0.333333
 41
0.333333
  0
VERTEX
  8
0
 10
40.4011
 20
234.976
 30
0.0
 40
0.333333
 41
0.333333
  0
VERTEX
  8
0
 10
40.8061
 20
234.39
 30
0.0
 40
0.333333
 41
0.333333
  0
VERTEX
  8
0
 10
41.1917
 20
233.792
 30
0.0
 40
0.333333
 41
0.333333
  0
VERTEX
  8
0
 10
41.5578
 20
233.181
 30
0.0
 40
0.333333
 41
0.333333
  0
VERTEX
  8
0
 10
41.9038
 20
232.558
 30
0.0
 40
0.333333
 41
0.333333
  0
VERTEX
  8
0
 10
42.2297
 20
231.925
 30
0.0
 40
0.333333
 41
0.333333
  0
VERTEX
  8
0
 10
42.535
 20
231.281
 30
0.0
 40
0.333333
 41
0.333333
  0
VERTEX
  8
0
 10
42.8194
 20
230.626
 30
0.0
 40
0.333333
 41
0.333333
  0
VERTEX
  8
0
 10
43.0829
 20
229.964
 30
0.0
 40
0.333333
 41
0.333333
  0
VERTEX
  8
0
 10
43.3249
 20
229.29
 30
0.0
 40
0.333333
 41
0.333333
  0
VERTEX
  8
0
 10
43.5453
 20
228.61
 30
0.0
 40
0.333333
 41
0.333333
  0
VERTEX
  8
0
 10
43.7436
 20
227.921
 30
0.0
 40
0.333333
 41
0.333333
  0
VERTEX
  8
0
 10
43.9197
 20
227.224
 30
0.0
 40
0.333333
 41
0.333333
  0
VERTEX
  8
0
 10
44.0733
 20
226.521
 30
0.0
 40
0.333333
 41
0.333333
  0
VERTEX
  8
0
 10
44.2042
 20
225.811
 30
0.0
 40
0.333333
 41
0.333333
  0
VERTEX
  8
0
 10
44.3117
 20
225.094
 30
0.0
 40
0.333333
 41
0.333333
  0
VERTEX
  8
0
 10
44.396
 20
224.374
 30
0.0
 40
0.333333
 41
0.333333
  0
VERTEX
  8
0
 10
44.4564
 20
223.647
 30
0.0
 40
0.333333
 41
0.333333
  0
VERTEX
  8
0
 10
44.4929
 20
222.915
 30
0.0
 40
0.333333
 41
0.333333
  0
VERTEX
  8
0
 10
44.5053
 20
222.364
 30
0.0
 40
0.333333
 41
0.333333
  0
VERTEX
  8
0
 10
44.5053
 20
222.181
 30
0.0
 40
0.333333
 41
0.333333
  0
VERTEX
  8
0
 10
44.5053
 20
122.18
 30
0.0
 40
0.333333
 41
0.333333
  0
VERTEX
  8
0
 10
0.166667
 20
122.18
 30
0.0
 40
0.333333
 41
0.333333
  0
SEQEND
 8
0
  0
POLYLINE
  8
0
 62
     0
 66
     1
 10
0
 20
0
 30
0.0
 70
     1
 40
24
 41
24
  0
VERTEX
  8
0
 10
42.5053
 20
167.181
 30
0.0
 40
0.333333
 41
0.333333
  0
VERTEX
  8
0
 10
2.50515
 20
167.181
 30
0.0
 40
0.333333
 41
0.333333
  0
VERTEX
  8
0
 10
2.50515
 20
222.181
 30
0.0
 40
0.333333
 41
0.333333
  0
VERTEX
  8
0
 10
2.50515
 20
222.347
 30
0.0
 40
0.333333
 41
0.333333
  0
VERTEX
  8
0
 10
2.51628
 20
222.849
 30
0.0
 40
0.333333
 41
0.333333
  0
VERTEX
  8
0
 10
2.54943
 20
223.514
 30
0.0
 40
0.333333
 41
0.333333
  0
VERTEX
  8
0
 10
2.60444
 20
224.174
 30
0.0
 40
0.333333
 41
0.333333
  0
VERTEX
  8
0
 10
2.68099
 20
224.829
 30
0.0
 40
0.333333
 41
0.333333
  0
VERTEX
  8
0
 10
2.77886
 20
225.481
 30
0.0
 40
0.333333
 41
0.333333
  0
VERTEX
  8
0
 10
2.89774
 20
226.126
 30
0.0
 40
0.333333
 41
0.333333
  0
VERTEX
  8
0
 10
3.03733
 20
226.765
 30
0.0
 40
0.333333
 41
0.333333
  0
VERTEX
  8
0
 10
3.19743
 20
227.399
 30
0.0
 40
0.333333
 41
0.333333
  0
VERTEX
  8
0
 10
3.37776
 20
228.025
 30
0.0
 40
0.333333
 41
0.333333
  0
VERTEX
  8
0
 10
3.57813
 20
228.644
 30
0.0
 40
0.333333
 41
0.333333
  0
VERTEX
  8
0
 10
3.79812
 20
229.256
 30
0.0
 40
0.333333
 41
0.333333
  0
VERTEX
  8
0
 10
4.0376
 20
229.858
 30
0.0
 40
0.333333
 41
0.333333
  0
VERTEX
  8
0
 10
4.29622
 20
230.453
 30
0.0
 40
0.333333
 41
0.333333
  0
VERTEX
  8
0
 10
4.57379
 20
231.039
 30
0.0
 40
0.333333
 41
0.333333
  0
VERTEX
  8
0
 10
4.87001
 20
231.615
 30
0.0
 40
0.333333
 41
0.333333
  0
VERTEX
  8
0
 10
5.18463
 20
232.181
 30
0.0
 40
0.333333
 41
0.333333
  0
VERTEX
  8
0
 10
5.51736
 20
232.736
 30
0.0
 40
0.333333
 41
0.333333
  0
VERTEX
  8
0
 10
5.868
 20
233.281
 30
0.0
 40
0.333333
 41
0.333333
  0
VERTEX
  8
0
 10
6.23622
 20
233.814
 30
0.0
 40
0.333333
 41
0.333333
  0
VERTEX
  8
0
 10
6.62175
 20
234.335
 30
0.0
 40
0.333333
 41
0.333333
  0
VERTEX
  8
0
 10
7.02436
 20
234.844
 30
0.0
 40
0.333333
 41
0.333333
  0
VERTEX
  8
0
 10
7.44379
 20
235.34
 30
0.0
 40
0.333333
 41
0.333333
  0
VERTEX
  8
0
 10
7.87983
 20
235.824
 30
0.0
 40
0.333333
 41
0.333333
  0
VERTEX
  8
0
 10
8.33208
 20
236.293
 30
0.0
 40
0.333333
 41
0.333333
  0
VERTEX
  8
0
 10
8.8004
 20
236.747
 30
0.0
 40
0.333333
 41
0.333333
  0
VERTEX
  8
0
 10
9.28444
 20
237.189
 30
0.0
 40
0.333333
 41
0.333333
  0
VERTEX
  8
0
 10
9.78401
 20
237.614
 30
0.0
 40
0.333333
 41
0.333333
  0
VERTEX
  8
0
 10
10.2988
 20
238.024
 30
0.0
 40
0.333333
 41
0.333333
  0
VERTEX
  8
0
 10
10.8286
 20
238.418
 30
0.0
 40
0.333333
 41
0.333333
  0
VERTEX
  8
0
 10
11.3731
 20
238.796
 30
0.0
 40
0.333333
 41
0.333333
  0
VERTEX
  8
0
 10
11.9321
 20
239.157
 30
0.0
 40
0.333333
 41
0.333333
  0
VERTEX
  8
0
 10
12.3605
 20
239.418
 30
0.0
 40
0.333333
 41
0.333333
  0
VERTEX
  8
0
 10
12.5052
 20
239.501
 30
0.0
 40
0.333333
 41
0.333333
  0
VERTEX
  8
0
 10
12.6498
 20
239.585
 30
0.0
 40
0.333333
 41
0.333333
  0
VERTEX
  8
0
 10
13.0894
 20
239.825
 30
0.0
 40
0.333333
 41
0.333333
  0
VERTEX
  8
0
 10
13.6815
 20
240.129
 30
0.0
 40
0.333333
 41
0.333333
  0
VERTEX
  8
0
 10
14.281
 20
240.411
 30
0.0
 40
0.333333
 41
0.333333
  0
VERTEX
  8
0
 10
14.8874
 20
240.674
 30
0.0
 40
0.333333
 41
0.333333
  0
VERTEX
  8
0
 10
15.5
 20
240.914
 30
0.0
 40
0.333333
 41
0.333333
  0
VERTEX
  8
0
 10
16.1185
 20
241.133
 30
0.0
 40
0.333333
 41
0.333333
  0
VERTEX
  8
0
 10
16.7421
 20
241.333
 30
0.0
 40
0.333333
 41
0.333333
  0
VERTEX
  8
0
 10
17.3706
 20
241.511
 30
0.0
 40
0.333333
 41
0.333333
  0
VERTEX
  8
0
 10
18.0032
 20
241.668
 30
0.0
 40
0.333333
 41
0.333333
  0
VERTEX
  8
0
 10
18.6394
 20
241.804
 30
0.0
 40
0.333333
 41
0.333333
  0
VERTEX
  8
0
 10
19.2789
 20
241.919
 30
0.0
 40
0.333333
 41
0.333333
  0
VERTEX
  8
0
 10
19.921
 20
242.013
 30
0.0
 40
0.333333
 41
0.333333
  0
VERTEX
  8
0
 10
20.5653
 20
242.086
 30
0.0
 40
0.333333
 41
0.333333
  0
VERTEX
  8
0
 10
21.211
 20
242.139
 30
0.0
 40
0.333333
 41
0.333333
  0
VERTEX
  8
0
 10
21.8578
 20
242.171
 30
0.0
 40
0.333333
 41
0.333333
  0
VERTEX
  8
0
 10
22.5051
 20
242.181
 30
0.0
 40
0.333333
 41
0.333333
  0
VERTEX
  8
0
 10
23.1525
 20
242.171
 30
0.0
 40
0.333333
 41
0.333333
  0
VERTEX
  8
0
 10
23.7993
 20
242.139
 30
0.0
 40
0.333333
 41
0.333333
  0
VERTEX
  8
0
 10
24.4451
 20
242.086
 30
0.0
 40
0.333333
 41
0.333333
  0
VERTEX
  8
0
 10
25.0893
 20
242.013
 30
0.0
 40
0.333333
 41
0.333333
  0
VERTEX
  8
0
 10
25.7314
 20
241.919
 30
0.0
 40
0.333333
 41
0.333333
  0
VERTEX
  8
0
 10
26.3708
 20
241.804
 30
0.0
 40
0.333333
 41
0.333333
  0
VERTEX
  8
0
 10
27.0072
 20
241.668
 30
0.0
 40
0.333333
 41
0.333333
  0
VERTEX
  8
0
 10
27.6399
 20
241.511
 30
0.0
 40
0.333333
 41
0.333333
  0
VERTEX
  8
0
 10
28.2682
 20
241.333
 30
0.0
 40
0.333333
 41
0.333333
  0
VERTEX
  8
0
 10
28.8918
 20
241.133
 30
0.0
 40
0.333333
 41
0.333333
  0
VERTEX
  8
0
 10
29.5103
 20
240.914
 30
0.0
 40
0.333333
 41
0.333333
  0
VERTEX
  8
0
 10
30.1229
 20
240.674
 30
0.0
 40
0.333333
 41
0.333333
  0
VERTEX
  8
0
 10
30.7293
 20
240.411
 30
0.0
 40
0.333333
 41
0.333333
  0
VERTEX
  8
0
 10
31.3287
 20
240.129
 30
0.0
 40
0.333333
 41
0.333333
  0
VERTEX
  8
0
 10
31.921
 20
239.825
 30
0.0
 40
0.333333
 41
0.333333
  0
VERTEX
  8
0
 10
32.3606
 20
239.585
 30
0.0
 40
0.333333
 41
0.333333
  0
VERTEX
  8
0
 10
32.5053
 20
239.501
 30
0.0
 40
0.333333
 41
0.333333
  0
VERTEX
  8
0
 10
32.6499
 20
239.418
 30
0.0
 40
0.333333
 41
0.333333
  0
VERTEX
  8
0
 10
33.0783
 20
239.157
 30
0.0
 40
0.333333
 41
0.333333
  0
VERTEX
  8
0
 10
33.6372
 20
238.796
 30
0.0
 40
0.333333
 41
0.333333
  0
VERTEX
  8
0
 10
34.1818
 20
238.418
 30
0.0
 40
0.333333
 41
0.333333
  0
VERTEX
  8
0
 10
34.7115
 20
238.024
 30
0.0
 40
0.333333
 41
0.333333
  0
VERTEX
  8
0
 10
35.2264
 20
237.614
 30
0.0
 40
0.333333
 41
0.333333
  0
VERTEX
  8
0
 10
35.726
 20
237.189
 30
0.0
 40
0.333333
 41
0.333333
  0
VERTEX
  8
0
 10
36.21
 20
236.747
 30
0.0
 40
0.333333
 41
0.333333
  0
VERTEX
  8
0
 10
36.6783
 20
236.293
 30
0.0
 40
0.333333
 41
0.333333
  0
VERTEX
  8
0
 10
37.1306
 20
235.824
 30
0.0
 40
0.333333
 41
0.333333
  0
VERTEX
  8
0
 10
37.5665
 20
235.34
 30
0.0
 40
0.333333
 41
0.333333
  0
VERTEX
  8
0
 10
37.986
 20
234.844
 30
0.0
 40
0.333333
 41
0.333333
  0
VERTEX
  8
0
 10
38.3886
 20
234.335
 30
0.0
 40
0.333333
 41
0.333333
  0
VERTEX
  8
0
 10
38.7742
 20
233.814
 30
0.0
 40
0.333333
 41
0.333333
  0
VERTEX
  8
0
 10
39.1424
 20
233.281
 30
0.0
 40
0.333333
 41
0.333333
  0
VERTEX
  8
0
 10
39.4929
 20
232.736
 30
0.0
 40
0.333333
 41
0.333333
  0
VERTEX
  8
0
 10
39.8257
 20
232.181
 30
0.0
 40
0.333333
 41
0.333333
  0
VERTEX
  8
0
 10
40.1403
 20
231.615
 30
0.0
 40
0.333333
 41
0.333333
  0
VERTEX
  8
0
 10
40.4365
 20
231.039
 30
0.0
 40
0.333333
 41
0.333333
  0
VERTEX
  8
0
 10
40.714
 20
230.453
 30
0.0
 40
0.333333
 41
0.333333
  0
VERTEX
  8
0
 10
40.9728
 20
229.858
 30
0.0
 40
0.333333
 41
0.333333
  0
VERTEX
  8
0
 10
41.2122
 20
229.256
 30
0.0
 40
0.333333
 41
0.333333
  0
VERTEX
  8
0
 10
41.4322
 20
228.644
 30
0.0
 40
0.333333
 41
0.333333
  0
VERTEX
  8
0
 10
41.6325
 20
228.025
 30
0.0
 40
0.333333
 41
0.333333
  0
VERTEX
  8
0
 10
41.8129
 20
227.399
 30
0.0
 40
0.333333
 41
0.333333
  0
VERTEX
  8
0
 10
41.9729
 20
226.765
 30
0.0
 40
0.333333
 41
0.333333
  0
VERTEX
  8
0
 10
42.1126
 20
226.126
 30
0.0
 40
0.333333
 41
0.333333
  0
VERTEX
  8
0
 10
42.2314
 20
225.481
 30
0.0
 40
0.333333
 41
0.333333
  0
VERTEX
  8
0
 10
42.3293
 20
224.829
 30
0.0
 40
0.333333
 41
0.333333
  0
VERTEX
  8
0
 10
42.4058
 20
224.174
 30
0.0
 40
0.333333
 41
0.333333
  0
VERTEX
  8
0
 10
42.4608
 20
223.514
 30
0.0
 40
0.333333
 41
0.333333
  0
VERTEX
  8
0
 10
42.494
 20
222.849
 30
0.0
 40
0.333333
 41
0.333333
  0
VERTEX
  8
0
 10
42.5053
 20
222.347
 30
0.0
 40
0.333333
 41
0.333333
  0
VERTEX
  8
0
 10
42.5053
 20
222.181
 30
0.0
 40
0.333333
 41
0.333333
  0
VERTEX
  8
0
 10
42.5053
 20
167.181
 30
0.0
 40
0.333333
 41
0.333333
  0
SEQEND
 8
0
  0
POLYLINE
  8
0
 62
     0
 66
     1
 10
0
 20
0
 30
0.0
 40
24
 41
24
  0
VERTEX
  8
0
 10
0.166667
 20
122.18
 30
0.0
 40
0.333333
 41
0.333333
  0
VERTEX
  8
0
 10
0.166667
 20
22.1803
 30
0.0
 40
0.333333
 41
0.333333
  0
VERTEX
  8
0
 10
0.166667
 20
21.9965
 30
0.0
 40
0.333333
 41
0.333333
  0
VERTEX
  8
0
 10
0.178874
 20
21.4451
 30
0.0
 40
0.333333
 41
0.333333
  0
VERTEX
  8
0
 10
0.215386
 20
20.7142
 30
0.0
 40
0.333333
 41
0.333333
  0
VERTEX
  8
0
 10
0.275879
 20
19.9876
 30
0.0
 40
0.333333
 41
0.333333
  0
VERTEX
  8
0
 10
0.360135
 20
19.2661
 30
0.0
 40
0.333333
 41
0.333333
  0
VERTEX
  8
0
 10
0.467719
 20
18.5501
 30
0.0
 40
0.333333
 41
0.333333
  0
VERTEX
  8
0
 10
0.598469
 20
17.8401
 30
0.0
 40
0.333333
 41
0.333333
  0
VERTEX
  8
0
 10
0.752061
 20
17.1365
 30
0.0
 40
0.333333
 41
0.333333
  0
VERTEX
  8
0
 10
0.928168
 20
16.44
 30
0.0
 40
0.333333
 41
0.333333
  0
VERTEX
  8
0
 10
1.12657
 20
15.751
 30
0.0
 40
0.333333
 41
0.333333
  0
VERTEX
  8
0
 10
1.3469
 20
15.07
 30
0.0
 40
0.333333
 41
0.333333
  0
VERTEX
  8
0
 10
1.58892
 20
14.3976
 30
0.0
 40
0.333333
 41
0.333333
  0
VERTEX
  8
0
 10
1.85232
 20
13.7341
 30
0.0
 40
0.333333
 41
0.333333
  0
VERTEX
  8
0
 10
2.13687
 20
13.0801
 30
0.0
 40
0.333333
 41
0.333333
  0
VERTEX
  8
0
 10
2.44217
 20
12.4361
 30
0.0
 40
0.333333
 41
0.333333
  0
VERTEX
  8
0
 10
2.76801
 20
11.8027
 30
0.0
 40
0.333333
 41
0.333333
  0
VERTEX
  8
0
 10
3.1141
 20
11.1802
 30
0.0
 40
0.333333
 41
0.333333
  0
VERTEX
  8
0
 10
3.48008
 20
10.5693
 30
0.0
 40
0.333333
 41
0.333333
  0
VERTEX
  8
0
 10
3.86578
 20
9.97038
 30
0.0
 40
0.333333
 41
0.333333
  0
VERTEX
  8
0
 10
4.27078
 20
9.384
 30
0.0
 40
0.333333
 41
0.333333
  0
VERTEX
  8
0
 10
4.69488
 20
8.8106
 30
0.0
 40
0.333333
 41
0.333333
  0
VERTEX
  8
0
 10
5.13781
 20
8.25076
 30
0.0
 40
0.333333
 41
0.333333
  0
VERTEX
  8
0
 10
5.59918
 20
7.70492
 30
0.0
 40
0.333333
 41
0.333333
  0
VERTEX
  8
0
 10
6.07878
 20
7.17361
 30
0.0
 40
0.333333
 41
0.333333
  0
VERTEX
  8
0
 10
6.57628
 20
6.65728
 30
0.0
 40
0.333333
 41
0.333333
  0
VERTEX
  8
0
 10
7.09142
 20
6.15653
 30
0.0
 40
0.333333
 41
0.333333
  0
VERTEX
  8
0
 10
7.62386
 20
5.67176
 30
0.0
 40
0.333333
 41
0.333333
  0
VERTEX
  8
0
 10
8.17339
 20
5.2035
 30
0.0
 40
0.333333
 41
0.333333
  0
VERTEX
  8
0
 10
8.73969
 20
4.75228
 30
0.0
 40
0.333333
 41
0.333333
  0
VERTEX
  8
0
 10
9.32243
 20
4.31858
 30
0.0
 40
0.333333
 41
0.333333
  0
VERTEX
  8
0
 10
9.92139
 20
3.90294
 30
0.0
 40
0.333333
 41
0.333333
  0
VERTEX
  8
0
 10
10.5362
 20
3.50581
 30
0.0
 40
0.333333
 41
0.333333
  0
VERTEX
  8
0
 10
11.0075
 20
3.21957
 30
0.0
 40
0.333333
 41
0.333333
  0
VERTEX
  8
0
 10
11.1667
 20
3.12765
 30
0.0
 40
0.333333
 41
0.333333
  0
VERTEX
  8
0
 10
11.3258
 20
3.03581
 30
0.0
 40
0.333333
 41
0.333333
  0
VERTEX
  8
0
 10
11.8093
 20
2.77078
 30
0.0
 40
0.333333
 41
0.333333
  0
VERTEX
  8
0
 10
12.4607
 20
2.43685
 30
0.0
 40
0.333333
 41
0.333333
  0
VERTEX
  8
0
 10
13.1201
 20
2.12603
 30
0.0
 40
0.333333
 41
0.333333
  0
VERTEX
  8
0
 10
13.7871
 20
1.83817
 30
0.0
 40
0.333333
 41
0.333333
  0
VERTEX
  8
0
 10
14.461
 20
1.57335
 30
0.0
 40
0.333333
 41
0.333333
  0
VERTEX
  8
0
 10
15.1413
 20
1.3316
 30
0.0
 40
0.333333
 41
0.333333
  0
VERTEX
  8
0
 10
15.8274
 20
1.11279
 30
0.0
 40
0.333333
 41
0.333333
  0
VERTEX
  8
0
 10
16.5186
 20
0.917101
 30
0.0
 40
0.333333
 41
0.333333
  0
VERTEX
  8
0
 10
17.2144
 20
0.744358
 30
0.0
 40
0.333333
 41
0.333333
  0
VERTEX
  8
0
 10
17.9144
 20
0.594726
 30
0.0
 40
0.333333
 41
0.333333
  0
VERTEX
  8
0
 10
18.6178
 20
0.468044
 30
0.0
 40
0.333333
 41
0.333333
  0
VERTEX
  8
0
 10
19.3242
 20
0.364421
 30
0.0
 40
0.333333
 41
0.333333
  0
VERTEX
  8
0
 10
20.0328
 20
0.283854
 30
0.0
 40
0.333333
 41
0.333333
  0
VERTEX
  8
0
 10
20.7431
 20
0.226292
 30
0.0
 40
0.333333
 41
0.333333
  0
VERTEX
  8
0
 10
21.4546
 20
0.191732
 30
0.0
 40
0.333333
 41
0.333333
  0
VERTEX
  8
0
 10
22.1667
 20
0.180231
 30
0.0
 40
0.333333
 41
0.333333
  0
VERTEX
  8
0
 10
22.8788
 20
0.191732
 30
0.0
 40
0.333333
 41
0.333333
  0
VERTEX
  8
0
 10
23.5903
 20
0.226292
 30
0.0
 40
0.333333
 41
0.333333
  0
VERTEX
  8
0
 10
24.3006
 20
0.283854
 30
0.0
 40
0.333333
 41
0.333333
  0
VERTEX
  8
0
 10
25.0092
 20
0.364421
 30
0.0
 40
0.333333
 41
0.333333
  0
VERTEX
  8
0
 10
25.7156
 20
0.468044
 30
0.0
 40
0.333333
 41
0.333333
  0
VERTEX
  8
0
 10
26.4189
 20
0.594726
 30
0.0
 40
0.333333
 41
0.333333
  0
VERTEX
  8
0
 10
27.1189
 20
0.744358
 30
0.0
 40
0.333333
 41
0.333333
  0
VERTEX
  8
0
 10
27.8147
 20
0.917101
 30
0.0
 40
0.333333
 41
0.333333
  0
VERTEX
  8
0
 10
28.506
 20
1.11279
 30
0.0
 40
0.333333
 41
0.333333
  0
VERTEX
  8
0
 10
29.1921
 20
1.3316
 30
0.0
 40
0.333333
 41
0.333333
  0
VERTEX
  8
0
 10
29.8724
 20
1.57335
 30
0.0
 40
0.333333
 41
0.333333
  0
VERTEX
  8
0
 10
30.5463
 20
1.83817
 30
0.0
 40
0.333333
 41
0.333333
  0
VERTEX
  8
0
 10
31.2132
 20
2.12603
 30
0.0
 40
0.333333
 41
0.333333
  0
VERTEX
  8
0
 10
31.8726
 20
2.43685
 30
0.0
 40
0.333333
 41
0.333333
  0
VERTEX
  8
0
 10
32.524
 20
2.77078
 30
0.0
 40
0.333333
 41
0.333333
  0
VERTEX
  8
0
 10
33.0076
 20
3.03581
 30
0.0
 40
0.333333
 41
0.333333
  0
VERTEX
  8
0
 10
33.1667
 20
3.12765
 30
0.0
 40
0.333333
 41
0.333333
  0
VERTEX
  8
0
 10
33.3258
 20
3.21957
 30
0.0
 40
0.333333
 41
0.333333
  0
VERTEX
  8
0
 10
33.7971
 20
3.50581
 30
0.0
 40
0.333333
 41
0.333333
  0
VERTEX
  8
0
 10
34.4119
 20
3.90294
 30
0.0
 40
0.333333
 41
0.333333
  0
VERTEX
  8
0
 10
35.011
 20
4.31858
 30
0.0
 40
0.333333
 41
0.333333
  0
VERTEX
  8
0
 10
35.5936
 20
4.75228
 30
0.0
 40
0.333333
 41
0.333333
  0
VERTEX
  8
0
 10
36.16
 20
5.2035
 30
0.0
 40
0.333333
 41
0.333333
  0
VERTEX
  8
0
 10
36.7094
 20
5.67176
 30
0.0
 40
0.333333
 41
0.333333
  0
VERTEX
  8
0
 10
37.2419
 20
6.15653
 30
0.0
 40
0.333333
 41
0.333333
  0
VERTEX
  8
0
 10
37.7571
 20
6.65728
 30
0.0
 40
0.333333
 41
0.333333
  0
VERTEX
  8
0
 10
38.2546
 20
7.17361
 30
0.0
 40
0.333333
 41
0.333333
  0
VERTEX
  8
0
 10
38.7342
 20
7.70492
 30
0.0
 40
0.333333
 41
0.333333
  0
VERTEX
  8
0
 10
39.1956
 20
8.25076
 30
0.0
 40
0.333333
 41
0.333333
  0
VERTEX
  8
0
 10
39.6385
 20
8.8106
 30
0.0
 40
0.333333
 41
0.333333
  0
VERTEX
  8
0
 10
40.0625
 20
9.384
 30
0.0
 40
0.333333
 41
0.333333
  0
VERTEX
  8
0
 10
40.4676
 20
9.97038
 30
0.0
 40
0.333333
 41
0.333333
  0
VERTEX
  8
0
 10
40.8532
 20
10.5693
 30
0.0
 40
0.333333
 41
0.333333
  0
VERTEX
  8
0
 10
41.2193
 20
11.1802
 30
0.0
 40
0.333333
 41
0.333333
  0
VERTEX
  8
0
 10
41.5653
 20
11.8027
 30
0.0
 40
0.333333
 41
0.333333
  0
VERTEX
  8
0
 10
41.8911
 20
12.4361
 30
0.0
 40
0.333333
 41
0.333333
  0
VERTEX
  8
0
 10
42.1965
 20
13.0801
 30
0.0
 40
0.333333
 41
0.333333
  0
VERTEX
  8
0
 10
42.481
 20
13.7341
 30
0.0
 40
0.333333
 41
0.333333
  0
VERTEX
  8
0
 10
42.7444
 20
14.3976
 30
0.0
 40
0.333333
 41
0.333333
  0
VERTEX
  8
0
 10
42.9864
 20
15.07
 30
0.0
 40
0.333333
 41
0.333333
  0
VERTEX
  8
0
 10
43.2068
 20
15.751
 30
0.0
 40
0.333333
 41
0.333333
  0
VERTEX
  8
0
 10
43.4051
 20
16.44
 30
0.0
 40
0.333333
 41
0.333333
  0
VERTEX
  8
0
 10
43.5813
 20
17.1365
 30
0.0
 40
0.333333
 41
0.333333
  0
VERTEX
  8
0
 10
43.7349
 20
17.8401
 30
0.0
 40
0.333333
 41
0.333333
  0
VERTEX
  8
0
 10
43.8656
 20
18.5501
 30
0.0
 40
0.333333
 41
0.333333
  0
VERTEX
  8
0
 10
43.9732
 20
19.2661
 30
0.0
 40
0.333333
 41
0.333333
  0
VERTEX
  8
0
 10
44.0575
 20
19.9876
 30
0.0
 40
0.333333
 41
0.333333
  0
VERTEX
  8
0
 10
44.1179
 20
20.7142
 30
0.0
 40
0.333333
 41
0.333333
  0
VERTEX
  8
0
 10
44.1544
 20
21.4451
 30
0.0
 40
0.333333
 41
0.333333
  0
VERTEX
  8
0
 10
44.1667
 20
21.9965
 30
0.0
 40
0.333333
 41
0.333333
  0
VERTEX
  8
0
 10
44.1667
 20
22.1803
 30
0.0
 40
0.333333
 41
0.333333
  0
VERTEX
  8
0
 10
44.1667
 20
122.18
 30
0.0
 40
0.333333
 41
0.333333
  0
SEQEND
 8
0
  0
POLYLINE
  8
0
 62
     0
 66
     1
 10
0
 20
0
 30
0.0
 70
     1
 40
24
 41
24
  0
VERTEX
  8
0
 10
42.1667
 20
77.1803
 30
0.0
 40
0.333333
 41
0.333333
  0
VERTEX
  8
0
 10
2.16667
 20
77.1803
 30
0.0
 40
0.333333
 41
0.333333
  0
VERTEX
  8
0
 10
2.16667
 20
22.1803
 30
0.0
 40
0.333333
 41
0.333333
  0
VERTEX
  8
0
 10
2.16667
 20
22.0132
 30
0.0
 40
0.333333
 41
0.333333
  0
VERTEX
  8
0
 10
2.17779
 20
21.5121
 30
0.0
 40
0.333333
 41
0.333333
  0
VERTEX
  8
0
 10
2.21094
 20
20.8475
 30
0.0
 40
0.333333
 41
0.333333
  0
VERTEX
  8
0
 10
2.26594
 20
20.1869
 30
0.0
 40
0.333333
 41
0.333333
  0
VERTEX
  8
0
 10
2.3425
 20
19.531
 30
0.0
 40
0.333333
 41
0.333333
  0
VERTEX
  8
0
 10
2.44038
 20
18.8801
 30
0.0
 40
0.333333
 41
0.333333
  0
VERTEX
  8
0
 10
2.55925
 20
18.2346
 30
0.0
 40
0.333333
 41
0.333333
  0
VERTEX
  8
0
 10
2.69883
 20
17.5951
 30
0.0
 40
0.333333
 41
0.333333
  0
VERTEX
  8
0
 10
2.85894
 20
16.9618
 30
0.0
 40
0.333333
 41
0.333333
  0
VERTEX
  8
0
 10
3.03928
 20
16.3356
 30
0.0
 40
0.333333
 41
0.333333
  0
VERTEX
  8
0
 10
3.23964
 20
15.7164
 30
0.0
 40
0.333333
 41
0.333333
  0
VERTEX
  8
0
 10
3.45964
 20
15.1051
 30
0.0
 40
0.333333
 41
0.333333
  0
VERTEX
  8
0
 10
3.69911
 20
14.5019
 30
0.0
 40
0.333333
 41
0.333333
  0
VERTEX
  8
0
 10
3.95774
 20
13.9074
 30
0.0
 40
0.333333
 41
0.333333
  0
VERTEX
  8
0
 10
4.23529
 20
13.3219
 30
0.0
 40
0.333333
 41
0.333333
  0
VERTEX
  8
0
 10
4.53153
 20
12.7461
 30
0.0
 40
0.333333
 41
0.333333
  0
VERTEX
  8
0
 10
4.84614
 20
12.1802
 30
0.0
 40
0.333333
 41
0.333333
  0
VERTEX
  8
0
 10
5.17888
 20
11.6248
 30
0.0
 40
0.333333
 41
0.333333
  0
VERTEX
  8
0
 10
5.52951
 20
11.0804
 30
0.0
 40
0.333333
 41
0.333333
  0
VERTEX
  8
0
 10
5.89768
 20
10.5473
 30
0.0
 40
0.333333
 41
0.333333
  0
VERTEX
  8
0
 10
6.28326
 20
10.026
 30
0.0
 40
0.333333
 41
0.333333
  0
VERTEX
  8
0
 10
6.68587
 20
9.51708
 30
0.0
 40
0.333333
 41
0.333333
  0
VERTEX
  8
0
 10
7.10531
 20
9.02083
 30
0.0
 40
0.333333
 41
0.333333
  0
VERTEX
  8
0
 10
7.54129
 20
8.53782
 30
0.0
 40
0.333333
 41
0.333333
  0
VERTEX
  8
0
 10
7.9936
 20
8.06847
 30
0.0
 40
0.333333
 41
0.333333
  0
VERTEX
  8
0
 10
8.46186
 20
7.61317
 30
0.0
 40
0.333333
 41
0.333333
  0
VERTEX
  8
0
 10
8.94596
 20
7.17253
 30
0.0
 40
0.333333
 41
0.333333
  0
VERTEX
  8
0
 10
9.44553
 20
6.74685
 30
0.0
 40
0.333333
 41
0.333333
  0
VERTEX
  8
0
 10
9.96035
 20
6.33664
 30
0.0
 40
0.333333
 41
0.333333
  0
VERTEX
  8
0
 10
10.4901
 20
5.94239
 30
0.0
 40
0.333333
 41
0.333333
  0
VERTEX
  8
0
 10
11.0346
 20
5.56451
 30
0.0
 40
0.333333
 41
0.333333
  0
VERTEX
  8
0
 10
11.5935
 20
5.20344
 30
0.0
 40
0.333333
 41
0.333333
  0
VERTEX
  8
0
 10
12.022
 20
4.94325
 30
0.0
 40
0.333333
 41
0.333333
  0
VERTEX
  8
0
 10
12.1667
 20
4.85969
 30
0.0
 40
0.333333
 41
0.333333
  0
VERTEX
  8
0
 10
12.3113
 20
4.77621
 30
0.0
 40
0.333333
 41
0.333333
  0
VERTEX
  8
0
 10
12.7509
 20
4.53526
 30
0.0
 40
0.333333
 41
0.333333
  0
VERTEX
  8
0
 10
13.343
 20
4.23172
 30
0.0
 40
0.333333
 41
0.333333
  0
VERTEX
  8
0
 10
13.9425
 20
3.94911
 30
0.0
 40
0.333333
 41
0.333333
  0
VERTEX
  8
0
 10
14.5489
 20
3.68744
 30
0.0
 40
0.333333
 41
0.333333
  0
VERTEX
  8
0
 10
15.1615
 20
3.44672
 30
0.0
 40
0.333333
 41
0.333333
  0
VERTEX
  8
0
 10
15.78
 20
3.22689
 30
0.0
 40
0.333333
 41
0.333333
  0
VERTEX
  8
0
 10
16.4036
 20
3.028
 30
0.0
 40
0.333333
 41
0.333333
  0
VERTEX
  8
0
 10
17.0319
 20
2.8501
 30
0.0
 40
0.333333
 41
0.333333
  0
VERTEX
  8
0
 10
17.6647
 20
2.69308
 30
0.0
 40
0.333333
 41
0.333333
  0
VERTEX
  8
0
 10
18.301
 20
2.55701
 30
0.0
 40
0.333333
 41
0.333333
  0
VERTEX
  8
0
 10
18.9404
 20
2.44189
 30
0.0
 40
0.333333
 41
0.333333
  0
VERTEX
  8
0
 10
19.5825
 20
2.34765
 30
0.0
 40
0.333333
 41
0.333333
  0
VERTEX
  8
0
 10
20.2267
 20
2.27442
 30
0.0
 40
0.333333
 41
0.333333
  0
VERTEX
  8
0
 10
20.8725
 20
2.22206
 30
0.0
 40
0.333333
 41
0.333333
  0
VERTEX
  8
0
 10
21.5193
 20
2.19065
 30
0.0
 40
0.333333
 41
0.333333
  0
VERTEX
  8
0
 10
22.1667
 20
2.18018
 30
0.0
 40
0.333333
 41
0.333333
  0
VERTEX
  8
0
 10
22.814
 20
2.19065
 30
0.0
 40
0.333333
 41
0.333333
  0
VERTEX
  8
0
 10
23.4608
 20
2.22206
 30
0.0
 40
0.333333
 41
0.333333
  0
VERTEX
  8
0
 10
24.1067
 20
2.27442
 30
0.0
 40
0.333333
 41
0.333333
  0
VERTEX
  8
0
 10
24.7508
 20
2.34765
 30
0.0
 40
0.333333
 41
0.333333
  0
VERTEX
  8
0
 10
25.3929
 20
2.44189
 30
0.0
 40
0.333333
 41
0.333333
  0
VERTEX
  8
0
 10
26.0324
 20
2.55701
 30
0.0
 40
0.333333
 41
0.333333
  0
VERTEX
  8
0
 10
26.6686
 20
2.69308
 30
0.0
 40
0.333333
 41
0.333333
  0
VERTEX
  8
0
 10
27.3014
 20
2.8501
 30
0.0
 40
0.333333
 41
0.333333
  0
VERTEX
  8
0
 10
27.9297
 20
3.028
 30
0.0
 40
0.333333
 41
0.333333
  0
VERTEX
  8
0
 10
28.5533
 20
3.22689
 30
0.0
 40
0.333333
 41
0.333333
  0
VERTEX
  8
0
 10
29.1718
 20
3.44672
 30
0.0
 40
0.333333
 41
0.333333
  0
VERTEX
  8
0
 10
29.7844
 20
3.68744
 30
0.0
 40
0.333333
 41
0.333333
  0
VERTEX
  8
0
 10
30.3908
 20
3.94911
 30
0.0
 40
0.333333
 41
0.333333
  0
VERTEX
  8
0
 10
30.9903
 20
4.23172
 30
0.0
 40
0.333333
 41
0.333333
  0
VERTEX
  8
0
 10
31.5825
 20
4.53526
 30
0.0
 40
0.333333
 41
0.333333
  0
VERTEX
  8
0
 10
32.0221
 20
4.77621
 30
0.0
 40
0.333333
 41
0.333333
  0
VERTEX
  8
0
 10
32.1667
 20
4.85969
 30
0.0
 40
0.333333
 41
0.333333
  0
VERTEX
  8
0
 10
32.3114
 20
4.94325
 30
0.0
 40
0.333333
 41
0.333333
  0
VERTEX
  8
0
 10
32.7399
 20
5.20344
 30
0.0
 40
0.333333
 41
0.333333
  0
VERTEX
  8
0
 10
33.2988
 20
5.56451
 30
0.0
 40
0.333333
 41
0.333333
  0
VERTEX
  8
0
 10
33.8432
 20
5.94239
 30
0.0
 40
0.333333
 41
0.333333
  0
VERTEX
  8
0
 10
34.3731
 20
6.33664
 30
0.0
 40
0.333333
 41
0.333333
  0
VERTEX
  8
0
 10
34.8879
 20
6.74685
 30
0.0
 40
0.333333
 41
0.333333
  0
VERTEX
  8
0
 10
35.3874
 20
7.17253
 30
0.0
 40
0.333333
 41
0.333333
  0
VERTEX
  8
0
 10
35.8715
 20
7.61317
 30
0.0
 40
0.333333
 41
0.333333
  0
VERTEX
  8
0
 10
36.3397
 20
8.06847
 30
0.0
 40
0.333333
 41
0.333333
  0
VERTEX
  8
0
 10
36.7921
 20
8.53782
 30
0.0
 40
0.333333
 41
0.333333
  0
VERTEX
  8
0
 10
37.2281
 20
9.02083
 30
0.0
 40
0.333333
 41
0.333333
  0
VERTEX
  8
0
 10
37.6475
 20
9.51708
 30
0.0
 40
0.333333
 41
0.333333
  0
VERTEX
  8
0
 10
38.0501
 20
10.026
 30
0.0
 40
0.333333
 41
0.333333
  0
VERTEX
  8
0
 10
38.4357
 20
10.5473
 30
0.0
 40
0.333333
 41
0.333333
  0
VERTEX
  8
0
 10
38.8039
 20
11.0804
 30
0.0
 40
0.333333
 41
0.333333
  0
VERTEX
  8
0
 10
39.1544
 20
11.6248
 30
0.0
 40
0.333333
 41
0.333333
  0
VERTEX
  8
0
 10
39.4872
 20
12.1802
 30
0.0
 40
0.333333
 41
0.333333
  0
VERTEX
  8
0
 10
39.8018
 20
12.7461
 30
0.0
 40
0.333333
 41
0.333333
  0
VERTEX
  8
0
 10
40.0981
 20
13.3219
 30
0.0
 40
0.333333
 41
0.333333
  0
VERTEX
  8
0
 10
40.3756
 20
13.9074
 30
0.0
 40
0.333333
 41
0.333333
  0
VERTEX
  8
0
 10
40.6342
 20
14.5019
 30
0.0
 40
0.333333
 41
0.333333
  0
VERTEX
  8
0
 10
40.8737
 20
15.1051
 30
0.0
 40
0.333333
 41
0.333333
  0
VERTEX
  8
0
 10
41.0938
 20
15.7164
 30
0.0
 40
0.333333
 41
0.333333
  0
VERTEX
  8
0
 10
41.294
 20
16.3356
 30
0.0
 40
0.333333
 41
0.333333
  0
VERTEX
  8
0
 10
41.4744
 20
16.9618
 30
0.0
 40
0.333333
 41
0.333333
  0
VERTEX
  8
0
 10
41.6344
 20
17.5951
 30
0.0
 40
0.333333
 41
0.333333
  0
VERTEX
  8
0
 10
41.7742
 20
18.2346
 30
0.0
 40
0.333333
 41
0.333333
  0
VERTEX
  8
0
 10
41.8929
 20
18.8801
 30
0.0
 40
0.333333
 41
0.333333
  0
VERTEX
  8
0
 10
41.9908
 20
19.531
 30
0.0
 40
0.333333
 41
0.333333
  0
VERTEX
  8
0
 10
42.0674
 20
20.1869
 30
0.0
 40
0.333333
 41
0.333333
  0
VERTEX
  8
0
 10
42.1224
 20
20.8475
 30
0.0
 40
0.333333
 41
0.333333
  0
VERTEX
  8
0
 10
42.1556
 20
21.5121
 30
0.0
 40
0.333333
 41
0.333333
  0
VERTEX
  8
0
 10
42.1667
 20
22.0132
 30
0.0
 40
0.333333
 41
0.333333
  0
VERTEX
  8
0
 10
42.1667
 20
22.1803
 30
0.0
 40
0.333333
 41
0.333333
  0
VERTEX
  8
0
 10
42.1667
 20
77.1803
 30
0.0
 40
0.333333
 41
0.333333
  0
SEQEND
 8
0
  0
POLYLINE
  8
0
 62
     0
 66
     1
 10
0
 20
0
 30
0.0
 40
24
 41
24
  0
VERTEX
  8
0
 10
12.1667
 20
77.1803
 30
0.0
 40
0.333333
 41
0.333333
  0
VERTEX
  8
0
 10
12.3337
 20
77.1803
 30
0.0
 40
0.333333
 41
0.333333
  0
VERTEX
  8
0
 10
12.8348
 20
77.1692
 30
0.0
 40
0.333333
 41
0.333333
  0
VERTEX
  8
0
 10
13.4994
 20
77.136
 30
0.0
 40
0.333333
 41
0.333333
  0
VERTEX
  8
0
 10
14.1599
 20
77.081
 30
0.0
 40
0.333333
 41
0.333333
  0
VERTEX
  8
0
 10
14.8158
 20
77.0044
 30
0.0
 40
0.333333
 41
0.333333
  0
VERTEX
  8
0
 10
15.4668
 20
76.9065
 30
0.0
 40
0.333333
 41
0.333333
  0
VERTEX
  8
0
 10
16.1122
 20
76.7878
 30
0.0
 40
0.333333
 41
0.333333
  0
VERTEX
  8
0
 10
16.7518
 20
76.6481
 30
0.0
 40
0.333333
 41
0.333333
  0
VERTEX
  8
0
 10
17.385
 20
76.4881
 30
0.0
 40
0.333333
 41
0.333333
  0
VERTEX
  8
0
 10
18.0114
 20
76.3076
 30
0.0
 40
0.333333
 41
0.333333
  0
VERTEX
  8
0
 10
18.6304
 20
76.1074
 30
0.0
 40
0.333333
 41
0.333333
  0
VERTEX
  8
0
 10
19.2418
 20
75.8874
 30
0.0
 40
0.333333
 41
0.333333
  0
VERTEX
  8
0
 10
19.845
 20
75.6478
 30
0.0
 40
0.333333
 41
0.333333
  0
VERTEX
  8
0
 10
20.4394
 20
75.3892
 30
0.0
 40
0.333333
 41
0.333333
  0
VERTEX
  8
0
 10
21.025
 20
75.1117
 30
0.0
 40
0.333333
 41
0.333333
  0
VERTEX
  8
0
 10
21.6008
 20
74.8154
 30
0.0
 40
0.333333
 41
0.333333
  0
VERTEX
  8
0
 10
22.1667
 20
74.5008
 30
0.0
 40
0.333333
 41
0.333333
  0
VERTEX
  8
0
 10
22.7221
 20
74.1681
 30
0.0
 40
0.333333
 41
0.333333
  0
VERTEX
  8
0
 10
23.2665
 20
73.8175
 30
0.0
 40
0.333333
 41
0.333333
  0
VERTEX
  8
0
 10
23.7996
 20
73.4493
 30
0.0
 40
0.333333
 41
0.333333
  0
VERTEX
  8
0
 10
24.3208
 20
73.0637
 30
0.0
 40
0.333333
 41
0.333333
  0
VERTEX
  8
0
 10
24.8299
 20
72.6611
 30
0.0
 40
0.333333
 41
0.333333
  0
VERTEX
  8
0
 10
25.3261
 20
72.2417
 30
0.0
 40
0.333333
 41
0.333333
  0
VERTEX
  8
0
 10
25.809
 20
71.8057
 30
0.0
 40
0.333333
 41
0.333333
  0
VERTEX
  8
0
 10
26.2785
 20
71.3535
 30
0.0
 40
0.333333
 41
0.333333
  0
VERTEX
  8
0
 10
26.7337
 20
70.8851
 30
0.0
 40
0.333333
 41
0.333333
  0
VERTEX
  8
0
 10
27.1743
 20
70.4011
 30
0.0
 40
0.333333
 41
0.333333
  0
VERTEX
  8
0
 10
27.6
 20
69.9015
 30
0.0
 40
0.333333
 41
0.333333
  0
VERTEX
  8
0
 10
28.0103
 20
69.3867
 30
0.0
 40
0.333333
 41
0.333333
  0
VERTEX
  8
0
 10
28.4046
 20
68.8569
 30
0.0
 40
0.333333
 41
0.333333
  0
VERTEX
  8
0
 10
28.7824
 20
68.3124
 30
0.0
 40
0.333333
 41
0.333333
  0
VERTEX
  8
0
 10
29.1435
 20
67.7535
 30
0.0
 40
0.333333
 41
0.333333
  0
VERTEX
  8
0
 10
29.4036
 20
67.325
 30
0.0
 40
0.333333
 41
0.333333
  0
VERTEX
  8
0
 10
29.4872
 20
67.1803
 30
0.0
 40
0.333333
 41
0.333333
  0
VERTEX
  8
0
 10
29.5707
 20
67.0357
 30
0.0
 40
0.333333
 41
0.333333
  0
VERTEX
  8
0
 10
29.8117
 20
66.5961
 30
0.0
 40
0.333333
 41
0.333333
  0
VERTEX
  8
0
 10
30.1151
 20
66.0039
 30
0.0
 40
0.333333
 41
0.333333
  0
VERTEX
  8
0
 10
30.3978
 20
65.4044
 30
0.0
 40
0.333333
 41
0.333333
  0
VERTEX
  8
0
 10
30.6594
 20
64.7981
 30
0.0
 40
0.333333
 41
0.333333
  0
VERTEX
  8
0
 10
30.9001
 20
64.1854
 30
0.0
 40
0.333333
 41
0.333333
  0
VERTEX
  8
0
 10
31.12
 20
63.5669
 30
0.0
 40
0.333333
 41
0.333333
  0
VERTEX
  8
0
 10
31.3189
 20
62.9433
 30
0.0
 40
0.333333
 41
0.333333
  0
VERTEX
  8
0
 10
31.4968
 20
62.315
 30
0.0
 40
0.333333
 41
0.333333
  0
VERTEX
  8
0
 10
31.6538
 20
61.6824
 30
0.0
 40
0.333333
 41
0.333333
  0
VERTEX
  8
0
 10
31.7899
 20
61.046
 30
0.0
 40
0.333333
 41
0.333333
  0
VERTEX
  8
0
 10
31.905
 20
60.4065
 30
0.0
 40
0.333333
 41
0.333333
  0
VERTEX
  8
0
 10
31.9993
 20
59.7644
 30
0.0
 40
0.333333
 41
0.333333
  0
VERTEX
  8
0
 10
32.0725
 20
59.1203
 30
0.0
 40
0.333333
 41
0.333333
  0
VERTEX
  8
0
 10
32.1249
 20
58.4744
 30
0.0
 40
0.333333
 41
0.333333
  0
VERTEX
  8
0
 10
32.1563
 20
57.8276
 30
0.0
 40
0.333333
 41
0.333333
  0
VERTEX
  8
0
 10
32.1667
 20
57.1803
 30
0.0
 40
0.333333
 41
0.333333
  0
VERTEX
  8
0
 10
32.1563
 20
56.5329
 30
0.0
 40
0.333333
 41
0.333333
  0
VERTEX
  8
0
 10
32.1249
 20
55.8861
 30
0.0
 40
0.333333
 41
0.333333
  0
VERTEX
  8
0
 10
32.0725
 20
55.2403
 30
0.0
 40
0.333333
 41
0.333333
  0
VERTEX
  8
0
 10
31.9993
 20
54.5961
 30
0.0
 40
0.333333
 41
0.333333
  0
VERTEX
  8
0
 10
31.905
 20
53.954
 30
0.0
 40
0.333333
 41
0.333333
  0
VERTEX
  8
0
 10
31.7899
 20
53.3146
 30
0.0
 40
0.333333
 41
0.333333
  0
VERTEX
  8
0
 10
31.6538
 20
52.6783
 30
0.0
 40
0.333333
 41
0.333333
  0
VERTEX
  8
0
 10
31.4968
 20
52.0457
 30
0.0
 40
0.333333
 41
0.333333
  0
VERTEX
  8
0
 10
31.3189
 20
51.4172
 30
0.0
 40
0.333333
 41
0.333333
  0
VERTEX
  8
0
 10
31.12
 20
50.7936
 30
0.0
 40
0.333333
 41
0.333333
  0
VERTEX
  8
0
 10
30.9001
 20
50.1751
 30
0.0
 40
0.333333
 41
0.333333
  0
VERTEX
  8
0
 10
30.6594
 20
49.5625
 30
0.0
 40
0.333333
 41
0.333333
  0
VERTEX
  8
0
 10
30.3978
 20
48.9561
 30
0.0
 40
0.333333
 41
0.333333
  0
VERTEX
  8
0
 10
30.1151
 20
48.3567
 30
0.0
 40
0.333333
 41
0.333333
  0
VERTEX
  8
0
 10
29.8117
 20
47.7646
 30
0.0
 40
0.333333
 41
0.333333
  0
VERTEX
  8
0
 10
29.5707
 20
47.325
 30
0.0
 40
0.333333
 41
0.333333
  0
VERTEX
  8
0
 10
29.4872
 20
47.1803
 30
0.0
 40
0.333333
 41
0.333333
  0
VERTEX
  8
0
 10
29.4036
 20
47.0357
 30
0.0
 40
0.333333
 41
0.333333
  0
VERTEX
  8
0
 10
29.1435
 20
46.6072
 30
0.0
 40
0.333333
 41
0.333333
  0
VERTEX
  8
0
 10
28.7824
 20
46.0482
 30
0.0
 40
0.333333
 41
0.333333
  0
VERTEX
  8
0
 10
28.4046
 20
45.5038
 30
0.0
 40
0.333333
 41
0.333333
  0
VERTEX
  8
0
 10
28.0103
 20
44.974
 30
0.0
 40
0.333333
 41
0.333333
  0
VERTEX
  8
0
 10
27.6
 20
44.4592
 30
0.0
 40
0.333333
 41
0.333333
  0
VERTEX
  8
0
 10
27.1743
 20
43.9596
 30
0.0
 40
0.333333
 41
0.333333
  0
VERTEX
  8
0
 10
26.7337
 20
43.4756
 30
0.0
 40
0.333333
 41
0.333333
  0
VERTEX
  8
0
 10
26.2785
 20
43.0072
 30
0.0
 40
0.333333
 41
0.333333
  0
VERTEX
  8
0
 10
25.809
 20
42.555
 30
0.0
 40
0.333333
 41
0.333333
  0
VERTEX
  8
0
 10
25.3261
 20
42.1189
 30
0.0
 40
0.333333
 41
0.333333
  0
VERTEX
  8
0
 10
24.8299
 20
41.6994
 30
0.0
 40
0.333333
 41
0.333333
  0
VERTEX
  8
0
 10
24.3208
 20
41.2969
 30
0.0
 40
0.333333
 41
0.333333
  0
VERTEX
  8
0
 10
23.7996
 20
40.9114
 30
0.0
 40
0.333333
 41
0.333333
  0
VERTEX
  8
0
 10
23.2665
 20
40.5432
 30
0.0
 40
0.333333
 41
0.333333
  0
VERTEX
  8
0
 10
22.7221
 20
40.1925
 30
0.0
 40
0.333333
 41
0.333333
  0
VERTEX
  8
0
 10
22.1667
 20
39.8597
 30
0.0
 40
0.333333
 41
0.333333
  0
VERTEX
  8
0
 10
21.6008
 20
39.5451
 30
0.0
 40
0.333333
 41
0.333333
  0
VERTEX
  8
0
 10
21.025
 20
39.2489
 30
0.0
 40
0.333333
 41
0.333333
  0
VERTEX
  8
0
 10
20.4394
 20
38.9714
 30
0.0
 40
0.333333
 41
0.333333
  0
VERTEX
  8
0
 10
19.845
 20
38.7128
 30
0.0
 40
0.333333
 41
0.333333
  0
VERTEX
  8
0
 10
19.2418
 20
38.4732
 30
0.0
 40
0.333333
 41
0.333333
  0
VERTEX
  8
0
 10
18.6304
 20
38.2532
 30
0.0
 40
0.333333
 41
0.333333
  0
VERTEX
  8
0
 10
18.0114
 20
38.0529
 30
0.0
 40
0.333333
 41
0.333333
  0
VERTEX
  8
0
 10
17.385
 20
37.8725
 30
0.0
 40
0.333333
 41
0.333333
  0
VERTEX
  8
0
 10
16.7518
 20
37.7125
 30
0.0
 40
0.333333
 41
0.333333
  0
VERTEX
  8
0
 10
16.1122
 20
37.5729
 30
0.0
 40
0.333333
 41
0.333333
  0
VERTEX
  8
0
 10
15.4668
 20
37.454
 30
0.0
 40
0.333333
 41
0.333333
  0
VERTEX
  8
0
 10
14.8158
 20
37.3561
 30
0.0
 40
0.333333
 41
0.333333
  0
VERTEX
  8
0
 10
14.1599
 20
37.2796
 30
0.0
 40
0.333333
 41
0.333333
  0
VERTEX
  8
0
 10
13.4994
 20
37.2246
 30
0.0
 40
0.333333
 41
0.333333
  0
VERTEX
  8
0
 10
12.8348
 20
37.1914
 30
0.0
 40
0.333333
 41
0.333333
  0
VERTEX
  8
0
 10
12.3337
 20
37.1803
 30
0.0
 40
0.333333
 41
0.333333
  0
VERTEX
  8
0
 10
12.1667
 20
37.1803
 30
0.0
 40
0.333333
 41
0.333333
  0
VERTEX
  8
0
 10
42.1667
 20
37.1803
 30
0.0
 40
0.333333
 41
0.333333
  0
SEQEND
 8
0
  0
ENDSEC
  0
EOF
