<svg xmlns="http://www.w3.org/2000/svg" width="36in" height="26.400000000000002in" viewBox="0 0 2592 1900.8000000000002"><g/><g/><g/><g/><path d="M 0.9595257859206184 346.8428374271286 L 0.9595257859206184 63.37783742712861 L 0.9595257859206182 63.37783742712861 A 62.3623 62.3623 -90.00000000000001 0 1 125.68412578592063 63.37783742712861 L 125.68412578592063 63.37783742712861 L 125.68412578592063 346.8428374271286 L 125.68412578592063 346.8428374271286 L 0.000005116995907883393 346.8428374271286" color="rgb(0,0,0)" stroke="#000000" id="ID_78" stroke-width="0.25mm" fill="none"/><path d="M 120.0148257859206 219.28358742712862 L 6.62882578592064 219.28358742712862 L 6.62882578592064 219.28358742712862 L 6.62882578592064 63.37783742712861 L 6.62882578592064 63.37783742712861 A 56.693 56.693 -90.00000000000001 0 1 120.0148257859206 63.37783742712861 L 120.0148257859206 63.37783742712861 L 120.0148257859206 219.28358742712862 z" color="rgb(0,0,0)" stroke="#000000" id="ID_73" stroke-width="0.25mm" fill="none"/><path d="M 0.000005116995907883395 346.8428373950487 L 0.000005116995907883395 630.3078373950488 L 0.000005116995907883397 630.3078373950488 A 62.3623 62.3623 90 0 0 124.72460511699592 630.3078373950488 L 124.72460511699592 630.3078373950488 L 124.72460511699592 346.8428373950487" color="rgb(0,0,0)" stroke="#000000" id="ID_78" stroke-width="0.25mm" fill="none"/><path d="M 119.0553051169959 474.40208739504874 L 5.669305116995929 474.40208739504874 L 5.669305116995929 474.40208739504874 L 5.669305116995929 630.3078373950488 L 5.669305116995929 630.3078373950488 A 56.693 56.693 90 0 0 119.0553051169959 630.3078373950488 L 119.05530511699591 630.3078373950488 L 119.0553051169959 474.4020867966242 z" color="rgb(0,0,0)" stroke="#000000" id="ID_73" stroke-width="0.25mm" fill="none"/><path d="M 34.01579507467716 474.4020867966242 A 56.693 56.693 180 0 1 34.01579507467716 587.7880867966242 L 34.01579507467716 587.7880867966242 L 119.05529507467713 587.7880867966242" color="rgb(0,0,0)" stroke="#000000" id="ID_74" stroke-width="0.25mm" fill="none"/></svg>