  0
SECTION
  2
HEADER
  9
$ACADVER
  1
AC1009
  9
$EXTMIN
 10
0.0
 20
0.0
 30
0.0
  9
$EXTMAX
 10
1000.0
 20
1000.0
 30
0.0
  9
$FILLMODE
 70
 0
  9
$SPLFRAME
 70
 1
  0
ENDSEC
  0
SECTION
  2
TABLES
  0
TABLE
  2
LAYER
 70
1
  0
LAYER
  2
0
 70
     0
 62
     7
  6
CONTINUOUS
  0
ENDTAB
  0
ENDSEC
  0
SECTION
  2
ENTITIES
  0
POLYLINE
  8
0
 62
     0
 66
     1
 10
0
 20
0
 30
0.0
 70
     1
 40
24
 41
24
  0
VERTEX
  8
0
 10
104.677
 20
76.5347
 30
0.0
 40
0.333333
 41
0.333333
  0
VERTEX
  8
0
 10
104.677
 20
76.4844
 30
0.0
 40
0.333333
 41
0.333333
  0
VERTEX
  8
0
 10
104.656
 20
76.3332
 30
0.0
 40
0.333333
 41
0.333333
  0
VERTEX
  8
0
 10
104.598
 20
76.1456
 30
0.0
 40
0.333333
 41
0.333333
  0
VERTEX
  8
0
 10
104.506
 20
75.9757
 30
0.0
 40
0.333333
 41
0.333333
  0
VERTEX
  8
0
 10
104.384
 20
75.8276
 30
0.0
 40
0.333333
 41
0.333333
  0
VERTEX
  8
0
 10
104.236
 20
75.7056
 30
0.0
 40
0.333333
 41
0.333333
  0
VERTEX
  8
0
 10
104.066
 20
75.6133
 30
0.0
 40
0.333333
 41
0.333333
  0
VERTEX
  8
0
 10
103.878
 20
75.555
 30
0.0
 40
0.333333
 41
0.333333
  0
VERTEX
  8
0
 10
103.727
 20
75.5347
 30
0.0
 40
0.333333
 41
0.333333
  0
VERTEX
  8
0
 10
103.677
 20
75.5347
 30
0.0
 40
0.333333
 41
0.333333
  0
VERTEX
  8
0
 10
103.626
 20
75.5347
 30
0.0
 40
0.333333
 41
0.333333
  0
VERTEX
  8
0
 10
103.475
 20
75.555
 30
0.0
 40
0.333333
 41
0.333333
  0
VERTEX
  8
0
 10
103.287
 20
75.6133
 30
0.0
 40
0.333333
 41
0.333333
  0
VERTEX
  8
0
 10
103.117
 20
75.7056
 30
0.0
 40
0.333333
 41
0.333333
  0
VERTEX
  8
0
 10
102.969
 20
75.8276
 30
0.0
 40
0.333333
 41
0.333333
  0
VERTEX
  8
0
 10
102.847
 20
75.9757
 30
0.0
 40
0.333333
 41
0.333333
  0
VERTEX
  8
0
 10
102.755
 20
76.1456
 30
0.0
 40
0.333333
 41
0.333333
  0
VERTEX
  8
0
 10
102.697
 20
76.3332
 30
0.0
 40
0.333333
 41
0.333333
  0
VERTEX
  8
0
 10
102.677
 20
76.4844
 30
0.0
 40
0.333333
 41
0.333333
  0
VERTEX
  8
0
 10
102.677
 20
76.5347
 30
0.0
 40
0.333333
 41
0.333333
  0
VERTEX
  8
0
 10
102.677
 20
76.5851
 30
0.0
 40
0.333333
 41
0.333333
  0
VERTEX
  8
0
 10
102.697
 20
76.7362
 30
0.0
 40
0.333333
 41
0.333333
  0
VERTEX
  8
0
 10
102.755
 20
76.924
 30
0.0
 40
0.333333
 41
0.333333
  0
VERTEX
  8
0
 10
102.847
 20
77.0939
 30
0.0
 40
0.333333
 41
0.333333
  0
VERTEX
  8
0
 10
102.969
 20
77.2418
 30
0.0
 40
0.333333
 41
0.333333
  0
VERTEX
  8
0
 10
103.117
 20
77.3639
 30
0.0
 40
0.333333
 41
0.333333
  0
VERTEX
  8
0
 10
103.287
 20
77.4561
 30
0.0
 40
0.333333
 41
0.333333
  0
VERTEX
  8
0
 10
103.475
 20
77.5144
 30
0.0
 40
0.333333
 41
0.333333
  0
VERTEX
  8
0
 10
103.626
 20
77.5347
 30
0.0
 40
0.333333
 41
0.333333
  0
VERTEX
  8
0
 10
103.677
 20
77.5347
 30
0.0
 40
0.333333
 41
0.333333
  0
VERTEX
  8
0
 10
103.727
 20
77.5347
 30
0.0
 40
0.333333
 41
0.333333
  0
VERTEX
  8
0
 10
103.878
 20
77.5144
 30
0.0
 40
0.333333
 41
0.333333
  0
VERTEX
  8
0
 10
104.066
 20
77.4561
 30
0.0
 40
0.333333
 41
0.333333
  0
VERTEX
  8
0
 10
104.236
 20
77.3639
 30
0.0
 40
0.333333
 41
0.333333
  0
VERTEX
  8
0
 10
104.384
 20
77.2418
 30
0.0
 40
0.333333
 41
0.333333
  0
VERTEX
  8
0
 10
104.506
 20
77.0939
 30
0.0
 40
0.333333
 41
0.333333
  0
VERTEX
  8
0
 10
104.598
 20
76.924
 30
0.0
 40
0.333333
 41
0.333333
  0
VERTEX
  8
0
 10
104.656
 20
76.7362
 30
0.0
 40
0.333333
 41
0.333333
  0
VERTEX
  8
0
 10
104.677
 20
76.5851
 30
0.0
 40
0.333333
 41
0.333333
  0
VERTEX
  8
0
 10
104.677
 20
76.5347
 30
0.0
 40
0.333333
 41
0.333333
  0
SEQEND
 8
0
  0
POLYLINE
  8
0
 62
     0
 66
     1
 10
0
 20
0
 30
0.0
 70
     1
 40
24
 41
24
  0
VERTEX
  8
0
 10
104.677
 20
83.0347
 30
0.0
 40
0.333333
 41
0.333333
  0
VERTEX
  8
0
 10
104.677
 20
82.9844
 30
0.0
 40
0.333333
 41
0.333333
  0
VERTEX
  8
0
 10
104.656
 20
82.8332
 30
0.0
 40
0.333333
 41
0.333333
  0
VERTEX
  8
0
 10
104.598
 20
82.6456
 30
0.0
 40
0.333333
 41
0.333333
  0
VERTEX
  8
0
 10
104.506
 20
82.4757
 30
0.0
 40
0.333333
 41
0.333333
  0
VERTEX
  8
0
 10
104.384
 20
82.3276
 30
0.0
 40
0.333333
 41
0.333333
  0
VERTEX
  8
0
 10
104.236
 20
82.2056
 30
0.0
 40
0.333333
 41
0.333333
  0
VERTEX
  8
0
 10
104.066
 20
82.1133
 30
0.0
 40
0.333333
 41
0.333333
  0
VERTEX
  8
0
 10
103.878
 20
82.055
 30
0.0
 40
0.333333
 41
0.333333
  0
VERTEX
  8
0
 10
103.727
 20
82.0347
 30
0.0
 40
0.333333
 41
0.333333
  0
VERTEX
  8
0
 10
103.677
 20
82.0347
 30
0.0
 40
0.333333
 41
0.333333
  0
VERTEX
  8
0
 10
103.626
 20
82.0347
 30
0.0
 40
0.333333
 41
0.333333
  0
VERTEX
  8
0
 10
103.475
 20
82.055
 30
0.0
 40
0.333333
 41
0.333333
  0
VERTEX
  8
0
 10
103.287
 20
82.1133
 30
0.0
 40
0.333333
 41
0.333333
  0
VERTEX
  8
0
 10
103.117
 20
82.2056
 30
0.0
 40
0.333333
 41
0.333333
  0
VERTEX
  8
0
 10
102.969
 20
82.3276
 30
0.0
 40
0.333333
 41
0.333333
  0
VERTEX
  8
0
 10
102.847
 20
82.4757
 30
0.0
 40
0.333333
 41
0.333333
  0
VERTEX
  8
0
 10
102.755
 20
82.6456
 30
0.0
 40
0.333333
 41
0.333333
  0
VERTEX
  8
0
 10
102.697
 20
82.8332
 30
0.0
 40
0.333333
 41
0.333333
  0
VERTEX
  8
0
 10
102.677
 20
82.9844
 30
0.0
 40
0.333333
 41
0.333333
  0
VERTEX
  8
0
 10
102.677
 20
83.0347
 30
0.0
 40
0.333333
 41
0.333333
  0
VERTEX
  8
0
 10
102.677
 20
83.0851
 30
0.0
 40
0.333333
 41
0.333333
  0
VERTEX
  8
0
 10
102.697
 20
83.2362
 30
0.0
 40
0.333333
 41
0.333333
  0
VERTEX
  8
0
 10
102.755
 20
83.424
 30
0.0
 40
0.333333
 41
0.333333
  0
VERTEX
  8
0
 10
102.847
 20
83.5939
 30
0.0
 40
0.333333
 41
0.333333
  0
VERTEX
  8
0
 10
102.969
 20
83.7418
 30
0.0
 40
0.333333
 41
0.333333
  0
VERTEX
  8
0
 10
103.117
 20
83.864
 30
0.0
 40
0.333333
 41
0.333333
  0
VERTEX
  8
0
 10
103.287
 20
83.9561
 30
0.0
 40
0.333333
 41
0.333333
  0
VERTEX
  8
0
 10
103.475
 20
84.0144
 30
0.0
 40
0.333333
 41
0.333333
  0
VERTEX
  8
0
 10
103.626
 20
84.0347
 30
0.0
 40
0.333333
 41
0.333333
  0
VERTEX
  8
0
 10
103.677
 20
84.0347
 30
0.0
 40
0.333333
 41
0.333333
  0
VERTEX
  8
0
 10
103.727
 20
84.0347
 30
0.0
 40
0.333333
 41
0.333333
  0
VERTEX
  8
0
 10
103.878
 20
84.0144
 30
0.0
 40
0.333333
 41
0.333333
  0
VERTEX
  8
0
 10
104.066
 20
83.9561
 30
0.0
 40
0.333333
 41
0.333333
  0
VERTEX
  8
0
 10
104.236
 20
83.864
 30
0.0
 40
0.333333
 41
0.333333
  0
VERTEX
  8
0
 10
104.384
 20
83.7418
 30
0.0
 40
0.333333
 41
0.333333
  0
VERTEX
  8
0
 10
104.506
 20
83.5939
 30
0.0
 40
0.333333
 41
0.333333
  0
VERTEX
  8
0
 10
104.598
 20
83.424
 30
0.0
 40
0.333333
 41
0.333333
  0
VERTEX
  8
0
 10
104.656
 20
83.2362
 30
0.0
 40
0.333333
 41
0.333333
  0
VERTEX
  8
0
 10
104.677
 20
83.0851
 30
0.0
 40
0.333333
 41
0.333333
  0
VERTEX
  8
0
 10
104.677
 20
83.0347
 30
0.0
 40
0.333333
 41
0.333333
  0
SEQEND
 8
0
  0
POLYLINE
  8
0
 62
     0
 66
     1
 10
0
 20
0
 30
0.0
 70
     1
 40
24
 41
24
  0
VERTEX
  8
0
 10
120.677
 20
83.1847
 30
0.0
 40
0.333333
 41
0.333333
  0
VERTEX
  8
0
 10
120.677
 20
83.1464
 30
0.0
 40
0.333333
 41
0.333333
  0
VERTEX
  8
0
 10
120.669
 20
83.0314
 30
0.0
 40
0.333333
 41
0.333333
  0
VERTEX
  8
0
 10
120.646
 20
82.8825
 30
0.0
 40
0.333333
 41
0.333333
  0
VERTEX
  8
0
 10
120.609
 20
82.7387
 30
0.0
 40
0.333333
 41
0.333333
  0
VERTEX
  8
0
 10
120.559
 20
82.6008
 30
0.0
 40
0.333333
 41
0.333333
  0
VERTEX
  8
0
 10
120.496
 20
82.4697
 30
0.0
 40
0.333333
 41
0.333333
  0
VERTEX
  8
0
 10
120.42
 20
82.3461
 30
0.0
 40
0.333333
 41
0.333333
  0
VERTEX
  8
0
 10
120.334
 20
82.2307
 30
0.0
 40
0.333333
 41
0.333333
  0
VERTEX
  8
0
 10
120.237
 20
82.124
 30
0.0
 40
0.333333
 41
0.333333
  0
VERTEX
  8
0
 10
120.131
 20
82.0272
 30
0.0
 40
0.333333
 41
0.333333
  0
VERTEX
  8
0
 10
120.015
 20
81.941
 30
0.0
 40
0.333333
 41
0.333333
  0
VERTEX
  8
0
 10
119.892
 20
81.8658
 30
0.0
 40
0.333333
 41
0.333333
  0
VERTEX
  8
0
 10
119.76
 20
81.8026
 30
0.0
 40
0.333333
 41
0.333333
  0
VERTEX
  8
0
 10
119.623
 20
81.7522
 30
0.0
 40
0.333333
 41
0.333333
  0
VERTEX
  8
0
 10
119.479
 20
81.7153
 30
0.0
 40
0.333333
 41
0.333333
  0
VERTEX
  8
0
 10
119.33
 20
81.6925
 30
0.0
 40
0.333333
 41
0.333333
  0
VERTEX
  8
0
 10
119.215
 20
81.6847
 30
0.0
 40
0.333333
 41
0.333333
  0
VERTEX
  8
0
 10
119.177
 20
81.6847
 30
0.0
 40
0.333333
 41
0.333333
  0
VERTEX
  8
0
 10
119.138
 20
81.6847
 30
0.0
 40
0.333333
 41
0.333333
  0
VERTEX
  8
0
 10
119.023
 20
81.6925
 30
0.0
 40
0.333333
 41
0.333333
  0
VERTEX
  8
0
 10
118.874
 20
81.7153
 30
0.0
 40
0.333333
 41
0.333333
  0
VERTEX
  8
0
 10
118.73
 20
81.7522
 30
0.0
 40
0.333333
 41
0.333333
  0
VERTEX
  8
0
 10
118.593
 20
81.8026
 30
0.0
 40
0.333333
 41
0.333333
  0
VERTEX
  8
0
 10
118.462
 20
81.8658
 30
0.0
 40
0.333333
 41
0.333333
  0
VERTEX
  8
0
 10
118.338
 20
81.941
 30
0.0
 40
0.333333
 41
0.333333
  0
VERTEX
  8
0
 10
118.222
 20
82.0272
 30
0.0
 40
0.333333
 41
0.333333
  0
VERTEX
  8
0
 10
118.116
 20
82.124
 30
0.0
 40
0.333333
 41
0.333333
  0
VERTEX
  8
0
 10
118.019
 20
82.2307
 30
0.0
 40
0.333333
 41
0.333333
  0
VERTEX
  8
0
 10
117.933
 20
82.3461
 30
0.0
 40
0.333333
 41
0.333333
  0
VERTEX
  8
0
 10
117.858
 20
82.4697
 30
0.0
 40
0.333333
 41
0.333333
  0
VERTEX
  8
0
 10
117.794
 20
82.6008
 30
0.0
 40
0.333333
 41
0.333333
  0
VERTEX
  8
0
 10
117.744
 20
82.7387
 30
0.0
 40
0.333333
 41
0.333333
  0
VERTEX
  8
0
 10
117.707
 20
82.8825
 30
0.0
 40
0.333333
 41
0.333333
  0
VERTEX
  8
0
 10
117.684
 20
83.0314
 30
0.0
 40
0.333333
 41
0.333333
  0
VERTEX
  8
0
 10
117.677
 20
83.1464
 30
0.0
 40
0.333333
 41
0.333333
  0
VERTEX
  8
0
 10
117.677
 20
83.1847
 30
0.0
 40
0.333333
 41
0.333333
  0
VERTEX
  8
0
 10
117.677
 20
83.2231
 30
0.0
 40
0.333333
 41
0.333333
  0
VERTEX
  8
0
 10
117.684
 20
83.3381
 30
0.0
 40
0.333333
 41
0.333333
  0
VERTEX
  8
0
 10
117.707
 20
83.4871
 30
0.0
 40
0.333333
 41
0.333333
  0
VERTEX
  8
0
 10
117.744
 20
83.6308
 30
0.0
 40
0.333333
 41
0.333333
  0
VERTEX
  8
0
 10
117.794
 20
83.7686
 30
0.0
 40
0.333333
 41
0.333333
  0
VERTEX
  8
0
 10
117.858
 20
83.8997
 30
0.0
 40
0.333333
 41
0.333333
  0
VERTEX
  8
0
 10
117.933
 20
84.0235
 30
0.0
 40
0.333333
 41
0.333333
  0
VERTEX
  8
0
 10
118.019
 20
84.1389
 30
0.0
 40
0.333333
 41
0.333333
  0
VERTEX
  8
0
 10
118.116
 20
84.2454
 30
0.0
 40
0.333333
 41
0.333333
  0
VERTEX
  8
0
 10
118.222
 20
84.3422
 30
0.0
 40
0.333333
 41
0.333333
  0
VERTEX
  8
0
 10
118.338
 20
84.4286
 30
0.0
 40
0.333333
 41
0.333333
  0
VERTEX
  8
0
 10
118.462
 20
84.5038
 30
0.0
 40
0.333333
 41
0.333333
  0
VERTEX
  8
0
 10
118.593
 20
84.5669
 30
0.0
 40
0.333333
 41
0.333333
  0
VERTEX
  8
0
 10
118.73
 20
84.6174
 30
0.0
 40
0.333333
 41
0.333333
  0
VERTEX
  8
0
 10
118.874
 20
84.6543
 30
0.0
 40
0.333333
 41
0.333333
  0
VERTEX
  8
0
 10
119.023
 20
84.6771
 30
0.0
 40
0.333333
 41
0.333333
  0
VERTEX
  8
0
 10
119.138
 20
84.6847
 30
0.0
 40
0.333333
 41
0.333333
  0
VERTEX
  8
0
 10
119.177
 20
84.6847
 30
0.0
 40
0.333333
 41
0.333333
  0
VERTEX
  8
0
 10
119.215
 20
84.6847
 30
0.0
 40
0.333333
 41
0.333333
  0
VERTEX
  8
0
 10
119.33
 20
84.6771
 30
0.0
 40
0.333333
 41
0.333333
  0
VERTEX
  8
0
 10
119.479
 20
84.6543
 30
0.0
 40
0.333333
 41
0.333333
  0
VERTEX
  8
0
 10
119.623
 20
84.6174
 30
0.0
 40
0.333333
 41
0.333333
  0
VERTEX
  8
0
 10
119.76
 20
84.5669
 30
0.0
 40
0.333333
 41
0.333333
  0
VERTEX
  8
0
 10
119.892
 20
84.5038
 30
0.0
 40
0.333333
 41
0.333333
  0
VERTEX
  8
0
 10
120.015
 20
84.4286
 30
0.0
 40
0.333333
 41
0.333333
  0
VERTEX
  8
0
 10
120.131
 20
84.3422
 30
0.0
 40
0.333333
 41
0.333333
  0
VERTEX
  8
0
 10
120.237
 20
84.2454
 30
0.0
 40
0.333333
 41
0.333333
  0
VERTEX
  8
0
 10
120.334
 20
84.1389
 30
0.0
 40
0.333333
 41
0.333333
  0
VERTEX
  8
0
 10
120.42
 20
84.0235
 30
0.0
 40
0.333333
 41
0.333333
  0
VERTEX
  8
0
 10
120.496
 20
83.8997
 30
0.0
 40
0.333333
 41
0.333333
  0
VERTEX
  8
0
 10
120.559
 20
83.7686
 30
0.0
 40
0.333333
 41
0.333333
  0
VERTEX
  8
0
 10
120.609
 20
83.6308
 30
0.0
 40
0.333333
 41
0.333333
  0
VERTEX
  8
0
 10
120.646
 20
83.4871
 30
0.0
 40
0.333333
 41
0.333333
  0
VERTEX
  8
0
 10
120.669
 20
83.3381
 30
0.0
 40
0.333333
 41
0.333333
  0
VERTEX
  8
0
 10
120.677
 20
83.2231
 30
0.0
 40
0.333333
 41
0.333333
  0
VERTEX
  8
0
 10
120.677
 20
83.1847
 30
0.0
 40
0.333333
 41
0.333333
  0
SEQEND
 8
0
  0
POLYLINE
  8
0
 62
     0
 66
     1
 10
0
 20
0
 30
0.0
 70
     1
 40
24
 41
24
  0
VERTEX
  8
0
 10
120.677
 20
49.1847
 30
0.0
 40
0.333333
 41
0.333333
  0
VERTEX
  8
0
 10
120.677
 20
49.1464
 30
0.0
 40
0.333333
 41
0.333333
  0
VERTEX
  8
0
 10
120.669
 20
49.0314
 30
0.0
 40
0.333333
 41
0.333333
  0
VERTEX
  8
0
 10
120.646
 20
48.8824
 30
0.0
 40
0.333333
 41
0.333333
  0
VERTEX
  8
0
 10
120.609
 20
48.7386
 30
0.0
 40
0.333333
 41
0.333333
  0
VERTEX
  8
0
 10
120.559
 20
48.6008
 30
0.0
 40
0.333333
 41
0.333333
  0
VERTEX
  8
0
 10
120.496
 20
48.4697
 30
0.0
 40
0.333333
 41
0.333333
  0
VERTEX
  8
0
 10
120.42
 20
48.346
 30
0.0
 40
0.333333
 41
0.333333
  0
VERTEX
  8
0
 10
120.334
 20
48.2306
 30
0.0
 40
0.333333
 41
0.333333
  0
VERTEX
  8
0
 10
120.237
 20
48.124
 30
0.0
 40
0.333333
 41
0.333333
  0
VERTEX
  8
0
 10
120.131
 20
48.0272
 30
0.0
 40
0.333333
 41
0.333333
  0
VERTEX
  8
0
 10
120.015
 20
47.9408
 30
0.0
 40
0.333333
 41
0.333333
  0
VERTEX
  8
0
 10
119.892
 20
47.8657
 30
0.0
 40
0.333333
 41
0.333333
  0
VERTEX
  8
0
 10
119.76
 20
47.8026
 30
0.0
 40
0.333333
 41
0.333333
  0
VERTEX
  8
0
 10
119.623
 20
47.7521
 30
0.0
 40
0.333333
 41
0.333333
  0
VERTEX
  8
0
 10
119.479
 20
47.7151
 30
0.0
 40
0.333333
 41
0.333333
  0
VERTEX
  8
0
 10
119.33
 20
47.6925
 30
0.0
 40
0.333333
 41
0.333333
  0
VERTEX
  8
0
 10
119.215
 20
47.6847
 30
0.0
 40
0.333333
 41
0.333333
  0
VERTEX
  8
0
 10
119.177
 20
47.6847
 30
0.0
 40
0.333333
 41
0.333333
  0
VERTEX
  8
0
 10
119.138
 20
47.6847
 30
0.0
 40
0.333333
 41
0.333333
  0
VERTEX
  8
0
 10
119.023
 20
47.6925
 30
0.0
 40
0.333333
 41
0.333333
  0
VERTEX
  8
0
 10
118.874
 20
47.7151
 30
0.0
 40
0.333333
 41
0.333333
  0
VERTEX
  8
0
 10
118.73
 20
47.7521
 30
0.0
 40
0.333333
 41
0.333333
  0
VERTEX
  8
0
 10
118.593
 20
47.8026
 30
0.0
 40
0.333333
 41
0.333333
  0
VERTEX
  8
0
 10
118.462
 20
47.8657
 30
0.0
 40
0.333333
 41
0.333333
  0
VERTEX
  8
0
 10
118.338
 20
47.9408
 30
0.0
 40
0.333333
 41
0.333333
  0
VERTEX
  8
0
 10
118.222
 20
48.0272
 30
0.0
 40
0.333333
 41
0.333333
  0
VERTEX
  8
0
 10
118.116
 20
48.124
 30
0.0
 40
0.333333
 41
0.333333
  0
VERTEX
  8
0
 10
118.019
 20
48.2306
 30
0.0
 40
0.333333
 41
0.333333
  0
VERTEX
  8
0
 10
117.933
 20
48.346
 30
0.0
 40
0.333333
 41
0.333333
  0
VERTEX
  8
0
 10
117.858
 20
48.4697
 30
0.0
 40
0.333333
 41
0.333333
  0
VERTEX
  8
0
 10
117.794
 20
48.6008
 30
0.0
 40
0.333333
 41
0.333333
  0
VERTEX
  8
0
 10
117.744
 20
48.7386
 30
0.0
 40
0.333333
 41
0.333333
  0
VERTEX
  8
0
 10
117.707
 20
48.8824
 30
0.0
 40
0.333333
 41
0.333333
  0
VERTEX
  8
0
 10
117.684
 20
49.0314
 30
0.0
 40
0.333333
 41
0.333333
  0
VERTEX
  8
0
 10
117.677
 20
49.1464
 30
0.0
 40
0.333333
 41
0.333333
  0
VERTEX
  8
0
 10
117.677
 20
49.1847
 30
0.0
 40
0.333333
 41
0.333333
  0
VERTEX
  8
0
 10
117.677
 20
49.2231
 30
0.0
 40
0.333333
 41
0.333333
  0
VERTEX
  8
0
 10
117.684
 20
49.3381
 30
0.0
 40
0.333333
 41
0.333333
  0
VERTEX
  8
0
 10
117.707
 20
49.4869
 30
0.0
 40
0.333333
 41
0.333333
  0
VERTEX
  8
0
 10
117.744
 20
49.6307
 30
0.0
 40
0.333333
 41
0.333333
  0
VERTEX
  8
0
 10
117.794
 20
49.7686
 30
0.0
 40
0.333333
 41
0.333333
  0
VERTEX
  8
0
 10
117.858
 20
49.8997
 30
0.0
 40
0.333333
 41
0.333333
  0
VERTEX
  8
0
 10
117.933
 20
50.0233
 30
0.0
 40
0.333333
 41
0.333333
  0
VERTEX
  8
0
 10
118.019
 20
50.1389
 30
0.0
 40
0.333333
 41
0.333333
  0
VERTEX
  8
0
 10
118.116
 20
50.2453
 30
0.0
 40
0.333333
 41
0.333333
  0
VERTEX
  8
0
 10
118.222
 20
50.3422
 30
0.0
 40
0.333333
 41
0.333333
  0
VERTEX
  8
0
 10
118.338
 20
50.4286
 30
0.0
 40
0.333333
 41
0.333333
  0
VERTEX
  8
0
 10
118.462
 20
50.5036
 30
0.0
 40
0.333333
 41
0.333333
  0
VERTEX
  8
0
 10
118.593
 20
50.5668
 30
0.0
 40
0.333333
 41
0.333333
  0
VERTEX
  8
0
 10
118.73
 20
50.6172
 30
0.0
 40
0.333333
 41
0.333333
  0
VERTEX
  8
0
 10
118.874
 20
50.6543
 30
0.0
 40
0.333333
 41
0.333333
  0
VERTEX
  8
0
 10
119.023
 20
50.6769
 30
0.0
 40
0.333333
 41
0.333333
  0
VERTEX
  8
0
 10
119.138
 20
50.6847
 30
0.0
 40
0.333333
 41
0.333333
  0
VERTEX
  8
0
 10
119.177
 20
50.6847
 30
0.0
 40
0.333333
 41
0.333333
  0
VERTEX
  8
0
 10
119.215
 20
50.6847
 30
0.0
 40
0.333333
 41
0.333333
  0
VERTEX
  8
0
 10
119.33
 20
50.6769
 30
0.0
 40
0.333333
 41
0.333333
  0
VERTEX
  8
0
 10
119.479
 20
50.6543
 30
0.0
 40
0.333333
 41
0.333333
  0
VERTEX
  8
0
 10
119.623
 20
50.6172
 30
0.0
 40
0.333333
 41
0.333333
  0
VERTEX
  8
0
 10
119.76
 20
50.5668
 30
0.0
 40
0.333333
 41
0.333333
  0
VERTEX
  8
0
 10
119.892
 20
50.5036
 30
0.0
 40
0.333333
 41
0.333333
  0
VERTEX
  8
0
 10
120.015
 20
50.4286
 30
0.0
 40
0.333333
 41
0.333333
  0
VERTEX
  8
0
 10
120.131
 20
50.3422
 30
0.0
 40
0.333333
 41
0.333333
  0
VERTEX
  8
0
 10
120.237
 20
50.2453
 30
0.0
 40
0.333333
 41
0.333333
  0
VERTEX
  8
0
 10
120.334
 20
50.1389
 30
0.0
 40
0.333333
 41
0.333333
  0
VERTEX
  8
0
 10
120.42
 20
50.0233
 30
0.0
 40
0.333333
 41
0.333333
  0
VERTEX
  8
0
 10
120.496
 20
49.8997
 30
0.0
 40
0.333333
 41
0.333333
  0
VERTEX
  8
0
 10
120.559
 20
49.7686
 30
0.0
 40
0.333333
 41
0.333333
  0
VERTEX
  8
0
 10
120.609
 20
49.6307
 30
0.0
 40
0.333333
 41
0.333333
  0
VERTEX
  8
0
 10
120.646
 20
49.4869
 30
0.0
 40
0.333333
 41
0.333333
  0
VERTEX
  8
0
 10
120.669
 20
49.3381
 30
0.0
 40
0.333333
 41
0.333333
  0
VERTEX
  8
0
 10
120.677
 20
49.2231
 30
0.0
 40
0.333333
 41
0.333333
  0
VERTEX
  8
0
 10
120.677
 20
49.1847
 30
0.0
 40
0.333333
 41
0.333333
  0
SEQEND
 8
0
  0
POLYLINE
  8
0
 62
     0
 66
     1
 10
0
 20
0
 30
0.0
 70
     1
 40
24
 41
24
  0
VERTEX
  8
0
 10
5.67638
 20
84.1847
 30
0.0
 40
0.333333
 41
0.333333
  0
VERTEX
  8
0
 10
5.67638
 20
84.1464
 30
0.0
 40
0.333333
 41
0.333333
  0
VERTEX
  8
0
 10
5.66862
 20
84.0314
 30
0.0
 40
0.333333
 41
0.333333
  0
VERTEX
  8
0
 10
5.64589
 20
83.8825
 30
0.0
 40
0.333333
 41
0.333333
  0
VERTEX
  8
0
 10
5.60894
 20
83.7387
 30
0.0
 40
0.333333
 41
0.333333
  0
VERTEX
  8
0
 10
5.55849
 20
83.6008
 30
0.0
 40
0.333333
 41
0.333333
  0
VERTEX
  8
0
 10
5.49533
 20
83.4697
 30
0.0
 40
0.333333
 41
0.333333
  0
VERTEX
  8
0
 10
5.42019
 20
83.3461
 30
0.0
 40
0.333333
 41
0.333333
  0
VERTEX
  8
0
 10
5.33382
 20
83.2307
 30
0.0
 40
0.333333
 41
0.333333
  0
VERTEX
  8
0
 10
5.23703
 20
83.124
 30
0.0
 40
0.333333
 41
0.333333
  0
VERTEX
  8
0
 10
5.13049
 20
83.0272
 30
0.0
 40
0.333333
 41
0.333333
  0
VERTEX
  8
0
 10
5.01503
 20
82.941
 30
0.0
 40
0.333333
 41
0.333333
  0
VERTEX
  8
0
 10
4.89133
 20
82.8658
 30
0.0
 40
0.333333
 41
0.333333
  0
VERTEX
  8
0
 10
4.76025
 20
82.8026
 30
0.0
 40
0.333333
 41
0.333333
  0
VERTEX
  8
0
 10
4.6224
 20
82.7522
 30
0.0
 40
0.333333
 41
0.333333
  0
VERTEX
  8
0
 10
4.47868
 20
82.7153
 30
0.0
 40
0.333333
 41
0.333333
  0
VERTEX
  8
0
 10
4.32969
 20
82.6925
 30
0.0
 40
0.333333
 41
0.333333
  0
VERTEX
  8
0
 10
4.21468
 20
82.6847
 30
0.0
 40
0.333333
 41
0.333333
  0
VERTEX
  8
0
 10
4.17638
 20
82.6847
 30
0.0
 40
0.333333
 41
0.333333
  0
VERTEX
  8
0
 10
4.13803
 20
82.6847
 30
0.0
 40
0.333333
 41
0.333333
  0
VERTEX
  8
0
 10
4.023
 20
82.6925
 30
0.0
 40
0.333333
 41
0.333333
  0
VERTEX
  8
0
 10
3.87408
 20
82.7153
 30
0.0
 40
0.333333
 41
0.333333
  0
VERTEX
  8
0
 10
3.73031
 20
82.7522
 30
0.0
 40
0.333333
 41
0.333333
  0
VERTEX
  8
0
 10
3.5925
 20
82.8026
 30
0.0
 40
0.333333
 41
0.333333
  0
VERTEX
  8
0
 10
3.46137
 20
82.8658
 30
0.0
 40
0.333333
 41
0.333333
  0
VERTEX
  8
0
 10
3.33768
 20
82.941
 30
0.0
 40
0.333333
 41
0.333333
  0
VERTEX
  8
0
 10
3.22222
 20
83.0272
 30
0.0
 40
0.333333
 41
0.333333
  0
VERTEX
  8
0
 10
3.11572
 20
83.124
 30
0.0
 40
0.333333
 41
0.333333
  0
VERTEX
  8
0
 10
3.01887
 20
83.2307
 30
0.0
 40
0.333333
 41
0.333333
  0
VERTEX
  8
0
 10
2.93251
 20
83.3461
 30
0.0
 40
0.333333
 41
0.333333
  0
VERTEX
  8
0
 10
2.85742
 20
83.4697
 30
0.0
 40
0.333333
 41
0.333333
  0
VERTEX
  8
0
 10
2.79422
 20
83.6008
 30
0.0
 40
0.333333
 41
0.333333
  0
VERTEX
  8
0
 10
2.74382
 20
83.7387
 30
0.0
 40
0.333333
 41
0.333333
  0
VERTEX
  8
0
 10
2.70682
 20
83.8825
 30
0.0
 40
0.333333
 41
0.333333
  0
VERTEX
  8
0
 10
2.68408
 20
84.0314
 30
0.0
 40
0.333333
 41
0.333333
  0
VERTEX
  8
0
 10
2.67638
 20
84.1464
 30
0.0
 40
0.333333
 41
0.333333
  0
VERTEX
  8
0
 10
2.67638
 20
84.1847
 30
0.0
 40
0.333333
 41
0.333333
  0
VERTEX
  8
0
 10
2.67638
 20
84.2231
 30
0.0
 40
0.333333
 41
0.333333
  0
VERTEX
  8
0
 10
2.68408
 20
84.3381
 30
0.0
 40
0.333333
 41
0.333333
  0
VERTEX
  8
0
 10
2.70682
 20
84.4871
 30
0.0
 40
0.333333
 41
0.333333
  0
VERTEX
  8
0
 10
2.74382
 20
84.6308
 30
0.0
 40
0.333333
 41
0.333333
  0
VERTEX
  8
0
 10
2.79422
 20
84.7686
 30
0.0
 40
0.333333
 41
0.333333
  0
VERTEX
  8
0
 10
2.85742
 20
84.8997
 30
0.0
 40
0.333333
 41
0.333333
  0
VERTEX
  8
0
 10
2.93251
 20
85.0235
 30
0.0
 40
0.333333
 41
0.333333
  0
VERTEX
  8
0
 10
3.01887
 20
85.1389
 30
0.0
 40
0.333333
 41
0.333333
  0
VERTEX
  8
0
 10
3.11572
 20
85.2454
 30
0.0
 40
0.333333
 41
0.333333
  0
VERTEX
  8
0
 10
3.22222
 20
85.3422
 30
0.0
 40
0.333333
 41
0.333333
  0
VERTEX
  8
0
 10
3.33768
 20
85.4286
 30
0.0
 40
0.333333
 41
0.333333
  0
VERTEX
  8
0
 10
3.46137
 20
85.5038
 30
0.0
 40
0.333333
 41
0.333333
  0
VERTEX
  8
0
 10
3.5925
 20
85.5669
 30
0.0
 40
0.333333
 41
0.333333
  0
VERTEX
  8
0
 10
3.73031
 20
85.6174
 30
0.0
 40
0.333333
 41
0.333333
  0
VERTEX
  8
0
 10
3.87408
 20
85.6543
 30
0.0
 40
0.333333
 41
0.333333
  0
VERTEX
  8
0
 10
4.023
 20
85.6771
 30
0.0
 40
0.333333
 41
0.333333
  0
VERTEX
  8
0
 10
4.13803
 20
85.6847
 30
0.0
 40
0.333333
 41
0.333333
  0
VERTEX
  8
0
 10
4.17638
 20
85.6847
 30
0.0
 40
0.333333
 41
0.333333
  0
VERTEX
  8
0
 10
4.21468
 20
85.6847
 30
0.0
 40
0.333333
 41
0.333333
  0
VERTEX
  8
0
 10
4.32969
 20
85.6771
 30
0.0
 40
0.333333
 41
0.333333
  0
VERTEX
  8
0
 10
4.47868
 20
85.6543
 30
0.0
 40
0.333333
 41
0.333333
  0
VERTEX
  8
0
 10
4.6224
 20
85.6174
 30
0.0
 40
0.333333
 41
0.333333
  0
VERTEX
  8
0
 10
4.76025
 20
85.5669
 30
0.0
 40
0.333333
 41
0.333333
  0
VERTEX
  8
0
 10
4.89133
 20
85.5038
 30
0.0
 40
0.333333
 41
0.333333
  0
VERTEX
  8
0
 10
5.01503
 20
85.4286
 30
0.0
 40
0.333333
 41
0.333333
  0
VERTEX
  8
0
 10
5.13049
 20
85.3422
 30
0.0
 40
0.333333
 41
0.333333
  0
VERTEX
  8
0
 10
5.23703
 20
85.2454
 30
0.0
 40
0.333333
 41
0.333333
  0
VERTEX
  8
0
 10
5.33382
 20
85.1389
 30
0.0
 40
0.333333
 41
0.333333
  0
VERTEX
  8
0
 10
5.42019
 20
85.0235
 30
0.0
 40
0.333333
 41
0.333333
  0
VERTEX
  8
0
 10
5.49533
 20
84.8997
 30
0.0
 40
0.333333
 41
0.333333
  0
VERTEX
  8
0
 10
5.55849
 20
84.7686
 30
0.0
 40
0.333333
 41
0.333333
  0
VERTEX
  8
0
 10
5.60894
 20
84.6308
 30
0.0
 40
0.333333
 41
0.333333
  0
VERTEX
  8
0
 10
5.64589
 20
84.4871
 30
0.0
 40
0.333333
 41
0.333333
  0
VERTEX
  8
0
 10
5.66862
 20
84.3381
 30
0.0
 40
0.333333
 41
0.333333
  0
VERTEX
  8
0
 10
5.67638
 20
84.2231
 30
0.0
 40
0.333333
 41
0.333333
  0
VERTEX
  8
0
 10
5.67638
 20
84.1847
 30
0.0
 40
0.333333
 41
0.333333
  0
SEQEND
 8
0
  0
POLYLINE
  8
0
 62
     0
 66
     1
 10
0
 20
0
 30
0.0
 70
     1
 40
24
 41
24
  0
VERTEX
  8
0
 10
5.67638
 20
52.1847
 30
0.0
 40
0.333333
 41
0.333333
  0
VERTEX
  8
0
 10
5.67638
 20
52.1464
 30
0.0
 40
0.333333
 41
0.333333
  0
VERTEX
  8
0
 10
5.66862
 20
52.0314
 30
0.0
 40
0.333333
 41
0.333333
  0
VERTEX
  8
0
 10
5.64589
 20
51.8824
 30
0.0
 40
0.333333
 41
0.333333
  0
VERTEX
  8
0
 10
5.60894
 20
51.7386
 30
0.0
 40
0.333333
 41
0.333333
  0
VERTEX
  8
0
 10
5.55849
 20
51.6008
 30
0.0
 40
0.333333
 41
0.333333
  0
VERTEX
  8
0
 10
5.49533
 20
51.4697
 30
0.0
 40
0.333333
 41
0.333333
  0
VERTEX
  8
0
 10
5.42019
 20
51.346
 30
0.0
 40
0.333333
 41
0.333333
  0
VERTEX
  8
0
 10
5.33382
 20
51.2306
 30
0.0
 40
0.333333
 41
0.333333
  0
VERTEX
  8
0
 10
5.23703
 20
51.124
 30
0.0
 40
0.333333
 41
0.333333
  0
VERTEX
  8
0
 10
5.13049
 20
51.0272
 30
0.0
 40
0.333333
 41
0.333333
  0
VERTEX
  8
0
 10
5.01503
 20
50.9408
 30
0.0
 40
0.333333
 41
0.333333
  0
VERTEX
  8
0
 10
4.89133
 20
50.8657
 30
0.0
 40
0.333333
 41
0.333333
  0
VERTEX
  8
0
 10
4.76025
 20
50.8026
 30
0.0
 40
0.333333
 41
0.333333
  0
VERTEX
  8
0
 10
4.6224
 20
50.7521
 30
0.0
 40
0.333333
 41
0.333333
  0
VERTEX
  8
0
 10
4.47868
 20
50.7151
 30
0.0
 40
0.333333
 41
0.333333
  0
VERTEX
  8
0
 10
4.32969
 20
50.6925
 30
0.0
 40
0.333333
 41
0.333333
  0
VERTEX
  8
0
 10
4.21468
 20
50.6847
 30
0.0
 40
0.333333
 41
0.333333
  0
VERTEX
  8
0
 10
4.17638
 20
50.6847
 30
0.0
 40
0.333333
 41
0.333333
  0
VERTEX
  8
0
 10
4.13803
 20
50.6847
 30
0.0
 40
0.333333
 41
0.333333
  0
VERTEX
  8
0
 10
4.023
 20
50.6925
 30
0.0
 40
0.333333
 41
0.333333
  0
VERTEX
  8
0
 10
3.87408
 20
50.7151
 30
0.0
 40
0.333333
 41
0.333333
  0
VERTEX
  8
0
 10
3.73031
 20
50.7521
 30
0.0
 40
0.333333
 41
0.333333
  0
VERTEX
  8
0
 10
3.5925
 20
50.8026
 30
0.0
 40
0.333333
 41
0.333333
  0
VERTEX
  8
0
 10
3.46137
 20
50.8657
 30
0.0
 40
0.333333
 41
0.333333
  0
VERTEX
  8
0
 10
3.33768
 20
50.9408
 30
0.0
 40
0.333333
 41
0.333333
  0
VERTEX
  8
0
 10
3.22222
 20
51.0272
 30
0.0
 40
0.333333
 41
0.333333
  0
VERTEX
  8
0
 10
3.11572
 20
51.124
 30
0.0
 40
0.333333
 41
0.333333
  0
VERTEX
  8
0
 10
3.01887
 20
51.2306
 30
0.0
 40
0.333333
 41
0.333333
  0
VERTEX
  8
0
 10
2.93251
 20
51.346
 30
0.0
 40
0.333333
 41
0.333333
  0
VERTEX
  8
0
 10
2.85742
 20
51.4697
 30
0.0
 40
0.333333
 41
0.333333
  0
VERTEX
  8
0
 10
2.79422
 20
51.6008
 30
0.0
 40
0.333333
 41
0.333333
  0
VERTEX
  8
0
 10
2.74382
 20
51.7386
 30
0.0
 40
0.333333
 41
0.333333
  0
VERTEX
  8
0
 10
2.70682
 20
51.8824
 30
0.0
 40
0.333333
 41
0.333333
  0
VERTEX
  8
0
 10
2.68408
 20
52.0314
 30
0.0
 40
0.333333
 41
0.333333
  0
VERTEX
  8
0
 10
2.67638
 20
52.1464
 30
0.0
 40
0.333333
 41
0.333333
  0
VERTEX
  8
0
 10
2.67638
 20
52.1847
 30
0.0
 40
0.333333
 41
0.333333
  0
VERTEX
  8
0
 10
2.67638
 20
52.2231
 30
0.0
 40
0.333333
 41
0.333333
  0
VERTEX
  8
0
 10
2.68408
 20
52.3381
 30
0.0
 40
0.333333
 41
0.333333
  0
VERTEX
  8
0
 10
2.70682
 20
52.4869
 30
0.0
 40
0.333333
 41
0.333333
  0
VERTEX
  8
0
 10
2.74382
 20
52.6307
 30
0.0
 40
0.333333
 41
0.333333
  0
VERTEX
  8
0
 10
2.79422
 20
52.7686
 30
0.0
 40
0.333333
 41
0.333333
  0
VERTEX
  8
0
 10
2.85742
 20
52.8997
 30
0.0
 40
0.333333
 41
0.333333
  0
VERTEX
  8
0
 10
2.93251
 20
53.0233
 30
0.0
 40
0.333333
 41
0.333333
  0
VERTEX
  8
0
 10
3.01887
 20
53.1389
 30
0.0
 40
0.333333
 41
0.333333
  0
VERTEX
  8
0
 10
3.11572
 20
53.2453
 30
0.0
 40
0.333333
 41
0.333333
  0
VERTEX
  8
0
 10
3.22222
 20
53.3422
 30
0.0
 40
0.333333
 41
0.333333
  0
VERTEX
  8
0
 10
3.33768
 20
53.4286
 30
0.0
 40
0.333333
 41
0.333333
  0
VERTEX
  8
0
 10
3.46137
 20
53.5036
 30
0.0
 40
0.333333
 41
0.333333
  0
VERTEX
  8
0
 10
3.5925
 20
53.5668
 30
0.0
 40
0.333333
 41
0.333333
  0
VERTEX
  8
0
 10
3.73031
 20
53.6172
 30
0.0
 40
0.333333
 41
0.333333
  0
VERTEX
  8
0
 10
3.87408
 20
53.6543
 30
0.0
 40
0.333333
 41
0.333333
  0
VERTEX
  8
0
 10
4.023
 20
53.6769
 30
0.0
 40
0.333333
 41
0.333333
  0
VERTEX
  8
0
 10
4.13803
 20
53.6847
 30
0.0
 40
0.333333
 41
0.333333
  0
VERTEX
  8
0
 10
4.17638
 20
53.6847
 30
0.0
 40
0.333333
 41
0.333333
  0
VERTEX
  8
0
 10
4.21468
 20
53.6847
 30
0.0
 40
0.333333
 41
0.333333
  0
VERTEX
  8
0
 10
4.32969
 20
53.6769
 30
0.0
 40
0.333333
 41
0.333333
  0
VERTEX
  8
0
 10
4.47868
 20
53.6543
 30
0.0
 40
0.333333
 41
0.333333
  0
VERTEX
  8
0
 10
4.6224
 20
53.6172
 30
0.0
 40
0.333333
 41
0.333333
  0
VERTEX
  8
0
 10
4.76025
 20
53.5668
 30
0.0
 40
0.333333
 41
0.333333
  0
VERTEX
  8
0
 10
4.89133
 20
53.5036
 30
0.0
 40
0.333333
 41
0.333333
  0
VERTEX
  8
0
 10
5.01503
 20
53.4286
 30
0.0
 40
0.333333
 41
0.333333
  0
VERTEX
  8
0
 10
5.13049
 20
53.3422
 30
0.0
 40
0.333333
 41
0.333333
  0
VERTEX
  8
0
 10
5.23703
 20
53.2453
 30
0.0
 40
0.333333
 41
0.333333
  0
VERTEX
  8
0
 10
5.33382
 20
53.1389
 30
0.0
 40
0.333333
 41
0.333333
  0
VERTEX
  8
0
 10
5.42019
 20
53.0233
 30
0.0
 40
0.333333
 41
0.333333
  0
VERTEX
  8
0
 10
5.49533
 20
52.8997
 30
0.0
 40
0.333333
 41
0.333333
  0
VERTEX
  8
0
 10
5.55849
 20
52.7686
 30
0.0
 40
0.333333
 41
0.333333
  0
VERTEX
  8
0
 10
5.60894
 20
52.6307
 30
0.0
 40
0.333333
 41
0.333333
  0
VERTEX
  8
0
 10
5.64589
 20
52.4869
 30
0.0
 40
0.333333
 41
0.333333
  0
VERTEX
  8
0
 10
5.66862
 20
52.3381
 30
0.0
 40
0.333333
 41
0.333333
  0
VERTEX
  8
0
 10
5.67638
 20
52.2231
 30
0.0
 40
0.333333
 41
0.333333
  0
VERTEX
  8
0
 10
5.67638
 20
52.1847
 30
0.0
 40
0.333333
 41
0.333333
  0
SEQEND
 8
0
  0
POLYLINE
  8
0
 62
     0
 66
     1
 10
0
 20
0
 30
0.0
 70
     1
 40
24
 41
24
  0
VERTEX
  8
0
 10
104.677
 20
32.5346
 30
0.0
 40
0.333333
 41
0.333333
  0
VERTEX
  8
0
 10
104.677
 20
32.4843
 30
0.0
 40
0.333333
 41
0.333333
  0
VERTEX
  8
0
 10
104.656
 20
32.3331
 30
0.0
 40
0.333333
 41
0.333333
  0
VERTEX
  8
0
 10
104.598
 20
32.1454
 30
0.0
 40
0.333333
 41
0.333333
  0
VERTEX
  8
0
 10
104.506
 20
31.9756
 30
0.0
 40
0.333333
 41
0.333333
  0
VERTEX
  8
0
 10
104.384
 20
31.8275
 30
0.0
 40
0.333333
 41
0.333333
  0
VERTEX
  8
0
 10
104.236
 20
31.7054
 30
0.0
 40
0.333333
 41
0.333333
  0
VERTEX
  8
0
 10
104.066
 20
31.6132
 30
0.0
 40
0.333333
 41
0.333333
  0
VERTEX
  8
0
 10
103.878
 20
31.555
 30
0.0
 40
0.333333
 41
0.333333
  0
VERTEX
  8
0
 10
103.727
 20
31.5346
 30
0.0
 40
0.333333
 41
0.333333
  0
VERTEX
  8
0
 10
103.677
 20
31.5346
 30
0.0
 40
0.333333
 41
0.333333
  0
VERTEX
  8
0
 10
103.626
 20
31.5346
 30
0.0
 40
0.333333
 41
0.333333
  0
VERTEX
  8
0
 10
103.475
 20
31.555
 30
0.0
 40
0.333333
 41
0.333333
  0
VERTEX
  8
0
 10
103.287
 20
31.6132
 30
0.0
 40
0.333333
 41
0.333333
  0
VERTEX
  8
0
 10
103.117
 20
31.7054
 30
0.0
 40
0.333333
 41
0.333333
  0
VERTEX
  8
0
 10
102.969
 20
31.8275
 30
0.0
 40
0.333333
 41
0.333333
  0
VERTEX
  8
0
 10
102.847
 20
31.9756
 30
0.0
 40
0.333333
 41
0.333333
  0
VERTEX
  8
0
 10
102.755
 20
32.1454
 30
0.0
 40
0.333333
 41
0.333333
  0
VERTEX
  8
0
 10
102.697
 20
32.3331
 30
0.0
 40
0.333333
 41
0.333333
  0
VERTEX
  8
0
 10
102.677
 20
32.4843
 30
0.0
 40
0.333333
 41
0.333333
  0
VERTEX
  8
0
 10
102.677
 20
32.5346
 30
0.0
 40
0.333333
 41
0.333333
  0
VERTEX
  8
0
 10
102.677
 20
32.585
 30
0.0
 40
0.333333
 41
0.333333
  0
VERTEX
  8
0
 10
102.697
 20
32.7361
 30
0.0
 40
0.333333
 41
0.333333
  0
VERTEX
  8
0
 10
102.755
 20
32.9239
 30
0.0
 40
0.333333
 41
0.333333
  0
VERTEX
  8
0
 10
102.847
 20
33.0938
 30
0.0
 40
0.333333
 41
0.333333
  0
VERTEX
  8
0
 10
102.969
 20
33.2418
 30
0.0
 40
0.333333
 41
0.333333
  0
VERTEX
  8
0
 10
103.117
 20
33.3639
 30
0.0
 40
0.333333
 41
0.333333
  0
VERTEX
  8
0
 10
103.287
 20
33.4561
 30
0.0
 40
0.333333
 41
0.333333
  0
VERTEX
  8
0
 10
103.475
 20
33.5143
 30
0.0
 40
0.333333
 41
0.333333
  0
VERTEX
  8
0
 10
103.626
 20
33.5346
 30
0.0
 40
0.333333
 41
0.333333
  0
VERTEX
  8
0
 10
103.677
 20
33.5346
 30
0.0
 40
0.333333
 41
0.333333
  0
VERTEX
  8
0
 10
103.727
 20
33.5346
 30
0.0
 40
0.333333
 41
0.333333
  0
VERTEX
  8
0
 10
103.878
 20
33.5143
 30
0.0
 40
0.333333
 41
0.333333
  0
VERTEX
  8
0
 10
104.066
 20
33.4561
 30
0.0
 40
0.333333
 41
0.333333
  0
VERTEX
  8
0
 10
104.236
 20
33.3639
 30
0.0
 40
0.333333
 41
0.333333
  0
VERTEX
  8
0
 10
104.384
 20
33.2418
 30
0.0
 40
0.333333
 41
0.333333
  0
VERTEX
  8
0
 10
104.506
 20
33.0938
 30
0.0
 40
0.333333
 41
0.333333
  0
VERTEX
  8
0
 10
104.598
 20
32.9239
 30
0.0
 40
0.333333
 41
0.333333
  0
VERTEX
  8
0
 10
104.656
 20
32.7361
 30
0.0
 40
0.333333
 41
0.333333
  0
VERTEX
  8
0
 10
104.677
 20
32.585
 30
0.0
 40
0.333333
 41
0.333333
  0
VERTEX
  8
0
 10
104.677
 20
32.5346
 30
0.0
 40
0.333333
 41
0.333333
  0
SEQEND
 8
0
  0
POLYLINE
  8
0
 62
     0
 66
     1
 10
0
 20
0
 30
0.0
 70
     1
 40
24
 41
24
  0
VERTEX
  8
0
 10
104.677
 20
39.0347
 30
0.0
 40
0.333333
 41
0.333333
  0
VERTEX
  8
0
 10
104.677
 20
38.9843
 30
0.0
 40
0.333333
 41
0.333333
  0
VERTEX
  8
0
 10
104.656
 20
38.8332
 30
0.0
 40
0.333333
 41
0.333333
  0
VERTEX
  8
0
 10
104.598
 20
38.6454
 30
0.0
 40
0.333333
 41
0.333333
  0
VERTEX
  8
0
 10
104.506
 20
38.4756
 30
0.0
 40
0.333333
 41
0.333333
  0
VERTEX
  8
0
 10
104.384
 20
38.3276
 30
0.0
 40
0.333333
 41
0.333333
  0
VERTEX
  8
0
 10
104.236
 20
38.2054
 30
0.0
 40
0.333333
 41
0.333333
  0
VERTEX
  8
0
 10
104.066
 20
38.1133
 30
0.0
 40
0.333333
 41
0.333333
  0
VERTEX
  8
0
 10
103.878
 20
38.055
 30
0.0
 40
0.333333
 41
0.333333
  0
VERTEX
  8
0
 10
103.727
 20
38.0347
 30
0.0
 40
0.333333
 41
0.333333
  0
VERTEX
  8
0
 10
103.677
 20
38.0347
 30
0.0
 40
0.333333
 41
0.333333
  0
VERTEX
  8
0
 10
103.626
 20
38.0347
 30
0.0
 40
0.333333
 41
0.333333
  0
VERTEX
  8
0
 10
103.475
 20
38.055
 30
0.0
 40
0.333333
 41
0.333333
  0
VERTEX
  8
0
 10
103.287
 20
38.1133
 30
0.0
 40
0.333333
 41
0.333333
  0
VERTEX
  8
0
 10
103.117
 20
38.2054
 30
0.0
 40
0.333333
 41
0.333333
  0
VERTEX
  8
0
 10
102.969
 20
38.3276
 30
0.0
 40
0.333333
 41
0.333333
  0
VERTEX
  8
0
 10
102.847
 20
38.4756
 30
0.0
 40
0.333333
 41
0.333333
  0
VERTEX
  8
0
 10
102.755
 20
38.6454
 30
0.0
 40
0.333333
 41
0.333333
  0
VERTEX
  8
0
 10
102.697
 20
38.8332
 30
0.0
 40
0.333333
 41
0.333333
  0
VERTEX
  8
0
 10
102.677
 20
38.9843
 30
0.0
 40
0.333333
 41
0.333333
  0
VERTEX
  8
0
 10
102.677
 20
39.0347
 30
0.0
 40
0.333333
 41
0.333333
  0
VERTEX
  8
0
 10
102.677
 20
39.0851
 30
0.0
 40
0.333333
 41
0.333333
  0
VERTEX
  8
0
 10
102.697
 20
39.2363
 30
0.0
 40
0.333333
 41
0.333333
  0
VERTEX
  8
0
 10
102.755
 20
39.4239
 30
0.0
 40
0.333333
 41
0.333333
  0
VERTEX
  8
0
 10
102.847
 20
39.5938
 30
0.0
 40
0.333333
 41
0.333333
  0
VERTEX
  8
0
 10
102.969
 20
39.7418
 30
0.0
 40
0.333333
 41
0.333333
  0
VERTEX
  8
0
 10
103.117
 20
39.8639
 30
0.0
 40
0.333333
 41
0.333333
  0
VERTEX
  8
0
 10
103.287
 20
39.9561
 30
0.0
 40
0.333333
 41
0.333333
  0
VERTEX
  8
0
 10
103.475
 20
40.0144
 30
0.0
 40
0.333333
 41
0.333333
  0
VERTEX
  8
0
 10
103.626
 20
40.0347
 30
0.0
 40
0.333333
 41
0.333333
  0
VERTEX
  8
0
 10
103.677
 20
40.0347
 30
0.0
 40
0.333333
 41
0.333333
  0
VERTEX
  8
0
 10
103.727
 20
40.0347
 30
0.0
 40
0.333333
 41
0.333333
  0
VERTEX
  8
0
 10
103.878
 20
40.0144
 30
0.0
 40
0.333333
 41
0.333333
  0
VERTEX
  8
0
 10
104.066
 20
39.9561
 30
0.0
 40
0.333333
 41
0.333333
  0
VERTEX
  8
0
 10
104.236
 20
39.8639
 30
0.0
 40
0.333333
 41
0.333333
  0
VERTEX
  8
0
 10
104.384
 20
39.7418
 30
0.0
 40
0.333333
 41
0.333333
  0
VERTEX
  8
0
 10
104.506
 20
39.5938
 30
0.0
 40
0.333333
 41
0.333333
  0
VERTEX
  8
0
 10
104.598
 20
39.4239
 30
0.0
 40
0.333333
 41
0.333333
  0
VERTEX
  8
0
 10
104.656
 20
39.2363
 30
0.0
 40
0.333333
 41
0.333333
  0
VERTEX
  8
0
 10
104.677
 20
39.0851
 30
0.0
 40
0.333333
 41
0.333333
  0
VERTEX
  8
0
 10
104.677
 20
39.0347
 30
0.0
 40
0.333333
 41
0.333333
  0
SEQEND
 8
0
  0
POLYLINE
  8
0
 62
     0
 66
     1
 10
0
 20
0
 30
0.0
 70
     1
 40
24
 41
24
  0
VERTEX
  8
0
 10
120.677
 20
39.1846
 30
0.0
 40
0.333333
 41
0.333333
  0
VERTEX
  8
0
 10
120.677
 20
39.1464
 30
0.0
 40
0.333333
 41
0.333333
  0
VERTEX
  8
0
 10
120.669
 20
39.0313
 30
0.0
 40
0.333333
 41
0.333333
  0
VERTEX
  8
0
 10
120.646
 20
38.8824
 30
0.0
 40
0.333333
 41
0.333333
  0
VERTEX
  8
0
 10
120.609
 20
38.7386
 30
0.0
 40
0.333333
 41
0.333333
  0
VERTEX
  8
0
 10
120.559
 20
38.6008
 30
0.0
 40
0.333333
 41
0.333333
  0
VERTEX
  8
0
 10
120.496
 20
38.4697
 30
0.0
 40
0.333333
 41
0.333333
  0
VERTEX
  8
0
 10
120.42
 20
38.346
 30
0.0
 40
0.333333
 41
0.333333
  0
VERTEX
  8
0
 10
120.334
 20
38.2306
 30
0.0
 40
0.333333
 41
0.333333
  0
VERTEX
  8
0
 10
120.237
 20
38.124
 30
0.0
 40
0.333333
 41
0.333333
  0
VERTEX
  8
0
 10
120.131
 20
38.0272
 30
0.0
 40
0.333333
 41
0.333333
  0
VERTEX
  8
0
 10
120.015
 20
37.9408
 30
0.0
 40
0.333333
 41
0.333333
  0
VERTEX
  8
0
 10
119.892
 20
37.8657
 30
0.0
 40
0.333333
 41
0.333333
  0
VERTEX
  8
0
 10
119.76
 20
37.8025
 30
0.0
 40
0.333333
 41
0.333333
  0
VERTEX
  8
0
 10
119.623
 20
37.7521
 30
0.0
 40
0.333333
 41
0.333333
  0
VERTEX
  8
0
 10
119.479
 20
37.7151
 30
0.0
 40
0.333333
 41
0.333333
  0
VERTEX
  8
0
 10
119.33
 20
37.6924
 30
0.0
 40
0.333333
 41
0.333333
  0
VERTEX
  8
0
 10
119.215
 20
37.6846
 30
0.0
 40
0.333333
 41
0.333333
  0
VERTEX
  8
0
 10
119.177
 20
37.6846
 30
0.0
 40
0.333333
 41
0.333333
  0
VERTEX
  8
0
 10
119.138
 20
37.6846
 30
0.0
 40
0.333333
 41
0.333333
  0
VERTEX
  8
0
 10
119.023
 20
37.6924
 30
0.0
 40
0.333333
 41
0.333333
  0
VERTEX
  8
0
 10
118.874
 20
37.7151
 30
0.0
 40
0.333333
 41
0.333333
  0
VERTEX
  8
0
 10
118.73
 20
37.7521
 30
0.0
 40
0.333333
 41
0.333333
  0
VERTEX
  8
0
 10
118.593
 20
37.8025
 30
0.0
 40
0.333333
 41
0.333333
  0
VERTEX
  8
0
 10
118.462
 20
37.8657
 30
0.0
 40
0.333333
 41
0.333333
  0
VERTEX
  8
0
 10
118.338
 20
37.9408
 30
0.0
 40
0.333333
 41
0.333333
  0
VERTEX
  8
0
 10
118.222
 20
38.0272
 30
0.0
 40
0.333333
 41
0.333333
  0
VERTEX
  8
0
 10
118.116
 20
38.124
 30
0.0
 40
0.333333
 41
0.333333
  0
VERTEX
  8
0
 10
118.019
 20
38.2306
 30
0.0
 40
0.333333
 41
0.333333
  0
VERTEX
  8
0
 10
117.933
 20
38.346
 30
0.0
 40
0.333333
 41
0.333333
  0
VERTEX
  8
0
 10
117.858
 20
38.4697
 30
0.0
 40
0.333333
 41
0.333333
  0
VERTEX
  8
0
 10
117.794
 20
38.6008
 30
0.0
 40
0.333333
 41
0.333333
  0
VERTEX
  8
0
 10
117.744
 20
38.7386
 30
0.0
 40
0.333333
 41
0.333333
  0
VERTEX
  8
0
 10
117.707
 20
38.8824
 30
0.0
 40
0.333333
 41
0.333333
  0
VERTEX
  8
0
 10
117.684
 20
39.0313
 30
0.0
 40
0.333333
 41
0.333333
  0
VERTEX
  8
0
 10
117.677
 20
39.1464
 30
0.0
 40
0.333333
 41
0.333333
  0
VERTEX
  8
0
 10
117.677
 20
39.1846
 30
0.0
 40
0.333333
 41
0.333333
  0
VERTEX
  8
0
 10
117.677
 20
39.2229
 30
0.0
 40
0.333333
 41
0.333333
  0
VERTEX
  8
0
 10
117.684
 20
39.3381
 30
0.0
 40
0.333333
 41
0.333333
  0
VERTEX
  8
0
 10
117.707
 20
39.4869
 30
0.0
 40
0.333333
 41
0.333333
  0
VERTEX
  8
0
 10
117.744
 20
39.6307
 30
0.0
 40
0.333333
 41
0.333333
  0
VERTEX
  8
0
 10
117.794
 20
39.7686
 30
0.0
 40
0.333333
 41
0.333333
  0
VERTEX
  8
0
 10
117.858
 20
39.8996
 30
0.0
 40
0.333333
 41
0.333333
  0
VERTEX
  8
0
 10
117.933
 20
40.0233
 30
0.0
 40
0.333333
 41
0.333333
  0
VERTEX
  8
0
 10
118.019
 20
40.1388
 30
0.0
 40
0.333333
 41
0.333333
  0
VERTEX
  8
0
 10
118.116
 20
40.2453
 30
0.0
 40
0.333333
 41
0.333333
  0
VERTEX
  8
0
 10
118.222
 20
40.3421
 30
0.0
 40
0.333333
 41
0.333333
  0
VERTEX
  8
0
 10
118.338
 20
40.4285
 30
0.0
 40
0.333333
 41
0.333333
  0
VERTEX
  8
0
 10
118.462
 20
40.5036
 30
0.0
 40
0.333333
 41
0.333333
  0
VERTEX
  8
0
 10
118.593
 20
40.5668
 30
0.0
 40
0.333333
 41
0.333333
  0
VERTEX
  8
0
 10
118.73
 20
40.6172
 30
0.0
 40
0.333333
 41
0.333333
  0
VERTEX
  8
0
 10
118.874
 20
40.6542
 30
0.0
 40
0.333333
 41
0.333333
  0
VERTEX
  8
0
 10
119.023
 20
40.6769
 30
0.0
 40
0.333333
 41
0.333333
  0
VERTEX
  8
0
 10
119.138
 20
40.6846
 30
0.0
 40
0.333333
 41
0.333333
  0
VERTEX
  8
0
 10
119.177
 20
40.6846
 30
0.0
 40
0.333333
 41
0.333333
  0
VERTEX
  8
0
 10
119.215
 20
40.6846
 30
0.0
 40
0.333333
 41
0.333333
  0
VERTEX
  8
0
 10
119.33
 20
40.6769
 30
0.0
 40
0.333333
 41
0.333333
  0
VERTEX
  8
0
 10
119.479
 20
40.6542
 30
0.0
 40
0.333333
 41
0.333333
  0
VERTEX
  8
0
 10
119.623
 20
40.6172
 30
0.0
 40
0.333333
 41
0.333333
  0
VERTEX
  8
0
 10
119.76
 20
40.5668
 30
0.0
 40
0.333333
 41
0.333333
  0
VERTEX
  8
0
 10
119.892
 20
40.5036
 30
0.0
 40
0.333333
 41
0.333333
  0
VERTEX
  8
0
 10
120.015
 20
40.4285
 30
0.0
 40
0.333333
 41
0.333333
  0
VERTEX
  8
0
 10
120.131
 20
40.3421
 30
0.0
 40
0.333333
 41
0.333333
  0
VERTEX
  8
0
 10
120.237
 20
40.2453
 30
0.0
 40
0.333333
 41
0.333333
  0
VERTEX
  8
0
 10
120.334
 20
40.1388
 30
0.0
 40
0.333333
 41
0.333333
  0
VERTEX
  8
0
 10
120.42
 20
40.0233
 30
0.0
 40
0.333333
 41
0.333333
  0
VERTEX
  8
0
 10
120.496
 20
39.8996
 30
0.0
 40
0.333333
 41
0.333333
  0
VERTEX
  8
0
 10
120.559
 20
39.7686
 30
0.0
 40
0.333333
 41
0.333333
  0
VERTEX
  8
0
 10
120.609
 20
39.6307
 30
0.0
 40
0.333333
 41
0.333333
  0
VERTEX
  8
0
 10
120.646
 20
39.4869
 30
0.0
 40
0.333333
 41
0.333333
  0
VERTEX
  8
0
 10
120.669
 20
39.3381
 30
0.0
 40
0.333333
 41
0.333333
  0
VERTEX
  8
0
 10
120.677
 20
39.2229
 30
0.0
 40
0.333333
 41
0.333333
  0
VERTEX
  8
0
 10
120.677
 20
39.1846
 30
0.0
 40
0.333333
 41
0.333333
  0
SEQEND
 8
0
  0
POLYLINE
  8
0
 62
     0
 66
     1
 10
0
 20
0
 30
0.0
 70
     1
 40
24
 41
24
  0
VERTEX
  8
0
 10
120.677
 20
5.18457
 30
0.0
 40
0.333333
 41
0.333333
  0
VERTEX
  8
0
 10
120.677
 20
5.14626
 30
0.0
 40
0.333333
 41
0.333333
  0
VERTEX
  8
0
 10
120.669
 20
5.03125
 30
0.0
 40
0.333333
 41
0.333333
  0
VERTEX
  8
0
 10
120.646
 20
4.88232
 30
0.0
 40
0.333333
 41
0.333333
  0
VERTEX
  8
0
 10
120.609
 20
4.73856
 30
0.0
 40
0.333333
 41
0.333333
  0
VERTEX
  8
0
 10
120.559
 20
4.60075
 30
0.0
 40
0.333333
 41
0.333333
  0
VERTEX
  8
0
 10
120.496
 20
4.46962
 30
0.0
 40
0.333333
 41
0.333333
  0
VERTEX
  8
0
 10
120.42
 20
4.34592
 30
0.0
 40
0.333333
 41
0.333333
  0
VERTEX
  8
0
 10
120.334
 20
4.23047
 30
0.0
 40
0.333333
 41
0.333333
  0
VERTEX
  8
0
 10
120.237
 20
4.12397
 30
0.0
 40
0.333333
 41
0.333333
  0
VERTEX
  8
0
 10
120.131
 20
4.02713
 30
0.0
 40
0.333333
 41
0.333333
  0
VERTEX
  8
0
 10
120.015
 20
3.94075
 30
0.0
 40
0.333333
 41
0.333333
  0
VERTEX
  8
0
 10
119.892
 20
3.86567
 30
0.0
 40
0.333333
 41
0.333333
  0
VERTEX
  8
0
 10
119.76
 20
3.80246
 30
0.0
 40
0.333333
 41
0.333333
  0
VERTEX
  8
0
 10
119.623
 20
3.75206
 30
0.0
 40
0.333333
 41
0.333333
  0
VERTEX
  8
0
 10
119.479
 20
3.71506
 30
0.0
 40
0.333333
 41
0.333333
  0
VERTEX
  8
0
 10
119.33
 20
3.69233
 30
0.0
 40
0.333333
 41
0.333333
  0
VERTEX
  8
0
 10
119.215
 20
3.68457
 30
0.0
 40
0.333333
 41
0.333333
  0
VERTEX
  8
0
 10
119.177
 20
3.68457
 30
0.0
 40
0.333333
 41
0.333333
  0
VERTEX
  8
0
 10
119.138
 20
3.68457
 30
0.0
 40
0.333333
 41
0.333333
  0
VERTEX
  8
0
 10
119.023
 20
3.69233
 30
0.0
 40
0.333333
 41
0.333333
  0
VERTEX
  8
0
 10
118.874
 20
3.71506
 30
0.0
 40
0.333333
 41
0.333333
  0
VERTEX
  8
0
 10
118.73
 20
3.75206
 30
0.0
 40
0.333333
 41
0.333333
  0
VERTEX
  8
0
 10
118.593
 20
3.80246
 30
0.0
 40
0.333333
 41
0.333333
  0
VERTEX
  8
0
 10
118.462
 20
3.86567
 30
0.0
 40
0.333333
 41
0.333333
  0
VERTEX
  8
0
 10
118.338
 20
3.94075
 30
0.0
 40
0.333333
 41
0.333333
  0
VERTEX
  8
0
 10
118.222
 20
4.02713
 30
0.0
 40
0.333333
 41
0.333333
  0
VERTEX
  8
0
 10
118.116
 20
4.12397
 30
0.0
 40
0.333333
 41
0.333333
  0
VERTEX
  8
0
 10
118.019
 20
4.23047
 30
0.0
 40
0.333333
 41
0.333333
  0
VERTEX
  8
0
 10
117.933
 20
4.34592
 30
0.0
 40
0.333333
 41
0.333333
  0
VERTEX
  8
0
 10
117.858
 20
4.46962
 30
0.0
 40
0.333333
 41
0.333333
  0
VERTEX
  8
0
 10
117.794
 20
4.60075
 30
0.0
 40
0.333333
 41
0.333333
  0
VERTEX
  8
0
 10
117.744
 20
4.73856
 30
0.0
 40
0.333333
 41
0.333333
  0
VERTEX
  8
0
 10
117.707
 20
4.88232
 30
0.0
 40
0.333333
 41
0.333333
  0
VERTEX
  8
0
 10
117.684
 20
5.03125
 30
0.0
 40
0.333333
 41
0.333333
  0
VERTEX
  8
0
 10
117.677
 20
5.14626
 30
0.0
 40
0.333333
 41
0.333333
  0
VERTEX
  8
0
 10
117.677
 20
5.18457
 30
0.0
 40
0.333333
 41
0.333333
  0
VERTEX
  8
0
 10
117.677
 20
5.22293
 30
0.0
 40
0.333333
 41
0.333333
  0
VERTEX
  8
0
 10
117.684
 20
5.33794
 30
0.0
 40
0.333333
 41
0.333333
  0
VERTEX
  8
0
 10
117.707
 20
5.48693
 30
0.0
 40
0.333333
 41
0.333333
  0
VERTEX
  8
0
 10
117.744
 20
5.63064
 30
0.0
 40
0.333333
 41
0.333333
  0
VERTEX
  8
0
 10
117.794
 20
5.7685
 30
0.0
 40
0.333333
 41
0.333333
  0
VERTEX
  8
0
 10
117.858
 20
5.89958
 30
0.0
 40
0.333333
 41
0.333333
  0
VERTEX
  8
0
 10
117.933
 20
6.02328
 30
0.0
 40
0.333333
 41
0.333333
  0
VERTEX
  8
0
 10
118.019
 20
6.13872
 30
0.0
 40
0.333333
 41
0.333333
  0
VERTEX
  8
0
 10
118.116
 20
6.24528
 30
0.0
 40
0.333333
 41
0.333333
  0
VERTEX
  8
0
 10
118.222
 20
6.34207
 30
0.0
 40
0.333333
 41
0.333333
  0
VERTEX
  8
0
 10
118.338
 20
6.42844
 30
0.0
 40
0.333333
 41
0.333333
  0
VERTEX
  8
0
 10
118.462
 20
6.50358
 30
0.0
 40
0.333333
 41
0.333333
  0
VERTEX
  8
0
 10
118.593
 20
6.56674
 30
0.0
 40
0.333333
 41
0.333333
  0
VERTEX
  8
0
 10
118.73
 20
6.61719
 30
0.0
 40
0.333333
 41
0.333333
  0
VERTEX
  8
0
 10
118.874
 20
6.65414
 30
0.0
 40
0.333333
 41
0.333333
  0
VERTEX
  8
0
 10
119.023
 20
6.67686
 30
0.0
 40
0.333333
 41
0.333333
  0
VERTEX
  8
0
 10
119.138
 20
6.68457
 30
0.0
 40
0.333333
 41
0.333333
  0
VERTEX
  8
0
 10
119.177
 20
6.68457
 30
0.0
 40
0.333333
 41
0.333333
  0
VERTEX
  8
0
 10
119.215
 20
6.68457
 30
0.0
 40
0.333333
 41
0.333333
  0
VERTEX
  8
0
 10
119.33
 20
6.67686
 30
0.0
 40
0.333333
 41
0.333333
  0
VERTEX
  8
0
 10
119.479
 20
6.65414
 30
0.0
 40
0.333333
 41
0.333333
  0
VERTEX
  8
0
 10
119.623
 20
6.61719
 30
0.0
 40
0.333333
 41
0.333333
  0
VERTEX
  8
0
 10
119.76
 20
6.56674
 30
0.0
 40
0.333333
 41
0.333333
  0
VERTEX
  8
0
 10
119.892
 20
6.50358
 30
0.0
 40
0.333333
 41
0.333333
  0
VERTEX
  8
0
 10
120.015
 20
6.42844
 30
0.0
 40
0.333333
 41
0.333333
  0
VERTEX
  8
0
 10
120.131
 20
6.34207
 30
0.0
 40
0.333333
 41
0.333333
  0
VERTEX
  8
0
 10
120.237
 20
6.24528
 30
0.0
 40
0.333333
 41
0.333333
  0
VERTEX
  8
0
 10
120.334
 20
6.13872
 30
0.0
 40
0.333333
 41
0.333333
  0
VERTEX
  8
0
 10
120.42
 20
6.02328
 30
0.0
 40
0.333333
 41
0.333333
  0
VERTEX
  8
0
 10
120.496
 20
5.89958
 30
0.0
 40
0.333333
 41
0.333333
  0
VERTEX
  8
0
 10
120.559
 20
5.7685
 30
0.0
 40
0.333333
 41
0.333333
  0
VERTEX
  8
0
 10
120.609
 20
5.63064
 30
0.0
 40
0.333333
 41
0.333333
  0
VERTEX
  8
0
 10
120.646
 20
5.48693
 30
0.0
 40
0.333333
 41
0.333333
  0
VERTEX
  8
0
 10
120.669
 20
5.33794
 30
0.0
 40
0.333333
 41
0.333333
  0
VERTEX
  8
0
 10
120.677
 20
5.22293
 30
0.0
 40
0.333333
 41
0.333333
  0
VERTEX
  8
0
 10
120.677
 20
5.18457
 30
0.0
 40
0.333333
 41
0.333333
  0
SEQEND
 8
0
  0
POLYLINE
  8
0
 62
     0
 66
     1
 10
0
 20
0
 30
0.0
 70
     1
 40
24
 41
24
  0
VERTEX
  8
0
 10
5.67638
 20
40.1846
 30
0.0
 40
0.333333
 41
0.333333
  0
VERTEX
  8
0
 10
5.67638
 20
40.1464
 30
0.0
 40
0.333333
 41
0.333333
  0
VERTEX
  8
0
 10
5.66862
 20
40.0313
 30
0.0
 40
0.333333
 41
0.333333
  0
VERTEX
  8
0
 10
5.64589
 20
39.8824
 30
0.0
 40
0.333333
 41
0.333333
  0
VERTEX
  8
0
 10
5.60894
 20
39.7386
 30
0.0
 40
0.333333
 41
0.333333
  0
VERTEX
  8
0
 10
5.55849
 20
39.6008
 30
0.0
 40
0.333333
 41
0.333333
  0
VERTEX
  8
0
 10
5.49533
 20
39.4697
 30
0.0
 40
0.333333
 41
0.333333
  0
VERTEX
  8
0
 10
5.42019
 20
39.346
 30
0.0
 40
0.333333
 41
0.333333
  0
VERTEX
  8
0
 10
5.33382
 20
39.2306
 30
0.0
 40
0.333333
 41
0.333333
  0
VERTEX
  8
0
 10
5.23703
 20
39.124
 30
0.0
 40
0.333333
 41
0.333333
  0
VERTEX
  8
0
 10
5.13049
 20
39.0272
 30
0.0
 40
0.333333
 41
0.333333
  0
VERTEX
  8
0
 10
5.01503
 20
38.9408
 30
0.0
 40
0.333333
 41
0.333333
  0
VERTEX
  8
0
 10
4.89133
 20
38.8657
 30
0.0
 40
0.333333
 41
0.333333
  0
VERTEX
  8
0
 10
4.76025
 20
38.8025
 30
0.0
 40
0.333333
 41
0.333333
  0
VERTEX
  8
0
 10
4.6224
 20
38.7521
 30
0.0
 40
0.333333
 41
0.333333
  0
VERTEX
  8
0
 10
4.47868
 20
38.7151
 30
0.0
 40
0.333333
 41
0.333333
  0
VERTEX
  8
0
 10
4.32969
 20
38.6924
 30
0.0
 40
0.333333
 41
0.333333
  0
VERTEX
  8
0
 10
4.21468
 20
38.6846
 30
0.0
 40
0.333333
 41
0.333333
  0
VERTEX
  8
0
 10
4.17638
 20
38.6846
 30
0.0
 40
0.333333
 41
0.333333
  0
VERTEX
  8
0
 10
4.13803
 20
38.6846
 30
0.0
 40
0.333333
 41
0.333333
  0
VERTEX
  8
0
 10
4.023
 20
38.6924
 30
0.0
 40
0.333333
 41
0.333333
  0
VERTEX
  8
0
 10
3.87408
 20
38.7151
 30
0.0
 40
0.333333
 41
0.333333
  0
VERTEX
  8
0
 10
3.73031
 20
38.7521
 30
0.0
 40
0.333333
 41
0.333333
  0
VERTEX
  8
0
 10
3.5925
 20
38.8025
 30
0.0
 40
0.333333
 41
0.333333
  0
VERTEX
  8
0
 10
3.46137
 20
38.8657
 30
0.0
 40
0.333333
 41
0.333333
  0
VERTEX
  8
0
 10
3.33768
 20
38.9408
 30
0.0
 40
0.333333
 41
0.333333
  0
VERTEX
  8
0
 10
3.22222
 20
39.0272
 30
0.0
 40
0.333333
 41
0.333333
  0
VERTEX
  8
0
 10
3.11572
 20
39.124
 30
0.0
 40
0.333333
 41
0.333333
  0
VERTEX
  8
0
 10
3.01887
 20
39.2306
 30
0.0
 40
0.333333
 41
0.333333
  0
VERTEX
  8
0
 10
2.93251
 20
39.346
 30
0.0
 40
0.333333
 41
0.333333
  0
VERTEX
  8
0
 10
2.85742
 20
39.4697
 30
0.0
 40
0.333333
 41
0.333333
  0
VERTEX
  8
0
 10
2.79422
 20
39.6008
 30
0.0
 40
0.333333
 41
0.333333
  0
VERTEX
  8
0
 10
2.74382
 20
39.7386
 30
0.0
 40
0.333333
 41
0.333333
  0
VERTEX
  8
0
 10
2.70682
 20
39.8824
 30
0.0
 40
0.333333
 41
0.333333
  0
VERTEX
  8
0
 10
2.68408
 20
40.0313
 30
0.0
 40
0.333333
 41
0.333333
  0
VERTEX
  8
0
 10
2.67638
 20
40.1464
 30
0.0
 40
0.333333
 41
0.333333
  0
VERTEX
  8
0
 10
2.67638
 20
40.1846
 30
0.0
 40
0.333333
 41
0.333333
  0
VERTEX
  8
0
 10
2.67638
 20
40.2229
 30
0.0
 40
0.333333
 41
0.333333
  0
VERTEX
  8
0
 10
2.68408
 20
40.3381
 30
0.0
 40
0.333333
 41
0.333333
  0
VERTEX
  8
0
 10
2.70682
 20
40.4869
 30
0.0
 40
0.333333
 41
0.333333
  0
VERTEX
  8
0
 10
2.74382
 20
40.6307
 30
0.0
 40
0.333333
 41
0.333333
  0
VERTEX
  8
0
 10
2.79422
 20
40.7686
 30
0.0
 40
0.333333
 41
0.333333
  0
VERTEX
  8
0
 10
2.85742
 20
40.8997
 30
0.0
 40
0.333333
 41
0.333333
  0
VERTEX
  8
0
 10
2.93251
 20
41.0233
 30
0.0
 40
0.333333
 41
0.333333
  0
VERTEX
  8
0
 10
3.01887
 20
41.1389
 30
0.0
 40
0.333333
 41
0.333333
  0
VERTEX
  8
0
 10
3.11572
 20
41.2453
 30
0.0
 40
0.333333
 41
0.333333
  0
VERTEX
  8
0
 10
3.22222
 20
41.3422
 30
0.0
 40
0.333333
 41
0.333333
  0
VERTEX
  8
0
 10
3.33768
 20
41.4285
 30
0.0
 40
0.333333
 41
0.333333
  0
VERTEX
  8
0
 10
3.46137
 20
41.5036
 30
0.0
 40
0.333333
 41
0.333333
  0
VERTEX
  8
0
 10
3.5925
 20
41.5668
 30
0.0
 40
0.333333
 41
0.333333
  0
VERTEX
  8
0
 10
3.73031
 20
41.6172
 30
0.0
 40
0.333333
 41
0.333333
  0
VERTEX
  8
0
 10
3.87408
 20
41.6543
 30
0.0
 40
0.333333
 41
0.333333
  0
VERTEX
  8
0
 10
4.023
 20
41.6769
 30
0.0
 40
0.333333
 41
0.333333
  0
VERTEX
  8
0
 10
4.13803
 20
41.6847
 30
0.0
 40
0.333333
 41
0.333333
  0
VERTEX
  8
0
 10
4.17638
 20
41.6847
 30
0.0
 40
0.333333
 41
0.333333
  0
VERTEX
  8
0
 10
4.21468
 20
41.6847
 30
0.0
 40
0.333333
 41
0.333333
  0
VERTEX
  8
0
 10
4.32969
 20
41.6769
 30
0.0
 40
0.333333
 41
0.333333
  0
VERTEX
  8
0
 10
4.47868
 20
41.6543
 30
0.0
 40
0.333333
 41
0.333333
  0
VERTEX
  8
0
 10
4.6224
 20
41.6172
 30
0.0
 40
0.333333
 41
0.333333
  0
VERTEX
  8
0
 10
4.76025
 20
41.5668
 30
0.0
 40
0.333333
 41
0.333333
  0
VERTEX
  8
0
 10
4.89133
 20
41.5036
 30
0.0
 40
0.333333
 41
0.333333
  0
VERTEX
  8
0
 10
5.01503
 20
41.4285
 30
0.0
 40
0.333333
 41
0.333333
  0
VERTEX
  8
0
 10
5.13049
 20
41.3422
 30
0.0
 40
0.333333
 41
0.333333
  0
VERTEX
  8
0
 10
5.23703
 20
41.2453
 30
0.0
 40
0.333333
 41
0.333333
  0
VERTEX
  8
0
 10
5.33382
 20
41.1389
 30
0.0
 40
0.333333
 41
0.333333
  0
VERTEX
  8
0
 10
5.42019
 20
41.0233
 30
0.0
 40
0.333333
 41
0.333333
  0
VERTEX
  8
0
 10
5.49533
 20
40.8997
 30
0.0
 40
0.333333
 41
0.333333
  0
VERTEX
  8
0
 10
5.55849
 20
40.7686
 30
0.0
 40
0.333333
 41
0.333333
  0
VERTEX
  8
0
 10
5.60894
 20
40.6307
 30
0.0
 40
0.333333
 41
0.333333
  0
VERTEX
  8
0
 10
5.64589
 20
40.4869
 30
0.0
 40
0.333333
 41
0.333333
  0
VERTEX
  8
0
 10
5.66862
 20
40.3381
 30
0.0
 40
0.333333
 41
0.333333
  0
VERTEX
  8
0
 10
5.67638
 20
40.2229
 30
0.0
 40
0.333333
 41
0.333333
  0
VERTEX
  8
0
 10
5.67638
 20
40.1846
 30
0.0
 40
0.333333
 41
0.333333
  0
SEQEND
 8
0
  0
POLYLINE
  8
0
 62
     0
 66
     1
 10
0
 20
0
 30
0.0
 70
     1
 40
24
 41
24
  0
VERTEX
  8
0
 10
5.67638
 20
8.18463
 30
0.0
 40
0.333333
 41
0.333333
  0
VERTEX
  8
0
 10
5.67638
 20
8.14632
 30
0.0
 40
0.333333
 41
0.333333
  0
VERTEX
  8
0
 10
5.66862
 20
8.03131
 30
0.0
 40
0.333333
 41
0.333333
  0
VERTEX
  8
0
 10
5.64589
 20
7.88232
 30
0.0
 40
0.333333
 41
0.333333
  0
VERTEX
  8
0
 10
5.60894
 20
7.73861
 30
0.0
 40
0.333333
 41
0.333333
  0
VERTEX
  8
0
 10
5.55849
 20
7.60075
 30
0.0
 40
0.333333
 41
0.333333
  0
VERTEX
  8
0
 10
5.49533
 20
7.46967
 30
0.0
 40
0.333333
 41
0.333333
  0
VERTEX
  8
0
 10
5.42019
 20
7.34597
 30
0.0
 40
0.333333
 41
0.333333
  0
VERTEX
  8
0
 10
5.33382
 20
7.23053
 30
0.0
 40
0.333333
 41
0.333333
  0
VERTEX
  8
0
 10
5.23703
 20
7.12397
 30
0.0
 40
0.333333
 41
0.333333
  0
VERTEX
  8
0
 10
5.13049
 20
7.02718
 30
0.0
 40
0.333333
 41
0.333333
  0
VERTEX
  8
0
 10
5.01503
 20
6.94081
 30
0.0
 40
0.333333
 41
0.333333
  0
VERTEX
  8
0
 10
4.89133
 20
6.86567
 30
0.0
 40
0.333333
 41
0.333333
  0
VERTEX
  8
0
 10
4.76025
 20
6.80251
 30
0.0
 40
0.333333
 41
0.333333
  0
VERTEX
  8
0
 10
4.6224
 20
6.75206
 30
0.0
 40
0.333333
 41
0.333333
  0
VERTEX
  8
0
 10
4.47868
 20
6.71511
 30
0.0
 40
0.333333
 41
0.333333
  0
VERTEX
  8
0
 10
4.32969
 20
6.69239
 30
0.0
 40
0.333333
 41
0.333333
  0
VERTEX
  8
0
 10
4.21468
 20
6.68463
 30
0.0
 40
0.333333
 41
0.333333
  0
VERTEX
  8
0
 10
4.17638
 20
6.68463
 30
0.0
 40
0.333333
 41
0.333333
  0
VERTEX
  8
0
 10
4.13803
 20
6.68463
 30
0.0
 40
0.333333
 41
0.333333
  0
VERTEX
  8
0
 10
4.023
 20
6.69239
 30
0.0
 40
0.333333
 41
0.333333
  0
VERTEX
  8
0
 10
3.87408
 20
6.71511
 30
0.0
 40
0.333333
 41
0.333333
  0
VERTEX
  8
0
 10
3.73031
 20
6.75206
 30
0.0
 40
0.333333
 41
0.333333
  0
VERTEX
  8
0
 10
3.5925
 20
6.80251
 30
0.0
 40
0.333333
 41
0.333333
  0
VERTEX
  8
0
 10
3.46137
 20
6.86567
 30
0.0
 40
0.333333
 41
0.333333
  0
VERTEX
  8
0
 10
3.33768
 20
6.94081
 30
0.0
 40
0.333333
 41
0.333333
  0
VERTEX
  8
0
 10
3.22222
 20
7.02718
 30
0.0
 40
0.333333
 41
0.333333
  0
VERTEX
  8
0
 10
3.11572
 20
7.12397
 30
0.0
 40
0.333333
 41
0.333333
  0
VERTEX
  8
0
 10
3.01887
 20
7.23053
 30
0.0
 40
0.333333
 41
0.333333
  0
VERTEX
  8
0
 10
2.93251
 20
7.34597
 30
0.0
 40
0.333333
 41
0.333333
  0
VERTEX
  8
0
 10
2.85742
 20
7.46967
 30
0.0
 40
0.333333
 41
0.333333
  0
VERTEX
  8
0
 10
2.79422
 20
7.60075
 30
0.0
 40
0.333333
 41
0.333333
  0
VERTEX
  8
0
 10
2.74382
 20
7.73861
 30
0.0
 40
0.333333
 41
0.333333
  0
VERTEX
  8
0
 10
2.70682
 20
7.88232
 30
0.0
 40
0.333333
 41
0.333333
  0
VERTEX
  8
0
 10
2.68408
 20
8.03131
 30
0.0
 40
0.333333
 41
0.333333
  0
VERTEX
  8
0
 10
2.67638
 20
8.14632
 30
0.0
 40
0.333333
 41
0.333333
  0
VERTEX
  8
0
 10
2.67638
 20
8.18463
 30
0.0
 40
0.333333
 41
0.333333
  0
VERTEX
  8
0
 10
2.67638
 20
8.22299
 30
0.0
 40
0.333333
 41
0.333333
  0
VERTEX
  8
0
 10
2.68408
 20
8.338
 30
0.0
 40
0.333333
 41
0.333333
  0
VERTEX
  8
0
 10
2.70682
 20
8.48693
 30
0.0
 40
0.333333
 41
0.333333
  0
VERTEX
  8
0
 10
2.74382
 20
8.63069
 30
0.0
 40
0.333333
 41
0.333333
  0
VERTEX
  8
0
 10
2.79422
 20
8.7685
 30
0.0
 40
0.333333
 41
0.333333
  0
VERTEX
  8
0
 10
2.85742
 20
8.89963
 30
0.0
 40
0.333333
 41
0.333333
  0
VERTEX
  8
0
 10
2.93251
 20
9.02333
 30
0.0
 40
0.333333
 41
0.333333
  0
VERTEX
  8
0
 10
3.01887
 20
9.13878
 30
0.0
 40
0.333333
 41
0.333333
  0
VERTEX
  8
0
 10
3.11572
 20
9.24528
 30
0.0
 40
0.333333
 41
0.333333
  0
VERTEX
  8
0
 10
3.22222
 20
9.34213
 30
0.0
 40
0.333333
 41
0.333333
  0
VERTEX
  8
0
 10
3.33768
 20
9.4285
 30
0.0
 40
0.333333
 41
0.333333
  0
VERTEX
  8
0
 10
3.46137
 20
9.50358
 30
0.0
 40
0.333333
 41
0.333333
  0
VERTEX
  8
0
 10
3.5925
 20
9.56679
 30
0.0
 40
0.333333
 41
0.333333
  0
VERTEX
  8
0
 10
3.73031
 20
9.61719
 30
0.0
 40
0.333333
 41
0.333333
  0
VERTEX
  8
0
 10
3.87408
 20
9.65419
 30
0.0
 40
0.333333
 41
0.333333
  0
VERTEX
  8
0
 10
4.023
 20
9.67692
 30
0.0
 40
0.333333
 41
0.333333
  0
VERTEX
  8
0
 10
4.13803
 20
9.68463
 30
0.0
 40
0.333333
 41
0.333333
  0
VERTEX
  8
0
 10
4.17638
 20
9.68463
 30
0.0
 40
0.333333
 41
0.333333
  0
VERTEX
  8
0
 10
4.21468
 20
9.68463
 30
0.0
 40
0.333333
 41
0.333333
  0
VERTEX
  8
0
 10
4.32969
 20
9.67692
 30
0.0
 40
0.333333
 41
0.333333
  0
VERTEX
  8
0
 10
4.47868
 20
9.65419
 30
0.0
 40
0.333333
 41
0.333333
  0
VERTEX
  8
0
 10
4.6224
 20
9.61719
 30
0.0
 40
0.333333
 41
0.333333
  0
VERTEX
  8
0
 10
4.76025
 20
9.56679
 30
0.0
 40
0.333333
 41
0.333333
  0
VERTEX
  8
0
 10
4.89133
 20
9.50358
 30
0.0
 40
0.333333
 41
0.333333
  0
VERTEX
  8
0
 10
5.01503
 20
9.4285
 30
0.0
 40
0.333333
 41
0.333333
  0
VERTEX
  8
0
 10
5.13049
 20
9.34213
 30
0.0
 40
0.333333
 41
0.333333
  0
VERTEX
  8
0
 10
5.23703
 20
9.24528
 30
0.0
 40
0.333333
 41
0.333333
  0
VERTEX
  8
0
 10
5.33382
 20
9.13878
 30
0.0
 40
0.333333
 41
0.333333
  0
VERTEX
  8
0
 10
5.42019
 20
9.02333
 30
0.0
 40
0.333333
 41
0.333333
  0
VERTEX
  8
0
 10
5.49533
 20
8.89963
 30
0.0
 40
0.333333
 41
0.333333
  0
VERTEX
  8
0
 10
5.55849
 20
8.7685
 30
0.0
 40
0.333333
 41
0.333333
  0
VERTEX
  8
0
 10
5.60894
 20
8.63069
 30
0.0
 40
0.333333
 41
0.333333
  0
VERTEX
  8
0
 10
5.64589
 20
8.48693
 30
0.0
 40
0.333333
 41
0.333333
  0
VERTEX
  8
0
 10
5.66862
 20
8.338
 30
0.0
 40
0.333333
 41
0.333333
  0
VERTEX
  8
0
 10
5.67638
 20
8.22299
 30
0.0
 40
0.333333
 41
0.333333
  0
VERTEX
  8
0
 10
5.67638
 20
8.18463
 30
0.0
 40
0.333333
 41
0.333333
  0
SEQEND
 8
0
  0
POLYLINE
  8
0
 62
     0
 66
     1
 10
0
 20
0
 30
0.0
 70
     1
 40
24
 41
24
  0
VERTEX
  8
0
 10
84.1765
 20
86.1847
 30
0.0
 40
0.333333
 41
0.333333
  0
VERTEX
  8
0
 10
84.1765
 20
46.1847
 30
0.0
 40
0.333333
 41
0.333333
  0
VERTEX
  8
0
 10
24.1764
 20
46.1847
 30
0.0
 40
0.333333
 41
0.333333
  0
VERTEX
  8
0
 10
24.0093
 20
46.1847
 30
0.0
 40
0.333333
 41
0.333333
  0
VERTEX
  8
0
 10
23.5082
 20
46.1958
 30
0.0
 40
0.333333
 41
0.333333
  0
VERTEX
  8
0
 10
22.8436
 20
46.229
 30
0.0
 40
0.333333
 41
0.333333
  0
VERTEX
  8
0
 10
22.1832
 20
46.284
 30
0.0
 40
0.333333
 41
0.333333
  0
VERTEX
  8
0
 10
21.5272
 20
46.3606
 30
0.0
 40
0.333333
 41
0.333333
  0
VERTEX
  8
0
 10
20.8762
 20
46.4585
 30
0.0
 40
0.333333
 41
0.333333
  0
VERTEX
  8
0
 10
20.2308
 20
46.5772
 30
0.0
 40
0.333333
 41
0.333333
  0
VERTEX
  8
0
 10
19.5912
 20
46.7169
 30
0.0
 40
0.333333
 41
0.333333
  0
VERTEX
  8
0
 10
18.9581
 20
46.8769
 30
0.0
 40
0.333333
 41
0.333333
  0
VERTEX
  8
0
 10
18.3317
 20
47.0574
 30
0.0
 40
0.333333
 41
0.333333
  0
VERTEX
  8
0
 10
17.7125
 20
47.2576
 30
0.0
 40
0.333333
 41
0.333333
  0
VERTEX
  8
0
 10
17.1013
 20
47.4776
 30
0.0
 40
0.333333
 41
0.333333
  0
VERTEX
  8
0
 10
16.4981
 20
47.7172
 30
0.0
 40
0.333333
 41
0.333333
  0
VERTEX
  8
0
 10
15.9035
 20
47.9758
 30
0.0
 40
0.333333
 41
0.333333
  0
VERTEX
  8
0
 10
15.3181
 20
48.2533
 30
0.0
 40
0.333333
 41
0.333333
  0
VERTEX
  8
0
 10
14.7422
 20
48.5496
 30
0.0
 40
0.333333
 41
0.333333
  0
VERTEX
  8
0
 10
14.1764
 20
48.8642
 30
0.0
 40
0.333333
 41
0.333333
  0
VERTEX
  8
0
 10
13.621
 20
49.1969
 30
0.0
 40
0.333333
 41
0.333333
  0
VERTEX
  8
0
 10
13.0766
 20
49.5475
 30
0.0
 40
0.333333
 41
0.333333
  0
VERTEX
  8
0
 10
12.5435
 20
49.9157
 30
0.0
 40
0.333333
 41
0.333333
  0
VERTEX
  8
0
 10
12.0222
 20
50.3012
 30
0.0
 40
0.333333
 41
0.333333
  0
VERTEX
  8
0
 10
11.5132
 20
50.7039
 30
0.0
 40
0.333333
 41
0.333333
  0
VERTEX
  8
0
 10
11.017
 20
51.1233
 30
0.0
 40
0.333333
 41
0.333333
  0
VERTEX
  8
0
 10
10.534
 20
51.5593
 30
0.0
 40
0.333333
 41
0.333333
  0
VERTEX
  8
0
 10
10.0646
 20
52.0117
 30
0.0
 40
0.333333
 41
0.333333
  0
VERTEX
  8
0
 10
9.60932
 20
52.4799
 30
0.0
 40
0.333333
 41
0.333333
  0
VERTEX
  8
0
 10
9.16868
 20
52.964
 30
0.0
 40
0.333333
 41
0.333333
  0
VERTEX
  8
0
 10
8.743
 20
53.4636
 30
0.0
 40
0.333333
 41
0.333333
  0
VERTEX
  8
0
 10
8.33279
 20
53.9783
 30
0.0
 40
0.333333
 41
0.333333
  0
VERTEX
  8
0
 10
7.93853
 20
54.5082
 30
0.0
 40
0.333333
 41
0.333333
  0
VERTEX
  8
0
 10
7.56065
 20
55.0526
 30
0.0
 40
0.333333
 41
0.333333
  0
VERTEX
  8
0
 10
7.1996
 20
55.6117
 30
0.0
 40
0.333333
 41
0.333333
  0
VERTEX
  8
0
 10
6.9394
 20
56.04
 30
0.0
 40
0.333333
 41
0.333333
  0
VERTEX
  8
0
 10
6.8559
 20
56.1847
 30
0.0
 40
0.333333
 41
0.333333
  0
VERTEX
  8
0
 10
6.77235
 20
56.3293
 30
0.0
 40
0.333333
 41
0.333333
  0
VERTEX
  8
0
 10
6.53142
 20
56.7689
 30
0.0
 40
0.333333
 41
0.333333
  0
VERTEX
  8
0
 10
6.22786
 20
57.3611
 30
0.0
 40
0.333333
 41
0.333333
  0
VERTEX
  8
0
 10
5.94526
 20
57.9606
 30
0.0
 40
0.333333
 41
0.333333
  0
VERTEX
  8
0
 10
5.6836
 20
58.5669
 30
0.0
 40
0.333333
 41
0.333333
  0
VERTEX
  8
0
 10
5.44287
 20
59.1796
 30
0.0
 40
0.333333
 41
0.333333
  0
VERTEX
  8
0
 10
5.22304
 20
59.7981
 30
0.0
 40
0.333333
 41
0.333333
  0
VERTEX
  8
0
 10
5.02414
 20
60.4217
 30
0.0
 40
0.333333
 41
0.333333
  0
VERTEX
  8
0
 10
4.84625
 20
61.0501
 30
0.0
 40
0.333333
 41
0.333333
  0
VERTEX
  8
0
 10
4.68924
 20
61.6828
 30
0.0
 40
0.333333
 41
0.333333
  0
VERTEX
  8
0
 10
4.55317
 20
62.319
 30
0.0
 40
0.333333
 41
0.333333
  0
VERTEX
  8
0
 10
4.43804
 20
62.9585
 30
0.0
 40
0.333333
 41
0.333333
  0
VERTEX
  8
0
 10
4.34381
 20
63.6006
 30
0.0
 40
0.333333
 41
0.333333
  0
VERTEX
  8
0
 10
4.27056
 20
64.2449
 30
0.0
 40
0.333333
 41
0.333333
  0
VERTEX
  8
0
 10
4.21821
 20
64.8906
 30
0.0
 40
0.333333
 41
0.333333
  0
VERTEX
  8
0
 10
4.18679
 20
65.5374
 30
0.0
 40
0.333333
 41
0.333333
  0
VERTEX
  8
0
 10
4.17638
 20
66.1847
 30
0.0
 40
0.333333
 41
0.333333
  0
VERTEX
  8
0
 10
4.18679
 20
66.8321
 30
0.0
 40
0.333333
 41
0.333333
  0
VERTEX
  8
0
 10
4.21821
 20
67.4789
 30
0.0
 40
0.333333
 41
0.333333
  0
VERTEX
  8
0
 10
4.27056
 20
68.1247
 30
0.0
 40
0.333333
 41
0.333333
  0
VERTEX
  8
0
 10
4.34381
 20
68.7689
 30
0.0
 40
0.333333
 41
0.333333
  0
VERTEX
  8
0
 10
4.43804
 20
69.411
 30
0.0
 40
0.333333
 41
0.333333
  0
VERTEX
  8
0
 10
4.55317
 20
70.0504
 30
0.0
 40
0.333333
 41
0.333333
  0
VERTEX
  8
0
 10
4.68924
 20
70.6868
 30
0.0
 40
0.333333
 41
0.333333
  0
VERTEX
  8
0
 10
4.84625
 20
71.3193
 30
0.0
 40
0.333333
 41
0.333333
  0
VERTEX
  8
0
 10
5.02414
 20
71.9478
 30
0.0
 40
0.333333
 41
0.333333
  0
VERTEX
  8
0
 10
5.22304
 20
72.5714
 30
0.0
 40
0.333333
 41
0.333333
  0
VERTEX
  8
0
 10
5.44287
 20
73.1899
 30
0.0
 40
0.333333
 41
0.333333
  0
VERTEX
  8
0
 10
5.6836
 20
73.8025
 30
0.0
 40
0.333333
 41
0.333333
  0
VERTEX
  8
0
 10
5.94526
 20
74.4089
 30
0.0
 40
0.333333
 41
0.333333
  0
VERTEX
  8
0
 10
6.22786
 20
75.0083
 30
0.0
 40
0.333333
 41
0.333333
  0
VERTEX
  8
0
 10
6.53142
 20
75.6004
 30
0.0
 40
0.333333
 41
0.333333
  0
VERTEX
  8
0
 10
6.77235
 20
76.04
 30
0.0
 40
0.333333
 41
0.333333
  0
VERTEX
  8
0
 10
6.8559
 20
76.1847
 30
0.0
 40
0.333333
 41
0.333333
  0
VERTEX
  8
0
 10
6.9394
 20
76.3293
 30
0.0
 40
0.333333
 41
0.333333
  0
VERTEX
  8
0
 10
7.1996
 20
76.7578
 30
0.0
 40
0.333333
 41
0.333333
  0
VERTEX
  8
0
 10
7.56065
 20
77.3168
 30
0.0
 40
0.333333
 41
0.333333
  0
VERTEX
  8
0
 10
7.93853
 20
77.8612
 30
0.0
 40
0.333333
 41
0.333333
  0
VERTEX
  8
0
 10
8.33279
 20
78.3911
 30
0.0
 40
0.333333
 41
0.333333
  0
VERTEX
  8
0
 10
8.743
 20
78.9058
 30
0.0
 40
0.333333
 41
0.333333
  0
VERTEX
  8
0
 10
9.16868
 20
79.4054
 30
0.0
 40
0.333333
 41
0.333333
  0
VERTEX
  8
0
 10
9.60932
 20
79.8894
 30
0.0
 40
0.333333
 41
0.333333
  0
VERTEX
  8
0
 10
10.0646
 20
80.3578
 30
0.0
 40
0.333333
 41
0.333333
  0
VERTEX
  8
0
 10
10.534
 20
80.81
 30
0.0
 40
0.333333
 41
0.333333
  0
VERTEX
  8
0
 10
11.017
 20
81.2461
 30
0.0
 40
0.333333
 41
0.333333
  0
VERTEX
  8
0
 10
11.5132
 20
81.6656
 30
0.0
 40
0.333333
 41
0.333333
  0
VERTEX
  8
0
 10
12.0222
 20
82.0682
 30
0.0
 40
0.333333
 41
0.333333
  0
VERTEX
  8
0
 10
12.5435
 20
82.4536
 30
0.0
 40
0.333333
 41
0.333333
  0
VERTEX
  8
0
 10
13.0766
 20
82.8219
 30
0.0
 40
0.333333
 41
0.333333
  0
VERTEX
  8
0
 10
13.621
 20
83.1725
 30
0.0
 40
0.333333
 41
0.333333
  0
VERTEX
  8
0
 10
14.1764
 20
83.5053
 30
0.0
 40
0.333333
 41
0.333333
  0
VERTEX
  8
0
 10
14.7422
 20
83.8199
 30
0.0
 40
0.333333
 41
0.333333
  0
VERTEX
  8
0
 10
15.3181
 20
84.1161
 30
0.0
 40
0.333333
 41
0.333333
  0
VERTEX
  8
0
 10
15.9035
 20
84.3936
 30
0.0
 40
0.333333
 41
0.333333
  0
VERTEX
  8
0
 10
16.4981
 20
84.6522
 30
0.0
 40
0.333333
 41
0.333333
  0
VERTEX
  8
0
 10
17.1013
 20
84.8918
 30
0.0
 40
0.333333
 41
0.333333
  0
VERTEX
  8
0
 10
17.7125
 20
85.1118
 30
0.0
 40
0.333333
 41
0.333333
  0
VERTEX
  8
0
 10
18.3317
 20
85.3121
 30
0.0
 40
0.333333
 41
0.333333
  0
VERTEX
  8
0
 10
18.9581
 20
85.4925
 30
0.0
 40
0.333333
 41
0.333333
  0
VERTEX
  8
0
 10
19.5912
 20
85.6525
 30
0.0
 40
0.333333
 41
0.333333
  0
VERTEX
  8
0
 10
20.2308
 20
85.7922
 30
0.0
 40
0.333333
 41
0.333333
  0
VERTEX
  8
0
 10
20.8762
 20
85.911
 30
0.0
 40
0.333333
 41
0.333333
  0
VERTEX
  8
0
 10
21.5272
 20
86.0089
 30
0.0
 40
0.333333
 41
0.333333
  0
VERTEX
  8
0
 10
22.1832
 20
86.0854
 30
0.0
 40
0.333333
 41
0.333333
  0
VERTEX
  8
0
 10
22.8436
 20
86.1404
 30
0.0
 40
0.333333
 41
0.333333
  0
VERTEX
  8
0
 10
23.5082
 20
86.1736
 30
0.0
 40
0.333333
 41
0.333333
  0
VERTEX
  8
0
 10
24.0093
 20
86.1847
 30
0.0
 40
0.333333
 41
0.333333
  0
VERTEX
  8
0
 10
24.1764
 20
86.1847
 30
0.0
 40
0.333333
 41
0.333333
  0
VERTEX
  8
0
 10
84.1765
 20
86.1847
 30
0.0
 40
0.333333
 41
0.333333
  0
SEQEND
 8
0
  0
POLYLINE
  8
0
 62
     0
 66
     1
 10
0
 20
0
 30
0.0
 70
     1
 40
24
 41
24
  0
VERTEX
  8
0
 10
84.1765
 20
42.1847
 30
0.0
 40
0.333333
 41
0.333333
  0
VERTEX
  8
0
 10
84.1765
 20
2.18457
 30
0.0
 40
0.333333
 41
0.333333
  0
VERTEX
  8
0
 10
24.1764
 20
2.18457
 30
0.0
 40
0.333333
 41
0.333333
  0
VERTEX
  8
0
 10
24.0093
 20
2.18457
 30
0.0
 40
0.333333
 41
0.333333
  0
VERTEX
  8
0
 10
23.5082
 20
2.19575
 30
0.0
 40
0.333333
 41
0.333333
  0
VERTEX
  8
0
 10
22.8436
 20
2.22889
 30
0.0
 40
0.333333
 41
0.333333
  0
VERTEX
  8
0
 10
22.1832
 20
2.2839
 30
0.0
 40
0.333333
 41
0.333333
  0
VERTEX
  8
0
 10
21.5272
 20
2.36046
 30
0.0
 40
0.333333
 41
0.333333
  0
VERTEX
  8
0
 10
20.8762
 20
2.45833
 30
0.0
 40
0.333333
 41
0.333333
  0
VERTEX
  8
0
 10
20.2308
 20
2.57721
 30
0.0
 40
0.333333
 41
0.333333
  0
VERTEX
  8
0
 10
19.5912
 20
2.71679
 30
0.0
 40
0.333333
 41
0.333333
  0
VERTEX
  8
0
 10
18.9581
 20
2.8769
 30
0.0
 40
0.333333
 41
0.333333
  0
VERTEX
  8
0
 10
18.3317
 20
3.05724
 30
0.0
 40
0.333333
 41
0.333333
  0
VERTEX
  8
0
 10
17.7125
 20
3.2576
 30
0.0
 40
0.333333
 41
0.333333
  0
VERTEX
  8
0
 10
17.1013
 20
3.4776
 30
0.0
 40
0.333333
 41
0.333333
  0
VERTEX
  8
0
 10
16.4981
 20
3.71707
 30
0.0
 40
0.333333
 41
0.333333
  0
VERTEX
  8
0
 10
15.9035
 20
3.97569
 30
0.0
 40
0.333333
 41
0.333333
  0
VERTEX
  8
0
 10
15.3181
 20
4.25325
 30
0.0
 40
0.333333
 41
0.333333
  0
VERTEX
  8
0
 10
14.7422
 20
4.54949
 30
0.0
 40
0.333333
 41
0.333333
  0
VERTEX
  8
0
 10
14.1764
 20
4.8641
 30
0.0
 40
0.333333
 41
0.333333
  0
VERTEX
  8
0
 10
13.621
 20
5.19683
 30
0.0
 40
0.333333
 41
0.333333
  0
VERTEX
  8
0
 10
13.0766
 20
5.54747
 30
0.0
 40
0.333333
 41
0.333333
  0
VERTEX
  8
0
 10
12.5435
 20
5.91569
 30
0.0
 40
0.333333
 41
0.333333
  0
VERTEX
  8
0
 10
12.0222
 20
6.30122
 30
0.0
 40
0.333333
 41
0.333333
  0
VERTEX
  8
0
 10
11.5132
 20
6.70383
 30
0.0
 40
0.333333
 41
0.333333
  0
VERTEX
  8
0
 10
11.017
 20
7.12326
 30
0.0
 40
0.333333
 41
0.333333
  0
VERTEX
  8
0
 10
10.534
 20
7.55931
 30
0.0
 40
0.333333
 41
0.333333
  0
VERTEX
  8
0
 10
10.0646
 20
8.01156
 30
0.0
 40
0.333333
 41
0.333333
  0
VERTEX
  8
0
 10
9.60932
 20
8.47988
 30
0.0
 40
0.333333
 41
0.333333
  0
VERTEX
  8
0
 10
9.16868
 20
8.96392
 30
0.0
 40
0.333333
 41
0.333333
  0
VERTEX
  8
0
 10
8.743
 20
9.46349
 30
0.0
 40
0.333333
 41
0.333333
  0
VERTEX
  8
0
 10
8.33279
 20
9.97831
 30
0.0
 40
0.333333
 41
0.333333
  0
VERTEX
  8
0
 10
7.93853
 20
10.5081
 30
0.0
 40
0.333333
 41
0.333333
  0
VERTEX
  8
0
 10
7.56065
 20
11.0526
 30
0.0
 40
0.333333
 41
0.333333
  0
VERTEX
  8
0
 10
7.1996
 20
11.6115
 30
0.0
 40
0.333333
 41
0.333333
  0
VERTEX
  8
0
 10
6.9394
 20
12.04
 30
0.0
 40
0.333333
 41
0.333333
  0
VERTEX
  8
0
 10
6.8559
 20
12.1846
 30
0.0
 40
0.333333
 41
0.333333
  0
VERTEX
  8
0
 10
6.77235
 20
12.3293
 30
0.0
 40
0.333333
 41
0.333333
  0
VERTEX
  8
0
 10
6.53142
 20
12.7689
 30
0.0
 40
0.333333
 41
0.333333
  0
VERTEX
  8
0
 10
6.22786
 20
13.361
 30
0.0
 40
0.333333
 41
0.333333
  0
VERTEX
  8
0
 10
5.94526
 20
13.9606
 30
0.0
 40
0.333333
 41
0.333333
  0
VERTEX
  8
0
 10
5.6836
 20
14.5668
 30
0.0
 40
0.333333
 41
0.333333
  0
VERTEX
  8
0
 10
5.44287
 20
15.1794
 30
0.0
 40
0.333333
 41
0.333333
  0
VERTEX
  8
0
 10
5.22304
 20
15.7979
 30
0.0
 40
0.333333
 41
0.333333
  0
VERTEX
  8
0
 10
5.02414
 20
16.4217
 30
0.0
 40
0.333333
 41
0.333333
  0
VERTEX
  8
0
 10
4.84625
 20
17.05
 30
0.0
 40
0.333333
 41
0.333333
  0
VERTEX
  8
0
 10
4.68924
 20
17.6826
 30
0.0
 40
0.333333
 41
0.333333
  0
VERTEX
  8
0
 10
4.55317
 20
18.3189
 30
0.0
 40
0.333333
 41
0.333333
  0
VERTEX
  8
0
 10
4.43804
 20
18.9583
 30
0.0
 40
0.333333
 41
0.333333
  0
VERTEX
  8
0
 10
4.34381
 20
19.6004
 30
0.0
 40
0.333333
 41
0.333333
  0
VERTEX
  8
0
 10
4.27056
 20
20.2447
 30
0.0
 40
0.333333
 41
0.333333
  0
VERTEX
  8
0
 10
4.21821
 20
20.8904
 30
0.0
 40
0.333333
 41
0.333333
  0
VERTEX
  8
0
 10
4.18679
 20
21.5372
 30
0.0
 40
0.333333
 41
0.333333
  0
VERTEX
  8
0
 10
4.17638
 20
22.1846
 30
0.0
 40
0.333333
 41
0.333333
  0
VERTEX
  8
0
 10
4.18679
 20
22.8319
 30
0.0
 40
0.333333
 41
0.333333
  0
VERTEX
  8
0
 10
4.21821
 20
23.4787
 30
0.0
 40
0.333333
 41
0.333333
  0
VERTEX
  8
0
 10
4.27056
 20
24.1246
 30
0.0
 40
0.333333
 41
0.333333
  0
VERTEX
  8
0
 10
4.34381
 20
24.7687
 30
0.0
 40
0.333333
 41
0.333333
  0
VERTEX
  8
0
 10
4.43804
 20
25.4108
 30
0.0
 40
0.333333
 41
0.333333
  0
VERTEX
  8
0
 10
4.55317
 20
26.0504
 30
0.0
 40
0.333333
 41
0.333333
  0
VERTEX
  8
0
 10
4.68924
 20
26.6867
 30
0.0
 40
0.333333
 41
0.333333
  0
VERTEX
  8
0
 10
4.84625
 20
27.3193
 30
0.0
 40
0.333333
 41
0.333333
  0
VERTEX
  8
0
 10
5.02414
 20
27.9476
 30
0.0
 40
0.333333
 41
0.333333
  0
VERTEX
  8
0
 10
5.22304
 20
28.5714
 30
0.0
 40
0.333333
 41
0.333333
  0
VERTEX
  8
0
 10
5.44287
 20
29.1897
 30
0.0
 40
0.333333
 41
0.333333
  0
VERTEX
  8
0
 10
5.6836
 20
29.8024
 30
0.0
 40
0.333333
 41
0.333333
  0
VERTEX
  8
0
 10
5.94526
 20
30.4087
 30
0.0
 40
0.333333
 41
0.333333
  0
VERTEX
  8
0
 10
6.22786
 20
31.0082
 30
0.0
 40
0.333333
 41
0.333333
  0
VERTEX
  8
0
 10
6.53142
 20
31.6004
 30
0.0
 40
0.333333
 41
0.333333
  0
VERTEX
  8
0
 10
6.77235
 20
32.04
 30
0.0
 40
0.333333
 41
0.333333
  0
VERTEX
  8
0
 10
6.8559
 20
32.1846
 30
0.0
 40
0.333333
 41
0.333333
  0
VERTEX
  8
0
 10
6.9394
 20
32.3293
 30
0.0
 40
0.333333
 41
0.333333
  0
VERTEX
  8
0
 10
7.1996
 20
32.7578
 30
0.0
 40
0.333333
 41
0.333333
  0
VERTEX
  8
0
 10
7.56065
 20
33.3167
 30
0.0
 40
0.333333
 41
0.333333
  0
VERTEX
  8
0
 10
7.93853
 20
33.8613
 30
0.0
 40
0.333333
 41
0.333333
  0
VERTEX
  8
0
 10
8.33279
 20
34.391
 30
0.0
 40
0.333333
 41
0.333333
  0
VERTEX
  8
0
 10
8.743
 20
34.9058
 30
0.0
 40
0.333333
 41
0.333333
  0
VERTEX
  8
0
 10
9.16868
 20
35.4054
 30
0.0
 40
0.333333
 41
0.333333
  0
VERTEX
  8
0
 10
9.60932
 20
35.8894
 30
0.0
 40
0.333333
 41
0.333333
  0
VERTEX
  8
0
 10
10.0646
 20
36.3578
 30
0.0
 40
0.333333
 41
0.333333
  0
VERTEX
  8
0
 10
10.534
 20
36.81
 30
0.0
 40
0.333333
 41
0.333333
  0
VERTEX
  8
0
 10
11.017
 20
37.246
 30
0.0
 40
0.333333
 41
0.333333
  0
VERTEX
  8
0
 10
11.5132
 20
37.6654
 30
0.0
 40
0.333333
 41
0.333333
  0
VERTEX
  8
0
 10
12.0222
 20
38.0681
 30
0.0
 40
0.333333
 41
0.333333
  0
VERTEX
  8
0
 10
12.5435
 20
38.4536
 30
0.0
 40
0.333333
 41
0.333333
  0
VERTEX
  8
0
 10
13.0766
 20
38.8218
 30
0.0
 40
0.333333
 41
0.333333
  0
VERTEX
  8
0
 10
13.621
 20
39.1725
 30
0.0
 40
0.333333
 41
0.333333
  0
VERTEX
  8
0
 10
14.1764
 20
39.5053
 30
0.0
 40
0.333333
 41
0.333333
  0
VERTEX
  8
0
 10
14.7422
 20
39.8199
 30
0.0
 40
0.333333
 41
0.333333
  0
VERTEX
  8
0
 10
15.3181
 20
40.1161
 30
0.0
 40
0.333333
 41
0.333333
  0
VERTEX
  8
0
 10
15.9035
 20
40.3936
 30
0.0
 40
0.333333
 41
0.333333
  0
VERTEX
  8
0
 10
16.4981
 20
40.6522
 30
0.0
 40
0.333333
 41
0.333333
  0
VERTEX
  8
0
 10
17.1013
 20
40.8917
 30
0.0
 40
0.333333
 41
0.333333
  0
VERTEX
  8
0
 10
17.7125
 20
41.1117
 30
0.0
 40
0.333333
 41
0.333333
  0
VERTEX
  8
0
 10
18.3317
 20
41.3121
 30
0.0
 40
0.333333
 41
0.333333
  0
VERTEX
  8
0
 10
18.9581
 20
41.4924
 30
0.0
 40
0.333333
 41
0.333333
  0
VERTEX
  8
0
 10
19.5912
 20
41.6525
 30
0.0
 40
0.333333
 41
0.333333
  0
VERTEX
  8
0
 10
20.2308
 20
41.7921
 30
0.0
 40
0.333333
 41
0.333333
  0
VERTEX
  8
0
 10
20.8762
 20
41.911
 30
0.0
 40
0.333333
 41
0.333333
  0
VERTEX
  8
0
 10
21.5272
 20
42.0089
 30
0.0
 40
0.333333
 41
0.333333
  0
VERTEX
  8
0
 10
22.1832
 20
42.0854
 30
0.0
 40
0.333333
 41
0.333333
  0
VERTEX
  8
0
 10
22.8436
 20
42.1404
 30
0.0
 40
0.333333
 41
0.333333
  0
VERTEX
  8
0
 10
23.5082
 20
42.1736
 30
0.0
 40
0.333333
 41
0.333333
  0
VERTEX
  8
0
 10
24.0093
 20
42.1847
 30
0.0
 40
0.333333
 41
0.333333
  0
VERTEX
  8
0
 10
24.1764
 20
42.1847
 30
0.0
 40
0.333333
 41
0.333333
  0
VERTEX
  8
0
 10
84.1765
 20
42.1847
 30
0.0
 40
0.333333
 41
0.333333
  0
SEQEND
 8
0
  0
POLYLINE
  8
0
 62
     0
 66
     1
 10
0
 20
0
 30
0.0
 40
24
 41
24
  0
VERTEX
  8
0
 10
124.177
 20
23.1846
 30
0.0
 40
0.333333
 41
0.333333
  0
VERTEX
  8
0
 10
124.177
 20
23.3517
 30
0.0
 40
0.333333
 41
0.333333
  0
VERTEX
  8
0
 10
124.188
 20
23.8529
 30
0.0
 40
0.333333
 41
0.333333
  0
VERTEX
  8
0
 10
124.221
 20
24.5174
 30
0.0
 40
0.333333
 41
0.333333
  0
VERTEX
  8
0
 10
124.276
 20
25.1779
 30
0.0
 40
0.333333
 41
0.333333
  0
VERTEX
  8
0
 10
124.352
 20
25.8339
 30
0.0
 40
0.333333
 41
0.333333
  0
VERTEX
  8
0
 10
124.45
 20
26.4849
 30
0.0
 40
0.333333
 41
0.333333
  0
VERTEX
  8
0
 10
124.569
 20
27.1303
 30
0.0
 40
0.333333
 41
0.333333
  0
VERTEX
  8
0
 10
124.709
 20
27.7699
 30
0.0
 40
0.333333
 41
0.333333
  0
VERTEX
  8
0
 10
124.869
 20
28.4031
 30
0.0
 40
0.333333
 41
0.333333
  0
VERTEX
  8
0
 10
125.049
 20
29.0294
 30
0.0
 40
0.333333
 41
0.333333
  0
VERTEX
  8
0
 10
125.249
 20
29.6485
 30
0.0
 40
0.333333
 41
0.333333
  0
VERTEX
  8
0
 10
125.47
 20
30.2599
 30
0.0
 40
0.333333
 41
0.333333
  0
VERTEX
  8
0
 10
125.709
 20
30.8631
 30
0.0
 40
0.333333
 41
0.333333
  0
VERTEX
  8
0
 10
125.968
 20
31.4575
 30
0.0
 40
0.333333
 41
0.333333
  0
VERTEX
  8
0
 10
126.245
 20
32.0429
 30
0.0
 40
0.333333
 41
0.333333
  0
VERTEX
  8
0
 10
126.541
 20
32.6188
 30
0.0
 40
0.333333
 41
0.333333
  0
VERTEX
  8
0
 10
126.856
 20
33.1847
 30
0.0
 40
0.333333
 41
0.333333
  0
VERTEX
  8
0
 10
127.189
 20
33.7401
 30
0.0
 40
0.333333
 41
0.333333
  0
VERTEX
  8
0
 10
127.539
 20
34.2844
 30
0.0
 40
0.333333
 41
0.333333
  0
VERTEX
  8
0
 10
127.908
 20
34.8176
 30
0.0
 40
0.333333
 41
0.333333
  0
VERTEX
  8
0
 10
128.293
 20
35.3389
 30
0.0
 40
0.333333
 41
0.333333
  0
VERTEX
  8
0
 10
128.696
 20
35.8478
 30
0.0
 40
0.333333
 41
0.333333
  0
VERTEX
  8
0
 10
129.115
 20
36.344
 30
0.0
 40
0.333333
 41
0.333333
  0
VERTEX
  8
0
 10
129.551
 20
36.8271
 30
0.0
 40
0.333333
 41
0.333333
  0
VERTEX
  8
0
 10
130.003
 20
37.2964
 30
0.0
 40
0.333333
 41
0.333333
  0
VERTEX
  8
0
 10
130.472
 20
37.7518
 30
0.0
 40
0.333333
 41
0.333333
  0
VERTEX
  8
0
 10
130.956
 20
38.1924
 30
0.0
 40
0.333333
 41
0.333333
  0
VERTEX
  8
0
 10
131.455
 20
38.6181
 30
0.0
 40
0.333333
 41
0.333333
  0
VERTEX
  8
0
 10
131.97
 20
39.0283
 30
0.0
 40
0.333333
 41
0.333333
  0
VERTEX
  8
0
 10
132.5
 20
39.4225
 30
0.0
 40
0.333333
 41
0.333333
  0
VERTEX
  8
0
 10
133.044
 20
39.8004
 30
0.0
 40
0.333333
 41
0.333333
  0
VERTEX
  8
0
 10
133.603
 20
40.1615
 30
0.0
 40
0.333333
 41
0.333333
  0
VERTEX
  8
0
 10
134.032
 20
40.4217
 30
0.0
 40
0.333333
 41
0.333333
  0
VERTEX
  8
0
 10
134.177
 20
40.5051
 30
0.0
 40
0.333333
 41
0.333333
  0
VERTEX
  8
0
 10
134.321
 20
40.5887
 30
0.0
 40
0.333333
 41
0.333333
  0
VERTEX
  8
0
 10
134.761
 20
40.8296
 30
0.0
 40
0.333333
 41
0.333333
  0
VERTEX
  8
0
 10
135.353
 20
41.1332
 30
0.0
 40
0.333333
 41
0.333333
  0
VERTEX
  8
0
 10
135.953
 20
41.4158
 30
0.0
 40
0.333333
 41
0.333333
  0
VERTEX
  8
0
 10
136.559
 20
41.6775
 30
0.0
 40
0.333333
 41
0.333333
  0
VERTEX
  8
0
 10
137.171
 20
41.9182
 30
0.0
 40
0.333333
 41
0.333333
  0
VERTEX
  8
0
 10
137.79
 20
42.1379
 30
0.0
 40
0.333333
 41
0.333333
  0
VERTEX
  8
0
 10
138.413
 20
42.3368
 30
0.0
 40
0.333333
 41
0.333333
  0
VERTEX
  8
0
 10
139.042
 20
42.5149
 30
0.0
 40
0.333333
 41
0.333333
  0
VERTEX
  8
0
 10
139.675
 20
42.6718
 30
0.0
 40
0.333333
 41
0.333333
  0
VERTEX
  8
0
 10
140.311
 20
42.8079
 30
0.0
 40
0.333333
 41
0.333333
  0
VERTEX
  8
0
 10
140.95
 20
42.9231
 30
0.0
 40
0.333333
 41
0.333333
  0
VERTEX
  8
0
 10
141.593
 20
43.0172
 30
0.0
 40
0.333333
 41
0.333333
  0
VERTEX
  8
0
 10
142.236
 20
43.0904
 30
0.0
 40
0.333333
 41
0.333333
  0
VERTEX
  8
0
 10
142.882
 20
43.1428
 30
0.0
 40
0.333333
 41
0.333333
  0
VERTEX
  8
0
 10
143.529
 20
43.1742
 30
0.0
 40
0.333333
 41
0.333333
  0
VERTEX
  8
0
 10
144.176
 20
43.1847
 30
0.0
 40
0.333333
 41
0.333333
  0
VERTEX
  8
0
 10
144.824
 20
43.1742
 30
0.0
 40
0.333333
 41
0.333333
  0
VERTEX
  8
0
 10
145.471
 20
43.1428
 30
0.0
 40
0.333333
 41
0.333333
  0
VERTEX
  8
0
 10
146.117
 20
43.0904
 30
0.0
 40
0.333333
 41
0.333333
  0
VERTEX
  8
0
 10
146.761
 20
43.0172
 30
0.0
 40
0.333333
 41
0.333333
  0
VERTEX
  8
0
 10
147.403
 20
42.9231
 30
0.0
 40
0.333333
 41
0.333333
  0
VERTEX
  8
0
 10
148.042
 20
42.8079
 30
0.0
 40
0.333333
 41
0.333333
  0
VERTEX
  8
0
 10
148.679
 20
42.6718
 30
0.0
 40
0.333333
 41
0.333333
  0
VERTEX
  8
0
 10
149.311
 20
42.5149
 30
0.0
 40
0.333333
 41
0.333333
  0
VERTEX
  8
0
 10
149.94
 20
42.3368
 30
0.0
 40
0.333333
 41
0.333333
  0
VERTEX
  8
0
 10
150.564
 20
42.1379
 30
0.0
 40
0.333333
 41
0.333333
  0
VERTEX
  8
0
 10
151.182
 20
41.9182
 30
0.0
 40
0.333333
 41
0.333333
  0
VERTEX
  8
0
 10
151.794
 20
41.6775
 30
0.0
 40
0.333333
 41
0.333333
  0
VERTEX
  8
0
 10
152.401
 20
41.4158
 30
0.0
 40
0.333333
 41
0.333333
  0
VERTEX
  8
0
 10
153
 20
41.1332
 30
0.0
 40
0.333333
 41
0.333333
  0
VERTEX
  8
0
 10
153.593
 20
40.8296
 30
0.0
 40
0.333333
 41
0.333333
  0
VERTEX
  8
0
 10
154.032
 20
40.5887
 30
0.0
 40
0.333333
 41
0.333333
  0
VERTEX
  8
0
 10
154.176
 20
40.5051
 30
0.0
 40
0.333333
 41
0.333333
  0
VERTEX
  8
0
 10
154.321
 20
40.4217
 30
0.0
 40
0.333333
 41
0.333333
  0
VERTEX
  8
0
 10
154.75
 20
40.1615
 30
0.0
 40
0.333333
 41
0.333333
  0
VERTEX
  8
0
 10
155.308
 20
39.8004
 30
0.0
 40
0.333333
 41
0.333333
  0
VERTEX
  8
0
 10
155.853
 20
39.4225
 30
0.0
 40
0.333333
 41
0.333333
  0
VERTEX
  8
0
 10
156.383
 20
39.0283
 30
0.0
 40
0.333333
 41
0.333333
  0
VERTEX
  8
0
 10
156.897
 20
38.6181
 30
0.0
 40
0.333333
 41
0.333333
  0
VERTEX
  8
0
 10
157.397
 20
38.1924
 30
0.0
 40
0.333333
 41
0.333333
  0
VERTEX
  8
0
 10
157.882
 20
37.7518
 30
0.0
 40
0.333333
 41
0.333333
  0
VERTEX
  8
0
 10
158.35
 20
37.2964
 30
0.0
 40
0.333333
 41
0.333333
  0
VERTEX
  8
0
 10
158.801
 20
36.8271
 30
0.0
 40
0.333333
 41
0.333333
  0
VERTEX
  8
0
 10
159.237
 20
36.344
 30
0.0
 40
0.333333
 41
0.333333
  0
VERTEX
  8
0
 10
159.657
 20
35.8478
 30
0.0
 40
0.333333
 41
0.333333
  0
VERTEX
  8
0
 10
160.06
 20
35.3389
 30
0.0
 40
0.333333
 41
0.333333
  0
VERTEX
  8
0
 10
160.446
 20
34.8176
 30
0.0
 40
0.333333
 41
0.333333
  0
VERTEX
  8
0
 10
160.814
 20
34.2844
 30
0.0
 40
0.333333
 41
0.333333
  0
VERTEX
  8
0
 10
161.164
 20
33.7401
 30
0.0
 40
0.333333
 41
0.333333
  0
VERTEX
  8
0
 10
161.497
 20
33.1847
 30
0.0
 40
0.333333
 41
0.333333
  0
VERTEX
  8
0
 10
161.811
 20
32.6188
 30
0.0
 40
0.333333
 41
0.333333
  0
VERTEX
  8
0
 10
162.108
 20
32.0429
 30
0.0
 40
0.333333
 41
0.333333
  0
VERTEX
  8
0
 10
162.386
 20
31.4575
 30
0.0
 40
0.333333
 41
0.333333
  0
VERTEX
  8
0
 10
162.644
 20
30.8631
 30
0.0
 40
0.333333
 41
0.333333
  0
VERTEX
  8
0
 10
162.883
 20
30.2599
 30
0.0
 40
0.333333
 41
0.333333
  0
VERTEX
  8
0
 10
163.104
 20
29.6485
 30
0.0
 40
0.333333
 41
0.333333
  0
VERTEX
  8
0
 10
163.304
 20
29.0294
 30
0.0
 40
0.333333
 41
0.333333
  0
VERTEX
  8
0
 10
163.485
 20
28.4031
 30
0.0
 40
0.333333
 41
0.333333
  0
VERTEX
  8
0
 10
163.644
 20
27.7699
 30
0.0
 40
0.333333
 41
0.333333
  0
VERTEX
  8
0
 10
163.783
 20
27.1303
 30
0.0
 40
0.333333
 41
0.333333
  0
VERTEX
  8
0
 10
163.903
 20
26.4849
 30
0.0
 40
0.333333
 41
0.333333
  0
VERTEX
  8
0
 10
164.001
 20
25.8339
 30
0.0
 40
0.333333
 41
0.333333
  0
VERTEX
  8
0
 10
164.078
 20
25.1779
 30
0.0
 40
0.333333
 41
0.333333
  0
VERTEX
  8
0
 10
164.132
 20
24.5174
 30
0.0
 40
0.333333
 41
0.333333
  0
VERTEX
  8
0
 10
164.165
 20
23.8529
 30
0.0
 40
0.333333
 41
0.333333
  0
VERTEX
  8
0
 10
164.176
 20
23.3517
 30
0.0
 40
0.333333
 41
0.333333
  0
VERTEX
  8
0
 10
164.176
 20
23.1846
 30
0.0
 40
0.333333
 41
0.333333
  0
VERTEX
  8
0
 10
164.176
 20
88.1847
 30
0.0
 40
0.333333
 41
0.333333
  0
VERTEX
  8
0
 10
124.177
 20
88.1847
 30
0.0
 40
0.333333
 41
0.333333
  0
SEQEND
 8
0
  0
POLYLINE
  8
0
 62
     0
 66
     1
 10
0
 20
0
 30
0.0
 40
25.4
 41
25.4
  0
VERTEX
  8
0
 10
124.177
 20
88.1847
 30
0.0
 40
0.352778
 41
0.352778
  0
VERTEX
  8
0
 10
0.176378
 20
88.1847
 30
0.0
 40
0.352778
 41
0.352778
  0
VERTEX
  8
0
 10
0.176378
 20
44.1847
 30
0.0
 40
0.352778
 41
0.352778
  0
VERTEX
  8
0
 10
124.177
 20
44.1847
 30
0.0
 40
0.352778
 41
0.352778
  0
SEQEND
 8
0
  0
POLYLINE
  8
0
 62
     0
 66
     1
 10
0
 20
0
 30
0.0
 40
25.4
 41
25.4
  0
VERTEX
  8
0
 10
0.176378
 20
44.1847
 30
0.0
 40
0.352778
 41
0.352778
  0
VERTEX
  8
0
 10
0.176378
 20
0.184571
 30
0.0
 40
0.352778
 41
0.352778
  0
VERTEX
  8
0
 10
124.177
 20
0.184571
 30
0.0
 40
0.352778
 41
0.352778
  0
VERTEX
  8
0
 10
124.177
 20
88.1847
 30
0.0
 40
0.352778
 41
0.352778
  0
SEQEND
 8
0
  0
ENDSEC
  0
EOF
