  0
SECTION
  2
HEADER
  9
$ACADVER
  1
AC1009
  9
$EXTMIN
 10
0.0
 20
0.0
 30
0.0
  9
$EXTMAX
 10
1000.0
 20
1000.0
 30
0.0
  9
$FILLMODE
 70
 0
  9
$SPLFRAME
 70
 1
  0
ENDSEC
  0
SECTION
  2
TABLES
  0
TABLE
  2
LAYER
 70
1
  0
LAYER
  2
0
 70
     0
 62
     7
  6
CONTINUOUS
  0
ENDTAB
  0
ENDSEC
  0
SECTION
  2
ENTITIES
  0
POLYLINE
  8
0
 62
     0
 66
     1
 10
0
 20
0
 30
0.0
 70
     1
 40
24
 41
24
  0
VERTEX
  8
0
 10
20.7264
 20
326.34
 30
0.0
 40
0.333333
 41
0.333333
  0
VERTEX
  8
0
 10
20.7264
 20
326.301
 30
0.0
 40
0.333333
 41
0.333333
  0
VERTEX
  8
0
 10
20.7186
 20
326.186
 30
0.0
 40
0.333333
 41
0.333333
  0
VERTEX
  8
0
 10
20.696
 20
326.037
 30
0.0
 40
0.333333
 41
0.333333
  0
VERTEX
  8
0
 10
20.659
 20
325.894
 30
0.0
 40
0.333333
 41
0.333333
  0
VERTEX
  8
0
 10
20.6085
 20
325.756
 30
0.0
 40
0.333333
 41
0.333333
  0
VERTEX
  8
0
 10
20.5454
 20
325.625
 30
0.0
 40
0.333333
 41
0.333333
  0
VERTEX
  8
0
 10
20.4703
 20
325.501
 30
0.0
 40
0.333333
 41
0.333333
  0
VERTEX
  8
0
 10
20.3839
 20
325.386
 30
0.0
 40
0.333333
 41
0.333333
  0
VERTEX
  8
0
 10
20.2871
 20
325.279
 30
0.0
 40
0.333333
 41
0.333333
  0
VERTEX
  8
0
 10
20.1806
 20
325.182
 30
0.0
 40
0.333333
 41
0.333333
  0
VERTEX
  8
0
 10
20.065
 20
325.096
 30
0.0
 40
0.333333
 41
0.333333
  0
VERTEX
  8
0
 10
19.9414
 20
325.021
 30
0.0
 40
0.333333
 41
0.333333
  0
VERTEX
  8
0
 10
19.8103
 20
324.958
 30
0.0
 40
0.333333
 41
0.333333
  0
VERTEX
  8
0
 10
19.6724
 20
324.907
 30
0.0
 40
0.333333
 41
0.333333
  0
VERTEX
  8
0
 10
19.5287
 20
324.871
 30
0.0
 40
0.333333
 41
0.333333
  0
VERTEX
  8
0
 10
19.3797
 20
324.847
 30
0.0
 40
0.333333
 41
0.333333
  0
VERTEX
  8
0
 10
19.2647
 20
324.84
 30
0.0
 40
0.333333
 41
0.333333
  0
VERTEX
  8
0
 10
19.2264
 20
324.84
 30
0.0
 40
0.333333
 41
0.333333
  0
VERTEX
  8
0
 10
19.1881
 20
324.84
 30
0.0
 40
0.333333
 41
0.333333
  0
VERTEX
  8
0
 10
19.0731
 20
324.847
 30
0.0
 40
0.333333
 41
0.333333
  0
VERTEX
  8
0
 10
18.9242
 20
324.871
 30
0.0
 40
0.333333
 41
0.333333
  0
VERTEX
  8
0
 10
18.7803
 20
324.907
 30
0.0
 40
0.333333
 41
0.333333
  0
VERTEX
  8
0
 10
18.6425
 20
324.958
 30
0.0
 40
0.333333
 41
0.333333
  0
VERTEX
  8
0
 10
18.5114
 20
325.021
 30
0.0
 40
0.333333
 41
0.333333
  0
VERTEX
  8
0
 10
18.3876
 20
325.096
 30
0.0
 40
0.333333
 41
0.333333
  0
VERTEX
  8
0
 10
18.2722
 20
325.182
 30
0.0
 40
0.333333
 41
0.333333
  0
VERTEX
  8
0
 10
18.1657
 20
325.279
 30
0.0
 40
0.333333
 41
0.333333
  0
VERTEX
  8
0
 10
18.0689
 20
325.386
 30
0.0
 40
0.333333
 41
0.333333
  0
VERTEX
  8
0
 10
17.9825
 20
325.501
 30
0.0
 40
0.333333
 41
0.333333
  0
VERTEX
  8
0
 10
17.9075
 20
325.625
 30
0.0
 40
0.333333
 41
0.333333
  0
VERTEX
  8
0
 10
17.8443
 20
325.756
 30
0.0
 40
0.333333
 41
0.333333
  0
VERTEX
  8
0
 10
17.7939
 20
325.894
 30
0.0
 40
0.333333
 41
0.333333
  0
VERTEX
  8
0
 10
17.7568
 20
326.037
 30
0.0
 40
0.333333
 41
0.333333
  0
VERTEX
  8
0
 10
17.7342
 20
326.186
 30
0.0
 40
0.333333
 41
0.333333
  0
VERTEX
  8
0
 10
17.7264
 20
326.301
 30
0.0
 40
0.333333
 41
0.333333
  0
VERTEX
  8
0
 10
17.7264
 20
326.34
 30
0.0
 40
0.333333
 41
0.333333
  0
VERTEX
  8
0
 10
17.7264
 20
326.378
 30
0.0
 40
0.333333
 41
0.333333
  0
VERTEX
  8
0
 10
17.7342
 20
326.493
 30
0.0
 40
0.333333
 41
0.333333
  0
VERTEX
  8
0
 10
17.7568
 20
326.642
 30
0.0
 40
0.333333
 41
0.333333
  0
VERTEX
  8
0
 10
17.7939
 20
326.786
 30
0.0
 40
0.333333
 41
0.333333
  0
VERTEX
  8
0
 10
17.8443
 20
326.924
 30
0.0
 40
0.333333
 41
0.333333
  0
VERTEX
  8
0
 10
17.9075
 20
327.054
 30
0.0
 40
0.333333
 41
0.333333
  0
VERTEX
  8
0
 10
17.9825
 20
327.179
 30
0.0
 40
0.333333
 41
0.333333
  0
VERTEX
  8
0
 10
18.0689
 20
327.294
 30
0.0
 40
0.333333
 41
0.333333
  0
VERTEX
  8
0
 10
18.1657
 20
327.4
 30
0.0
 40
0.333333
 41
0.333333
  0
VERTEX
  8
0
 10
18.2722
 20
327.497
 30
0.0
 40
0.333333
 41
0.333333
  0
VERTEX
  8
0
 10
18.3876
 20
327.583
 30
0.0
 40
0.333333
 41
0.333333
  0
VERTEX
  8
0
 10
18.5114
 20
327.658
 30
0.0
 40
0.333333
 41
0.333333
  0
VERTEX
  8
0
 10
18.6425
 20
327.722
 30
0.0
 40
0.333333
 41
0.333333
  0
VERTEX
  8
0
 10
18.7803
 20
327.772
 30
0.0
 40
0.333333
 41
0.333333
  0
VERTEX
  8
0
 10
18.9242
 20
327.81
 30
0.0
 40
0.333333
 41
0.333333
  0
VERTEX
  8
0
 10
19.0731
 20
327.832
 30
0.0
 40
0.333333
 41
0.333333
  0
VERTEX
  8
0
 10
19.1881
 20
327.84
 30
0.0
 40
0.333333
 41
0.333333
  0
VERTEX
  8
0
 10
19.2264
 20
327.84
 30
0.0
 40
0.333333
 41
0.333333
  0
VERTEX
  8
0
 10
19.2647
 20
327.84
 30
0.0
 40
0.333333
 41
0.333333
  0
VERTEX
  8
0
 10
19.3797
 20
327.832
 30
0.0
 40
0.333333
 41
0.333333
  0
VERTEX
  8
0
 10
19.5287
 20
327.81
 30
0.0
 40
0.333333
 41
0.333333
  0
VERTEX
  8
0
 10
19.6724
 20
327.772
 30
0.0
 40
0.333333
 41
0.333333
  0
VERTEX
  8
0
 10
19.8103
 20
327.722
 30
0.0
 40
0.333333
 41
0.333333
  0
VERTEX
  8
0
 10
19.9414
 20
327.658
 30
0.0
 40
0.333333
 41
0.333333
  0
VERTEX
  8
0
 10
20.065
 20
327.583
 30
0.0
 40
0.333333
 41
0.333333
  0
VERTEX
  8
0
 10
20.1806
 20
327.497
 30
0.0
 40
0.333333
 41
0.333333
  0
VERTEX
  8
0
 10
20.2871
 20
327.4
 30
0.0
 40
0.333333
 41
0.333333
  0
VERTEX
  8
0
 10
20.3839
 20
327.294
 30
0.0
 40
0.333333
 41
0.333333
  0
VERTEX
  8
0
 10
20.4703
 20
327.179
 30
0.0
 40
0.333333
 41
0.333333
  0
VERTEX
  8
0
 10
20.5454
 20
327.054
 30
0.0
 40
0.333333
 41
0.333333
  0
VERTEX
  8
0
 10
20.6085
 20
326.924
 30
0.0
 40
0.333333
 41
0.333333
  0
VERTEX
  8
0
 10
20.659
 20
326.786
 30
0.0
 40
0.333333
 41
0.333333
  0
VERTEX
  8
0
 10
20.696
 20
326.642
 30
0.0
 40
0.333333
 41
0.333333
  0
VERTEX
  8
0
 10
20.7186
 20
326.493
 30
0.0
 40
0.333333
 41
0.333333
  0
VERTEX
  8
0
 10
20.7264
 20
326.378
 30
0.0
 40
0.333333
 41
0.333333
  0
VERTEX
  8
0
 10
20.7264
 20
326.34
 30
0.0
 40
0.333333
 41
0.333333
  0
SEQEND
 8
0
  0
POLYLINE
  8
0
 62
     0
 66
     1
 10
0
 20
0
 30
0.0
 70
     1
 40
24
 41
24
  0
VERTEX
  8
0
 10
20.7264
 20
342.09
 30
0.0
 40
0.333333
 41
0.333333
  0
VERTEX
  8
0
 10
20.7264
 20
342.051
 30
0.0
 40
0.333333
 41
0.333333
  0
VERTEX
  8
0
 10
20.7186
 20
341.936
 30
0.0
 40
0.333333
 41
0.333333
  0
VERTEX
  8
0
 10
20.696
 20
341.787
 30
0.0
 40
0.333333
 41
0.333333
  0
VERTEX
  8
0
 10
20.659
 20
341.644
 30
0.0
 40
0.333333
 41
0.333333
  0
VERTEX
  8
0
 10
20.6085
 20
341.506
 30
0.0
 40
0.333333
 41
0.333333
  0
VERTEX
  8
0
 10
20.5454
 20
341.375
 30
0.0
 40
0.333333
 41
0.333333
  0
VERTEX
  8
0
 10
20.4703
 20
341.251
 30
0.0
 40
0.333333
 41
0.333333
  0
VERTEX
  8
0
 10
20.3839
 20
341.136
 30
0.0
 40
0.333333
 41
0.333333
  0
VERTEX
  8
0
 10
20.2871
 20
341.029
 30
0.0
 40
0.333333
 41
0.333333
  0
VERTEX
  8
0
 10
20.1806
 20
340.932
 30
0.0
 40
0.333333
 41
0.333333
  0
VERTEX
  8
0
 10
20.065
 20
340.846
 30
0.0
 40
0.333333
 41
0.333333
  0
VERTEX
  8
0
 10
19.9414
 20
340.771
 30
0.0
 40
0.333333
 41
0.333333
  0
VERTEX
  8
0
 10
19.8103
 20
340.708
 30
0.0
 40
0.333333
 41
0.333333
  0
VERTEX
  8
0
 10
19.6724
 20
340.657
 30
0.0
 40
0.333333
 41
0.333333
  0
VERTEX
  8
0
 10
19.5287
 20
340.621
 30
0.0
 40
0.333333
 41
0.333333
  0
VERTEX
  8
0
 10
19.3797
 20
340.597
 30
0.0
 40
0.333333
 41
0.333333
  0
VERTEX
  8
0
 10
19.2647
 20
340.59
 30
0.0
 40
0.333333
 41
0.333333
  0
VERTEX
  8
0
 10
19.2264
 20
340.59
 30
0.0
 40
0.333333
 41
0.333333
  0
VERTEX
  8
0
 10
19.1881
 20
340.59
 30
0.0
 40
0.333333
 41
0.333333
  0
VERTEX
  8
0
 10
19.0731
 20
340.597
 30
0.0
 40
0.333333
 41
0.333333
  0
VERTEX
  8
0
 10
18.9242
 20
340.621
 30
0.0
 40
0.333333
 41
0.333333
  0
VERTEX
  8
0
 10
18.7803
 20
340.657
 30
0.0
 40
0.333333
 41
0.333333
  0
VERTEX
  8
0
 10
18.6425
 20
340.708
 30
0.0
 40
0.333333
 41
0.333333
  0
VERTEX
  8
0
 10
18.5114
 20
340.771
 30
0.0
 40
0.333333
 41
0.333333
  0
VERTEX
  8
0
 10
18.3876
 20
340.846
 30
0.0
 40
0.333333
 41
0.333333
  0
VERTEX
  8
0
 10
18.2722
 20
340.932
 30
0.0
 40
0.333333
 41
0.333333
  0
VERTEX
  8
0
 10
18.1657
 20
341.029
 30
0.0
 40
0.333333
 41
0.333333
  0
VERTEX
  8
0
 10
18.0689
 20
341.136
 30
0.0
 40
0.333333
 41
0.333333
  0
VERTEX
  8
0
 10
17.9825
 20
341.251
 30
0.0
 40
0.333333
 41
0.333333
  0
VERTEX
  8
0
 10
17.9075
 20
341.375
 30
0.0
 40
0.333333
 41
0.333333
  0
VERTEX
  8
0
 10
17.8443
 20
341.506
 30
0.0
 40
0.333333
 41
0.333333
  0
VERTEX
  8
0
 10
17.7939
 20
341.644
 30
0.0
 40
0.333333
 41
0.333333
  0
VERTEX
  8
0
 10
17.7568
 20
341.787
 30
0.0
 40
0.333333
 41
0.333333
  0
VERTEX
  8
0
 10
17.7342
 20
341.936
 30
0.0
 40
0.333333
 41
0.333333
  0
VERTEX
  8
0
 10
17.7264
 20
342.051
 30
0.0
 40
0.333333
 41
0.333333
  0
VERTEX
  8
0
 10
17.7264
 20
342.09
 30
0.0
 40
0.333333
 41
0.333333
  0
VERTEX
  8
0
 10
17.7264
 20
342.128
 30
0.0
 40
0.333333
 41
0.333333
  0
VERTEX
  8
0
 10
17.7342
 20
342.243
 30
0.0
 40
0.333333
 41
0.333333
  0
VERTEX
  8
0
 10
17.7568
 20
342.392
 30
0.0
 40
0.333333
 41
0.333333
  0
VERTEX
  8
0
 10
17.7939
 20
342.536
 30
0.0
 40
0.333333
 41
0.333333
  0
VERTEX
  8
0
 10
17.8443
 20
342.674
 30
0.0
 40
0.333333
 41
0.333333
  0
VERTEX
  8
0
 10
17.9075
 20
342.804
 30
0.0
 40
0.333333
 41
0.333333
  0
VERTEX
  8
0
 10
17.9825
 20
342.929
 30
0.0
 40
0.333333
 41
0.333333
  0
VERTEX
  8
0
 10
18.0689
 20
343.044
 30
0.0
 40
0.333333
 41
0.333333
  0
VERTEX
  8
0
 10
18.1657
 20
343.15
 30
0.0
 40
0.333333
 41
0.333333
  0
VERTEX
  8
0
 10
18.2722
 20
343.247
 30
0.0
 40
0.333333
 41
0.333333
  0
VERTEX
  8
0
 10
18.3876
 20
343.333
 30
0.0
 40
0.333333
 41
0.333333
  0
VERTEX
  8
0
 10
18.5114
 20
343.408
 30
0.0
 40
0.333333
 41
0.333333
  0
VERTEX
  8
0
 10
18.6425
 20
343.472
 30
0.0
 40
0.333333
 41
0.333333
  0
VERTEX
  8
0
 10
18.7803
 20
343.522
 30
0.0
 40
0.333333
 41
0.333333
  0
VERTEX
  8
0
 10
18.9242
 20
343.56
 30
0.0
 40
0.333333
 41
0.333333
  0
VERTEX
  8
0
 10
19.0731
 20
343.582
 30
0.0
 40
0.333333
 41
0.333333
  0
VERTEX
  8
0
 10
19.1881
 20
343.59
 30
0.0
 40
0.333333
 41
0.333333
  0
VERTEX
  8
0
 10
19.2264
 20
343.59
 30
0.0
 40
0.333333
 41
0.333333
  0
VERTEX
  8
0
 10
19.2647
 20
343.59
 30
0.0
 40
0.333333
 41
0.333333
  0
VERTEX
  8
0
 10
19.3797
 20
343.582
 30
0.0
 40
0.333333
 41
0.333333
  0
VERTEX
  8
0
 10
19.5287
 20
343.56
 30
0.0
 40
0.333333
 41
0.333333
  0
VERTEX
  8
0
 10
19.6724
 20
343.522
 30
0.0
 40
0.333333
 41
0.333333
  0
VERTEX
  8
0
 10
19.8103
 20
343.472
 30
0.0
 40
0.333333
 41
0.333333
  0
VERTEX
  8
0
 10
19.9414
 20
343.408
 30
0.0
 40
0.333333
 41
0.333333
  0
VERTEX
  8
0
 10
20.065
 20
343.333
 30
0.0
 40
0.333333
 41
0.333333
  0
VERTEX
  8
0
 10
20.1806
 20
343.247
 30
0.0
 40
0.333333
 41
0.333333
  0
VERTEX
  8
0
 10
20.2871
 20
343.15
 30
0.0
 40
0.333333
 41
0.333333
  0
VERTEX
  8
0
 10
20.3839
 20
343.044
 30
0.0
 40
0.333333
 41
0.333333
  0
VERTEX
  8
0
 10
20.4703
 20
342.929
 30
0.0
 40
0.333333
 41
0.333333
  0
VERTEX
  8
0
 10
20.5454
 20
342.804
 30
0.0
 40
0.333333
 41
0.333333
  0
VERTEX
  8
0
 10
20.6085
 20
342.674
 30
0.0
 40
0.333333
 41
0.333333
  0
VERTEX
  8
0
 10
20.659
 20
342.536
 30
0.0
 40
0.333333
 41
0.333333
  0
VERTEX
  8
0
 10
20.696
 20
342.392
 30
0.0
 40
0.333333
 41
0.333333
  0
VERTEX
  8
0
 10
20.7186
 20
342.243
 30
0.0
 40
0.333333
 41
0.333333
  0
VERTEX
  8
0
 10
20.7264
 20
342.128
 30
0.0
 40
0.333333
 41
0.333333
  0
VERTEX
  8
0
 10
20.7264
 20
342.09
 30
0.0
 40
0.333333
 41
0.333333
  0
SEQEND
 8
0
  0
POLYLINE
  8
0
 62
     0
 66
     1
 10
0
 20
0
 30
0.0
 70
     1
 40
24
 41
24
  0
VERTEX
  8
0
 10
192.176
 20
342.09
 30
0.0
 40
0.333333
 41
0.333333
  0
VERTEX
  8
0
 10
192.176
 20
342.051
 30
0.0
 40
0.333333
 41
0.333333
  0
VERTEX
  8
0
 10
192.169
 20
341.936
 30
0.0
 40
0.333333
 41
0.333333
  0
VERTEX
  8
0
 10
192.146
 20
341.787
 30
0.0
 40
0.333333
 41
0.333333
  0
VERTEX
  8
0
 10
192.11
 20
341.644
 30
0.0
 40
0.333333
 41
0.333333
  0
VERTEX
  8
0
 10
192.058
 20
341.506
 30
0.0
 40
0.333333
 41
0.333333
  0
VERTEX
  8
0
 10
191.996
 20
341.375
 30
0.0
 40
0.333333
 41
0.333333
  0
VERTEX
  8
0
 10
191.921
 20
341.251
 30
0.0
 40
0.333333
 41
0.333333
  0
VERTEX
  8
0
 10
191.835
 20
341.136
 30
0.0
 40
0.333333
 41
0.333333
  0
VERTEX
  8
0
 10
191.737
 20
341.029
 30
0.0
 40
0.333333
 41
0.333333
  0
VERTEX
  8
0
 10
191.631
 20
340.932
 30
0.0
 40
0.333333
 41
0.333333
  0
VERTEX
  8
0
 10
191.515
 20
340.846
 30
0.0
 40
0.333333
 41
0.333333
  0
VERTEX
  8
0
 10
191.392
 20
340.771
 30
0.0
 40
0.333333
 41
0.333333
  0
VERTEX
  8
0
 10
191.261
 20
340.708
 30
0.0
 40
0.333333
 41
0.333333
  0
VERTEX
  8
0
 10
191.122
 20
340.657
 30
0.0
 40
0.333333
 41
0.333333
  0
VERTEX
  8
0
 10
190.979
 20
340.621
 30
0.0
 40
0.333333
 41
0.333333
  0
VERTEX
  8
0
 10
190.831
 20
340.597
 30
0.0
 40
0.333333
 41
0.333333
  0
VERTEX
  8
0
 10
190.715
 20
340.59
 30
0.0
 40
0.333333
 41
0.333333
  0
VERTEX
  8
0
 10
190.676
 20
340.59
 30
0.0
 40
0.333333
 41
0.333333
  0
VERTEX
  8
0
 10
190.639
 20
340.59
 30
0.0
 40
0.333333
 41
0.333333
  0
VERTEX
  8
0
 10
190.524
 20
340.597
 30
0.0
 40
0.333333
 41
0.333333
  0
VERTEX
  8
0
 10
190.375
 20
340.621
 30
0.0
 40
0.333333
 41
0.333333
  0
VERTEX
  8
0
 10
190.231
 20
340.657
 30
0.0
 40
0.333333
 41
0.333333
  0
VERTEX
  8
0
 10
190.093
 20
340.708
 30
0.0
 40
0.333333
 41
0.333333
  0
VERTEX
  8
0
 10
189.961
 20
340.771
 30
0.0
 40
0.333333
 41
0.333333
  0
VERTEX
  8
0
 10
189.837
 20
340.846
 30
0.0
 40
0.333333
 41
0.333333
  0
VERTEX
  8
0
 10
189.722
 20
340.932
 30
0.0
 40
0.333333
 41
0.333333
  0
VERTEX
  8
0
 10
189.617
 20
341.029
 30
0.0
 40
0.333333
 41
0.333333
  0
VERTEX
  8
0
 10
189.519
 20
341.136
 30
0.0
 40
0.333333
 41
0.333333
  0
VERTEX
  8
0
 10
189.433
 20
341.251
 30
0.0
 40
0.333333
 41
0.333333
  0
VERTEX
  8
0
 10
189.358
 20
341.375
 30
0.0
 40
0.333333
 41
0.333333
  0
VERTEX
  8
0
 10
189.294
 20
341.506
 30
0.0
 40
0.333333
 41
0.333333
  0
VERTEX
  8
0
 10
189.244
 20
341.644
 30
0.0
 40
0.333333
 41
0.333333
  0
VERTEX
  8
0
 10
189.207
 20
341.787
 30
0.0
 40
0.333333
 41
0.333333
  0
VERTEX
  8
0
 10
189.185
 20
341.936
 30
0.0
 40
0.333333
 41
0.333333
  0
VERTEX
  8
0
 10
189.176
 20
342.051
 30
0.0
 40
0.333333
 41
0.333333
  0
VERTEX
  8
0
 10
189.176
 20
342.09
 30
0.0
 40
0.333333
 41
0.333333
  0
VERTEX
  8
0
 10
189.176
 20
342.128
 30
0.0
 40
0.333333
 41
0.333333
  0
VERTEX
  8
0
 10
189.185
 20
342.243
 30
0.0
 40
0.333333
 41
0.333333
  0
VERTEX
  8
0
 10
189.207
 20
342.392
 30
0.0
 40
0.333333
 41
0.333333
  0
VERTEX
  8
0
 10
189.244
 20
342.536
 30
0.0
 40
0.333333
 41
0.333333
  0
VERTEX
  8
0
 10
189.294
 20
342.674
 30
0.0
 40
0.333333
 41
0.333333
  0
VERTEX
  8
0
 10
189.358
 20
342.804
 30
0.0
 40
0.333333
 41
0.333333
  0
VERTEX
  8
0
 10
189.433
 20
342.929
 30
0.0
 40
0.333333
 41
0.333333
  0
VERTEX
  8
0
 10
189.519
 20
343.044
 30
0.0
 40
0.333333
 41
0.333333
  0
VERTEX
  8
0
 10
189.617
 20
343.15
 30
0.0
 40
0.333333
 41
0.333333
  0
VERTEX
  8
0
 10
189.722
 20
343.247
 30
0.0
 40
0.333333
 41
0.333333
  0
VERTEX
  8
0
 10
189.837
 20
343.333
 30
0.0
 40
0.333333
 41
0.333333
  0
VERTEX
  8
0
 10
189.961
 20
343.408
 30
0.0
 40
0.333333
 41
0.333333
  0
VERTEX
  8
0
 10
190.093
 20
343.472
 30
0.0
 40
0.333333
 41
0.333333
  0
VERTEX
  8
0
 10
190.231
 20
343.522
 30
0.0
 40
0.333333
 41
0.333333
  0
VERTEX
  8
0
 10
190.375
 20
343.56
 30
0.0
 40
0.333333
 41
0.333333
  0
VERTEX
  8
0
 10
190.524
 20
343.582
 30
0.0
 40
0.333333
 41
0.333333
  0
VERTEX
  8
0
 10
190.639
 20
343.59
 30
0.0
 40
0.333333
 41
0.333333
  0
VERTEX
  8
0
 10
190.676
 20
343.59
 30
0.0
 40
0.333333
 41
0.333333
  0
VERTEX
  8
0
 10
190.715
 20
343.59
 30
0.0
 40
0.333333
 41
0.333333
  0
VERTEX
  8
0
 10
190.831
 20
343.582
 30
0.0
 40
0.333333
 41
0.333333
  0
VERTEX
  8
0
 10
190.979
 20
343.56
 30
0.0
 40
0.333333
 41
0.333333
  0
VERTEX
  8
0
 10
191.122
 20
343.522
 30
0.0
 40
0.333333
 41
0.333333
  0
VERTEX
  8
0
 10
191.261
 20
343.472
 30
0.0
 40
0.333333
 41
0.333333
  0
VERTEX
  8
0
 10
191.392
 20
343.408
 30
0.0
 40
0.333333
 41
0.333333
  0
VERTEX
  8
0
 10
191.515
 20
343.333
 30
0.0
 40
0.333333
 41
0.333333
  0
VERTEX
  8
0
 10
191.631
 20
343.247
 30
0.0
 40
0.333333
 41
0.333333
  0
VERTEX
  8
0
 10
191.737
 20
343.15
 30
0.0
 40
0.333333
 41
0.333333
  0
VERTEX
  8
0
 10
191.835
 20
343.044
 30
0.0
 40
0.333333
 41
0.333333
  0
VERTEX
  8
0
 10
191.921
 20
342.929
 30
0.0
 40
0.333333
 41
0.333333
  0
VERTEX
  8
0
 10
191.996
 20
342.804
 30
0.0
 40
0.333333
 41
0.333333
  0
VERTEX
  8
0
 10
192.058
 20
342.674
 30
0.0
 40
0.333333
 41
0.333333
  0
VERTEX
  8
0
 10
192.11
 20
342.536
 30
0.0
 40
0.333333
 41
0.333333
  0
VERTEX
  8
0
 10
192.146
 20
342.392
 30
0.0
 40
0.333333
 41
0.333333
  0
VERTEX
  8
0
 10
192.169
 20
342.243
 30
0.0
 40
0.333333
 41
0.333333
  0
VERTEX
  8
0
 10
192.176
 20
342.128
 30
0.0
 40
0.333333
 41
0.333333
  0
VERTEX
  8
0
 10
192.176
 20
342.09
 30
0.0
 40
0.333333
 41
0.333333
  0
SEQEND
 8
0
  0
POLYLINE
  8
0
 62
     0
 66
     1
 10
0
 20
0
 30
0.0
 70
     1
 40
24
 41
24
  0
VERTEX
  8
0
 10
192.176
 20
326.34
 30
0.0
 40
0.333333
 41
0.333333
  0
VERTEX
  8
0
 10
192.176
 20
326.301
 30
0.0
 40
0.333333
 41
0.333333
  0
VERTEX
  8
0
 10
192.169
 20
326.186
 30
0.0
 40
0.333333
 41
0.333333
  0
VERTEX
  8
0
 10
192.146
 20
326.037
 30
0.0
 40
0.333333
 41
0.333333
  0
VERTEX
  8
0
 10
192.11
 20
325.894
 30
0.0
 40
0.333333
 41
0.333333
  0
VERTEX
  8
0
 10
192.058
 20
325.756
 30
0.0
 40
0.333333
 41
0.333333
  0
VERTEX
  8
0
 10
191.996
 20
325.625
 30
0.0
 40
0.333333
 41
0.333333
  0
VERTEX
  8
0
 10
191.921
 20
325.501
 30
0.0
 40
0.333333
 41
0.333333
  0
VERTEX
  8
0
 10
191.835
 20
325.386
 30
0.0
 40
0.333333
 41
0.333333
  0
VERTEX
  8
0
 10
191.737
 20
325.279
 30
0.0
 40
0.333333
 41
0.333333
  0
VERTEX
  8
0
 10
191.631
 20
325.182
 30
0.0
 40
0.333333
 41
0.333333
  0
VERTEX
  8
0
 10
191.515
 20
325.096
 30
0.0
 40
0.333333
 41
0.333333
  0
VERTEX
  8
0
 10
191.392
 20
325.021
 30
0.0
 40
0.333333
 41
0.333333
  0
VERTEX
  8
0
 10
191.261
 20
324.958
 30
0.0
 40
0.333333
 41
0.333333
  0
VERTEX
  8
0
 10
191.122
 20
324.907
 30
0.0
 40
0.333333
 41
0.333333
  0
VERTEX
  8
0
 10
190.979
 20
324.871
 30
0.0
 40
0.333333
 41
0.333333
  0
VERTEX
  8
0
 10
190.831
 20
324.847
 30
0.0
 40
0.333333
 41
0.333333
  0
VERTEX
  8
0
 10
190.715
 20
324.84
 30
0.0
 40
0.333333
 41
0.333333
  0
VERTEX
  8
0
 10
190.676
 20
324.84
 30
0.0
 40
0.333333
 41
0.333333
  0
VERTEX
  8
0
 10
190.639
 20
324.84
 30
0.0
 40
0.333333
 41
0.333333
  0
VERTEX
  8
0
 10
190.524
 20
324.847
 30
0.0
 40
0.333333
 41
0.333333
  0
VERTEX
  8
0
 10
190.375
 20
324.871
 30
0.0
 40
0.333333
 41
0.333333
  0
VERTEX
  8
0
 10
190.231
 20
324.907
 30
0.0
 40
0.333333
 41
0.333333
  0
VERTEX
  8
0
 10
190.093
 20
324.958
 30
0.0
 40
0.333333
 41
0.333333
  0
VERTEX
  8
0
 10
189.961
 20
325.021
 30
0.0
 40
0.333333
 41
0.333333
  0
VERTEX
  8
0
 10
189.837
 20
325.096
 30
0.0
 40
0.333333
 41
0.333333
  0
VERTEX
  8
0
 10
189.722
 20
325.182
 30
0.0
 40
0.333333
 41
0.333333
  0
VERTEX
  8
0
 10
189.617
 20
325.279
 30
0.0
 40
0.333333
 41
0.333333
  0
VERTEX
  8
0
 10
189.519
 20
325.386
 30
0.0
 40
0.333333
 41
0.333333
  0
VERTEX
  8
0
 10
189.433
 20
325.501
 30
0.0
 40
0.333333
 41
0.333333
  0
VERTEX
  8
0
 10
189.358
 20
325.625
 30
0.0
 40
0.333333
 41
0.333333
  0
VERTEX
  8
0
 10
189.294
 20
325.756
 30
0.0
 40
0.333333
 41
0.333333
  0
VERTEX
  8
0
 10
189.244
 20
325.894
 30
0.0
 40
0.333333
 41
0.333333
  0
VERTEX
  8
0
 10
189.207
 20
326.037
 30
0.0
 40
0.333333
 41
0.333333
  0
VERTEX
  8
0
 10
189.185
 20
326.186
 30
0.0
 40
0.333333
 41
0.333333
  0
VERTEX
  8
0
 10
189.176
 20
326.301
 30
0.0
 40
0.333333
 41
0.333333
  0
VERTEX
  8
0
 10
189.176
 20
326.34
 30
0.0
 40
0.333333
 41
0.333333
  0
VERTEX
  8
0
 10
189.176
 20
326.378
 30
0.0
 40
0.333333
 41
0.333333
  0
VERTEX
  8
0
 10
189.185
 20
326.493
 30
0.0
 40
0.333333
 41
0.333333
  0
VERTEX
  8
0
 10
189.207
 20
326.642
 30
0.0
 40
0.333333
 41
0.333333
  0
VERTEX
  8
0
 10
189.244
 20
326.786
 30
0.0
 40
0.333333
 41
0.333333
  0
VERTEX
  8
0
 10
189.294
 20
326.924
 30
0.0
 40
0.333333
 41
0.333333
  0
VERTEX
  8
0
 10
189.358
 20
327.054
 30
0.0
 40
0.333333
 41
0.333333
  0
VERTEX
  8
0
 10
189.433
 20
327.179
 30
0.0
 40
0.333333
 41
0.333333
  0
VERTEX
  8
0
 10
189.519
 20
327.294
 30
0.0
 40
0.333333
 41
0.333333
  0
VERTEX
  8
0
 10
189.617
 20
327.4
 30
0.0
 40
0.333333
 41
0.333333
  0
VERTEX
  8
0
 10
189.722
 20
327.497
 30
0.0
 40
0.333333
 41
0.333333
  0
VERTEX
  8
0
 10
189.837
 20
327.583
 30
0.0
 40
0.333333
 41
0.333333
  0
VERTEX
  8
0
 10
189.961
 20
327.658
 30
0.0
 40
0.333333
 41
0.333333
  0
VERTEX
  8
0
 10
190.093
 20
327.722
 30
0.0
 40
0.333333
 41
0.333333
  0
VERTEX
  8
0
 10
190.231
 20
327.772
 30
0.0
 40
0.333333
 41
0.333333
  0
VERTEX
  8
0
 10
190.375
 20
327.81
 30
0.0
 40
0.333333
 41
0.333333
  0
VERTEX
  8
0
 10
190.524
 20
327.832
 30
0.0
 40
0.333333
 41
0.333333
  0
VERTEX
  8
0
 10
190.639
 20
327.84
 30
0.0
 40
0.333333
 41
0.333333
  0
VERTEX
  8
0
 10
190.676
 20
327.84
 30
0.0
 40
0.333333
 41
0.333333
  0
VERTEX
  8
0
 10
190.715
 20
327.84
 30
0.0
 40
0.333333
 41
0.333333
  0
VERTEX
  8
0
 10
190.831
 20
327.832
 30
0.0
 40
0.333333
 41
0.333333
  0
VERTEX
  8
0
 10
190.979
 20
327.81
 30
0.0
 40
0.333333
 41
0.333333
  0
VERTEX
  8
0
 10
191.122
 20
327.772
 30
0.0
 40
0.333333
 41
0.333333
  0
VERTEX
  8
0
 10
191.261
 20
327.722
 30
0.0
 40
0.333333
 41
0.333333
  0
VERTEX
  8
0
 10
191.392
 20
327.658
 30
0.0
 40
0.333333
 41
0.333333
  0
VERTEX
  8
0
 10
191.515
 20
327.583
 30
0.0
 40
0.333333
 41
0.333333
  0
VERTEX
  8
0
 10
191.631
 20
327.497
 30
0.0
 40
0.333333
 41
0.333333
  0
VERTEX
  8
0
 10
191.737
 20
327.4
 30
0.0
 40
0.333333
 41
0.333333
  0
VERTEX
  8
0
 10
191.835
 20
327.294
 30
0.0
 40
0.333333
 41
0.333333
  0
VERTEX
  8
0
 10
191.921
 20
327.179
 30
0.0
 40
0.333333
 41
0.333333
  0
VERTEX
  8
0
 10
191.996
 20
327.054
 30
0.0
 40
0.333333
 41
0.333333
  0
VERTEX
  8
0
 10
192.058
 20
326.924
 30
0.0
 40
0.333333
 41
0.333333
  0
VERTEX
  8
0
 10
192.11
 20
326.786
 30
0.0
 40
0.333333
 41
0.333333
  0
VERTEX
  8
0
 10
192.146
 20
326.642
 30
0.0
 40
0.333333
 41
0.333333
  0
VERTEX
  8
0
 10
192.169
 20
326.493
 30
0.0
 40
0.333333
 41
0.333333
  0
VERTEX
  8
0
 10
192.176
 20
326.378
 30
0.0
 40
0.333333
 41
0.333333
  0
VERTEX
  8
0
 10
192.176
 20
326.34
 30
0.0
 40
0.333333
 41
0.333333
  0
SEQEND
 8
0
  0
POLYLINE
  8
0
 62
     0
 66
     1
 10
0
 20
0
 30
0.0
 70
     1
 40
24
 41
24
  0
VERTEX
  8
0
 10
201.765
 20
603.44
 30
0.0
 40
0.333333
 41
0.333333
  0
VERTEX
  8
0
 10
201.765
 20
603.401
 30
0.0
 40
0.333333
 41
0.333333
  0
VERTEX
  8
0
 10
201.757
 20
603.287
 30
0.0
 40
0.333333
 41
0.333333
  0
VERTEX
  8
0
 10
201.735
 20
603.137
 30
0.0
 40
0.333333
 41
0.333333
  0
VERTEX
  8
0
 10
201.697
 20
602.994
 30
0.0
 40
0.333333
 41
0.333333
  0
VERTEX
  8
0
 10
201.647
 20
602.857
 30
0.0
 40
0.333333
 41
0.333333
  0
VERTEX
  8
0
 10
201.585
 20
602.725
 30
0.0
 40
0.333333
 41
0.333333
  0
VERTEX
  8
0
 10
201.508
 20
602.601
 30
0.0
 40
0.333333
 41
0.333333
  0
VERTEX
  8
0
 10
201.422
 20
602.486
 30
0.0
 40
0.333333
 41
0.333333
  0
VERTEX
  8
0
 10
201.326
 20
602.379
 30
0.0
 40
0.333333
 41
0.333333
  0
VERTEX
  8
0
 10
201.219
 20
602.283
 30
0.0
 40
0.333333
 41
0.333333
  0
VERTEX
  8
0
 10
201.104
 20
602.196
 30
0.0
 40
0.333333
 41
0.333333
  0
VERTEX
  8
0
 10
200.981
 20
602.121
 30
0.0
 40
0.333333
 41
0.333333
  0
VERTEX
  8
0
 10
200.849
 20
602.058
 30
0.0
 40
0.333333
 41
0.333333
  0
VERTEX
  8
0
 10
200.711
 20
602.008
 30
0.0
 40
0.333333
 41
0.333333
  0
VERTEX
  8
0
 10
200.568
 20
601.971
 30
0.0
 40
0.333333
 41
0.333333
  0
VERTEX
  8
0
 10
200.418
 20
601.949
 30
0.0
 40
0.333333
 41
0.333333
  0
VERTEX
  8
0
 10
200.304
 20
601.94
 30
0.0
 40
0.333333
 41
0.333333
  0
VERTEX
  8
0
 10
200.265
 20
601.94
 30
0.0
 40
0.333333
 41
0.333333
  0
VERTEX
  8
0
 10
200.226
 20
601.94
 30
0.0
 40
0.333333
 41
0.333333
  0
VERTEX
  8
0
 10
200.112
 20
601.949
 30
0.0
 40
0.333333
 41
0.333333
  0
VERTEX
  8
0
 10
199.962
 20
601.971
 30
0.0
 40
0.333333
 41
0.333333
  0
VERTEX
  8
0
 10
199.819
 20
602.008
 30
0.0
 40
0.333333
 41
0.333333
  0
VERTEX
  8
0
 10
199.682
 20
602.058
 30
0.0
 40
0.333333
 41
0.333333
  0
VERTEX
  8
0
 10
199.55
 20
602.121
 30
0.0
 40
0.333333
 41
0.333333
  0
VERTEX
  8
0
 10
199.426
 20
602.196
 30
0.0
 40
0.333333
 41
0.333333
  0
VERTEX
  8
0
 10
199.311
 20
602.283
 30
0.0
 40
0.333333
 41
0.333333
  0
VERTEX
  8
0
 10
199.204
 20
602.379
 30
0.0
 40
0.333333
 41
0.333333
  0
VERTEX
  8
0
 10
199.108
 20
602.486
 30
0.0
 40
0.333333
 41
0.333333
  0
VERTEX
  8
0
 10
199.021
 20
602.601
 30
0.0
 40
0.333333
 41
0.333333
  0
VERTEX
  8
0
 10
198.946
 20
602.725
 30
0.0
 40
0.333333
 41
0.333333
  0
VERTEX
  8
0
 10
198.883
 20
602.857
 30
0.0
 40
0.333333
 41
0.333333
  0
VERTEX
  8
0
 10
198.832
 20
602.994
 30
0.0
 40
0.333333
 41
0.333333
  0
VERTEX
  8
0
 10
198.796
 20
603.137
 30
0.0
 40
0.333333
 41
0.333333
  0
VERTEX
  8
0
 10
198.772
 20
603.287
 30
0.0
 40
0.333333
 41
0.333333
  0
VERTEX
  8
0
 10
198.765
 20
603.401
 30
0.0
 40
0.333333
 41
0.333333
  0
VERTEX
  8
0
 10
198.765
 20
603.44
 30
0.0
 40
0.333333
 41
0.333333
  0
VERTEX
  8
0
 10
198.765
 20
603.479
 30
0.0
 40
0.333333
 41
0.333333
  0
VERTEX
  8
0
 10
198.772
 20
603.593
 30
0.0
 40
0.333333
 41
0.333333
  0
VERTEX
  8
0
 10
198.796
 20
603.743
 30
0.0
 40
0.333333
 41
0.333333
  0
VERTEX
  8
0
 10
198.832
 20
603.886
 30
0.0
 40
0.333333
 41
0.333333
  0
VERTEX
  8
0
 10
198.883
 20
604.024
 30
0.0
 40
0.333333
 41
0.333333
  0
VERTEX
  8
0
 10
198.946
 20
604.156
 30
0.0
 40
0.333333
 41
0.333333
  0
VERTEX
  8
0
 10
199.021
 20
604.279
 30
0.0
 40
0.333333
 41
0.333333
  0
VERTEX
  8
0
 10
199.108
 20
604.394
 30
0.0
 40
0.333333
 41
0.333333
  0
VERTEX
  8
0
 10
199.204
 20
604.501
 30
0.0
 40
0.333333
 41
0.333333
  0
VERTEX
  8
0
 10
199.311
 20
604.597
 30
0.0
 40
0.333333
 41
0.333333
  0
VERTEX
  8
0
 10
199.426
 20
604.685
 30
0.0
 40
0.333333
 41
0.333333
  0
VERTEX
  8
0
 10
199.55
 20
604.76
 30
0.0
 40
0.333333
 41
0.333333
  0
VERTEX
  8
0
 10
199.682
 20
604.822
 30
0.0
 40
0.333333
 41
0.333333
  0
VERTEX
  8
0
 10
199.819
 20
604.872
 30
0.0
 40
0.333333
 41
0.333333
  0
VERTEX
  8
0
 10
199.962
 20
604.91
 30
0.0
 40
0.333333
 41
0.333333
  0
VERTEX
  8
0
 10
200.112
 20
604.932
 30
0.0
 40
0.333333
 41
0.333333
  0
VERTEX
  8
0
 10
200.226
 20
604.94
 30
0.0
 40
0.333333
 41
0.333333
  0
VERTEX
  8
0
 10
200.265
 20
604.94
 30
0.0
 40
0.333333
 41
0.333333
  0
VERTEX
  8
0
 10
200.304
 20
604.94
 30
0.0
 40
0.333333
 41
0.333333
  0
VERTEX
  8
0
 10
200.418
 20
604.932
 30
0.0
 40
0.333333
 41
0.333333
  0
VERTEX
  8
0
 10
200.568
 20
604.91
 30
0.0
 40
0.333333
 41
0.333333
  0
VERTEX
  8
0
 10
200.711
 20
604.872
 30
0.0
 40
0.333333
 41
0.333333
  0
VERTEX
  8
0
 10
200.849
 20
604.822
 30
0.0
 40
0.333333
 41
0.333333
  0
VERTEX
  8
0
 10
200.981
 20
604.76
 30
0.0
 40
0.333333
 41
0.333333
  0
VERTEX
  8
0
 10
201.104
 20
604.685
 30
0.0
 40
0.333333
 41
0.333333
  0
VERTEX
  8
0
 10
201.219
 20
604.597
 30
0.0
 40
0.333333
 41
0.333333
  0
VERTEX
  8
0
 10
201.326
 20
604.501
 30
0.0
 40
0.333333
 41
0.333333
  0
VERTEX
  8
0
 10
201.422
 20
604.394
 30
0.0
 40
0.333333
 41
0.333333
  0
VERTEX
  8
0
 10
201.508
 20
604.279
 30
0.0
 40
0.333333
 41
0.333333
  0
VERTEX
  8
0
 10
201.585
 20
604.156
 30
0.0
 40
0.333333
 41
0.333333
  0
VERTEX
  8
0
 10
201.647
 20
604.024
 30
0.0
 40
0.333333
 41
0.333333
  0
VERTEX
  8
0
 10
201.697
 20
603.886
 30
0.0
 40
0.333333
 41
0.333333
  0
VERTEX
  8
0
 10
201.735
 20
603.743
 30
0.0
 40
0.333333
 41
0.333333
  0
VERTEX
  8
0
 10
201.757
 20
603.593
 30
0.0
 40
0.333333
 41
0.333333
  0
VERTEX
  8
0
 10
201.765
 20
603.479
 30
0.0
 40
0.333333
 41
0.333333
  0
VERTEX
  8
0
 10
201.765
 20
603.44
 30
0.0
 40
0.333333
 41
0.333333
  0
SEQEND
 8
0
  0
POLYLINE
  8
0
 62
     0
 66
     1
 10
0
 20
0
 30
0.0
 70
     1
 40
24
 41
24
  0
VERTEX
  8
0
 10
20.7264
 20
15.1893
 30
0.0
 40
0.333333
 41
0.333333
  0
VERTEX
  8
0
 10
20.7264
 20
15.1511
 30
0.0
 40
0.333333
 41
0.333333
  0
VERTEX
  8
0
 10
20.7186
 20
15.036
 30
0.0
 40
0.333333
 41
0.333333
  0
VERTEX
  8
0
 10
20.696
 20
14.8871
 30
0.0
 40
0.333333
 41
0.333333
  0
VERTEX
  8
0
 10
20.659
 20
14.7433
 30
0.0
 40
0.333333
 41
0.333333
  0
VERTEX
  8
0
 10
20.6085
 20
14.6056
 30
0.0
 40
0.333333
 41
0.333333
  0
VERTEX
  8
0
 10
20.5454
 20
14.4744
 30
0.0
 40
0.333333
 41
0.333333
  0
VERTEX
  8
0
 10
20.4703
 20
14.3507
 30
0.0
 40
0.333333
 41
0.333333
  0
VERTEX
  8
0
 10
20.3839
 20
14.2353
 30
0.0
 40
0.333333
 41
0.333333
  0
VERTEX
  8
0
 10
20.2871
 20
14.1288
 30
0.0
 40
0.333333
 41
0.333333
  0
VERTEX
  8
0
 10
20.1806
 20
14.0319
 30
0.0
 40
0.333333
 41
0.333333
  0
VERTEX
  8
0
 10
20.065
 20
13.9456
 30
0.0
 40
0.333333
 41
0.333333
  0
VERTEX
  8
0
 10
19.9414
 20
13.8704
 30
0.0
 40
0.333333
 41
0.333333
  0
VERTEX
  8
0
 10
19.8103
 20
13.8072
 30
0.0
 40
0.333333
 41
0.333333
  0
VERTEX
  8
0
 10
19.6724
 20
13.7568
 30
0.0
 40
0.333333
 41
0.333333
  0
VERTEX
  8
0
 10
19.5287
 20
13.7198
 30
0.0
 40
0.333333
 41
0.333333
  0
VERTEX
  8
0
 10
19.3797
 20
13.6971
 30
0.0
 40
0.333333
 41
0.333333
  0
VERTEX
  8
0
 10
19.2647
 20
13.6893
 30
0.0
 40
0.333333
 41
0.333333
  0
VERTEX
  8
0
 10
19.2264
 20
13.6893
 30
0.0
 40
0.333333
 41
0.333333
  0
VERTEX
  8
0
 10
19.1881
 20
13.6893
 30
0.0
 40
0.333333
 41
0.333333
  0
VERTEX
  8
0
 10
19.0731
 20
13.6971
 30
0.0
 40
0.333333
 41
0.333333
  0
VERTEX
  8
0
 10
18.9242
 20
13.7198
 30
0.0
 40
0.333333
 41
0.333333
  0
VERTEX
  8
0
 10
18.7803
 20
13.7568
 30
0.0
 40
0.333333
 41
0.333333
  0
VERTEX
  8
0
 10
18.6425
 20
13.8072
 30
0.0
 40
0.333333
 41
0.333333
  0
VERTEX
  8
0
 10
18.5114
 20
13.8704
 30
0.0
 40
0.333333
 41
0.333333
  0
VERTEX
  8
0
 10
18.3876
 20
13.9456
 30
0.0
 40
0.333333
 41
0.333333
  0
VERTEX
  8
0
 10
18.2722
 20
14.0319
 30
0.0
 40
0.333333
 41
0.333333
  0
VERTEX
  8
0
 10
18.1657
 20
14.1288
 30
0.0
 40
0.333333
 41
0.333333
  0
VERTEX
  8
0
 10
18.0689
 20
14.2353
 30
0.0
 40
0.333333
 41
0.333333
  0
VERTEX
  8
0
 10
17.9825
 20
14.3507
 30
0.0
 40
0.333333
 41
0.333333
  0
VERTEX
  8
0
 10
17.9075
 20
14.4744
 30
0.0
 40
0.333333
 41
0.333333
  0
VERTEX
  8
0
 10
17.8443
 20
14.6056
 30
0.0
 40
0.333333
 41
0.333333
  0
VERTEX
  8
0
 10
17.7939
 20
14.7433
 30
0.0
 40
0.333333
 41
0.333333
  0
VERTEX
  8
0
 10
17.7568
 20
14.8871
 30
0.0
 40
0.333333
 41
0.333333
  0
VERTEX
  8
0
 10
17.7342
 20
15.036
 30
0.0
 40
0.333333
 41
0.333333
  0
VERTEX
  8
0
 10
17.7264
 20
15.1511
 30
0.0
 40
0.333333
 41
0.333333
  0
VERTEX
  8
0
 10
17.7264
 20
15.1893
 30
0.0
 40
0.333333
 41
0.333333
  0
VERTEX
  8
0
 10
17.7264
 20
15.2276
 30
0.0
 40
0.333333
 41
0.333333
  0
VERTEX
  8
0
 10
17.7342
 20
15.3428
 30
0.0
 40
0.333333
 41
0.333333
  0
VERTEX
  8
0
 10
17.7568
 20
15.4917
 30
0.0
 40
0.333333
 41
0.333333
  0
VERTEX
  8
0
 10
17.7939
 20
15.6354
 30
0.0
 40
0.333333
 41
0.333333
  0
VERTEX
  8
0
 10
17.8443
 20
15.7733
 30
0.0
 40
0.333333
 41
0.333333
  0
VERTEX
  8
0
 10
17.9075
 20
15.9043
 30
0.0
 40
0.333333
 41
0.333333
  0
VERTEX
  8
0
 10
17.9825
 20
16.0281
 30
0.0
 40
0.333333
 41
0.333333
  0
VERTEX
  8
0
 10
18.0689
 20
16.1435
 30
0.0
 40
0.333333
 41
0.333333
  0
VERTEX
  8
0
 10
18.1657
 20
16.25
 30
0.0
 40
0.333333
 41
0.333333
  0
VERTEX
  8
0
 10
18.2722
 20
16.3468
 30
0.0
 40
0.333333
 41
0.333333
  0
VERTEX
  8
0
 10
18.3876
 20
16.4332
 30
0.0
 40
0.333333
 41
0.333333
  0
VERTEX
  8
0
 10
18.5114
 20
16.5083
 30
0.0
 40
0.333333
 41
0.333333
  0
VERTEX
  8
0
 10
18.6425
 20
16.5715
 30
0.0
 40
0.333333
 41
0.333333
  0
VERTEX
  8
0
 10
18.7803
 20
16.6219
 30
0.0
 40
0.333333
 41
0.333333
  0
VERTEX
  8
0
 10
18.9242
 20
16.6589
 30
0.0
 40
0.333333
 41
0.333333
  0
VERTEX
  8
0
 10
19.0731
 20
16.6817
 30
0.0
 40
0.333333
 41
0.333333
  0
VERTEX
  8
0
 10
19.1881
 20
16.6893
 30
0.0
 40
0.333333
 41
0.333333
  0
VERTEX
  8
0
 10
19.2264
 20
16.6893
 30
0.0
 40
0.333333
 41
0.333333
  0
VERTEX
  8
0
 10
19.2647
 20
16.6893
 30
0.0
 40
0.333333
 41
0.333333
  0
VERTEX
  8
0
 10
19.3797
 20
16.6817
 30
0.0
 40
0.333333
 41
0.333333
  0
VERTEX
  8
0
 10
19.5287
 20
16.6589
 30
0.0
 40
0.333333
 41
0.333333
  0
VERTEX
  8
0
 10
19.6724
 20
16.6219
 30
0.0
 40
0.333333
 41
0.333333
  0
VERTEX
  8
0
 10
19.8103
 20
16.5715
 30
0.0
 40
0.333333
 41
0.333333
  0
VERTEX
  8
0
 10
19.9414
 20
16.5083
 30
0.0
 40
0.333333
 41
0.333333
  0
VERTEX
  8
0
 10
20.065
 20
16.4332
 30
0.0
 40
0.333333
 41
0.333333
  0
VERTEX
  8
0
 10
20.1806
 20
16.3468
 30
0.0
 40
0.333333
 41
0.333333
  0
VERTEX
  8
0
 10
20.2871
 20
16.25
 30
0.0
 40
0.333333
 41
0.333333
  0
VERTEX
  8
0
 10
20.3839
 20
16.1435
 30
0.0
 40
0.333333
 41
0.333333
  0
VERTEX
  8
0
 10
20.4703
 20
16.0281
 30
0.0
 40
0.333333
 41
0.333333
  0
VERTEX
  8
0
 10
20.5454
 20
15.9043
 30
0.0
 40
0.333333
 41
0.333333
  0
VERTEX
  8
0
 10
20.6085
 20
15.7733
 30
0.0
 40
0.333333
 41
0.333333
  0
VERTEX
  8
0
 10
20.659
 20
15.6354
 30
0.0
 40
0.333333
 41
0.333333
  0
VERTEX
  8
0
 10
20.696
 20
15.4917
 30
0.0
 40
0.333333
 41
0.333333
  0
VERTEX
  8
0
 10
20.7186
 20
15.3428
 30
0.0
 40
0.333333
 41
0.333333
  0
VERTEX
  8
0
 10
20.7264
 20
15.2276
 30
0.0
 40
0.333333
 41
0.333333
  0
VERTEX
  8
0
 10
20.7264
 20
15.1893
 30
0.0
 40
0.333333
 41
0.333333
  0
SEQEND
 8
0
  0
POLYLINE
  8
0
 62
     0
 66
     1
 10
0
 20
0
 30
0.0
 70
     1
 40
24
 41
24
  0
VERTEX
  8
0
 10
20.7264
 20
30.9394
 30
0.0
 40
0.333333
 41
0.333333
  0
VERTEX
  8
0
 10
20.7264
 20
30.9011
 30
0.0
 40
0.333333
 41
0.333333
  0
VERTEX
  8
0
 10
20.7186
 20
30.7861
 30
0.0
 40
0.333333
 41
0.333333
  0
VERTEX
  8
0
 10
20.696
 20
30.6371
 30
0.0
 40
0.333333
 41
0.333333
  0
VERTEX
  8
0
 10
20.659
 20
30.4933
 30
0.0
 40
0.333333
 41
0.333333
  0
VERTEX
  8
0
 10
20.6085
 20
30.3556
 30
0.0
 40
0.333333
 41
0.333333
  0
VERTEX
  8
0
 10
20.5454
 20
30.2244
 30
0.0
 40
0.333333
 41
0.333333
  0
VERTEX
  8
0
 10
20.4703
 20
30.1007
 30
0.0
 40
0.333333
 41
0.333333
  0
VERTEX
  8
0
 10
20.3839
 20
29.9853
 30
0.0
 40
0.333333
 41
0.333333
  0
VERTEX
  8
0
 10
20.2871
 20
29.8788
 30
0.0
 40
0.333333
 41
0.333333
  0
VERTEX
  8
0
 10
20.1806
 20
29.7819
 30
0.0
 40
0.333333
 41
0.333333
  0
VERTEX
  8
0
 10
20.065
 20
29.6956
 30
0.0
 40
0.333333
 41
0.333333
  0
VERTEX
  8
0
 10
19.9414
 20
29.6204
 30
0.0
 40
0.333333
 41
0.333333
  0
VERTEX
  8
0
 10
19.8103
 20
29.5574
 30
0.0
 40
0.333333
 41
0.333333
  0
VERTEX
  8
0
 10
19.6724
 20
29.5068
 30
0.0
 40
0.333333
 41
0.333333
  0
VERTEX
  8
0
 10
19.5287
 20
29.4699
 30
0.0
 40
0.333333
 41
0.333333
  0
VERTEX
  8
0
 10
19.3797
 20
29.4472
 30
0.0
 40
0.333333
 41
0.333333
  0
VERTEX
  8
0
 10
19.2647
 20
29.4394
 30
0.0
 40
0.333333
 41
0.333333
  0
VERTEX
  8
0
 10
19.2264
 20
29.4394
 30
0.0
 40
0.333333
 41
0.333333
  0
VERTEX
  8
0
 10
19.1881
 20
29.4394
 30
0.0
 40
0.333333
 41
0.333333
  0
VERTEX
  8
0
 10
19.0731
 20
29.4472
 30
0.0
 40
0.333333
 41
0.333333
  0
VERTEX
  8
0
 10
18.9242
 20
29.4699
 30
0.0
 40
0.333333
 41
0.333333
  0
VERTEX
  8
0
 10
18.7803
 20
29.5068
 30
0.0
 40
0.333333
 41
0.333333
  0
VERTEX
  8
0
 10
18.6425
 20
29.5574
 30
0.0
 40
0.333333
 41
0.333333
  0
VERTEX
  8
0
 10
18.5114
 20
29.6204
 30
0.0
 40
0.333333
 41
0.333333
  0
VERTEX
  8
0
 10
18.3876
 20
29.6956
 30
0.0
 40
0.333333
 41
0.333333
  0
VERTEX
  8
0
 10
18.2722
 20
29.7819
 30
0.0
 40
0.333333
 41
0.333333
  0
VERTEX
  8
0
 10
18.1657
 20
29.8788
 30
0.0
 40
0.333333
 41
0.333333
  0
VERTEX
  8
0
 10
18.0689
 20
29.9853
 30
0.0
 40
0.333333
 41
0.333333
  0
VERTEX
  8
0
 10
17.9825
 20
30.1007
 30
0.0
 40
0.333333
 41
0.333333
  0
VERTEX
  8
0
 10
17.9075
 20
30.2244
 30
0.0
 40
0.333333
 41
0.333333
  0
VERTEX
  8
0
 10
17.8443
 20
30.3556
 30
0.0
 40
0.333333
 41
0.333333
  0
VERTEX
  8
0
 10
17.7939
 20
30.4933
 30
0.0
 40
0.333333
 41
0.333333
  0
VERTEX
  8
0
 10
17.7568
 20
30.6371
 30
0.0
 40
0.333333
 41
0.333333
  0
VERTEX
  8
0
 10
17.7342
 20
30.7861
 30
0.0
 40
0.333333
 41
0.333333
  0
VERTEX
  8
0
 10
17.7264
 20
30.9011
 30
0.0
 40
0.333333
 41
0.333333
  0
VERTEX
  8
0
 10
17.7264
 20
30.9394
 30
0.0
 40
0.333333
 41
0.333333
  0
VERTEX
  8
0
 10
17.7264
 20
30.9778
 30
0.0
 40
0.333333
 41
0.333333
  0
VERTEX
  8
0
 10
17.7342
 20
31.0928
 30
0.0
 40
0.333333
 41
0.333333
  0
VERTEX
  8
0
 10
17.7568
 20
31.2417
 30
0.0
 40
0.333333
 41
0.333333
  0
VERTEX
  8
0
 10
17.7939
 20
31.3854
 30
0.0
 40
0.333333
 41
0.333333
  0
VERTEX
  8
0
 10
17.8443
 20
31.5233
 30
0.0
 40
0.333333
 41
0.333333
  0
VERTEX
  8
0
 10
17.9075
 20
31.6544
 30
0.0
 40
0.333333
 41
0.333333
  0
VERTEX
  8
0
 10
17.9825
 20
31.7781
 30
0.0
 40
0.333333
 41
0.333333
  0
VERTEX
  8
0
 10
18.0689
 20
31.8936
 30
0.0
 40
0.333333
 41
0.333333
  0
VERTEX
  8
0
 10
18.1657
 20
32
 30
0.0
 40
0.333333
 41
0.333333
  0
VERTEX
  8
0
 10
18.2722
 20
32.0969
 30
0.0
 40
0.333333
 41
0.333333
  0
VERTEX
  8
0
 10
18.3876
 20
32.1833
 30
0.0
 40
0.333333
 41
0.333333
  0
VERTEX
  8
0
 10
18.5114
 20
32.2583
 30
0.0
 40
0.333333
 41
0.333333
  0
VERTEX
  8
0
 10
18.6425
 20
32.3215
 30
0.0
 40
0.333333
 41
0.333333
  0
VERTEX
  8
0
 10
18.7803
 20
32.3719
 30
0.0
 40
0.333333
 41
0.333333
  0
VERTEX
  8
0
 10
18.9242
 20
32.409
 30
0.0
 40
0.333333
 41
0.333333
  0
VERTEX
  8
0
 10
19.0731
 20
32.4317
 30
0.0
 40
0.333333
 41
0.333333
  0
VERTEX
  8
0
 10
19.1881
 20
32.4394
 30
0.0
 40
0.333333
 41
0.333333
  0
VERTEX
  8
0
 10
19.2264
 20
32.4394
 30
0.0
 40
0.333333
 41
0.333333
  0
VERTEX
  8
0
 10
19.2647
 20
32.4394
 30
0.0
 40
0.333333
 41
0.333333
  0
VERTEX
  8
0
 10
19.3797
 20
32.4317
 30
0.0
 40
0.333333
 41
0.333333
  0
VERTEX
  8
0
 10
19.5287
 20
32.409
 30
0.0
 40
0.333333
 41
0.333333
  0
VERTEX
  8
0
 10
19.6724
 20
32.3719
 30
0.0
 40
0.333333
 41
0.333333
  0
VERTEX
  8
0
 10
19.8103
 20
32.3215
 30
0.0
 40
0.333333
 41
0.333333
  0
VERTEX
  8
0
 10
19.9414
 20
32.2583
 30
0.0
 40
0.333333
 41
0.333333
  0
VERTEX
  8
0
 10
20.065
 20
32.1833
 30
0.0
 40
0.333333
 41
0.333333
  0
VERTEX
  8
0
 10
20.1806
 20
32.0969
 30
0.0
 40
0.333333
 41
0.333333
  0
VERTEX
  8
0
 10
20.2871
 20
32
 30
0.0
 40
0.333333
 41
0.333333
  0
VERTEX
  8
0
 10
20.3839
 20
31.8936
 30
0.0
 40
0.333333
 41
0.333333
  0
VERTEX
  8
0
 10
20.4703
 20
31.7781
 30
0.0
 40
0.333333
 41
0.333333
  0
VERTEX
  8
0
 10
20.5454
 20
31.6544
 30
0.0
 40
0.333333
 41
0.333333
  0
VERTEX
  8
0
 10
20.6085
 20
31.5233
 30
0.0
 40
0.333333
 41
0.333333
  0
VERTEX
  8
0
 10
20.659
 20
31.3854
 30
0.0
 40
0.333333
 41
0.333333
  0
VERTEX
  8
0
 10
20.696
 20
31.2417
 30
0.0
 40
0.333333
 41
0.333333
  0
VERTEX
  8
0
 10
20.7186
 20
31.0928
 30
0.0
 40
0.333333
 41
0.333333
  0
VERTEX
  8
0
 10
20.7264
 20
30.9778
 30
0.0
 40
0.333333
 41
0.333333
  0
VERTEX
  8
0
 10
20.7264
 20
30.9394
 30
0.0
 40
0.333333
 41
0.333333
  0
SEQEND
 8
0
  0
POLYLINE
  8
0
 62
     0
 66
     1
 10
0
 20
0
 30
0.0
 70
     1
 40
24
 41
24
  0
VERTEX
  8
0
 10
192.176
 20
30.9394
 30
0.0
 40
0.333333
 41
0.333333
  0
VERTEX
  8
0
 10
192.176
 20
30.9011
 30
0.0
 40
0.333333
 41
0.333333
  0
VERTEX
  8
0
 10
192.169
 20
30.7861
 30
0.0
 40
0.333333
 41
0.333333
  0
VERTEX
  8
0
 10
192.146
 20
30.6371
 30
0.0
 40
0.333333
 41
0.333333
  0
VERTEX
  8
0
 10
192.11
 20
30.4933
 30
0.0
 40
0.333333
 41
0.333333
  0
VERTEX
  8
0
 10
192.058
 20
30.3556
 30
0.0
 40
0.333333
 41
0.333333
  0
VERTEX
  8
0
 10
191.996
 20
30.2244
 30
0.0
 40
0.333333
 41
0.333333
  0
VERTEX
  8
0
 10
191.921
 20
30.1007
 30
0.0
 40
0.333333
 41
0.333333
  0
VERTEX
  8
0
 10
191.835
 20
29.9853
 30
0.0
 40
0.333333
 41
0.333333
  0
VERTEX
  8
0
 10
191.737
 20
29.8788
 30
0.0
 40
0.333333
 41
0.333333
  0
VERTEX
  8
0
 10
191.631
 20
29.7819
 30
0.0
 40
0.333333
 41
0.333333
  0
VERTEX
  8
0
 10
191.515
 20
29.6956
 30
0.0
 40
0.333333
 41
0.333333
  0
VERTEX
  8
0
 10
191.392
 20
29.6204
 30
0.0
 40
0.333333
 41
0.333333
  0
VERTEX
  8
0
 10
191.261
 20
29.5574
 30
0.0
 40
0.333333
 41
0.333333
  0
VERTEX
  8
0
 10
191.122
 20
29.5068
 30
0.0
 40
0.333333
 41
0.333333
  0
VERTEX
  8
0
 10
190.979
 20
29.4699
 30
0.0
 40
0.333333
 41
0.333333
  0
VERTEX
  8
0
 10
190.831
 20
29.4472
 30
0.0
 40
0.333333
 41
0.333333
  0
VERTEX
  8
0
 10
190.715
 20
29.4394
 30
0.0
 40
0.333333
 41
0.333333
  0
VERTEX
  8
0
 10
190.676
 20
29.4394
 30
0.0
 40
0.333333
 41
0.333333
  0
VERTEX
  8
0
 10
190.639
 20
29.4394
 30
0.0
 40
0.333333
 41
0.333333
  0
VERTEX
  8
0
 10
190.524
 20
29.4472
 30
0.0
 40
0.333333
 41
0.333333
  0
VERTEX
  8
0
 10
190.375
 20
29.4699
 30
0.0
 40
0.333333
 41
0.333333
  0
VERTEX
  8
0
 10
190.231
 20
29.5068
 30
0.0
 40
0.333333
 41
0.333333
  0
VERTEX
  8
0
 10
190.093
 20
29.5574
 30
0.0
 40
0.333333
 41
0.333333
  0
VERTEX
  8
0
 10
189.961
 20
29.6204
 30
0.0
 40
0.333333
 41
0.333333
  0
VERTEX
  8
0
 10
189.837
 20
29.6956
 30
0.0
 40
0.333333
 41
0.333333
  0
VERTEX
  8
0
 10
189.722
 20
29.7819
 30
0.0
 40
0.333333
 41
0.333333
  0
VERTEX
  8
0
 10
189.617
 20
29.8788
 30
0.0
 40
0.333333
 41
0.333333
  0
VERTEX
  8
0
 10
189.519
 20
29.9853
 30
0.0
 40
0.333333
 41
0.333333
  0
VERTEX
  8
0
 10
189.433
 20
30.1007
 30
0.0
 40
0.333333
 41
0.333333
  0
VERTEX
  8
0
 10
189.358
 20
30.2244
 30
0.0
 40
0.333333
 41
0.333333
  0
VERTEX
  8
0
 10
189.294
 20
30.3556
 30
0.0
 40
0.333333
 41
0.333333
  0
VERTEX
  8
0
 10
189.244
 20
30.4933
 30
0.0
 40
0.333333
 41
0.333333
  0
VERTEX
  8
0
 10
189.207
 20
30.6371
 30
0.0
 40
0.333333
 41
0.333333
  0
VERTEX
  8
0
 10
189.185
 20
30.7861
 30
0.0
 40
0.333333
 41
0.333333
  0
VERTEX
  8
0
 10
189.176
 20
30.9011
 30
0.0
 40
0.333333
 41
0.333333
  0
VERTEX
  8
0
 10
189.176
 20
30.9394
 30
0.0
 40
0.333333
 41
0.333333
  0
VERTEX
  8
0
 10
189.176
 20
30.9778
 30
0.0
 40
0.333333
 41
0.333333
  0
VERTEX
  8
0
 10
189.185
 20
31.0928
 30
0.0
 40
0.333333
 41
0.333333
  0
VERTEX
  8
0
 10
189.207
 20
31.2417
 30
0.0
 40
0.333333
 41
0.333333
  0
VERTEX
  8
0
 10
189.244
 20
31.3854
 30
0.0
 40
0.333333
 41
0.333333
  0
VERTEX
  8
0
 10
189.294
 20
31.5233
 30
0.0
 40
0.333333
 41
0.333333
  0
VERTEX
  8
0
 10
189.358
 20
31.6544
 30
0.0
 40
0.333333
 41
0.333333
  0
VERTEX
  8
0
 10
189.433
 20
31.7781
 30
0.0
 40
0.333333
 41
0.333333
  0
VERTEX
  8
0
 10
189.519
 20
31.8936
 30
0.0
 40
0.333333
 41
0.333333
  0
VERTEX
  8
0
 10
189.617
 20
32
 30
0.0
 40
0.333333
 41
0.333333
  0
VERTEX
  8
0
 10
189.722
 20
32.0969
 30
0.0
 40
0.333333
 41
0.333333
  0
VERTEX
  8
0
 10
189.837
 20
32.1833
 30
0.0
 40
0.333333
 41
0.333333
  0
VERTEX
  8
0
 10
189.961
 20
32.2583
 30
0.0
 40
0.333333
 41
0.333333
  0
VERTEX
  8
0
 10
190.093
 20
32.3215
 30
0.0
 40
0.333333
 41
0.333333
  0
VERTEX
  8
0
 10
190.231
 20
32.3719
 30
0.0
 40
0.333333
 41
0.333333
  0
VERTEX
  8
0
 10
190.375
 20
32.409
 30
0.0
 40
0.333333
 41
0.333333
  0
VERTEX
  8
0
 10
190.524
 20
32.4317
 30
0.0
 40
0.333333
 41
0.333333
  0
VERTEX
  8
0
 10
190.639
 20
32.4394
 30
0.0
 40
0.333333
 41
0.333333
  0
VERTEX
  8
0
 10
190.676
 20
32.4394
 30
0.0
 40
0.333333
 41
0.333333
  0
VERTEX
  8
0
 10
190.715
 20
32.4394
 30
0.0
 40
0.333333
 41
0.333333
  0
VERTEX
  8
0
 10
190.831
 20
32.4317
 30
0.0
 40
0.333333
 41
0.333333
  0
VERTEX
  8
0
 10
190.979
 20
32.409
 30
0.0
 40
0.333333
 41
0.333333
  0
VERTEX
  8
0
 10
191.122
 20
32.3719
 30
0.0
 40
0.333333
 41
0.333333
  0
VERTEX
  8
0
 10
191.261
 20
32.3215
 30
0.0
 40
0.333333
 41
0.333333
  0
VERTEX
  8
0
 10
191.392
 20
32.2583
 30
0.0
 40
0.333333
 41
0.333333
  0
VERTEX
  8
0
 10
191.515
 20
32.1833
 30
0.0
 40
0.333333
 41
0.333333
  0
VERTEX
  8
0
 10
191.631
 20
32.0969
 30
0.0
 40
0.333333
 41
0.333333
  0
VERTEX
  8
0
 10
191.737
 20
32
 30
0.0
 40
0.333333
 41
0.333333
  0
VERTEX
  8
0
 10
191.835
 20
31.8936
 30
0.0
 40
0.333333
 41
0.333333
  0
VERTEX
  8
0
 10
191.921
 20
31.7781
 30
0.0
 40
0.333333
 41
0.333333
  0
VERTEX
  8
0
 10
191.996
 20
31.6544
 30
0.0
 40
0.333333
 41
0.333333
  0
VERTEX
  8
0
 10
192.058
 20
31.5233
 30
0.0
 40
0.333333
 41
0.333333
  0
VERTEX
  8
0
 10
192.11
 20
31.3854
 30
0.0
 40
0.333333
 41
0.333333
  0
VERTEX
  8
0
 10
192.146
 20
31.2417
 30
0.0
 40
0.333333
 41
0.333333
  0
VERTEX
  8
0
 10
192.169
 20
31.0928
 30
0.0
 40
0.333333
 41
0.333333
  0
VERTEX
  8
0
 10
192.176
 20
30.9778
 30
0.0
 40
0.333333
 41
0.333333
  0
VERTEX
  8
0
 10
192.176
 20
30.9394
 30
0.0
 40
0.333333
 41
0.333333
  0
SEQEND
 8
0
  0
POLYLINE
  8
0
 62
     0
 66
     1
 10
0
 20
0
 30
0.0
 70
     1
 40
24
 41
24
  0
VERTEX
  8
0
 10
192.176
 20
15.1893
 30
0.0
 40
0.333333
 41
0.333333
  0
VERTEX
  8
0
 10
192.176
 20
15.1511
 30
0.0
 40
0.333333
 41
0.333333
  0
VERTEX
  8
0
 10
192.169
 20
15.036
 30
0.0
 40
0.333333
 41
0.333333
  0
VERTEX
  8
0
 10
192.146
 20
14.8871
 30
0.0
 40
0.333333
 41
0.333333
  0
VERTEX
  8
0
 10
192.11
 20
14.7433
 30
0.0
 40
0.333333
 41
0.333333
  0
VERTEX
  8
0
 10
192.058
 20
14.6056
 30
0.0
 40
0.333333
 41
0.333333
  0
VERTEX
  8
0
 10
191.996
 20
14.4744
 30
0.0
 40
0.333333
 41
0.333333
  0
VERTEX
  8
0
 10
191.921
 20
14.3507
 30
0.0
 40
0.333333
 41
0.333333
  0
VERTEX
  8
0
 10
191.835
 20
14.2353
 30
0.0
 40
0.333333
 41
0.333333
  0
VERTEX
  8
0
 10
191.737
 20
14.1288
 30
0.0
 40
0.333333
 41
0.333333
  0
VERTEX
  8
0
 10
191.631
 20
14.0319
 30
0.0
 40
0.333333
 41
0.333333
  0
VERTEX
  8
0
 10
191.515
 20
13.9456
 30
0.0
 40
0.333333
 41
0.333333
  0
VERTEX
  8
0
 10
191.392
 20
13.8704
 30
0.0
 40
0.333333
 41
0.333333
  0
VERTEX
  8
0
 10
191.261
 20
13.8072
 30
0.0
 40
0.333333
 41
0.333333
  0
VERTEX
  8
0
 10
191.122
 20
13.7568
 30
0.0
 40
0.333333
 41
0.333333
  0
VERTEX
  8
0
 10
190.979
 20
13.7198
 30
0.0
 40
0.333333
 41
0.333333
  0
VERTEX
  8
0
 10
190.831
 20
13.6971
 30
0.0
 40
0.333333
 41
0.333333
  0
VERTEX
  8
0
 10
190.715
 20
13.6893
 30
0.0
 40
0.333333
 41
0.333333
  0
VERTEX
  8
0
 10
190.676
 20
13.6893
 30
0.0
 40
0.333333
 41
0.333333
  0
VERTEX
  8
0
 10
190.639
 20
13.6893
 30
0.0
 40
0.333333
 41
0.333333
  0
VERTEX
  8
0
 10
190.524
 20
13.6971
 30
0.0
 40
0.333333
 41
0.333333
  0
VERTEX
  8
0
 10
190.375
 20
13.7198
 30
0.0
 40
0.333333
 41
0.333333
  0
VERTEX
  8
0
 10
190.231
 20
13.7568
 30
0.0
 40
0.333333
 41
0.333333
  0
VERTEX
  8
0
 10
190.093
 20
13.8072
 30
0.0
 40
0.333333
 41
0.333333
  0
VERTEX
  8
0
 10
189.961
 20
13.8704
 30
0.0
 40
0.333333
 41
0.333333
  0
VERTEX
  8
0
 10
189.837
 20
13.9456
 30
0.0
 40
0.333333
 41
0.333333
  0
VERTEX
  8
0
 10
189.722
 20
14.0319
 30
0.0
 40
0.333333
 41
0.333333
  0
VERTEX
  8
0
 10
189.617
 20
14.1288
 30
0.0
 40
0.333333
 41
0.333333
  0
VERTEX
  8
0
 10
189.519
 20
14.2353
 30
0.0
 40
0.333333
 41
0.333333
  0
VERTEX
  8
0
 10
189.433
 20
14.3507
 30
0.0
 40
0.333333
 41
0.333333
  0
VERTEX
  8
0
 10
189.358
 20
14.4744
 30
0.0
 40
0.333333
 41
0.333333
  0
VERTEX
  8
0
 10
189.294
 20
14.6056
 30
0.0
 40
0.333333
 41
0.333333
  0
VERTEX
  8
0
 10
189.244
 20
14.7433
 30
0.0
 40
0.333333
 41
0.333333
  0
VERTEX
  8
0
 10
189.207
 20
14.8871
 30
0.0
 40
0.333333
 41
0.333333
  0
VERTEX
  8
0
 10
189.185
 20
15.036
 30
0.0
 40
0.333333
 41
0.333333
  0
VERTEX
  8
0
 10
189.176
 20
15.1511
 30
0.0
 40
0.333333
 41
0.333333
  0
VERTEX
  8
0
 10
189.176
 20
15.1893
 30
0.0
 40
0.333333
 41
0.333333
  0
VERTEX
  8
0
 10
189.176
 20
15.2276
 30
0.0
 40
0.333333
 41
0.333333
  0
VERTEX
  8
0
 10
189.185
 20
15.3428
 30
0.0
 40
0.333333
 41
0.333333
  0
VERTEX
  8
0
 10
189.207
 20
15.4917
 30
0.0
 40
0.333333
 41
0.333333
  0
VERTEX
  8
0
 10
189.244
 20
15.6354
 30
0.0
 40
0.333333
 41
0.333333
  0
VERTEX
  8
0
 10
189.294
 20
15.7733
 30
0.0
 40
0.333333
 41
0.333333
  0
VERTEX
  8
0
 10
189.358
 20
15.9043
 30
0.0
 40
0.333333
 41
0.333333
  0
VERTEX
  8
0
 10
189.433
 20
16.0281
 30
0.0
 40
0.333333
 41
0.333333
  0
VERTEX
  8
0
 10
189.519
 20
16.1435
 30
0.0
 40
0.333333
 41
0.333333
  0
VERTEX
  8
0
 10
189.617
 20
16.25
 30
0.0
 40
0.333333
 41
0.333333
  0
VERTEX
  8
0
 10
189.722
 20
16.3468
 30
0.0
 40
0.333333
 41
0.333333
  0
VERTEX
  8
0
 10
189.837
 20
16.4332
 30
0.0
 40
0.333333
 41
0.333333
  0
VERTEX
  8
0
 10
189.961
 20
16.5083
 30
0.0
 40
0.333333
 41
0.333333
  0
VERTEX
  8
0
 10
190.093
 20
16.5715
 30
0.0
 40
0.333333
 41
0.333333
  0
VERTEX
  8
0
 10
190.231
 20
16.6219
 30
0.0
 40
0.333333
 41
0.333333
  0
VERTEX
  8
0
 10
190.375
 20
16.6589
 30
0.0
 40
0.333333
 41
0.333333
  0
VERTEX
  8
0
 10
190.524
 20
16.6817
 30
0.0
 40
0.333333
 41
0.333333
  0
VERTEX
  8
0
 10
190.639
 20
16.6893
 30
0.0
 40
0.333333
 41
0.333333
  0
VERTEX
  8
0
 10
190.676
 20
16.6893
 30
0.0
 40
0.333333
 41
0.333333
  0
VERTEX
  8
0
 10
190.715
 20
16.6893
 30
0.0
 40
0.333333
 41
0.333333
  0
VERTEX
  8
0
 10
190.831
 20
16.6817
 30
0.0
 40
0.333333
 41
0.333333
  0
VERTEX
  8
0
 10
190.979
 20
16.6589
 30
0.0
 40
0.333333
 41
0.333333
  0
VERTEX
  8
0
 10
191.122
 20
16.6219
 30
0.0
 40
0.333333
 41
0.333333
  0
VERTEX
  8
0
 10
191.261
 20
16.5715
 30
0.0
 40
0.333333
 41
0.333333
  0
VERTEX
  8
0
 10
191.392
 20
16.5083
 30
0.0
 40
0.333333
 41
0.333333
  0
VERTEX
  8
0
 10
191.515
 20
16.4332
 30
0.0
 40
0.333333
 41
0.333333
  0
VERTEX
  8
0
 10
191.631
 20
16.3468
 30
0.0
 40
0.333333
 41
0.333333
  0
VERTEX
  8
0
 10
191.737
 20
16.25
 30
0.0
 40
0.333333
 41
0.333333
  0
VERTEX
  8
0
 10
191.835
 20
16.1435
 30
0.0
 40
0.333333
 41
0.333333
  0
VERTEX
  8
0
 10
191.921
 20
16.0281
 30
0.0
 40
0.333333
 41
0.333333
  0
VERTEX
  8
0
 10
191.996
 20
15.9043
 30
0.0
 40
0.333333
 41
0.333333
  0
VERTEX
  8
0
 10
192.058
 20
15.7733
 30
0.0
 40
0.333333
 41
0.333333
  0
VERTEX
  8
0
 10
192.11
 20
15.6354
 30
0.0
 40
0.333333
 41
0.333333
  0
VERTEX
  8
0
 10
192.146
 20
15.4917
 30
0.0
 40
0.333333
 41
0.333333
  0
VERTEX
  8
0
 10
192.169
 20
15.3428
 30
0.0
 40
0.333333
 41
0.333333
  0
VERTEX
  8
0
 10
192.176
 20
15.2276
 30
0.0
 40
0.333333
 41
0.333333
  0
VERTEX
  8
0
 10
192.176
 20
15.1893
 30
0.0
 40
0.333333
 41
0.333333
  0
SEQEND
 8
0
  0
POLYLINE
  8
0
 62
     0
 66
     1
 10
0
 20
0
 30
0.0
 70
     1
 40
24
 41
24
  0
VERTEX
  8
0
 10
201.765
 20
292.29
 30
0.0
 40
0.333333
 41
0.333333
  0
VERTEX
  8
0
 10
201.765
 20
292.251
 30
0.0
 40
0.333333
 41
0.333333
  0
VERTEX
  8
0
 10
201.757
 20
292.136
 30
0.0
 40
0.333333
 41
0.333333
  0
VERTEX
  8
0
 10
201.735
 20
291.987
 30
0.0
 40
0.333333
 41
0.333333
  0
VERTEX
  8
0
 10
201.697
 20
291.844
 30
0.0
 40
0.333333
 41
0.333333
  0
VERTEX
  8
0
 10
201.647
 20
291.706
 30
0.0
 40
0.333333
 41
0.333333
  0
VERTEX
  8
0
 10
201.585
 20
291.575
 30
0.0
 40
0.333333
 41
0.333333
  0
VERTEX
  8
0
 10
201.508
 20
291.451
 30
0.0
 40
0.333333
 41
0.333333
  0
VERTEX
  8
0
 10
201.422
 20
291.336
 30
0.0
 40
0.333333
 41
0.333333
  0
VERTEX
  8
0
 10
201.326
 20
291.229
 30
0.0
 40
0.333333
 41
0.333333
  0
VERTEX
  8
0
 10
201.219
 20
291.132
 30
0.0
 40
0.333333
 41
0.333333
  0
VERTEX
  8
0
 10
201.104
 20
291.046
 30
0.0
 40
0.333333
 41
0.333333
  0
VERTEX
  8
0
 10
200.981
 20
290.971
 30
0.0
 40
0.333333
 41
0.333333
  0
VERTEX
  8
0
 10
200.849
 20
290.908
 30
0.0
 40
0.333333
 41
0.333333
  0
VERTEX
  8
0
 10
200.711
 20
290.857
 30
0.0
 40
0.333333
 41
0.333333
  0
VERTEX
  8
0
 10
200.568
 20
290.821
 30
0.0
 40
0.333333
 41
0.333333
  0
VERTEX
  8
0
 10
200.418
 20
290.797
 30
0.0
 40
0.333333
 41
0.333333
  0
VERTEX
  8
0
 10
200.304
 20
290.79
 30
0.0
 40
0.333333
 41
0.333333
  0
VERTEX
  8
0
 10
200.265
 20
290.79
 30
0.0
 40
0.333333
 41
0.333333
  0
VERTEX
  8
0
 10
200.226
 20
290.79
 30
0.0
 40
0.333333
 41
0.333333
  0
VERTEX
  8
0
 10
200.112
 20
290.797
 30
0.0
 40
0.333333
 41
0.333333
  0
VERTEX
  8
0
 10
199.962
 20
290.821
 30
0.0
 40
0.333333
 41
0.333333
  0
VERTEX
  8
0
 10
199.819
 20
290.857
 30
0.0
 40
0.333333
 41
0.333333
  0
VERTEX
  8
0
 10
199.682
 20
290.908
 30
0.0
 40
0.333333
 41
0.333333
  0
VERTEX
  8
0
 10
199.55
 20
290.971
 30
0.0
 40
0.333333
 41
0.333333
  0
VERTEX
  8
0
 10
199.426
 20
291.046
 30
0.0
 40
0.333333
 41
0.333333
  0
VERTEX
  8
0
 10
199.311
 20
291.132
 30
0.0
 40
0.333333
 41
0.333333
  0
VERTEX
  8
0
 10
199.204
 20
291.229
 30
0.0
 40
0.333333
 41
0.333333
  0
VERTEX
  8
0
 10
199.108
 20
291.336
 30
0.0
 40
0.333333
 41
0.333333
  0
VERTEX
  8
0
 10
199.021
 20
291.451
 30
0.0
 40
0.333333
 41
0.333333
  0
VERTEX
  8
0
 10
198.946
 20
291.575
 30
0.0
 40
0.333333
 41
0.333333
  0
VERTEX
  8
0
 10
198.883
 20
291.706
 30
0.0
 40
0.333333
 41
0.333333
  0
VERTEX
  8
0
 10
198.832
 20
291.844
 30
0.0
 40
0.333333
 41
0.333333
  0
VERTEX
  8
0
 10
198.796
 20
291.987
 30
0.0
 40
0.333333
 41
0.333333
  0
VERTEX
  8
0
 10
198.772
 20
292.136
 30
0.0
 40
0.333333
 41
0.333333
  0
VERTEX
  8
0
 10
198.765
 20
292.251
 30
0.0
 40
0.333333
 41
0.333333
  0
VERTEX
  8
0
 10
198.765
 20
292.29
 30
0.0
 40
0.333333
 41
0.333333
  0
VERTEX
  8
0
 10
198.765
 20
292.328
 30
0.0
 40
0.333333
 41
0.333333
  0
VERTEX
  8
0
 10
198.772
 20
292.443
 30
0.0
 40
0.333333
 41
0.333333
  0
VERTEX
  8
0
 10
198.796
 20
292.592
 30
0.0
 40
0.333333
 41
0.333333
  0
VERTEX
  8
0
 10
198.832
 20
292.736
 30
0.0
 40
0.333333
 41
0.333333
  0
VERTEX
  8
0
 10
198.883
 20
292.874
 30
0.0
 40
0.333333
 41
0.333333
  0
VERTEX
  8
0
 10
198.946
 20
293.004
 30
0.0
 40
0.333333
 41
0.333333
  0
VERTEX
  8
0
 10
199.021
 20
293.129
 30
0.0
 40
0.333333
 41
0.333333
  0
VERTEX
  8
0
 10
199.108
 20
293.244
 30
0.0
 40
0.333333
 41
0.333333
  0
VERTEX
  8
0
 10
199.204
 20
293.35
 30
0.0
 40
0.333333
 41
0.333333
  0
VERTEX
  8
0
 10
199.311
 20
293.447
 30
0.0
 40
0.333333
 41
0.333333
  0
VERTEX
  8
0
 10
199.426
 20
293.533
 30
0.0
 40
0.333333
 41
0.333333
  0
VERTEX
  8
0
 10
199.55
 20
293.608
 30
0.0
 40
0.333333
 41
0.333333
  0
VERTEX
  8
0
 10
199.682
 20
293.672
 30
0.0
 40
0.333333
 41
0.333333
  0
VERTEX
  8
0
 10
199.819
 20
293.722
 30
0.0
 40
0.333333
 41
0.333333
  0
VERTEX
  8
0
 10
199.962
 20
293.76
 30
0.0
 40
0.333333
 41
0.333333
  0
VERTEX
  8
0
 10
200.112
 20
293.782
 30
0.0
 40
0.333333
 41
0.333333
  0
VERTEX
  8
0
 10
200.226
 20
293.79
 30
0.0
 40
0.333333
 41
0.333333
  0
VERTEX
  8
0
 10
200.265
 20
293.79
 30
0.0
 40
0.333333
 41
0.333333
  0
VERTEX
  8
0
 10
200.304
 20
293.79
 30
0.0
 40
0.333333
 41
0.333333
  0
VERTEX
  8
0
 10
200.418
 20
293.782
 30
0.0
 40
0.333333
 41
0.333333
  0
VERTEX
  8
0
 10
200.568
 20
293.76
 30
0.0
 40
0.333333
 41
0.333333
  0
VERTEX
  8
0
 10
200.711
 20
293.722
 30
0.0
 40
0.333333
 41
0.333333
  0
VERTEX
  8
0
 10
200.849
 20
293.672
 30
0.0
 40
0.333333
 41
0.333333
  0
VERTEX
  8
0
 10
200.981
 20
293.608
 30
0.0
 40
0.333333
 41
0.333333
  0
VERTEX
  8
0
 10
201.104
 20
293.533
 30
0.0
 40
0.333333
 41
0.333333
  0
VERTEX
  8
0
 10
201.219
 20
293.447
 30
0.0
 40
0.333333
 41
0.333333
  0
VERTEX
  8
0
 10
201.326
 20
293.35
 30
0.0
 40
0.333333
 41
0.333333
  0
VERTEX
  8
0
 10
201.422
 20
293.244
 30
0.0
 40
0.333333
 41
0.333333
  0
VERTEX
  8
0
 10
201.508
 20
293.129
 30
0.0
 40
0.333333
 41
0.333333
  0
VERTEX
  8
0
 10
201.585
 20
293.004
 30
0.0
 40
0.333333
 41
0.333333
  0
VERTEX
  8
0
 10
201.647
 20
292.874
 30
0.0
 40
0.333333
 41
0.333333
  0
VERTEX
  8
0
 10
201.697
 20
292.736
 30
0.0
 40
0.333333
 41
0.333333
  0
VERTEX
  8
0
 10
201.735
 20
292.592
 30
0.0
 40
0.333333
 41
0.333333
  0
VERTEX
  8
0
 10
201.757
 20
292.443
 30
0.0
 40
0.333333
 41
0.333333
  0
VERTEX
  8
0
 10
201.765
 20
292.328
 30
0.0
 40
0.333333
 41
0.333333
  0
VERTEX
  8
0
 10
201.765
 20
292.29
 30
0.0
 40
0.333333
 41
0.333333
  0
SEQEND
 8
0
  0
POLYLINE
  8
0
 62
     0
 66
     1
 10
0
 20
0
 30
0.0
 70
     1
 40
25.4
 41
25.4
  0
VERTEX
  8
0
 10
41.4514
 20
616.14
 30
0.0
 40
0.352778
 41
0.352778
  0
VERTEX
  8
0
 10
41.4514
 20
622.49
 30
0.0
 40
0.352778
 41
0.352778
  0
VERTEX
  8
0
 10
16.0514
 20
622.49
 30
0.0
 40
0.352778
 41
0.352778
  0
VERTEX
  8
0
 10
16.0514
 20
616.14
 30
0.0
 40
0.352778
 41
0.352778
  0
VERTEX
  8
0
 10
0.176378
 20
616.14
 30
0.0
 40
0.352778
 41
0.352778
  0
VERTEX
  8
0
 10
0.176378
 20
603.44
 30
0.0
 40
0.352778
 41
0.352778
  0
VERTEX
  8
0
 10
3.3514
 20
603.44
 30
0.0
 40
0.352778
 41
0.352778
  0
VERTEX
  8
0
 10
3.3514
 20
590.74
 30
0.0
 40
0.352778
 41
0.352778
  0
VERTEX
  8
0
 10
0.176378
 20
590.74
 30
0.0
 40
0.352778
 41
0.352778
  0
VERTEX
  8
0
 10
0.176378
 20
578.04
 30
0.0
 40
0.352778
 41
0.352778
  0
VERTEX
  8
0
 10
3.3514
 20
578.04
 30
0.0
 40
0.352778
 41
0.352778
  0
VERTEX
  8
0
 10
3.3514
 20
565.34
 30
0.0
 40
0.352778
 41
0.352778
  0
VERTEX
  8
0
 10
0.176378
 20
565.34
 30
0.0
 40
0.352778
 41
0.352778
  0
VERTEX
  8
0
 10
0.176378
 20
552.64
 30
0.0
 40
0.352778
 41
0.352778
  0
VERTEX
  8
0
 10
3.3514
 20
552.64
 30
0.0
 40
0.352778
 41
0.352778
  0
VERTEX
  8
0
 10
3.3514
 20
539.94
 30
0.0
 40
0.352778
 41
0.352778
  0
VERTEX
  8
0
 10
0.176378
 20
539.94
 30
0.0
 40
0.352778
 41
0.352778
  0
VERTEX
  8
0
 10
0.176378
 20
527.24
 30
0.0
 40
0.352778
 41
0.352778
  0
VERTEX
  8
0
 10
3.3514
 20
527.24
 30
0.0
 40
0.352778
 41
0.352778
  0
VERTEX
  8
0
 10
3.3514
 20
514.54
 30
0.0
 40
0.352778
 41
0.352778
  0
VERTEX
  8
0
 10
0.176378
 20
514.54
 30
0.0
 40
0.352778
 41
0.352778
  0
VERTEX
  8
0
 10
0.176378
 20
501.84
 30
0.0
 40
0.352778
 41
0.352778
  0
VERTEX
  8
0
 10
3.3514
 20
501.84
 30
0.0
 40
0.352778
 41
0.352778
  0
VERTEX
  8
0
 10
3.3514
 20
489.14
 30
0.0
 40
0.352778
 41
0.352778
  0
VERTEX
  8
0
 10
0.176378
 20
489.14
 30
0.0
 40
0.352778
 41
0.352778
  0
VERTEX
  8
0
 10
0.176378
 20
476.44
 30
0.0
 40
0.352778
 41
0.352778
  0
VERTEX
  8
0
 10
3.3514
 20
476.44
 30
0.0
 40
0.352778
 41
0.352778
  0
VERTEX
  8
0
 10
3.3514
 20
463.74
 30
0.0
 40
0.352778
 41
0.352778
  0
VERTEX
  8
0
 10
0.176378
 20
463.74
 30
0.0
 40
0.352778
 41
0.352778
  0
VERTEX
  8
0
 10
0.176378
 20
451.04
 30
0.0
 40
0.352778
 41
0.352778
  0
VERTEX
  8
0
 10
3.3514
 20
451.04
 30
0.0
 40
0.352778
 41
0.352778
  0
VERTEX
  8
0
 10
3.3514
 20
438.34
 30
0.0
 40
0.352778
 41
0.352778
  0
VERTEX
  8
0
 10
0.176378
 20
438.34
 30
0.0
 40
0.352778
 41
0.352778
  0
VERTEX
  8
0
 10
0.176378
 20
425.64
 30
0.0
 40
0.352778
 41
0.352778
  0
VERTEX
  8
0
 10
3.3514
 20
425.64
 30
0.0
 40
0.352778
 41
0.352778
  0
VERTEX
  8
0
 10
3.3514
 20
412.94
 30
0.0
 40
0.352778
 41
0.352778
  0
VERTEX
  8
0
 10
0.176378
 20
412.94
 30
0.0
 40
0.352778
 41
0.352778
  0
VERTEX
  8
0
 10
0.176378
 20
400.24
 30
0.0
 40
0.352778
 41
0.352778
  0
VERTEX
  8
0
 10
3.3514
 20
400.24
 30
0.0
 40
0.352778
 41
0.352778
  0
VERTEX
  8
0
 10
3.3514
 20
387.54
 30
0.0
 40
0.352778
 41
0.352778
  0
VERTEX
  8
0
 10
0.176378
 20
387.54
 30
0.0
 40
0.352778
 41
0.352778
  0
VERTEX
  8
0
 10
0.176378
 20
374.84
 30
0.0
 40
0.352778
 41
0.352778
  0
VERTEX
  8
0
 10
3.3514
 20
374.84
 30
0.0
 40
0.352778
 41
0.352778
  0
VERTEX
  8
0
 10
3.3514
 20
362.14
 30
0.0
 40
0.352778
 41
0.352778
  0
VERTEX
  8
0
 10
0.176378
 20
362.14
 30
0.0
 40
0.352778
 41
0.352778
  0
VERTEX
  8
0
 10
0.176378
 20
349.44
 30
0.0
 40
0.352778
 41
0.352778
  0
VERTEX
  8
0
 10
3.3514
 20
349.44
 30
0.0
 40
0.352778
 41
0.352778
  0
VERTEX
  8
0
 10
3.3514
 20
336.74
 30
0.0
 40
0.352778
 41
0.352778
  0
VERTEX
  8
0
 10
0.176378
 20
336.74
 30
0.0
 40
0.352778
 41
0.352778
  0
VERTEX
  8
0
 10
0.176378
 20
324.04
 30
0.0
 40
0.352778
 41
0.352778
  0
VERTEX
  8
0
 10
3.3514
 20
324.04
 30
0.0
 40
0.352778
 41
0.352778
  0
VERTEX
  8
0
 10
3.3514
 20
311.34
 30
0.0
 40
0.352778
 41
0.352778
  0
VERTEX
  8
0
 10
206.551
 20
311.34
 30
0.0
 40
0.352778
 41
0.352778
  0
VERTEX
  8
0
 10
206.551
 20
324.04
 30
0.0
 40
0.352778
 41
0.352778
  0
VERTEX
  8
0
 10
209.726
 20
324.04
 30
0.0
 40
0.352778
 41
0.352778
  0
VERTEX
  8
0
 10
209.726
 20
336.74
 30
0.0
 40
0.352778
 41
0.352778
  0
VERTEX
  8
0
 10
206.551
 20
336.74
 30
0.0
 40
0.352778
 41
0.352778
  0
VERTEX
  8
0
 10
206.551
 20
349.44
 30
0.0
 40
0.352778
 41
0.352778
  0
VERTEX
  8
0
 10
209.726
 20
349.44
 30
0.0
 40
0.352778
 41
0.352778
  0
VERTEX
  8
0
 10
209.726
 20
362.14
 30
0.0
 40
0.352778
 41
0.352778
  0
VERTEX
  8
0
 10
206.551
 20
362.14
 30
0.0
 40
0.352778
 41
0.352778
  0
VERTEX
  8
0
 10
206.551
 20
374.84
 30
0.0
 40
0.352778
 41
0.352778
  0
VERTEX
  8
0
 10
209.726
 20
374.84
 30
0.0
 40
0.352778
 41
0.352778
  0
VERTEX
  8
0
 10
209.726
 20
387.54
 30
0.0
 40
0.352778
 41
0.352778
  0
VERTEX
  8
0
 10
206.551
 20
387.54
 30
0.0
 40
0.352778
 41
0.352778
  0
VERTEX
  8
0
 10
206.551
 20
400.24
 30
0.0
 40
0.352778
 41
0.352778
  0
VERTEX
  8
0
 10
209.726
 20
400.24
 30
0.0
 40
0.352778
 41
0.352778
  0
VERTEX
  8
0
 10
209.726
 20
412.94
 30
0.0
 40
0.352778
 41
0.352778
  0
VERTEX
  8
0
 10
206.551
 20
412.94
 30
0.0
 40
0.352778
 41
0.352778
  0
VERTEX
  8
0
 10
206.551
 20
425.64
 30
0.0
 40
0.352778
 41
0.352778
  0
VERTEX
  8
0
 10
209.726
 20
425.64
 30
0.0
 40
0.352778
 41
0.352778
  0
VERTEX
  8
0
 10
209.726
 20
438.34
 30
0.0
 40
0.352778
 41
0.352778
  0
VERTEX
  8
0
 10
206.551
 20
438.34
 30
0.0
 40
0.352778
 41
0.352778
  0
VERTEX
  8
0
 10
206.551
 20
451.04
 30
0.0
 40
0.352778
 41
0.352778
  0
VERTEX
  8
0
 10
209.726
 20
451.04
 30
0.0
 40
0.352778
 41
0.352778
  0
VERTEX
  8
0
 10
209.726
 20
463.74
 30
0.0
 40
0.352778
 41
0.352778
  0
VERTEX
  8
0
 10
206.551
 20
463.74
 30
0.0
 40
0.352778
 41
0.352778
  0
VERTEX
  8
0
 10
206.551
 20
476.44
 30
0.0
 40
0.352778
 41
0.352778
  0
VERTEX
  8
0
 10
209.726
 20
476.44
 30
0.0
 40
0.352778
 41
0.352778
  0
VERTEX
  8
0
 10
209.726
 20
489.14
 30
0.0
 40
0.352778
 41
0.352778
  0
VERTEX
  8
0
 10
206.551
 20
489.14
 30
0.0
 40
0.352778
 41
0.352778
  0
VERTEX
  8
0
 10
206.551
 20
501.84
 30
0.0
 40
0.352778
 41
0.352778
  0
VERTEX
  8
0
 10
209.726
 20
501.84
 30
0.0
 40
0.352778
 41
0.352778
  0
VERTEX
  8
0
 10
209.726
 20
514.54
 30
0.0
 40
0.352778
 41
0.352778
  0
VERTEX
  8
0
 10
206.551
 20
514.54
 30
0.0
 40
0.352778
 41
0.352778
  0
VERTEX
  8
0
 10
206.551
 20
527.24
 30
0.0
 40
0.352778
 41
0.352778
  0
VERTEX
  8
0
 10
209.726
 20
527.24
 30
0.0
 40
0.352778
 41
0.352778
  0
VERTEX
  8
0
 10
209.726
 20
539.94
 30
0.0
 40
0.352778
 41
0.352778
  0
VERTEX
  8
0
 10
206.551
 20
539.94
 30
0.0
 40
0.352778
 41
0.352778
  0
VERTEX
  8
0
 10
206.551
 20
552.64
 30
0.0
 40
0.352778
 41
0.352778
  0
VERTEX
  8
0
 10
209.726
 20
552.64
 30
0.0
 40
0.352778
 41
0.352778
  0
VERTEX
  8
0
 10
209.726
 20
565.34
 30
0.0
 40
0.352778
 41
0.352778
  0
VERTEX
  8
0
 10
206.551
 20
565.34
 30
0.0
 40
0.352778
 41
0.352778
  0
VERTEX
  8
0
 10
206.551
 20
578.04
 30
0.0
 40
0.352778
 41
0.352778
  0
VERTEX
  8
0
 10
209.726
 20
578.04
 30
0.0
 40
0.352778
 41
0.352778
  0
VERTEX
  8
0
 10
209.726
 20
590.74
 30
0.0
 40
0.352778
 41
0.352778
  0
VERTEX
  8
0
 10
206.551
 20
590.74
 30
0.0
 40
0.352778
 41
0.352778
  0
VERTEX
  8
0
 10
206.551
 20
603.44
 30
0.0
 40
0.352778
 41
0.352778
  0
VERTEX
  8
0
 10
209.726
 20
603.44
 30
0.0
 40
0.352778
 41
0.352778
  0
VERTEX
  8
0
 10
209.726
 20
616.14
 30
0.0
 40
0.352778
 41
0.352778
  0
VERTEX
  8
0
 10
193.851
 20
616.14
 30
0.0
 40
0.352778
 41
0.352778
  0
VERTEX
  8
0
 10
193.851
 20
622.49
 30
0.0
 40
0.352778
 41
0.352778
  0
VERTEX
  8
0
 10
168.451
 20
622.49
 30
0.0
 40
0.352778
 41
0.352778
  0
VERTEX
  8
0
 10
168.451
 20
616.14
 30
0.0
 40
0.352778
 41
0.352778
  0
VERTEX
  8
0
 10
143.051
 20
616.14
 30
0.0
 40
0.352778
 41
0.352778
  0
VERTEX
  8
0
 10
143.051
 20
622.49
 30
0.0
 40
0.352778
 41
0.352778
  0
VERTEX
  8
0
 10
117.652
 20
622.49
 30
0.0
 40
0.352778
 41
0.352778
  0
VERTEX
  8
0
 10
117.652
 20
616.14
 30
0.0
 40
0.352778
 41
0.352778
  0
VERTEX
  8
0
 10
92.2515
 20
616.14
 30
0.0
 40
0.352778
 41
0.352778
  0
VERTEX
  8
0
 10
92.2515
 20
622.49
 30
0.0
 40
0.352778
 41
0.352778
  0
VERTEX
  8
0
 10
66.8515
 20
622.49
 30
0.0
 40
0.352778
 41
0.352778
  0
VERTEX
  8
0
 10
66.8515
 20
616.14
 30
0.0
 40
0.352778
 41
0.352778
  0
VERTEX
  8
0
 10
41.4514
 20
616.14
 30
0.0
 40
0.352778
 41
0.352778
  0
SEQEND
 8
0
  0
POLYLINE
  8
0
 62
     0
 66
     1
 10
0
 20
0
 30
0.0
 40
25.4
 41
25.4
  0
VERTEX
  8
0
 10
66.8515
 20
311.34
 30
0.0
 40
0.352778
 41
0.352778
  0
VERTEX
  8
0
 10
66.8515
 20
304.99
 30
0.0
 40
0.352778
 41
0.352778
  0
VERTEX
  8
0
 10
41.4514
 20
304.99
 30
0.0
 40
0.352778
 41
0.352778
  0
VERTEX
  8
0
 10
41.4514
 20
311.34
 30
0.0
 40
0.352778
 41
0.352778
  0
SEQEND
 8
0
  0
POLYLINE
  8
0
 62
     0
 66
     1
 10
0
 20
0
 30
0.0
 40
25.4
 41
25.4
  0
VERTEX
  8
0
 10
92.2515
 20
311.34
 30
0.0
 40
0.352778
 41
0.352778
  0
VERTEX
  8
0
 10
92.2515
 20
304.99
 30
0.0
 40
0.352778
 41
0.352778
  0
VERTEX
  8
0
 10
117.652
 20
304.99
 30
0.0
 40
0.352778
 41
0.352778
  0
VERTEX
  8
0
 10
117.652
 20
311.34
 30
0.0
 40
0.352778
 41
0.352778
  0
SEQEND
 8
0
  0
POLYLINE
  8
0
 62
     0
 66
     1
 10
0
 20
0
 30
0.0
 40
25.4
 41
25.4
  0
VERTEX
  8
0
 10
143.051
 20
311.34
 30
0.0
 40
0.352778
 41
0.352778
  0
VERTEX
  8
0
 10
143.051
 20
304.99
 30
0.0
 40
0.352778
 41
0.352778
  0
VERTEX
  8
0
 10
168.451
 20
304.99
 30
0.0
 40
0.352778
 41
0.352778
  0
VERTEX
  8
0
 10
168.451
 20
311.34
 30
0.0
 40
0.352778
 41
0.352778
  0
SEQEND
 8
0
  0
POLYLINE
  8
0
 62
     0
 66
     1
 10
0
 20
0
 30
0.0
 40
25.4
 41
25.4
  0
VERTEX
  8
0
 10
193.851
 20
311.34
 30
0.0
 40
0.352778
 41
0.352778
  0
VERTEX
  8
0
 10
193.851
 20
304.99
 30
0.0
 40
0.352778
 41
0.352778
  0
VERTEX
  8
0
 10
209.726
 20
304.99
 30
0.0
 40
0.352778
 41
0.352778
  0
VERTEX
  8
0
 10
209.726
 20
292.29
 30
0.0
 40
0.352778
 41
0.352778
  0
VERTEX
  8
0
 10
206.551
 20
292.29
 30
0.0
 40
0.352778
 41
0.352778
  0
VERTEX
  8
0
 10
206.551
 20
279.59
 30
0.0
 40
0.352778
 41
0.352778
  0
VERTEX
  8
0
 10
209.726
 20
279.59
 30
0.0
 40
0.352778
 41
0.352778
  0
VERTEX
  8
0
 10
209.726
 20
266.89
 30
0.0
 40
0.352778
 41
0.352778
  0
VERTEX
  8
0
 10
206.551
 20
266.89
 30
0.0
 40
0.352778
 41
0.352778
  0
VERTEX
  8
0
 10
206.551
 20
254.19
 30
0.0
 40
0.352778
 41
0.352778
  0
VERTEX
  8
0
 10
209.726
 20
254.19
 30
0.0
 40
0.352778
 41
0.352778
  0
VERTEX
  8
0
 10
209.726
 20
241.49
 30
0.0
 40
0.352778
 41
0.352778
  0
VERTEX
  8
0
 10
206.551
 20
241.49
 30
0.0
 40
0.352778
 41
0.352778
  0
VERTEX
  8
0
 10
206.551
 20
228.79
 30
0.0
 40
0.352778
 41
0.352778
  0
VERTEX
  8
0
 10
209.726
 20
228.79
 30
0.0
 40
0.352778
 41
0.352778
  0
VERTEX
  8
0
 10
209.726
 20
216.09
 30
0.0
 40
0.352778
 41
0.352778
  0
VERTEX
  8
0
 10
206.551
 20
216.09
 30
0.0
 40
0.352778
 41
0.352778
  0
VERTEX
  8
0
 10
206.551
 20
203.39
 30
0.0
 40
0.352778
 41
0.352778
  0
VERTEX
  8
0
 10
209.726
 20
203.39
 30
0.0
 40
0.352778
 41
0.352778
  0
VERTEX
  8
0
 10
209.726
 20
190.69
 30
0.0
 40
0.352778
 41
0.352778
  0
VERTEX
  8
0
 10
206.551
 20
190.69
 30
0.0
 40
0.352778
 41
0.352778
  0
VERTEX
  8
0
 10
206.551
 20
177.99
 30
0.0
 40
0.352778
 41
0.352778
  0
VERTEX
  8
0
 10
209.726
 20
177.99
 30
0.0
 40
0.352778
 41
0.352778
  0
VERTEX
  8
0
 10
209.726
 20
165.29
 30
0.0
 40
0.352778
 41
0.352778
  0
VERTEX
  8
0
 10
206.551
 20
165.29
 30
0.0
 40
0.352778
 41
0.352778
  0
VERTEX
  8
0
 10
206.551
 20
152.589
 30
0.0
 40
0.352778
 41
0.352778
  0
VERTEX
  8
0
 10
209.726
 20
152.589
 30
0.0
 40
0.352778
 41
0.352778
  0
VERTEX
  8
0
 10
209.726
 20
139.889
 30
0.0
 40
0.352778
 41
0.352778
  0
VERTEX
  8
0
 10
206.551
 20
139.889
 30
0.0
 40
0.352778
 41
0.352778
  0
VERTEX
  8
0
 10
206.551
 20
127.189
 30
0.0
 40
0.352778
 41
0.352778
  0
VERTEX
  8
0
 10
209.726
 20
127.189
 30
0.0
 40
0.352778
 41
0.352778
  0
VERTEX
  8
0
 10
209.726
 20
114.49
 30
0.0
 40
0.352778
 41
0.352778
  0
VERTEX
  8
0
 10
206.551
 20
114.49
 30
0.0
 40
0.352778
 41
0.352778
  0
VERTEX
  8
0
 10
206.551
 20
101.789
 30
0.0
 40
0.352778
 41
0.352778
  0
VERTEX
  8
0
 10
209.726
 20
101.789
 30
0.0
 40
0.352778
 41
0.352778
  0
VERTEX
  8
0
 10
209.726
 20
89.0894
 30
0.0
 40
0.352778
 41
0.352778
  0
VERTEX
  8
0
 10
206.551
 20
89.0894
 30
0.0
 40
0.352778
 41
0.352778
  0
VERTEX
  8
0
 10
206.551
 20
76.3894
 30
0.0
 40
0.352778
 41
0.352778
  0
VERTEX
  8
0
 10
209.726
 20
76.3894
 30
0.0
 40
0.352778
 41
0.352778
  0
VERTEX
  8
0
 10
209.726
 20
63.6894
 30
0.0
 40
0.352778
 41
0.352778
  0
VERTEX
  8
0
 10
206.551
 20
63.6894
 30
0.0
 40
0.352778
 41
0.352778
  0
VERTEX
  8
0
 10
206.551
 20
50.9894
 30
0.0
 40
0.352778
 41
0.352778
  0
VERTEX
  8
0
 10
209.726
 20
50.9894
 30
0.0
 40
0.352778
 41
0.352778
  0
VERTEX
  8
0
 10
209.726
 20
38.2894
 30
0.0
 40
0.352778
 41
0.352778
  0
VERTEX
  8
0
 10
206.551
 20
38.2894
 30
0.0
 40
0.352778
 41
0.352778
  0
VERTEX
  8
0
 10
206.551
 20
25.5893
 30
0.0
 40
0.352778
 41
0.352778
  0
VERTEX
  8
0
 10
209.726
 20
25.5893
 30
0.0
 40
0.352778
 41
0.352778
  0
VERTEX
  8
0
 10
209.726
 20
12.8893
 30
0.0
 40
0.352778
 41
0.352778
  0
VERTEX
  8
0
 10
206.551
 20
12.8893
 30
0.0
 40
0.352778
 41
0.352778
  0
VERTEX
  8
0
 10
206.551
 20
0.189344
 30
0.0
 40
0.352778
 41
0.352778
  0
VERTEX
  8
0
 10
3.3514
 20
0.189344
 30
0.0
 40
0.352778
 41
0.352778
  0
VERTEX
  8
0
 10
3.3514
 20
12.8893
 30
0.0
 40
0.352778
 41
0.352778
  0
VERTEX
  8
0
 10
0.176378
 20
12.8893
 30
0.0
 40
0.352778
 41
0.352778
  0
VERTEX
  8
0
 10
0.176378
 20
25.5893
 30
0.0
 40
0.352778
 41
0.352778
  0
VERTEX
  8
0
 10
3.3514
 20
25.5893
 30
0.0
 40
0.352778
 41
0.352778
  0
VERTEX
  8
0
 10
3.3514
 20
38.2894
 30
0.0
 40
0.352778
 41
0.352778
  0
VERTEX
  8
0
 10
0.176378
 20
38.2894
 30
0.0
 40
0.352778
 41
0.352778
  0
VERTEX
  8
0
 10
0.176378
 20
50.9894
 30
0.0
 40
0.352778
 41
0.352778
  0
VERTEX
  8
0
 10
3.3514
 20
50.9894
 30
0.0
 40
0.352778
 41
0.352778
  0
VERTEX
  8
0
 10
3.3514
 20
63.6894
 30
0.0
 40
0.352778
 41
0.352778
  0
VERTEX
  8
0
 10
0.176378
 20
63.6894
 30
0.0
 40
0.352778
 41
0.352778
  0
VERTEX
  8
0
 10
0.176378
 20
76.3894
 30
0.0
 40
0.352778
 41
0.352778
  0
VERTEX
  8
0
 10
3.3514
 20
76.3894
 30
0.0
 40
0.352778
 41
0.352778
  0
VERTEX
  8
0
 10
3.3514
 20
89.0894
 30
0.0
 40
0.352778
 41
0.352778
  0
VERTEX
  8
0
 10
0.176378
 20
89.0894
 30
0.0
 40
0.352778
 41
0.352778
  0
VERTEX
  8
0
 10
0.176378
 20
101.789
 30
0.0
 40
0.352778
 41
0.352778
  0
VERTEX
  8
0
 10
3.3514
 20
101.789
 30
0.0
 40
0.352778
 41
0.352778
  0
VERTEX
  8
0
 10
3.3514
 20
114.49
 30
0.0
 40
0.352778
 41
0.352778
  0
VERTEX
  8
0
 10
0.176378
 20
114.49
 30
0.0
 40
0.352778
 41
0.352778
  0
VERTEX
  8
0
 10
0.176378
 20
127.189
 30
0.0
 40
0.352778
 41
0.352778
  0
VERTEX
  8
0
 10
3.3514
 20
127.189
 30
0.0
 40
0.352778
 41
0.352778
  0
VERTEX
  8
0
 10
3.3514
 20
139.889
 30
0.0
 40
0.352778
 41
0.352778
  0
VERTEX
  8
0
 10
0.176378
 20
139.889
 30
0.0
 40
0.352778
 41
0.352778
  0
VERTEX
  8
0
 10
0.176378
 20
152.589
 30
0.0
 40
0.352778
 41
0.352778
  0
VERTEX
  8
0
 10
3.3514
 20
152.589
 30
0.0
 40
0.352778
 41
0.352778
  0
VERTEX
  8
0
 10
3.3514
 20
165.29
 30
0.0
 40
0.352778
 41
0.352778
  0
VERTEX
  8
0
 10
0.176378
 20
165.29
 30
0.0
 40
0.352778
 41
0.352778
  0
VERTEX
  8
0
 10
0.176378
 20
177.99
 30
0.0
 40
0.352778
 41
0.352778
  0
VERTEX
  8
0
 10
3.3514
 20
177.99
 30
0.0
 40
0.352778
 41
0.352778
  0
VERTEX
  8
0
 10
3.3514
 20
190.69
 30
0.0
 40
0.352778
 41
0.352778
  0
VERTEX
  8
0
 10
0.176378
 20
190.69
 30
0.0
 40
0.352778
 41
0.352778
  0
VERTEX
  8
0
 10
0.176378
 20
203.39
 30
0.0
 40
0.352778
 41
0.352778
  0
VERTEX
  8
0
 10
3.3514
 20
203.39
 30
0.0
 40
0.352778
 41
0.352778
  0
VERTEX
  8
0
 10
3.3514
 20
216.09
 30
0.0
 40
0.352778
 41
0.352778
  0
VERTEX
  8
0
 10
0.176378
 20
216.09
 30
0.0
 40
0.352778
 41
0.352778
  0
VERTEX
  8
0
 10
0.176378
 20
228.79
 30
0.0
 40
0.352778
 41
0.352778
  0
VERTEX
  8
0
 10
3.3514
 20
228.79
 30
0.0
 40
0.352778
 41
0.352778
  0
VERTEX
  8
0
 10
3.3514
 20
241.49
 30
0.0
 40
0.352778
 41
0.352778
  0
VERTEX
  8
0
 10
0.176378
 20
241.49
 30
0.0
 40
0.352778
 41
0.352778
  0
VERTEX
  8
0
 10
0.176378
 20
254.19
 30
0.0
 40
0.352778
 41
0.352778
  0
VERTEX
  8
0
 10
3.3514
 20
254.19
 30
0.0
 40
0.352778
 41
0.352778
  0
VERTEX
  8
0
 10
3.3514
 20
266.89
 30
0.0
 40
0.352778
 41
0.352778
  0
VERTEX
  8
0
 10
0.176378
 20
266.89
 30
0.0
 40
0.352778
 41
0.352778
  0
VERTEX
  8
0
 10
0.176378
 20
279.59
 30
0.0
 40
0.352778
 41
0.352778
  0
VERTEX
  8
0
 10
3.3514
 20
279.59
 30
0.0
 40
0.352778
 41
0.352778
  0
VERTEX
  8
0
 10
3.3514
 20
292.29
 30
0.0
 40
0.352778
 41
0.352778
  0
VERTEX
  8
0
 10
0.176378
 20
292.29
 30
0.0
 40
0.352778
 41
0.352778
  0
VERTEX
  8
0
 10
0.176378
 20
304.99
 30
0.0
 40
0.352778
 41
0.352778
  0
VERTEX
  8
0
 10
16.0514
 20
304.99
 30
0.0
 40
0.352778
 41
0.352778
  0
VERTEX
  8
0
 10
16.0514
 20
311.34
 30
0.0
 40
0.352778
 41
0.352778
  0
SEQEND
 8
0
  0
ENDSEC
  0
EOF
